G75*
%MOIN*%
%OFA0B0*%
%FSLAX24Y24*%
%IPPOS*%
%LPD*%
%AMOC8*
5,1,8,0,0,1.08239X$1,22.5*
%
%ADD10C,0.0040*%
%ADD11C,0.0100*%
%ADD12C,0.0000*%
%ADD13R,0.1750X0.0750*%
%ADD14R,0.0750X0.2000*%
D10*
X008351Y001900D02*
X008601Y001900D01*
X012351Y001900D01*
X010351Y000400D02*
X010351Y003900D01*
X016246Y036291D02*
X016556Y036291D01*
X016401Y036291D02*
X016401Y036498D01*
X016556Y036498D02*
X016246Y036498D01*
X016246Y036613D02*
X016246Y036716D01*
X016246Y036665D02*
X016556Y036665D01*
X016556Y036716D02*
X016556Y036613D01*
X016771Y036613D02*
X016977Y036613D01*
X017081Y036716D01*
X016977Y036820D01*
X016771Y036820D01*
X016771Y036935D02*
X017081Y036935D01*
X016771Y037142D01*
X017081Y037142D01*
X017029Y037258D02*
X016822Y037258D01*
X016771Y037309D01*
X016771Y037413D01*
X016822Y037464D01*
X016926Y037464D01*
X016926Y037361D01*
X017029Y037464D02*
X017081Y037413D01*
X017081Y037309D01*
X017029Y037258D01*
X017081Y037580D02*
X016771Y037580D01*
X016771Y037787D01*
X016771Y037902D02*
X017081Y037902D01*
X017081Y038057D01*
X017029Y038109D01*
X016926Y038109D01*
X016874Y038057D01*
X016874Y037902D01*
X016874Y038006D02*
X016771Y038109D01*
X016667Y038224D02*
X016771Y038328D01*
X016771Y038276D01*
X016822Y038276D01*
X016822Y038328D01*
X016771Y038328D01*
X016556Y038272D02*
X016504Y038324D01*
X016297Y038324D01*
X016246Y038272D01*
X016246Y038169D01*
X016297Y038117D01*
X016504Y038117D01*
X016556Y038169D01*
X016556Y038272D01*
X016556Y038439D02*
X016246Y038439D01*
X016246Y038646D01*
X016246Y038865D02*
X016556Y038865D01*
X016556Y038968D02*
X016556Y038761D01*
X016771Y038761D02*
X016771Y038917D01*
X016822Y038968D01*
X017029Y038968D01*
X017081Y038917D01*
X017081Y038761D01*
X016771Y038761D01*
X016771Y039084D02*
X016977Y039084D01*
X017081Y039187D01*
X016977Y039291D01*
X016771Y039291D01*
X016771Y039406D02*
X017081Y039406D01*
X016771Y039613D01*
X017081Y039613D01*
X017029Y039728D02*
X016822Y039728D01*
X016771Y039780D01*
X016771Y039883D01*
X016822Y039935D01*
X016926Y039935D01*
X016926Y039832D01*
X017029Y039935D02*
X017081Y039883D01*
X017081Y039780D01*
X017029Y039728D01*
X017081Y040051D02*
X016771Y040051D01*
X016771Y040257D01*
X016771Y040373D02*
X017081Y040373D01*
X017081Y040528D01*
X017029Y040580D01*
X016926Y040580D01*
X016874Y040528D01*
X016874Y040373D01*
X016874Y040476D02*
X016771Y040580D01*
X016667Y040695D02*
X016771Y040799D01*
X016771Y040747D01*
X016822Y040747D01*
X016822Y040799D01*
X016771Y040799D01*
X017081Y040257D02*
X017081Y040051D01*
X016926Y040051D02*
X016926Y040154D01*
X016608Y040051D02*
X016401Y040051D01*
X016297Y040051D02*
X016246Y040051D01*
X016246Y039935D02*
X016246Y039728D01*
X016556Y039728D01*
X016556Y039935D01*
X016401Y039832D02*
X016401Y039728D01*
X016401Y039613D02*
X016401Y039509D01*
X016401Y039613D02*
X016297Y039613D01*
X016246Y039561D01*
X016246Y039458D01*
X016297Y039406D01*
X016504Y039406D01*
X016556Y039458D01*
X016556Y039561D01*
X016504Y039613D01*
X016452Y039291D02*
X016246Y039291D01*
X016401Y039291D02*
X016401Y039084D01*
X016452Y039084D02*
X016556Y039187D01*
X016452Y039291D01*
X016452Y039084D02*
X016246Y039084D01*
X016926Y039084D02*
X016926Y039291D01*
X016556Y038002D02*
X016349Y038002D01*
X016246Y037898D01*
X016349Y037795D01*
X016556Y037795D01*
X016926Y037683D02*
X016926Y037580D01*
X017081Y037580D02*
X017081Y037787D01*
X016556Y037357D02*
X016246Y037357D01*
X016401Y037357D02*
X016401Y037150D01*
X016401Y037035D02*
X016401Y036931D01*
X016401Y037035D02*
X016297Y037035D01*
X016246Y036983D01*
X016246Y036880D01*
X016297Y036828D01*
X016504Y036828D01*
X016556Y036880D01*
X016556Y036983D01*
X016504Y037035D01*
X016556Y037150D02*
X016246Y037150D01*
X016926Y036820D02*
X016926Y036613D01*
X017029Y036498D02*
X017081Y036446D01*
X017081Y036291D01*
X016771Y036291D01*
X016771Y036446D01*
X016822Y036498D01*
X017029Y036498D01*
X067351Y051880D02*
X067601Y051880D01*
X071351Y051880D01*
X069351Y049880D02*
X069351Y053880D01*
D11*
X070351Y052880D02*
X068351Y052880D01*
X068351Y050880D01*
X070351Y050880D01*
X070351Y052880D01*
X068351Y051880D02*
X068353Y051943D01*
X068359Y052005D01*
X068369Y052067D01*
X068382Y052129D01*
X068400Y052189D01*
X068421Y052248D01*
X068446Y052306D01*
X068475Y052362D01*
X068507Y052416D01*
X068542Y052468D01*
X068580Y052517D01*
X068622Y052565D01*
X068666Y052609D01*
X068714Y052651D01*
X068763Y052689D01*
X068815Y052724D01*
X068869Y052756D01*
X068925Y052785D01*
X068983Y052810D01*
X069042Y052831D01*
X069102Y052849D01*
X069164Y052862D01*
X069226Y052872D01*
X069288Y052878D01*
X069351Y052880D01*
X069414Y052878D01*
X069476Y052872D01*
X069538Y052862D01*
X069600Y052849D01*
X069660Y052831D01*
X069719Y052810D01*
X069777Y052785D01*
X069833Y052756D01*
X069887Y052724D01*
X069939Y052689D01*
X069988Y052651D01*
X070036Y052609D01*
X070080Y052565D01*
X070122Y052517D01*
X070160Y052468D01*
X070195Y052416D01*
X070227Y052362D01*
X070256Y052306D01*
X070281Y052248D01*
X070302Y052189D01*
X070320Y052129D01*
X070333Y052067D01*
X070343Y052005D01*
X070349Y051943D01*
X070351Y051880D01*
X070349Y051817D01*
X070343Y051755D01*
X070333Y051693D01*
X070320Y051631D01*
X070302Y051571D01*
X070281Y051512D01*
X070256Y051454D01*
X070227Y051398D01*
X070195Y051344D01*
X070160Y051292D01*
X070122Y051243D01*
X070080Y051195D01*
X070036Y051151D01*
X069988Y051109D01*
X069939Y051071D01*
X069887Y051036D01*
X069833Y051004D01*
X069777Y050975D01*
X069719Y050950D01*
X069660Y050929D01*
X069600Y050911D01*
X069538Y050898D01*
X069476Y050888D01*
X069414Y050882D01*
X069351Y050880D01*
X069288Y050882D01*
X069226Y050888D01*
X069164Y050898D01*
X069102Y050911D01*
X069042Y050929D01*
X068983Y050950D01*
X068925Y050975D01*
X068869Y051004D01*
X068815Y051036D01*
X068763Y051071D01*
X068714Y051109D01*
X068666Y051151D01*
X068622Y051195D01*
X068580Y051243D01*
X068542Y051292D01*
X068507Y051344D01*
X068475Y051398D01*
X068446Y051454D01*
X068421Y051512D01*
X068400Y051571D01*
X068382Y051631D01*
X068369Y051693D01*
X068359Y051755D01*
X068353Y051817D01*
X068351Y051880D01*
X067601Y051880D02*
X067601Y050130D01*
X071101Y050130D01*
X071101Y053630D01*
X067601Y053630D01*
X067601Y051880D01*
X012101Y003650D02*
X008601Y003650D01*
X008601Y001900D01*
X008601Y000150D01*
X012101Y000150D01*
X012101Y003650D01*
X011351Y002900D02*
X009351Y002900D01*
X009351Y000900D01*
X011351Y000900D01*
X011351Y002900D01*
X009351Y001900D02*
X009353Y001963D01*
X009359Y002025D01*
X009369Y002087D01*
X009382Y002149D01*
X009400Y002209D01*
X009421Y002268D01*
X009446Y002326D01*
X009475Y002382D01*
X009507Y002436D01*
X009542Y002488D01*
X009580Y002537D01*
X009622Y002585D01*
X009666Y002629D01*
X009714Y002671D01*
X009763Y002709D01*
X009815Y002744D01*
X009869Y002776D01*
X009925Y002805D01*
X009983Y002830D01*
X010042Y002851D01*
X010102Y002869D01*
X010164Y002882D01*
X010226Y002892D01*
X010288Y002898D01*
X010351Y002900D01*
X010414Y002898D01*
X010476Y002892D01*
X010538Y002882D01*
X010600Y002869D01*
X010660Y002851D01*
X010719Y002830D01*
X010777Y002805D01*
X010833Y002776D01*
X010887Y002744D01*
X010939Y002709D01*
X010988Y002671D01*
X011036Y002629D01*
X011080Y002585D01*
X011122Y002537D01*
X011160Y002488D01*
X011195Y002436D01*
X011227Y002382D01*
X011256Y002326D01*
X011281Y002268D01*
X011302Y002209D01*
X011320Y002149D01*
X011333Y002087D01*
X011343Y002025D01*
X011349Y001963D01*
X011351Y001900D01*
X011349Y001837D01*
X011343Y001775D01*
X011333Y001713D01*
X011320Y001651D01*
X011302Y001591D01*
X011281Y001532D01*
X011256Y001474D01*
X011227Y001418D01*
X011195Y001364D01*
X011160Y001312D01*
X011122Y001263D01*
X011080Y001215D01*
X011036Y001171D01*
X010988Y001129D01*
X010939Y001091D01*
X010887Y001056D01*
X010833Y001024D01*
X010777Y000995D01*
X010719Y000970D01*
X010660Y000949D01*
X010600Y000931D01*
X010538Y000918D01*
X010476Y000908D01*
X010414Y000902D01*
X010351Y000900D01*
X010288Y000902D01*
X010226Y000908D01*
X010164Y000918D01*
X010102Y000931D01*
X010042Y000949D01*
X009983Y000970D01*
X009925Y000995D01*
X009869Y001024D01*
X009815Y001056D01*
X009763Y001091D01*
X009714Y001129D01*
X009666Y001171D01*
X009622Y001215D01*
X009580Y001263D01*
X009542Y001312D01*
X009507Y001364D01*
X009475Y001418D01*
X009446Y001474D01*
X009421Y001532D01*
X009400Y001591D01*
X009382Y001651D01*
X009369Y001713D01*
X009359Y001775D01*
X009353Y001837D01*
X009351Y001900D01*
D12*
X008451Y007200D02*
X008451Y032190D01*
X013451Y032190D01*
X013451Y046580D01*
X071451Y046580D01*
X071451Y007200D01*
X008451Y007200D01*
X009301Y009390D02*
X009303Y009437D01*
X009309Y009483D01*
X009319Y009529D01*
X009332Y009573D01*
X009350Y009617D01*
X009371Y009658D01*
X009395Y009698D01*
X009423Y009736D01*
X009454Y009771D01*
X009488Y009803D01*
X009524Y009832D01*
X009563Y009858D01*
X009603Y009881D01*
X009646Y009900D01*
X009690Y009916D01*
X009735Y009928D01*
X009781Y009936D01*
X009828Y009940D01*
X009874Y009940D01*
X009921Y009936D01*
X009967Y009928D01*
X010012Y009916D01*
X010056Y009900D01*
X010099Y009881D01*
X010139Y009858D01*
X010178Y009832D01*
X010214Y009803D01*
X010248Y009771D01*
X010279Y009736D01*
X010307Y009698D01*
X010331Y009658D01*
X010352Y009617D01*
X010370Y009573D01*
X010383Y009529D01*
X010393Y009483D01*
X010399Y009437D01*
X010401Y009390D01*
X010399Y009343D01*
X010393Y009297D01*
X010383Y009251D01*
X010370Y009207D01*
X010352Y009163D01*
X010331Y009122D01*
X010307Y009082D01*
X010279Y009044D01*
X010248Y009009D01*
X010214Y008977D01*
X010178Y008948D01*
X010139Y008922D01*
X010099Y008899D01*
X010056Y008880D01*
X010012Y008864D01*
X009967Y008852D01*
X009921Y008844D01*
X009874Y008840D01*
X009828Y008840D01*
X009781Y008844D01*
X009735Y008852D01*
X009690Y008864D01*
X009646Y008880D01*
X009603Y008899D01*
X009563Y008922D01*
X009524Y008948D01*
X009488Y008977D01*
X009454Y009009D01*
X009423Y009044D01*
X009395Y009082D01*
X009371Y009122D01*
X009350Y009163D01*
X009332Y009207D01*
X009319Y009251D01*
X009309Y009297D01*
X009303Y009343D01*
X009301Y009390D01*
X069801Y009390D02*
X069803Y009437D01*
X069809Y009483D01*
X069819Y009529D01*
X069832Y009573D01*
X069850Y009617D01*
X069871Y009658D01*
X069895Y009698D01*
X069923Y009736D01*
X069954Y009771D01*
X069988Y009803D01*
X070024Y009832D01*
X070063Y009858D01*
X070103Y009881D01*
X070146Y009900D01*
X070190Y009916D01*
X070235Y009928D01*
X070281Y009936D01*
X070328Y009940D01*
X070374Y009940D01*
X070421Y009936D01*
X070467Y009928D01*
X070512Y009916D01*
X070556Y009900D01*
X070599Y009881D01*
X070639Y009858D01*
X070678Y009832D01*
X070714Y009803D01*
X070748Y009771D01*
X070779Y009736D01*
X070807Y009698D01*
X070831Y009658D01*
X070852Y009617D01*
X070870Y009573D01*
X070883Y009529D01*
X070893Y009483D01*
X070899Y009437D01*
X070901Y009390D01*
X070899Y009343D01*
X070893Y009297D01*
X070883Y009251D01*
X070870Y009207D01*
X070852Y009163D01*
X070831Y009122D01*
X070807Y009082D01*
X070779Y009044D01*
X070748Y009009D01*
X070714Y008977D01*
X070678Y008948D01*
X070639Y008922D01*
X070599Y008899D01*
X070556Y008880D01*
X070512Y008864D01*
X070467Y008852D01*
X070421Y008844D01*
X070374Y008840D01*
X070328Y008840D01*
X070281Y008844D01*
X070235Y008852D01*
X070190Y008864D01*
X070146Y008880D01*
X070103Y008899D01*
X070063Y008922D01*
X070024Y008948D01*
X069988Y008977D01*
X069954Y009009D01*
X069923Y009044D01*
X069895Y009082D01*
X069871Y009122D01*
X069850Y009163D01*
X069832Y009207D01*
X069819Y009251D01*
X069809Y009297D01*
X069803Y009343D01*
X069801Y009390D01*
X069801Y044390D02*
X069803Y044437D01*
X069809Y044483D01*
X069819Y044529D01*
X069832Y044573D01*
X069850Y044617D01*
X069871Y044658D01*
X069895Y044698D01*
X069923Y044736D01*
X069954Y044771D01*
X069988Y044803D01*
X070024Y044832D01*
X070063Y044858D01*
X070103Y044881D01*
X070146Y044900D01*
X070190Y044916D01*
X070235Y044928D01*
X070281Y044936D01*
X070328Y044940D01*
X070374Y044940D01*
X070421Y044936D01*
X070467Y044928D01*
X070512Y044916D01*
X070556Y044900D01*
X070599Y044881D01*
X070639Y044858D01*
X070678Y044832D01*
X070714Y044803D01*
X070748Y044771D01*
X070779Y044736D01*
X070807Y044698D01*
X070831Y044658D01*
X070852Y044617D01*
X070870Y044573D01*
X070883Y044529D01*
X070893Y044483D01*
X070899Y044437D01*
X070901Y044390D01*
X070899Y044343D01*
X070893Y044297D01*
X070883Y044251D01*
X070870Y044207D01*
X070852Y044163D01*
X070831Y044122D01*
X070807Y044082D01*
X070779Y044044D01*
X070748Y044009D01*
X070714Y043977D01*
X070678Y043948D01*
X070639Y043922D01*
X070599Y043899D01*
X070556Y043880D01*
X070512Y043864D01*
X070467Y043852D01*
X070421Y043844D01*
X070374Y043840D01*
X070328Y043840D01*
X070281Y043844D01*
X070235Y043852D01*
X070190Y043864D01*
X070146Y043880D01*
X070103Y043899D01*
X070063Y043922D01*
X070024Y043948D01*
X069988Y043977D01*
X069954Y044009D01*
X069923Y044044D01*
X069895Y044082D01*
X069871Y044122D01*
X069850Y044163D01*
X069832Y044207D01*
X069819Y044251D01*
X069809Y044297D01*
X069803Y044343D01*
X069801Y044390D01*
D13*
X070226Y050505D03*
X070226Y053255D03*
X011226Y003275D03*
X011226Y000525D03*
D14*
X011726Y001900D03*
X070726Y051880D03*
M02*
