G75*
%MOIN*%
%OFA0B0*%
%FSLAX24Y24*%
%IPPOS*%
%LPD*%
%AMOC8*
5,1,8,0,0,1.08239X$1,22.5*
%
%ADD10C,0.0000*%
%ADD11C,0.0060*%
%ADD12C,0.0050*%
%ADD13C,0.0030*%
%ADD14C,0.0020*%
%ADD15C,0.0040*%
%ADD16C,0.0080*%
%ADD17C,0.0992*%
%ADD18R,0.0660X0.0380*%
D10*
X000200Y000200D02*
X000200Y030200D01*
X040200Y030200D01*
X040200Y000200D01*
X000200Y000200D01*
D11*
X012940Y009440D02*
X012940Y009760D01*
X013160Y009760D01*
X013840Y009760D02*
X014060Y009760D01*
X014060Y009440D01*
X024330Y003321D02*
X024650Y003321D01*
X024757Y003214D01*
X024757Y002787D01*
X024650Y002680D01*
X024330Y002680D01*
X024330Y003321D01*
X024975Y003107D02*
X025188Y003321D01*
X025402Y003107D01*
X025402Y002680D01*
X025619Y002680D02*
X025619Y003321D01*
X026046Y002680D01*
X026046Y003321D01*
X026264Y003214D02*
X026264Y002787D01*
X026370Y002680D01*
X026584Y002680D01*
X026691Y002787D01*
X026691Y003000D01*
X026477Y003000D01*
X026264Y003214D02*
X026370Y003321D01*
X026584Y003321D01*
X026691Y003214D01*
X026908Y003321D02*
X026908Y002680D01*
X027335Y002680D01*
X027553Y002680D02*
X027553Y003321D01*
X027873Y003321D01*
X027980Y003214D01*
X027980Y003000D01*
X027873Y002894D01*
X027553Y002894D01*
X027766Y002894D02*
X027980Y002680D01*
X028197Y002466D02*
X028411Y002680D01*
X028304Y002680D01*
X028304Y002787D01*
X028411Y002787D01*
X028411Y002680D01*
X028303Y002271D02*
X028089Y002271D01*
X027982Y002164D01*
X027982Y001737D01*
X028089Y001630D01*
X028303Y001630D01*
X028409Y001737D01*
X028409Y002164D01*
X028303Y002271D01*
X028627Y002271D02*
X028627Y001630D01*
X029054Y001630D01*
X029485Y001630D02*
X029485Y002271D01*
X029272Y002271D02*
X029699Y002271D01*
X029916Y002057D02*
X030130Y002271D01*
X030343Y002057D01*
X030343Y001630D01*
X030561Y001737D02*
X030667Y001630D01*
X030881Y001630D01*
X030988Y001737D01*
X030988Y001950D01*
X030774Y001950D01*
X030561Y002164D02*
X030561Y001737D01*
X030343Y001950D02*
X029916Y001950D01*
X029916Y002057D02*
X029916Y001630D01*
X030561Y002164D02*
X030667Y002271D01*
X030881Y002271D01*
X030988Y002164D01*
X031205Y002271D02*
X031205Y001630D01*
X031632Y001630D01*
X031850Y001630D02*
X031850Y001737D01*
X031850Y001950D02*
X031850Y002377D01*
X031632Y002271D02*
X031205Y002271D01*
X031205Y001950D02*
X031419Y001950D01*
X031525Y002680D02*
X031632Y002787D01*
X031632Y003000D01*
X031419Y003000D01*
X031632Y003214D02*
X031525Y003321D01*
X031312Y003321D01*
X031205Y003214D01*
X031205Y002787D01*
X031312Y002680D01*
X031525Y002680D01*
X031850Y002680D02*
X032277Y002680D01*
X032494Y002680D02*
X032494Y003321D01*
X032815Y003321D01*
X032921Y003214D01*
X032921Y003000D01*
X032815Y002894D01*
X032494Y002894D01*
X032708Y002894D02*
X032921Y002680D01*
X033139Y002466D02*
X033352Y002680D01*
X033246Y002680D01*
X033246Y002787D01*
X033352Y002787D01*
X033352Y002680D01*
X032277Y003321D02*
X031850Y003321D01*
X031850Y002680D01*
X031850Y003000D02*
X032063Y003000D01*
X030988Y002680D02*
X030988Y003321D01*
X030561Y003321D02*
X030988Y002680D01*
X030561Y002680D02*
X030561Y003321D01*
X030343Y003107D02*
X030343Y002680D01*
X030343Y003000D02*
X029916Y003000D01*
X029916Y003107D02*
X029916Y002680D01*
X029699Y002787D02*
X029699Y003214D01*
X029592Y003321D01*
X029272Y003321D01*
X029272Y002680D01*
X029592Y002680D01*
X029699Y002787D01*
X029916Y003107D02*
X030130Y003321D01*
X030343Y003107D01*
X027765Y002271D02*
X027765Y001844D01*
X027551Y001630D01*
X027338Y001844D01*
X027338Y002271D01*
X027122Y003000D02*
X026908Y003000D01*
X026908Y003321D02*
X027335Y003321D01*
X026476Y002271D02*
X026476Y001630D01*
X026476Y001950D02*
X026049Y001950D01*
X025831Y001950D02*
X025618Y001950D01*
X025831Y001950D02*
X025831Y001737D01*
X025725Y001630D01*
X025511Y001630D01*
X025404Y001737D01*
X025404Y002164D01*
X025511Y002271D01*
X025725Y002271D01*
X025831Y002164D01*
X026049Y002271D02*
X026049Y001630D01*
X025188Y001630D02*
X024975Y001630D01*
X025081Y001630D02*
X025081Y002271D01*
X024975Y002271D02*
X025188Y002271D01*
X024757Y002271D02*
X024757Y001630D01*
X024757Y001950D02*
X024330Y001950D01*
X024330Y001630D02*
X024330Y002271D01*
X024975Y002680D02*
X024975Y003107D01*
X024975Y003000D02*
X025402Y003000D01*
X010409Y022830D02*
X009982Y022830D01*
X009982Y023471D01*
X010409Y023471D01*
X010196Y023150D02*
X009982Y023150D01*
X009765Y022830D02*
X009338Y022830D01*
X009338Y023471D01*
X009120Y023364D02*
X009120Y023257D01*
X009014Y023150D01*
X008693Y023150D01*
X008476Y023150D02*
X008049Y023150D01*
X008049Y023257D02*
X008262Y023471D01*
X008476Y023257D01*
X008476Y022830D01*
X008693Y022830D02*
X009014Y022830D01*
X009120Y022937D01*
X009120Y023044D01*
X009014Y023150D01*
X009120Y023364D02*
X009014Y023471D01*
X008693Y023471D01*
X008693Y022830D01*
X008049Y022830D02*
X008049Y023257D01*
X007831Y023364D02*
X007725Y023471D01*
X007511Y023471D01*
X007404Y023364D01*
X007404Y023257D01*
X007511Y023150D01*
X007725Y023150D01*
X007831Y023044D01*
X007831Y022937D01*
X007725Y022830D01*
X007511Y022830D01*
X007404Y022937D01*
X007188Y022830D02*
X006975Y022830D01*
X007081Y022830D02*
X007081Y023471D01*
X006975Y023471D02*
X007188Y023471D01*
X006757Y023364D02*
X006650Y023471D01*
X006330Y023471D01*
X006330Y022830D01*
X006650Y022830D01*
X006757Y022937D01*
X006757Y023364D01*
X005450Y023550D02*
X005450Y023050D01*
X005200Y022800D01*
X004700Y022800D01*
X004450Y023050D01*
X004200Y022800D01*
X003700Y022800D01*
X003450Y023050D01*
X003450Y023550D01*
X003700Y023800D01*
X004200Y023800D01*
X004450Y023550D01*
X004700Y023800D01*
X005200Y023800D01*
X005450Y023550D01*
X004450Y023550D02*
X004450Y023050D01*
X008850Y026100D02*
X009100Y025850D01*
X009600Y025850D01*
X009850Y026100D01*
X009850Y026600D01*
X009600Y026850D01*
X009850Y027100D01*
X009850Y027600D01*
X009600Y027850D01*
X009850Y028100D01*
X009850Y028600D01*
X009600Y028850D01*
X009100Y028850D01*
X008850Y028600D01*
X008850Y028100D01*
X009100Y027850D01*
X009600Y027850D01*
X009100Y027850D02*
X008850Y027600D01*
X008850Y027100D01*
X009100Y026850D01*
X009600Y026850D01*
X009100Y026850D02*
X008850Y026600D01*
X008850Y026100D01*
D12*
X008605Y025995D02*
X008530Y026070D01*
X008155Y026070D01*
X008155Y025995D02*
X008155Y026145D01*
X008155Y026305D02*
X008155Y026531D01*
X008230Y026606D01*
X008380Y026606D01*
X008455Y026531D01*
X008455Y026305D01*
X008605Y026305D02*
X008155Y026305D01*
X008605Y025995D02*
X008605Y025920D01*
X008530Y025845D01*
X008530Y026766D02*
X008605Y026841D01*
X008605Y026991D01*
X008530Y027066D01*
X008380Y027066D01*
X008305Y026991D01*
X008305Y026916D01*
X008380Y026766D01*
X008155Y026766D01*
X008155Y027066D01*
X016174Y023552D02*
X016174Y022548D01*
X016726Y022548D01*
X016726Y023552D01*
X016174Y023552D01*
X017694Y025086D02*
X017694Y025814D01*
X018906Y025814D01*
X018906Y025086D01*
X017694Y025086D01*
X010106Y019164D02*
X008894Y019164D01*
X008894Y018436D01*
X010106Y018436D01*
X010106Y019164D01*
X011794Y018864D02*
X011794Y018136D01*
X013006Y018136D01*
X013006Y018864D01*
X011794Y018864D01*
X011686Y017906D02*
X012414Y017906D01*
X012414Y016694D01*
X011686Y016694D01*
X011686Y017906D01*
X011626Y017652D02*
X011074Y017652D01*
X011074Y016648D01*
X011626Y016648D01*
X011626Y017652D01*
X013298Y016226D02*
X014302Y016226D01*
X014302Y015674D01*
X013298Y015674D01*
X013298Y016226D01*
X016036Y014756D02*
X016764Y014756D01*
X016764Y013544D01*
X016036Y013544D01*
X016036Y014756D01*
X015926Y014552D02*
X015374Y014552D01*
X015374Y013548D01*
X015926Y013548D01*
X015926Y014552D01*
X016194Y015036D02*
X016194Y015764D01*
X017406Y015764D01*
X017406Y015036D01*
X016194Y015036D01*
X012226Y013602D02*
X012226Y012598D01*
X011674Y012598D01*
X011674Y013602D01*
X012226Y013602D01*
X011564Y013706D02*
X010836Y013706D01*
X010836Y012494D01*
X011564Y012494D01*
X011564Y013706D01*
X010756Y013586D02*
X009544Y013586D01*
X009544Y014314D01*
X010756Y014314D01*
X010756Y013586D01*
X008656Y014336D02*
X008656Y015064D01*
X007444Y015064D01*
X007444Y014336D01*
X008656Y014336D01*
X008652Y015124D02*
X007648Y015124D01*
X007648Y015676D01*
X008652Y015676D01*
X008652Y015124D01*
X007314Y014956D02*
X006586Y014956D01*
X006586Y013744D01*
X007314Y013744D01*
X007314Y014956D01*
X013957Y012087D02*
X014843Y012087D01*
X014843Y010413D01*
X013957Y010413D01*
X013957Y012087D01*
X017507Y012087D02*
X017507Y010413D01*
X018393Y010413D01*
X018393Y012087D01*
X017507Y012087D01*
X018607Y010587D02*
X019493Y010587D01*
X019493Y008913D01*
X018607Y008913D01*
X018607Y010587D01*
X018607Y008837D02*
X019493Y008837D01*
X019493Y007163D01*
X018607Y007163D01*
X018607Y008837D01*
X017093Y008837D02*
X016207Y008837D01*
X016207Y007163D01*
X017093Y007163D01*
X017093Y008837D01*
X018607Y007087D02*
X019493Y007087D01*
X019493Y005413D01*
X018607Y005413D01*
X018607Y007087D01*
X014293Y006913D02*
X013407Y006913D01*
X013407Y008587D01*
X014293Y008587D01*
X014293Y006913D01*
X014056Y006614D02*
X014056Y005886D01*
X012844Y005886D01*
X012844Y006614D01*
X014056Y006614D01*
X014056Y005814D02*
X012844Y005814D01*
X012844Y005086D01*
X014056Y005086D01*
X014056Y005814D01*
X012602Y006274D02*
X012602Y006826D01*
X011598Y006826D01*
X011598Y006274D01*
X012602Y006274D01*
X012052Y005826D02*
X011048Y005826D01*
X011048Y005274D01*
X012052Y005274D01*
X012052Y005826D01*
X010976Y005752D02*
X010424Y005752D01*
X010424Y004748D01*
X010976Y004748D01*
X010976Y005752D01*
X010064Y005956D02*
X010064Y004744D01*
X009336Y004744D01*
X009336Y005956D01*
X010064Y005956D01*
X010402Y006814D02*
X009398Y006814D01*
X009398Y007366D01*
X010402Y007366D01*
X010402Y006814D01*
X010052Y007374D02*
X009048Y007374D01*
X009048Y007926D01*
X010052Y007926D01*
X010052Y007374D01*
X009831Y007348D02*
X009833Y007373D01*
X009839Y007398D01*
X009848Y007422D01*
X009861Y007444D01*
X009878Y007464D01*
X009897Y007481D01*
X009918Y007495D01*
X009942Y007505D01*
X009966Y007512D01*
X009992Y007515D01*
X010017Y007514D01*
X010042Y007509D01*
X010066Y007500D01*
X010089Y007488D01*
X010109Y007473D01*
X010127Y007454D01*
X010142Y007433D01*
X010153Y007410D01*
X010161Y007386D01*
X010165Y007361D01*
X010165Y007335D01*
X010161Y007310D01*
X010153Y007286D01*
X010142Y007263D01*
X010127Y007242D01*
X010109Y007223D01*
X010089Y007208D01*
X010066Y007196D01*
X010042Y007187D01*
X010017Y007182D01*
X009992Y007181D01*
X009966Y007184D01*
X009942Y007191D01*
X009918Y007201D01*
X009897Y007215D01*
X009878Y007232D01*
X009861Y007252D01*
X009848Y007274D01*
X009839Y007298D01*
X009833Y007323D01*
X009831Y007348D01*
X010234Y007584D02*
X011966Y007584D01*
X011966Y009316D01*
X010234Y009316D01*
X010234Y007584D01*
X012228Y007120D02*
X012228Y008380D01*
X013172Y008380D01*
X013172Y007120D01*
X012228Y007120D01*
X023836Y011394D02*
X023836Y012606D01*
X024564Y012606D01*
X024564Y011394D01*
X023836Y011394D01*
X024607Y010587D02*
X025493Y010587D01*
X025493Y008913D01*
X024607Y008913D01*
X024607Y010587D01*
X025336Y010794D02*
X025336Y012006D01*
X026064Y012006D01*
X026064Y010794D01*
X025336Y010794D01*
X026224Y010998D02*
X026776Y010998D01*
X026776Y012002D01*
X026224Y012002D01*
X026224Y010998D01*
X027007Y010737D02*
X027893Y010737D01*
X027893Y009063D01*
X027007Y009063D01*
X027007Y010737D01*
X028963Y009543D02*
X030637Y009543D01*
X030637Y008657D01*
X028963Y008657D01*
X028963Y009543D01*
X027893Y008837D02*
X027007Y008837D01*
X027007Y007163D01*
X027893Y007163D01*
X027893Y008837D01*
X028007Y007637D02*
X028893Y007637D01*
X028893Y005963D01*
X028007Y005963D01*
X028007Y007637D01*
X025493Y007163D02*
X024607Y007163D01*
X024607Y008837D01*
X025493Y008837D01*
X025493Y007163D01*
X025493Y007087D02*
X024607Y007087D01*
X024607Y005413D01*
X025493Y005413D01*
X025493Y007087D01*
X030163Y011057D02*
X030163Y011943D01*
X031837Y011943D01*
X031837Y011057D01*
X030163Y011057D01*
X030153Y012747D02*
X030153Y013633D01*
X031827Y013633D01*
X031827Y012747D01*
X030153Y012747D01*
X030044Y013074D02*
X029316Y013074D01*
X029316Y014286D01*
X030044Y014286D01*
X030044Y013074D01*
X029246Y013148D02*
X029246Y014152D01*
X028694Y014152D01*
X028694Y013148D01*
X029246Y013148D01*
X027643Y013213D02*
X026757Y013213D01*
X026757Y014887D01*
X027643Y014887D01*
X027643Y013213D01*
X028824Y014846D02*
X028824Y015574D01*
X030036Y015574D01*
X030036Y014846D01*
X028824Y014846D01*
D13*
X029373Y014800D02*
X029373Y014430D01*
X029619Y014430D01*
X029741Y014492D02*
X029803Y014430D01*
X029926Y014430D01*
X029988Y014492D01*
X029988Y014615D01*
X029926Y014677D01*
X029864Y014677D01*
X029741Y014615D01*
X029741Y014800D01*
X029988Y014800D01*
X030232Y015331D02*
X030355Y015331D01*
X030417Y015393D01*
X030538Y015393D02*
X030600Y015331D01*
X030723Y015331D01*
X030785Y015393D01*
X030785Y015455D01*
X030723Y015516D01*
X030662Y015516D01*
X030723Y015516D02*
X030785Y015578D01*
X030785Y015640D01*
X030723Y015702D01*
X030600Y015702D01*
X030538Y015640D01*
X030417Y015640D02*
X030355Y015702D01*
X030232Y015702D01*
X030170Y015640D01*
X030170Y015393D01*
X030232Y015331D01*
X030907Y015393D02*
X030907Y015640D01*
X030968Y015702D01*
X031092Y015702D01*
X031153Y015640D01*
X030907Y015393D01*
X030968Y015331D01*
X031092Y015331D01*
X031153Y015393D01*
X031153Y015640D01*
X032001Y013387D02*
X031939Y013325D01*
X031939Y013079D01*
X032001Y013017D01*
X032124Y013017D01*
X032186Y013079D01*
X032307Y013017D02*
X032554Y013017D01*
X032431Y013017D02*
X032431Y013387D01*
X032307Y013264D01*
X032186Y013325D02*
X032124Y013387D01*
X032001Y013387D01*
X032675Y013325D02*
X032675Y013264D01*
X032737Y013202D01*
X032922Y013202D01*
X032922Y013325D02*
X032861Y013387D01*
X032737Y013387D01*
X032675Y013325D01*
X032675Y013079D02*
X032737Y013017D01*
X032861Y013017D01*
X032922Y013079D01*
X032922Y013325D01*
X032800Y012568D02*
X032800Y012383D01*
X032924Y012445D01*
X032986Y012445D01*
X033047Y012383D01*
X033047Y012260D01*
X032986Y012198D01*
X032862Y012198D01*
X032800Y012260D01*
X032679Y012198D02*
X032432Y012198D01*
X032679Y012445D01*
X032679Y012507D01*
X032617Y012568D01*
X032494Y012568D01*
X032432Y012507D01*
X032311Y012507D02*
X032311Y012383D01*
X032249Y012322D01*
X032064Y012322D01*
X032187Y012322D02*
X032311Y012198D01*
X032064Y012198D02*
X032064Y012568D01*
X032249Y012568D01*
X032311Y012507D01*
X032800Y012568D02*
X033047Y012568D01*
X033098Y011574D02*
X032975Y011574D01*
X032913Y011512D01*
X032913Y011450D01*
X032975Y011388D01*
X033160Y011388D01*
X033160Y011265D02*
X033160Y011512D01*
X033098Y011574D01*
X033160Y011265D02*
X033098Y011203D01*
X032975Y011203D01*
X032913Y011265D01*
X032791Y011388D02*
X032545Y011388D01*
X032730Y011574D01*
X032730Y011203D01*
X032423Y011265D02*
X032361Y011203D01*
X032238Y011203D01*
X032176Y011265D01*
X032176Y011512D01*
X032238Y011574D01*
X032361Y011574D01*
X032423Y011512D01*
X031369Y009813D02*
X031431Y009751D01*
X031431Y009689D01*
X031369Y009628D01*
X031246Y009628D01*
X031184Y009689D01*
X031184Y009751D01*
X031246Y009813D01*
X031369Y009813D01*
X031369Y009628D02*
X031431Y009566D01*
X031431Y009504D01*
X031369Y009443D01*
X031246Y009443D01*
X031184Y009504D01*
X031184Y009566D01*
X031246Y009628D01*
X031063Y009628D02*
X031063Y009751D01*
X031001Y009813D01*
X030816Y009813D01*
X030816Y009443D01*
X030816Y009566D02*
X031001Y009566D01*
X031063Y009628D01*
X030939Y009566D02*
X031063Y009443D01*
X030560Y008574D02*
X030560Y008512D01*
X030313Y008265D01*
X030313Y008203D01*
X030130Y008203D02*
X030130Y008574D01*
X029945Y008388D01*
X030191Y008388D01*
X030313Y008574D02*
X030560Y008574D01*
X029823Y008512D02*
X029761Y008574D01*
X029638Y008574D01*
X029576Y008512D01*
X029576Y008265D01*
X029638Y008203D01*
X029761Y008203D01*
X029823Y008265D01*
X029032Y008162D02*
X028785Y008162D01*
X028971Y008347D01*
X028971Y007977D01*
X028664Y007977D02*
X028417Y007977D01*
X028541Y007977D02*
X028541Y008347D01*
X028417Y008224D01*
X028296Y008285D02*
X028234Y008347D01*
X028111Y008347D01*
X028049Y008285D01*
X028049Y008039D01*
X028111Y007977D01*
X028234Y007977D01*
X028296Y008039D01*
X029111Y007147D02*
X029049Y007085D01*
X029049Y006839D01*
X029111Y006777D01*
X029234Y006777D01*
X029296Y006839D01*
X029417Y006962D02*
X029664Y006962D01*
X029785Y007024D02*
X029785Y007085D01*
X029847Y007147D01*
X029971Y007147D01*
X030032Y007085D01*
X030032Y007024D01*
X029971Y006962D01*
X029847Y006962D01*
X029785Y007024D01*
X029847Y006962D02*
X029785Y006900D01*
X029785Y006839D01*
X029847Y006777D01*
X029971Y006777D01*
X030032Y006839D01*
X030032Y006900D01*
X029971Y006962D01*
X029602Y007147D02*
X029417Y006962D01*
X029296Y007085D02*
X029234Y007147D01*
X029111Y007147D01*
X029602Y007147D02*
X029602Y006777D01*
X027668Y006033D02*
X027668Y005910D01*
X027606Y005848D01*
X027359Y006095D01*
X027606Y006095D01*
X027668Y006033D01*
X027606Y005848D02*
X027359Y005848D01*
X027298Y005910D01*
X027298Y006033D01*
X027359Y006095D01*
X027359Y005726D02*
X027298Y005665D01*
X027298Y005541D01*
X027359Y005480D01*
X027359Y005358D02*
X027483Y005358D01*
X027545Y005296D01*
X027545Y005111D01*
X027668Y005111D02*
X027298Y005111D01*
X027298Y005296D01*
X027359Y005358D01*
X027545Y005235D02*
X027668Y005358D01*
X027668Y005480D02*
X027421Y005726D01*
X027359Y005726D01*
X027668Y005726D02*
X027668Y005480D01*
X025947Y006088D02*
X025885Y006026D01*
X025638Y006026D01*
X025576Y006088D01*
X025576Y006211D01*
X025638Y006273D01*
X025762Y006395D02*
X025762Y006641D01*
X025762Y006763D02*
X025762Y006948D01*
X025823Y007010D01*
X025885Y007010D01*
X025947Y006948D01*
X025947Y006825D01*
X025885Y006763D01*
X025762Y006763D01*
X025638Y006886D01*
X025576Y007010D01*
X025576Y006580D02*
X025762Y006395D01*
X025885Y006273D02*
X025947Y006211D01*
X025947Y006088D01*
X025947Y006580D02*
X025576Y006580D01*
X024145Y006644D02*
X024083Y006582D01*
X023960Y006582D01*
X023898Y006644D01*
X023898Y006705D01*
X023960Y006767D01*
X024083Y006767D01*
X024145Y006705D01*
X024145Y006644D01*
X024083Y006767D02*
X024145Y006829D01*
X024145Y006891D01*
X024083Y006952D01*
X023960Y006952D01*
X023898Y006891D01*
X023898Y006829D01*
X023960Y006767D01*
X023776Y006582D02*
X023530Y006582D01*
X023408Y006582D02*
X023285Y006705D01*
X023346Y006705D02*
X023161Y006705D01*
X023161Y006582D02*
X023161Y006952D01*
X023346Y006952D01*
X023408Y006891D01*
X023408Y006767D01*
X023346Y006705D01*
X023530Y006829D02*
X023653Y006952D01*
X023653Y006582D01*
X023611Y007817D02*
X023734Y007817D01*
X023796Y007879D01*
X023917Y007817D02*
X024164Y008064D01*
X024164Y008125D01*
X024102Y008187D01*
X023979Y008187D01*
X023917Y008125D01*
X023796Y008125D02*
X023734Y008187D01*
X023611Y008187D01*
X023549Y008125D01*
X023549Y007879D01*
X023611Y007817D01*
X023917Y007817D02*
X024164Y007817D01*
X024285Y007817D02*
X024532Y008064D01*
X024532Y008125D01*
X024471Y008187D01*
X024347Y008187D01*
X024285Y008125D01*
X024285Y007817D02*
X024532Y007817D01*
X025711Y007782D02*
X025711Y008152D01*
X025896Y008152D01*
X025958Y008091D01*
X025958Y007967D01*
X025896Y007905D01*
X025711Y007905D01*
X025835Y007905D02*
X025958Y007782D01*
X026080Y007782D02*
X026326Y007782D01*
X026203Y007782D02*
X026203Y008152D01*
X026080Y008029D01*
X026448Y007967D02*
X026448Y007844D01*
X026510Y007782D01*
X026633Y007782D01*
X026695Y007844D01*
X026695Y007905D01*
X026633Y007967D01*
X026448Y007967D01*
X026571Y008091D01*
X026695Y008152D01*
X026548Y008982D02*
X026548Y009044D01*
X026795Y009291D01*
X026795Y009352D01*
X026548Y009352D01*
X026638Y009576D02*
X026885Y009576D01*
X026947Y009638D01*
X026947Y009761D01*
X026885Y009823D01*
X026947Y009945D02*
X026700Y010191D01*
X026638Y010191D01*
X026576Y010130D01*
X026576Y010006D01*
X026638Y009945D01*
X026638Y009823D02*
X026576Y009761D01*
X026576Y009638D01*
X026638Y009576D01*
X026303Y009352D02*
X026180Y009229D01*
X026058Y009291D02*
X026058Y009167D01*
X025996Y009105D01*
X025811Y009105D01*
X025811Y008982D02*
X025811Y009352D01*
X025996Y009352D01*
X026058Y009291D01*
X025935Y009105D02*
X026058Y008982D01*
X026180Y008982D02*
X026426Y008982D01*
X026303Y008982D02*
X026303Y009352D01*
X026947Y009945D02*
X026947Y010191D01*
X026947Y010313D02*
X026885Y010313D01*
X026638Y010560D01*
X026576Y010560D01*
X026576Y010313D01*
X024532Y010047D02*
X024285Y010047D01*
X024285Y009862D01*
X024409Y009924D01*
X024471Y009924D01*
X024532Y009862D01*
X024532Y009739D01*
X024471Y009677D01*
X024347Y009677D01*
X024285Y009739D01*
X024164Y009862D02*
X023917Y009862D01*
X024102Y010047D01*
X024102Y009677D01*
X023796Y009739D02*
X023734Y009677D01*
X023611Y009677D01*
X023549Y009739D01*
X023549Y009985D01*
X023611Y010047D01*
X023734Y010047D01*
X023796Y009985D01*
X023775Y009402D02*
X023651Y009341D01*
X023528Y009217D01*
X023713Y009217D01*
X023775Y009155D01*
X023775Y009094D01*
X023713Y009032D01*
X023590Y009032D01*
X023528Y009094D01*
X023528Y009217D01*
X023406Y009217D02*
X023345Y009155D01*
X023160Y009155D01*
X023283Y009155D02*
X023406Y009032D01*
X023406Y009217D02*
X023406Y009341D01*
X023345Y009402D01*
X023160Y009402D01*
X023160Y009032D01*
X020682Y009839D02*
X020621Y009777D01*
X020497Y009777D01*
X020435Y009839D01*
X020314Y009962D02*
X020067Y009962D01*
X020252Y010147D01*
X020252Y009777D01*
X019946Y009839D02*
X019884Y009777D01*
X019761Y009777D01*
X019699Y009839D01*
X019699Y010085D01*
X019761Y010147D01*
X019884Y010147D01*
X019946Y010085D01*
X020435Y010085D02*
X020497Y010147D01*
X020621Y010147D01*
X020682Y010085D01*
X020682Y010024D01*
X020621Y009962D01*
X020682Y009900D01*
X020682Y009839D01*
X020621Y009962D02*
X020559Y009962D01*
X019448Y011153D02*
X019325Y011153D01*
X019263Y011215D01*
X019141Y011153D02*
X018895Y011153D01*
X019141Y011400D01*
X019141Y011462D01*
X019080Y011524D01*
X018956Y011524D01*
X018895Y011462D01*
X018773Y011462D02*
X018711Y011524D01*
X018588Y011524D01*
X018526Y011462D01*
X018526Y011215D01*
X018588Y011153D01*
X018711Y011153D01*
X018773Y011215D01*
X019263Y011462D02*
X019325Y011524D01*
X019448Y011524D01*
X019510Y011462D01*
X019510Y011400D01*
X019448Y011338D01*
X019510Y011277D01*
X019510Y011215D01*
X019448Y011153D01*
X019448Y011338D02*
X019386Y011338D01*
X016691Y012897D02*
X016691Y013020D01*
X016630Y013082D01*
X016630Y013203D02*
X016691Y013265D01*
X016691Y013389D01*
X016630Y013450D01*
X016506Y013450D01*
X016444Y013389D01*
X016444Y013327D01*
X016506Y013203D01*
X016321Y013203D01*
X016321Y013450D01*
X016383Y013082D02*
X016321Y013020D01*
X016321Y012897D01*
X016383Y012835D01*
X016630Y012835D01*
X016691Y012897D01*
X015820Y012915D02*
X015820Y013038D01*
X015758Y013100D01*
X015758Y013222D02*
X015820Y013283D01*
X015820Y013407D01*
X015758Y013468D01*
X015697Y013468D01*
X015635Y013407D01*
X015635Y013222D01*
X015758Y013222D01*
X015635Y013222D02*
X015511Y013345D01*
X015450Y013468D01*
X015511Y013100D02*
X015450Y013038D01*
X015450Y012915D01*
X015511Y012853D01*
X015758Y012853D01*
X015820Y012915D01*
X017530Y013601D02*
X017900Y013601D01*
X017900Y013848D01*
X017900Y013969D02*
X017653Y014216D01*
X017591Y014216D01*
X017530Y014154D01*
X017530Y014031D01*
X017591Y013969D01*
X017900Y013969D02*
X017900Y014216D01*
X015325Y015780D02*
X015325Y016150D01*
X015140Y015965D01*
X015387Y015965D01*
X015018Y016027D02*
X014772Y015780D01*
X015018Y015780D01*
X015018Y016027D02*
X015018Y016089D01*
X014957Y016150D01*
X014833Y016150D01*
X014772Y016089D01*
X014650Y016089D02*
X014588Y016150D01*
X014465Y016150D01*
X014403Y016089D01*
X014403Y015842D01*
X014465Y015780D01*
X014588Y015780D01*
X014650Y015842D01*
X015728Y016637D02*
X015728Y017008D01*
X015913Y017008D01*
X015974Y016946D01*
X015974Y016823D01*
X015913Y016761D01*
X015728Y016761D01*
X015851Y016761D02*
X015974Y016637D01*
X016096Y016823D02*
X016343Y016823D01*
X016281Y017008D02*
X016096Y016823D01*
X016281Y017008D02*
X016281Y016637D01*
X016402Y016192D02*
X016340Y016130D01*
X016340Y015883D01*
X016402Y015821D01*
X016525Y015821D01*
X016587Y015883D01*
X016708Y015883D02*
X016770Y015821D01*
X016893Y015821D01*
X016955Y015883D01*
X016955Y015945D01*
X016893Y016006D01*
X016832Y016006D01*
X016893Y016006D02*
X016955Y016068D01*
X016955Y016130D01*
X016893Y016192D01*
X016770Y016192D01*
X016708Y016130D01*
X016587Y016130D02*
X016525Y016192D01*
X016402Y016192D01*
X017077Y016130D02*
X017138Y016192D01*
X017262Y016192D01*
X017323Y016130D01*
X017323Y016068D01*
X017262Y016006D01*
X017323Y015945D01*
X017323Y015883D01*
X017262Y015821D01*
X017138Y015821D01*
X017077Y015883D01*
X017200Y016006D02*
X017262Y016006D01*
X013758Y017442D02*
X013758Y017503D01*
X013696Y017565D01*
X013511Y017565D01*
X013511Y017442D01*
X013573Y017380D01*
X013696Y017380D01*
X013758Y017442D01*
X013511Y017565D02*
X013634Y017689D01*
X013758Y017750D01*
X013389Y017380D02*
X013143Y017380D01*
X013143Y017750D01*
X012862Y018921D02*
X012923Y018983D01*
X012923Y019045D01*
X012862Y019106D01*
X012677Y019106D01*
X012677Y018983D01*
X012738Y018921D01*
X012862Y018921D01*
X012677Y019106D02*
X012800Y019230D01*
X012923Y019292D01*
X012555Y019230D02*
X012555Y019168D01*
X012493Y019106D01*
X012555Y019045D01*
X012555Y018983D01*
X012493Y018921D01*
X012370Y018921D01*
X012308Y018983D01*
X012187Y018983D02*
X012125Y018921D01*
X012002Y018921D01*
X011940Y018983D01*
X011940Y019230D01*
X012002Y019292D01*
X012125Y019292D01*
X012187Y019230D01*
X012308Y019230D02*
X012370Y019292D01*
X012493Y019292D01*
X012555Y019230D01*
X012493Y019106D02*
X012432Y019106D01*
X010069Y019394D02*
X009822Y019394D01*
X010007Y019579D01*
X010007Y019209D01*
X009700Y019270D02*
X009639Y019209D01*
X009515Y019209D01*
X009453Y019270D01*
X009332Y019270D02*
X009270Y019209D01*
X009147Y019209D01*
X009085Y019270D01*
X009085Y019517D01*
X009147Y019579D01*
X009270Y019579D01*
X009332Y019517D01*
X009453Y019517D02*
X009515Y019579D01*
X009639Y019579D01*
X009700Y019517D01*
X009700Y019456D01*
X009639Y019394D01*
X009700Y019332D01*
X009700Y019270D01*
X009639Y019394D02*
X009577Y019394D01*
X008804Y018270D02*
X008619Y018085D01*
X008866Y018085D01*
X008804Y017900D02*
X008804Y018270D01*
X008498Y018209D02*
X008498Y018147D01*
X008436Y018085D01*
X008498Y018023D01*
X008498Y017962D01*
X008436Y017900D01*
X008313Y017900D01*
X008251Y017962D01*
X008129Y017900D02*
X008006Y018023D01*
X008068Y018023D02*
X007882Y018023D01*
X007882Y017900D02*
X007882Y018270D01*
X008068Y018270D01*
X008129Y018209D01*
X008129Y018085D01*
X008068Y018023D01*
X008251Y018209D02*
X008313Y018270D01*
X008436Y018270D01*
X008498Y018209D01*
X008436Y018085D02*
X008374Y018085D01*
X007493Y017620D02*
X007493Y017250D01*
X007616Y017250D02*
X007369Y017250D01*
X007248Y017250D02*
X007001Y017250D01*
X007248Y017497D01*
X007248Y017559D01*
X007186Y017620D01*
X007063Y017620D01*
X007001Y017559D01*
X006879Y017559D02*
X006879Y017435D01*
X006818Y017373D01*
X006632Y017373D01*
X006632Y017250D02*
X006632Y017620D01*
X006818Y017620D01*
X006879Y017559D01*
X006756Y017373D02*
X006879Y017250D01*
X007369Y017497D02*
X007493Y017620D01*
X008815Y015500D02*
X008753Y015439D01*
X008753Y015192D01*
X008815Y015130D01*
X008938Y015130D01*
X009000Y015192D01*
X009122Y015315D02*
X009368Y015315D01*
X009490Y015192D02*
X009490Y015439D01*
X009552Y015500D01*
X009675Y015500D01*
X009737Y015439D01*
X009490Y015192D01*
X009552Y015130D01*
X009675Y015130D01*
X009737Y015192D01*
X009737Y015439D01*
X009307Y015500D02*
X009307Y015130D01*
X009191Y014957D02*
X009191Y014833D01*
X009130Y014772D01*
X009130Y014650D02*
X009191Y014589D01*
X009191Y014465D01*
X009130Y014403D01*
X009130Y014282D02*
X009191Y014220D01*
X009191Y014097D01*
X009130Y014035D01*
X008883Y014035D01*
X008821Y014097D01*
X008821Y014220D01*
X008883Y014282D01*
X008883Y014403D02*
X008821Y014465D01*
X008821Y014589D01*
X008883Y014650D01*
X008944Y014650D01*
X009006Y014589D01*
X009068Y014650D01*
X009130Y014650D01*
X009006Y014589D02*
X009006Y014527D01*
X008944Y014772D02*
X009006Y014833D01*
X009006Y015019D01*
X008883Y015019D02*
X008821Y014957D01*
X008821Y014833D01*
X008883Y014772D01*
X008944Y014772D01*
X008883Y015019D02*
X009130Y015019D01*
X009191Y014957D01*
X009122Y015315D02*
X009307Y015500D01*
X009000Y015439D02*
X008938Y015500D01*
X008815Y015500D01*
X010035Y014667D02*
X010035Y014420D01*
X010097Y014359D01*
X010220Y014359D01*
X010282Y014420D01*
X010403Y014420D02*
X010465Y014359D01*
X010589Y014359D01*
X010650Y014420D01*
X010650Y014482D01*
X010589Y014544D01*
X010527Y014544D01*
X010589Y014544D02*
X010650Y014606D01*
X010650Y014667D01*
X010589Y014729D01*
X010465Y014729D01*
X010403Y014667D01*
X010282Y014667D02*
X010220Y014729D01*
X010097Y014729D01*
X010035Y014667D01*
X010772Y014667D02*
X010833Y014729D01*
X010957Y014729D01*
X011019Y014667D01*
X011019Y014606D01*
X010772Y014359D01*
X011019Y014359D01*
X011942Y014528D02*
X011942Y014713D01*
X012004Y014774D01*
X012127Y014774D01*
X012189Y014713D01*
X012189Y014528D01*
X012189Y014651D02*
X012313Y014774D01*
X012313Y014896D02*
X012313Y015143D01*
X012313Y015019D02*
X011942Y015019D01*
X012066Y014896D01*
X012004Y015264D02*
X011942Y015326D01*
X011942Y015449D01*
X012004Y015511D01*
X012251Y015264D01*
X012313Y015326D01*
X012313Y015449D01*
X012251Y015511D01*
X012004Y015511D01*
X011887Y015497D02*
X011887Y015683D01*
X011949Y015744D01*
X012072Y015744D01*
X012134Y015683D01*
X012134Y015497D01*
X012257Y015497D02*
X011887Y015497D01*
X012004Y015264D02*
X012251Y015264D01*
X012134Y015621D02*
X012257Y015744D01*
X012257Y015866D02*
X012011Y016113D01*
X011949Y016113D01*
X011887Y016051D01*
X011887Y015927D01*
X011949Y015866D01*
X012257Y015866D02*
X012257Y016113D01*
X012257Y016234D02*
X012011Y016481D01*
X011949Y016481D01*
X011887Y016419D01*
X011887Y016296D01*
X011949Y016234D01*
X012257Y016234D02*
X012257Y016481D01*
X012313Y014528D02*
X011942Y014528D01*
X011997Y012518D02*
X012058Y012518D01*
X012120Y012457D01*
X012120Y012333D01*
X012058Y012272D01*
X011997Y012272D01*
X011935Y012333D01*
X011935Y012457D01*
X011997Y012518D01*
X011935Y012457D02*
X011873Y012518D01*
X011811Y012518D01*
X011750Y012457D01*
X011750Y012333D01*
X011811Y012272D01*
X011873Y012272D01*
X011935Y012333D01*
X012058Y012150D02*
X012120Y012088D01*
X012120Y011965D01*
X012058Y011903D01*
X011811Y011903D01*
X011750Y011965D01*
X011750Y012088D01*
X011811Y012150D01*
X011279Y012177D02*
X011217Y012177D01*
X010970Y012423D01*
X010908Y012423D01*
X010908Y012177D01*
X010970Y012055D02*
X010908Y011993D01*
X010908Y011870D01*
X010970Y011808D01*
X011217Y011808D01*
X011279Y011870D01*
X011279Y011993D01*
X011217Y012055D01*
X010070Y012143D02*
X010070Y012389D01*
X010008Y012511D02*
X010070Y012573D01*
X010070Y012696D01*
X010008Y012758D01*
X009947Y012758D01*
X009885Y012696D01*
X009885Y012634D01*
X009885Y012696D02*
X009823Y012758D01*
X009761Y012758D01*
X009700Y012696D01*
X009700Y012573D01*
X009761Y012511D01*
X009700Y012143D02*
X010070Y012143D01*
X008161Y013330D02*
X008161Y013392D01*
X008408Y013639D01*
X008408Y013700D01*
X008161Y013700D01*
X007793Y013700D02*
X007793Y013330D01*
X008039Y013330D01*
X006429Y013852D02*
X006429Y013975D01*
X006367Y014037D01*
X006367Y014158D02*
X006429Y014220D01*
X006429Y014343D01*
X006367Y014405D01*
X006305Y014405D01*
X006244Y014343D01*
X006244Y014282D01*
X006244Y014343D02*
X006182Y014405D01*
X006120Y014405D01*
X006058Y014343D01*
X006058Y014220D01*
X006120Y014158D01*
X006120Y014037D02*
X006058Y013975D01*
X006058Y013852D01*
X006120Y013790D01*
X006367Y013790D01*
X006429Y013852D01*
X006367Y014527D02*
X006429Y014588D01*
X006429Y014712D01*
X006367Y014773D01*
X006244Y014773D01*
X006182Y014712D01*
X006182Y014650D01*
X006244Y014527D01*
X006058Y014527D01*
X006058Y014773D01*
X008502Y008220D02*
X008440Y008159D01*
X008440Y007912D01*
X008502Y007850D01*
X008625Y007850D01*
X008687Y007912D01*
X008808Y008035D02*
X008994Y008220D01*
X008994Y007850D01*
X009055Y008035D02*
X008808Y008035D01*
X008687Y008159D02*
X008625Y008220D01*
X008502Y008220D01*
X008593Y007250D02*
X008717Y007250D01*
X008778Y007189D01*
X008778Y007127D01*
X008717Y007065D01*
X008778Y007003D01*
X008778Y006942D01*
X008717Y006880D01*
X008593Y006880D01*
X008532Y006942D01*
X008410Y006942D02*
X008348Y006880D01*
X008225Y006880D01*
X008163Y006942D01*
X008163Y007189D01*
X008225Y007250D01*
X008348Y007250D01*
X008410Y007189D01*
X008532Y007189D02*
X008593Y007250D01*
X008655Y007065D02*
X008717Y007065D01*
X008728Y006670D02*
X008789Y006609D01*
X008789Y006485D01*
X008728Y006423D01*
X008543Y006423D01*
X008666Y006423D02*
X008789Y006300D01*
X008911Y006362D02*
X008973Y006300D01*
X009096Y006300D01*
X009158Y006362D01*
X009158Y006609D01*
X009096Y006670D01*
X008973Y006670D01*
X008911Y006609D01*
X008911Y006547D01*
X008973Y006485D01*
X009158Y006485D01*
X008728Y006670D02*
X008543Y006670D01*
X008543Y006300D01*
X010580Y006803D02*
X010580Y006988D01*
X010641Y007049D01*
X010765Y007049D01*
X010827Y006988D01*
X010827Y006803D01*
X010827Y006926D02*
X010950Y007049D01*
X010950Y007171D02*
X010888Y007171D01*
X010641Y007418D01*
X010580Y007418D01*
X010580Y007171D01*
X010580Y006803D02*
X010950Y006803D01*
X012420Y005348D02*
X012420Y005101D01*
X012605Y005101D01*
X012543Y005224D01*
X012543Y005286D01*
X012605Y005348D01*
X012728Y005348D01*
X012790Y005286D01*
X012790Y005163D01*
X012728Y005101D01*
X012790Y004979D02*
X012667Y004856D01*
X012667Y004918D02*
X012667Y004733D01*
X012790Y004733D02*
X012420Y004733D01*
X012420Y004918D01*
X012481Y004979D01*
X012605Y004979D01*
X012667Y004918D01*
X014135Y005120D02*
X014197Y005059D01*
X014320Y005059D01*
X014382Y005120D01*
X014503Y005059D02*
X014750Y005059D01*
X014627Y005059D02*
X014627Y005429D01*
X014503Y005306D01*
X014382Y005367D02*
X014320Y005429D01*
X014197Y005429D01*
X014135Y005367D01*
X014135Y005120D01*
X014365Y005880D02*
X014488Y005880D01*
X014550Y005942D01*
X014672Y006065D02*
X014857Y006250D01*
X014857Y005880D01*
X015040Y005880D02*
X015287Y006127D01*
X015287Y006189D01*
X015225Y006250D01*
X015102Y006250D01*
X015040Y006189D01*
X014918Y006065D02*
X014672Y006065D01*
X014550Y006189D02*
X014488Y006250D01*
X014365Y006250D01*
X014303Y006189D01*
X014303Y005942D01*
X014365Y005880D01*
X015040Y005880D02*
X015287Y005880D01*
X015280Y006582D02*
X015526Y006582D01*
X015403Y006582D02*
X015403Y006952D01*
X015280Y006829D01*
X015158Y006891D02*
X015158Y006767D01*
X015096Y006705D01*
X014911Y006705D01*
X014911Y006582D02*
X014911Y006952D01*
X015096Y006952D01*
X015158Y006891D01*
X015035Y006705D02*
X015158Y006582D01*
X015648Y006644D02*
X015710Y006582D01*
X015833Y006582D01*
X015895Y006644D01*
X015895Y006705D01*
X015833Y006767D01*
X015771Y006767D01*
X015833Y006767D02*
X015895Y006829D01*
X015895Y006891D01*
X015833Y006952D01*
X015710Y006952D01*
X015648Y006891D01*
X016476Y006898D02*
X016476Y006775D01*
X016538Y006713D01*
X016476Y006898D02*
X016538Y006960D01*
X016600Y006960D01*
X016847Y006713D01*
X016847Y006960D01*
X016847Y006591D02*
X016847Y006345D01*
X016847Y006468D02*
X016476Y006468D01*
X016600Y006345D01*
X016538Y006223D02*
X016476Y006161D01*
X016476Y006038D01*
X016538Y005976D01*
X016785Y005976D01*
X016847Y006038D01*
X016847Y006161D01*
X016785Y006223D01*
X017311Y006582D02*
X017311Y006952D01*
X017496Y006952D01*
X017558Y006891D01*
X017558Y006767D01*
X017496Y006705D01*
X017311Y006705D01*
X017435Y006705D02*
X017558Y006582D01*
X017680Y006582D02*
X017926Y006582D01*
X017803Y006582D02*
X017803Y006952D01*
X017680Y006829D01*
X018048Y006767D02*
X018171Y006829D01*
X018233Y006829D01*
X018295Y006767D01*
X018295Y006644D01*
X018233Y006582D01*
X018110Y006582D01*
X018048Y006644D01*
X018048Y006767D02*
X018048Y006952D01*
X018295Y006952D01*
X018233Y007782D02*
X018233Y008152D01*
X018048Y007967D01*
X018295Y007967D01*
X017926Y007782D02*
X017680Y007782D01*
X017558Y007782D02*
X017435Y007905D01*
X017496Y007905D02*
X017311Y007905D01*
X017311Y007782D02*
X017311Y008152D01*
X017496Y008152D01*
X017558Y008091D01*
X017558Y007967D01*
X017496Y007905D01*
X017680Y008029D02*
X017803Y008152D01*
X017803Y007782D01*
X019649Y007839D02*
X019711Y007777D01*
X019834Y007777D01*
X019896Y007839D01*
X020017Y007777D02*
X020264Y007777D01*
X020141Y007777D02*
X020141Y008147D01*
X020017Y008024D01*
X019896Y008085D02*
X019834Y008147D01*
X019711Y008147D01*
X019649Y008085D01*
X019649Y007839D01*
X020385Y007839D02*
X020447Y007777D01*
X020571Y007777D01*
X020632Y007839D01*
X020632Y007900D01*
X020571Y007962D01*
X020509Y007962D01*
X020571Y007962D02*
X020632Y008024D01*
X020632Y008085D01*
X020571Y008147D01*
X020447Y008147D01*
X020385Y008085D01*
X020521Y006147D02*
X020335Y005962D01*
X020582Y005962D01*
X020521Y005777D02*
X020521Y006147D01*
X020214Y005962D02*
X019967Y005962D01*
X020152Y006147D01*
X020152Y005777D01*
X019846Y005839D02*
X019784Y005777D01*
X019661Y005777D01*
X019599Y005839D01*
X019599Y006085D01*
X019661Y006147D01*
X019784Y006147D01*
X019846Y006085D01*
X017295Y004429D02*
X017295Y004059D01*
X017172Y004059D02*
X017419Y004059D01*
X017172Y004306D02*
X017295Y004429D01*
X016989Y004429D02*
X016803Y004244D01*
X017050Y004244D01*
X016989Y004059D02*
X016989Y004429D01*
X016682Y004367D02*
X016620Y004429D01*
X016497Y004429D01*
X016435Y004367D01*
X016435Y004120D01*
X016497Y004059D01*
X016620Y004059D01*
X016682Y004120D01*
X014685Y007226D02*
X014438Y007226D01*
X014376Y007288D01*
X014376Y007411D01*
X014438Y007473D01*
X014438Y007595D02*
X014376Y007656D01*
X014376Y007780D01*
X014438Y007841D01*
X014500Y007841D01*
X014747Y007595D01*
X014747Y007841D01*
X014685Y007963D02*
X014747Y008025D01*
X014747Y008148D01*
X014685Y008210D01*
X014438Y008210D01*
X014376Y008148D01*
X014376Y008025D01*
X014438Y007963D01*
X014500Y007963D01*
X014562Y008025D01*
X014562Y008210D01*
X014911Y008152D02*
X015096Y008152D01*
X015158Y008091D01*
X015158Y007967D01*
X015096Y007905D01*
X014911Y007905D01*
X014911Y007782D02*
X014911Y008152D01*
X015035Y007905D02*
X015158Y007782D01*
X015280Y007782D02*
X015526Y007782D01*
X015648Y007782D02*
X015895Y008029D01*
X015895Y008091D01*
X015833Y008152D01*
X015710Y008152D01*
X015648Y008091D01*
X015403Y008152D02*
X015403Y007782D01*
X015648Y007782D02*
X015895Y007782D01*
X015403Y008152D02*
X015280Y008029D01*
X014685Y007473D02*
X014747Y007411D01*
X014747Y007288D01*
X014685Y007226D01*
X009691Y004557D02*
X009691Y004433D01*
X009630Y004372D01*
X009383Y004619D01*
X009630Y004619D01*
X009691Y004557D01*
X009630Y004372D02*
X009383Y004372D01*
X009321Y004433D01*
X009321Y004557D01*
X009383Y004619D01*
X009383Y004250D02*
X009321Y004189D01*
X009321Y004065D01*
X009383Y004003D01*
X009383Y003882D02*
X009321Y003820D01*
X009321Y003697D01*
X009383Y003635D01*
X009630Y003635D01*
X009691Y003697D01*
X009691Y003820D01*
X009630Y003882D01*
X009691Y004003D02*
X009444Y004250D01*
X009383Y004250D01*
X009691Y004250D02*
X009691Y004003D01*
X008543Y004249D02*
X008481Y004187D01*
X008358Y004187D01*
X008296Y004249D01*
X008174Y004187D02*
X008051Y004311D01*
X008113Y004311D02*
X007928Y004311D01*
X007928Y004187D02*
X007928Y004558D01*
X008113Y004558D01*
X008174Y004496D01*
X008174Y004373D01*
X008113Y004311D01*
X008296Y004496D02*
X008358Y004558D01*
X008481Y004558D01*
X008543Y004496D01*
X008543Y004434D01*
X008481Y004373D01*
X008543Y004311D01*
X008543Y004249D01*
X008481Y004373D02*
X008419Y004373D01*
X023308Y011602D02*
X023370Y011540D01*
X023617Y011540D01*
X023679Y011602D01*
X023679Y011725D01*
X023617Y011787D01*
X023617Y011908D02*
X023679Y011970D01*
X023679Y012093D01*
X023617Y012155D01*
X023555Y012155D01*
X023494Y012093D01*
X023494Y012032D01*
X023494Y012093D02*
X023432Y012155D01*
X023370Y012155D01*
X023308Y012093D01*
X023308Y011970D01*
X023370Y011908D01*
X023370Y011787D02*
X023308Y011725D01*
X023308Y011602D01*
X023432Y012277D02*
X023308Y012400D01*
X023679Y012400D01*
X023679Y012277D02*
X023679Y012523D01*
X024730Y012751D02*
X025100Y012751D01*
X025100Y012998D01*
X024915Y013119D02*
X024730Y013304D01*
X025100Y013304D01*
X024915Y013366D02*
X024915Y013119D01*
X026765Y014999D02*
X026703Y015061D01*
X026703Y015184D01*
X026765Y015246D01*
X026765Y015367D02*
X026703Y015429D01*
X026703Y015552D01*
X026765Y015614D01*
X026826Y015614D01*
X027073Y015367D01*
X027073Y015614D01*
X027011Y015735D02*
X026950Y015735D01*
X026888Y015797D01*
X026888Y015921D01*
X026950Y015982D01*
X027011Y015982D01*
X027073Y015921D01*
X027073Y015797D01*
X027011Y015735D01*
X026888Y015797D02*
X026826Y015735D01*
X026765Y015735D01*
X026703Y015797D01*
X026703Y015921D01*
X026765Y015982D01*
X026826Y015982D01*
X026888Y015921D01*
X027011Y015246D02*
X027073Y015184D01*
X027073Y015061D01*
X027011Y014999D01*
X026765Y014999D01*
X027810Y015041D02*
X027810Y015164D01*
X027871Y015226D01*
X027933Y015226D01*
X027995Y015164D01*
X028057Y015226D01*
X028118Y015226D01*
X028180Y015164D01*
X028180Y015041D01*
X028118Y014979D01*
X028180Y014858D02*
X028180Y014611D01*
X027933Y014858D01*
X027871Y014858D01*
X027810Y014796D01*
X027810Y014673D01*
X027871Y014611D01*
X027871Y014489D02*
X027995Y014489D01*
X028057Y014428D01*
X028057Y014242D01*
X028180Y014242D02*
X027810Y014242D01*
X027810Y014428D01*
X027871Y014489D01*
X028057Y014366D02*
X028180Y014489D01*
X027871Y014979D02*
X027810Y015041D01*
X027995Y015103D02*
X027995Y015164D01*
X029054Y010711D02*
X028992Y010649D01*
X028992Y010526D01*
X029054Y010464D01*
X029116Y010464D01*
X029177Y010526D01*
X029177Y010711D01*
X029054Y010711D02*
X029301Y010711D01*
X029363Y010649D01*
X029363Y010526D01*
X029301Y010464D01*
X029363Y010343D02*
X029363Y010096D01*
X029363Y009974D02*
X029239Y009851D01*
X029239Y009913D02*
X029239Y009728D01*
X029363Y009728D02*
X028992Y009728D01*
X028992Y009913D01*
X029054Y009974D01*
X029177Y009974D01*
X029239Y009913D01*
X029116Y010096D02*
X028992Y010219D01*
X029363Y010219D01*
X017163Y022028D02*
X016792Y022028D01*
X016792Y022213D01*
X016854Y022274D01*
X016977Y022274D01*
X017039Y022213D01*
X017039Y022028D01*
X017039Y022151D02*
X017163Y022274D01*
X017163Y022396D02*
X016916Y022643D01*
X016854Y022643D01*
X016792Y022581D01*
X016792Y022458D01*
X016854Y022396D01*
X017163Y022396D02*
X017163Y022643D01*
X017088Y022840D02*
X016841Y022840D01*
X016780Y022902D01*
X016780Y023025D01*
X016841Y023087D01*
X016841Y023208D02*
X016903Y023208D01*
X016965Y023270D01*
X016965Y023455D01*
X017088Y023455D02*
X016841Y023455D01*
X016780Y023394D01*
X016780Y023270D01*
X016841Y023208D01*
X017088Y023208D02*
X017150Y023270D01*
X017150Y023394D01*
X017088Y023455D01*
X017088Y023087D02*
X017150Y023025D01*
X017150Y022902D01*
X017088Y022840D01*
X018142Y023178D02*
X018142Y023363D01*
X018204Y023424D01*
X018327Y023424D01*
X018389Y023363D01*
X018389Y023178D01*
X018389Y023301D02*
X018513Y023424D01*
X018513Y023546D02*
X018513Y023793D01*
X018513Y023669D02*
X018142Y023669D01*
X018266Y023546D01*
X018142Y023178D02*
X018513Y023178D01*
X018562Y025871D02*
X018438Y025871D01*
X018377Y025933D01*
X018623Y026180D01*
X018623Y025933D01*
X018562Y025871D01*
X018377Y025933D02*
X018377Y026180D01*
X018438Y026242D01*
X018562Y026242D01*
X018623Y026180D01*
X018255Y025871D02*
X018008Y025871D01*
X018132Y025871D02*
X018132Y026242D01*
X018008Y026118D01*
X017887Y026180D02*
X017825Y026242D01*
X017702Y026242D01*
X017640Y026180D01*
X017640Y025933D01*
X017702Y025871D01*
X017825Y025871D01*
X017887Y025933D01*
X014747Y026761D02*
X014685Y026699D01*
X014438Y026699D01*
X014376Y026761D01*
X014376Y026884D01*
X014438Y026946D01*
X014438Y027067D02*
X014376Y027129D01*
X014376Y027253D01*
X014438Y027314D01*
X014500Y027314D01*
X014747Y027067D01*
X014747Y027314D01*
X014685Y027436D02*
X014747Y027497D01*
X014747Y027621D01*
X014685Y027683D01*
X014562Y027683D01*
X014500Y027621D01*
X014500Y027559D01*
X014562Y027436D01*
X014376Y027436D01*
X014376Y027683D01*
X014685Y026946D02*
X014747Y026884D01*
X014747Y026761D01*
X004797Y026734D02*
X004735Y026796D01*
X004797Y026734D02*
X004797Y026611D01*
X004735Y026549D01*
X004488Y026549D01*
X004426Y026611D01*
X004426Y026734D01*
X004488Y026796D01*
X004488Y026917D02*
X004426Y026979D01*
X004426Y027103D01*
X004488Y027164D01*
X004550Y027164D01*
X004797Y026917D01*
X004797Y027164D01*
X004735Y027286D02*
X004797Y027347D01*
X004797Y027471D01*
X004735Y027533D01*
X004673Y027533D01*
X004612Y027471D01*
X004612Y027286D01*
X004735Y027286D01*
X004612Y027286D02*
X004488Y027409D01*
X004426Y027533D01*
D14*
X017207Y023597D02*
X017207Y022003D01*
X018093Y022003D01*
X018093Y023597D01*
X017207Y023597D01*
X018557Y023153D02*
X018557Y024747D01*
X019443Y024747D01*
X019443Y023153D01*
X018557Y023153D01*
X013035Y017663D02*
X012465Y017663D01*
X012465Y016737D01*
X013035Y016737D01*
X013035Y017663D01*
X013303Y017193D02*
X014897Y017193D01*
X014897Y016307D01*
X013303Y016307D01*
X013303Y017193D01*
X012897Y016443D02*
X011303Y016443D01*
X011303Y015557D01*
X012897Y015557D01*
X012897Y016443D01*
X012897Y015543D02*
X011303Y015543D01*
X011303Y014657D01*
X012897Y014657D01*
X012897Y015543D01*
X013003Y015543D02*
X014597Y015543D01*
X014597Y014657D01*
X013003Y014657D01*
X013003Y015543D01*
X010785Y013463D02*
X010215Y013463D01*
X010215Y012537D01*
X010785Y012537D01*
X010785Y013463D01*
X008613Y013715D02*
X008613Y014285D01*
X007687Y014285D01*
X007687Y013715D01*
X008613Y013715D01*
X007813Y016565D02*
X006887Y016565D01*
X006887Y017135D01*
X007813Y017135D01*
X007813Y016565D01*
X009037Y017815D02*
X009963Y017815D01*
X009963Y018385D01*
X009037Y018385D01*
X009037Y017815D01*
X016915Y014513D02*
X016915Y013587D01*
X017485Y013587D01*
X017485Y014513D01*
X016915Y014513D01*
X017753Y013043D02*
X019347Y013043D01*
X019347Y012157D01*
X017753Y012157D01*
X017753Y013043D01*
X017543Y012047D02*
X016657Y012047D01*
X016657Y010453D01*
X017543Y010453D01*
X017543Y012047D01*
X016643Y012047D02*
X016643Y010453D01*
X015757Y010453D01*
X015757Y012047D01*
X016643Y012047D01*
X013943Y012047D02*
X013943Y010453D01*
X013057Y010453D01*
X013057Y012047D01*
X013943Y012047D01*
X010835Y010763D02*
X010835Y009837D01*
X010265Y009837D01*
X010265Y010763D01*
X010835Y010763D01*
X014889Y008974D02*
X014889Y008226D01*
X016011Y008226D01*
X016011Y008974D01*
X014889Y008974D01*
X014889Y007774D02*
X016011Y007774D01*
X016011Y007026D01*
X014889Y007026D01*
X014889Y007774D01*
X017289Y007774D02*
X017289Y007026D01*
X018411Y007026D01*
X018411Y007774D01*
X017289Y007774D01*
X017289Y008226D02*
X017289Y008974D01*
X018411Y008974D01*
X018411Y008226D01*
X017289Y008226D01*
X012685Y006313D02*
X012685Y005387D01*
X012115Y005387D01*
X012115Y006313D01*
X012685Y006313D01*
X011605Y006477D02*
X011605Y007403D01*
X011035Y007403D01*
X011035Y006477D01*
X011605Y006477D01*
X010563Y006285D02*
X010563Y006855D01*
X009637Y006855D01*
X009637Y006285D01*
X010563Y006285D01*
X011087Y005235D02*
X012013Y005235D01*
X012013Y004665D01*
X011087Y004665D01*
X011087Y005235D01*
X009097Y005443D02*
X009097Y004557D01*
X007503Y004557D01*
X007503Y005443D01*
X009097Y005443D01*
X023339Y007026D02*
X023339Y007774D01*
X024461Y007774D01*
X024461Y007026D01*
X023339Y007026D01*
X023339Y008226D02*
X023339Y008974D01*
X024461Y008974D01*
X024461Y008226D01*
X023339Y008226D01*
X025689Y008226D02*
X025689Y008974D01*
X026811Y008974D01*
X026811Y008226D01*
X025689Y008226D01*
X025689Y007774D02*
X026811Y007774D01*
X026811Y007026D01*
X025689Y007026D01*
X025689Y007774D01*
X026489Y006924D02*
X027611Y006924D01*
X027611Y006176D01*
X026489Y006176D01*
X026489Y006924D01*
X028007Y009103D02*
X028893Y009103D01*
X028893Y010697D01*
X028007Y010697D01*
X028007Y009103D01*
X030153Y010057D02*
X031747Y010057D01*
X031747Y010943D01*
X030153Y010943D01*
X030153Y010057D01*
X030139Y011976D02*
X030139Y012724D01*
X031261Y012724D01*
X031261Y011976D01*
X030139Y011976D01*
X028335Y013237D02*
X027765Y013237D01*
X027765Y014163D01*
X028335Y014163D01*
X028335Y013237D01*
X028307Y014215D02*
X029233Y014215D01*
X029233Y014785D01*
X028307Y014785D01*
X028307Y014215D01*
X025285Y012563D02*
X025285Y011637D01*
X024715Y011637D01*
X024715Y012563D01*
X025285Y012563D01*
D15*
X028120Y012290D02*
X028120Y012136D01*
X028196Y012060D01*
X028120Y011906D02*
X028503Y011906D01*
X028580Y011829D01*
X028580Y011676D01*
X028503Y011599D01*
X028120Y011599D01*
X028503Y012060D02*
X028580Y012136D01*
X028580Y012290D01*
X028503Y012367D01*
X028427Y012367D01*
X028350Y012290D01*
X028350Y012213D01*
X028350Y012290D02*
X028273Y012367D01*
X028196Y012367D01*
X028120Y012290D01*
X034770Y011880D02*
X034770Y011420D01*
X035077Y011420D02*
X035077Y011880D01*
X034923Y011727D01*
X034770Y011880D01*
X035230Y011804D02*
X035230Y011497D01*
X035307Y011420D01*
X035461Y011420D01*
X035537Y011497D01*
X035537Y011804D01*
X035461Y011880D01*
X035307Y011880D01*
X035230Y011804D01*
X035691Y011880D02*
X035691Y011420D01*
X035921Y011420D01*
X035998Y011497D01*
X035998Y011804D01*
X035921Y011880D01*
X035691Y011880D01*
X036151Y011343D02*
X036458Y011343D01*
X036612Y011420D02*
X036765Y011420D01*
X036688Y011420D02*
X036688Y011880D01*
X036612Y011880D02*
X036765Y011880D01*
X036918Y011880D02*
X037225Y011420D01*
X037225Y011880D01*
X036918Y011880D02*
X036918Y011420D01*
X025830Y004537D02*
X025830Y004230D01*
X025523Y004537D01*
X025446Y004537D01*
X025370Y004461D01*
X025370Y004307D01*
X025446Y004230D01*
X025446Y004077D02*
X025370Y004000D01*
X025370Y003770D01*
X025830Y003770D01*
X025830Y004000D01*
X025753Y004077D01*
X025446Y004077D01*
X021280Y001043D02*
X021280Y000583D01*
X021049Y000583D01*
X020973Y000659D01*
X020973Y000813D01*
X021049Y000890D01*
X021280Y000890D01*
X020819Y000583D02*
X020666Y000583D01*
X020742Y000583D02*
X020742Y001043D01*
X020666Y001043D01*
X020512Y000813D02*
X020512Y000736D01*
X020205Y000736D01*
X020205Y000659D02*
X020205Y000813D01*
X020282Y000890D01*
X020435Y000890D01*
X020512Y000813D01*
X020435Y000583D02*
X020282Y000583D01*
X020205Y000659D01*
X020052Y000583D02*
X019898Y000583D01*
X019975Y000583D02*
X019975Y000890D01*
X019898Y000890D01*
X019975Y001043D02*
X019975Y001120D01*
X019668Y000890D02*
X019745Y000813D01*
X019745Y000583D01*
X019438Y000583D02*
X019438Y001043D01*
X019515Y000890D02*
X019438Y000813D01*
X019515Y000890D02*
X019668Y000890D01*
X019284Y000966D02*
X019208Y001043D01*
X019054Y001043D01*
X018978Y000966D01*
X018978Y000890D01*
X019054Y000813D01*
X019208Y000813D01*
X019284Y000736D01*
X019284Y000659D01*
X019208Y000583D01*
X019054Y000583D01*
X018978Y000659D01*
X018364Y001043D02*
X018057Y001043D01*
X018057Y000583D01*
X017903Y000583D02*
X017750Y000736D01*
X017827Y000736D02*
X017596Y000736D01*
X017596Y000583D02*
X017596Y001043D01*
X017827Y001043D01*
X017903Y000966D01*
X017903Y000813D01*
X017827Y000736D01*
X018057Y000813D02*
X018210Y000813D01*
X014837Y009570D02*
X014530Y009570D01*
X014684Y009570D02*
X014684Y010030D01*
X014530Y009877D01*
X014377Y009954D02*
X014300Y010030D01*
X014070Y010030D01*
X014070Y009570D01*
X014300Y009570D01*
X014377Y009647D01*
X014377Y009954D01*
X014161Y013820D02*
X014161Y014280D01*
X013930Y014050D01*
X014237Y014050D01*
X013777Y013897D02*
X013777Y014280D01*
X013470Y014280D02*
X013470Y013897D01*
X013547Y013820D01*
X013700Y013820D01*
X013777Y013897D01*
X010861Y017670D02*
X010707Y017670D01*
X010630Y017747D01*
X010477Y017747D02*
X010477Y018130D01*
X010630Y018130D02*
X010630Y017900D01*
X010784Y017977D01*
X010861Y017977D01*
X010937Y017900D01*
X010937Y017747D01*
X010861Y017670D01*
X010477Y017747D02*
X010400Y017670D01*
X010247Y017670D01*
X010170Y017747D01*
X010170Y018130D01*
X010630Y018130D02*
X010937Y018130D01*
X013141Y025486D02*
X012236Y026391D01*
X012236Y028714D01*
X013456Y028714D01*
X014244Y028714D02*
X015464Y028714D01*
X015464Y026391D01*
X014559Y025486D01*
X014244Y025486D01*
X013456Y025486D02*
X013141Y025486D01*
X013496Y025584D02*
X013419Y025604D01*
X013344Y025627D01*
X013270Y025655D01*
X013198Y025686D01*
X013127Y025721D01*
X013058Y025759D01*
X012992Y025801D01*
X012927Y025846D01*
X012865Y025894D01*
X012805Y025946D01*
X012748Y026000D01*
X012694Y026057D01*
X012642Y026117D01*
X012594Y026179D01*
X012549Y026244D01*
X012508Y026311D01*
X012470Y026380D01*
X012435Y026451D01*
X012404Y026523D01*
X012376Y026597D01*
X012353Y026672D01*
X012333Y026748D01*
X012317Y026826D01*
X012305Y026904D01*
X012297Y026982D01*
X012293Y027061D01*
X012293Y027139D01*
X012297Y027218D01*
X012305Y027296D01*
X012317Y027374D01*
X012333Y027452D01*
X012353Y027528D01*
X012376Y027603D01*
X012404Y027677D01*
X012435Y027749D01*
X012470Y027820D01*
X012508Y027889D01*
X012549Y027956D01*
X012594Y028021D01*
X012642Y028083D01*
X012694Y028143D01*
X012748Y028200D01*
X012805Y028254D01*
X012865Y028306D01*
X012927Y028354D01*
X012992Y028399D01*
X013058Y028441D01*
X013127Y028479D01*
X013198Y028514D01*
X013270Y028545D01*
X013344Y028573D01*
X013419Y028596D01*
X013496Y028616D01*
X014204Y028616D02*
X014281Y028596D01*
X014356Y028573D01*
X014430Y028545D01*
X014502Y028514D01*
X014573Y028479D01*
X014642Y028441D01*
X014708Y028399D01*
X014773Y028354D01*
X014835Y028306D01*
X014895Y028254D01*
X014952Y028200D01*
X015006Y028143D01*
X015058Y028083D01*
X015106Y028021D01*
X015151Y027956D01*
X015192Y027889D01*
X015230Y027820D01*
X015265Y027749D01*
X015296Y027677D01*
X015324Y027603D01*
X015347Y027528D01*
X015367Y027452D01*
X015383Y027374D01*
X015395Y027296D01*
X015403Y027218D01*
X015407Y027139D01*
X015407Y027061D01*
X015403Y026982D01*
X015395Y026904D01*
X015383Y026826D01*
X015367Y026748D01*
X015347Y026672D01*
X015324Y026597D01*
X015296Y026523D01*
X015265Y026451D01*
X015230Y026380D01*
X015192Y026311D01*
X015151Y026244D01*
X015106Y026179D01*
X015058Y026117D01*
X015006Y026057D01*
X014952Y026000D01*
X014895Y025946D01*
X014835Y025894D01*
X014773Y025846D01*
X014708Y025801D01*
X014642Y025759D01*
X014573Y025721D01*
X014502Y025686D01*
X014430Y025655D01*
X014356Y025627D01*
X014281Y025604D01*
X014204Y025584D01*
X020420Y027547D02*
X020497Y027470D01*
X020650Y027470D01*
X020727Y027547D01*
X020727Y027930D01*
X020880Y027854D02*
X020957Y027930D01*
X021111Y027930D01*
X021187Y027854D01*
X021187Y027777D01*
X020880Y027470D01*
X021187Y027470D01*
X020420Y027547D02*
X020420Y027930D01*
X005514Y028564D02*
X005514Y026241D01*
X004609Y025336D01*
X004294Y025336D01*
X003506Y025336D02*
X003191Y025336D01*
X002286Y026241D01*
X002286Y028564D01*
X003506Y028564D01*
X004294Y028564D02*
X005514Y028564D01*
X004254Y028466D02*
X004331Y028446D01*
X004406Y028423D01*
X004480Y028395D01*
X004552Y028364D01*
X004623Y028329D01*
X004692Y028291D01*
X004758Y028249D01*
X004823Y028204D01*
X004885Y028156D01*
X004945Y028104D01*
X005002Y028050D01*
X005056Y027993D01*
X005108Y027933D01*
X005156Y027871D01*
X005201Y027806D01*
X005242Y027739D01*
X005280Y027670D01*
X005315Y027599D01*
X005346Y027527D01*
X005374Y027453D01*
X005397Y027378D01*
X005417Y027302D01*
X005433Y027224D01*
X005445Y027146D01*
X005453Y027068D01*
X005457Y026989D01*
X005457Y026911D01*
X005453Y026832D01*
X005445Y026754D01*
X005433Y026676D01*
X005417Y026598D01*
X005397Y026522D01*
X005374Y026447D01*
X005346Y026373D01*
X005315Y026301D01*
X005280Y026230D01*
X005242Y026161D01*
X005201Y026094D01*
X005156Y026029D01*
X005108Y025967D01*
X005056Y025907D01*
X005002Y025850D01*
X004945Y025796D01*
X004885Y025744D01*
X004823Y025696D01*
X004758Y025651D01*
X004692Y025609D01*
X004623Y025571D01*
X004552Y025536D01*
X004480Y025505D01*
X004406Y025477D01*
X004331Y025454D01*
X004254Y025434D01*
X003546Y025434D02*
X003469Y025454D01*
X003394Y025477D01*
X003320Y025505D01*
X003248Y025536D01*
X003177Y025571D01*
X003108Y025609D01*
X003042Y025651D01*
X002977Y025696D01*
X002915Y025744D01*
X002855Y025796D01*
X002798Y025850D01*
X002744Y025907D01*
X002692Y025967D01*
X002644Y026029D01*
X002599Y026094D01*
X002558Y026161D01*
X002520Y026230D01*
X002485Y026301D01*
X002454Y026373D01*
X002426Y026447D01*
X002403Y026522D01*
X002383Y026598D01*
X002367Y026676D01*
X002355Y026754D01*
X002347Y026832D01*
X002343Y026911D01*
X002343Y026989D01*
X002347Y027068D01*
X002355Y027146D01*
X002367Y027224D01*
X002383Y027302D01*
X002403Y027378D01*
X002426Y027453D01*
X002454Y027527D01*
X002485Y027599D01*
X002520Y027670D01*
X002558Y027739D01*
X002599Y027806D01*
X002644Y027871D01*
X002692Y027933D01*
X002744Y027993D01*
X002798Y028050D01*
X002855Y028104D01*
X002915Y028156D01*
X002977Y028204D01*
X003042Y028249D01*
X003108Y028291D01*
X003177Y028329D01*
X003248Y028364D01*
X003320Y028395D01*
X003394Y028423D01*
X003469Y028446D01*
X003546Y028466D01*
X034670Y021980D02*
X034670Y021520D01*
X034900Y021520D01*
X034977Y021597D01*
X034977Y021904D01*
X034900Y021980D01*
X034670Y021980D01*
X035130Y021904D02*
X035130Y021597D01*
X035207Y021520D01*
X035361Y021520D01*
X035437Y021597D01*
X035591Y021443D02*
X035898Y021443D01*
X036051Y021520D02*
X036205Y021520D01*
X036128Y021520D02*
X036128Y021980D01*
X036051Y021980D02*
X036205Y021980D01*
X036358Y021980D02*
X036665Y021520D01*
X036665Y021980D01*
X036358Y021980D02*
X036358Y021520D01*
X035437Y021904D02*
X035361Y021980D01*
X035207Y021980D01*
X035130Y021904D01*
X035770Y001780D02*
X035770Y001320D01*
X035770Y001550D02*
X036077Y001550D01*
X036230Y001473D02*
X036230Y001780D01*
X036077Y001780D02*
X036077Y001320D01*
X036230Y001473D02*
X036384Y001320D01*
X036537Y001473D01*
X036537Y001780D01*
X036691Y001243D02*
X036998Y001243D01*
X037151Y001397D02*
X037228Y001320D01*
X037381Y001320D01*
X037458Y001397D01*
X037458Y001704D01*
X037381Y001780D01*
X037228Y001780D01*
X037151Y001704D01*
X037151Y001397D01*
X037612Y001397D02*
X037612Y001780D01*
X037918Y001780D02*
X037918Y001397D01*
X037842Y001320D01*
X037688Y001320D01*
X037612Y001397D01*
X038072Y001780D02*
X038379Y001780D01*
X038225Y001780D02*
X038225Y001320D01*
D16*
X040164Y002336D02*
X040164Y008064D01*
X034593Y008064D01*
X034593Y002336D01*
X040164Y002336D01*
X040194Y002680D02*
X043609Y002680D01*
X043609Y007720D01*
X040204Y007720D01*
X043658Y007129D02*
X048511Y007129D01*
X048511Y003271D01*
X043648Y003271D01*
X040164Y012336D02*
X034593Y012336D01*
X034593Y018064D01*
X040164Y018064D01*
X040164Y012336D01*
X040194Y012680D02*
X043609Y012680D01*
X043609Y017720D01*
X040204Y017720D01*
X043658Y017129D02*
X048511Y017129D01*
X048511Y013271D01*
X043648Y013271D01*
X040164Y022336D02*
X034593Y022336D01*
X034593Y028064D01*
X040164Y028064D01*
X040164Y022336D01*
X040194Y022680D02*
X043609Y022680D01*
X043609Y027720D01*
X040204Y027720D01*
X043658Y027129D02*
X048511Y027129D01*
X048511Y023271D01*
X043648Y023271D01*
X021466Y023244D02*
X021466Y027256D01*
D17*
X046725Y025200D03*
X046725Y015200D03*
X046725Y005200D03*
D18*
X021170Y023910D03*
X021170Y024580D03*
X021170Y025250D03*
X021170Y025920D03*
X021170Y026590D03*
M02*
