G75*
%MOIN*%
%OFA0B0*%
%FSLAX24Y24*%
%IPPOS*%
%LPD*%
%AMOC8*
5,1,8,0,0,1.08239X$1,22.5*
%
%ADD10C,0.0340*%
%ADD11C,0.0554*%
%ADD12C,0.1181*%
%ADD13C,0.0600*%
%ADD14C,0.0436*%
%ADD15C,0.0300*%
%ADD16C,0.0396*%
%ADD17C,0.0100*%
%ADD18C,0.0240*%
%ADD19C,0.1000*%
%ADD20C,0.0800*%
%ADD21C,0.0160*%
%ADD22C,0.0250*%
%ADD23C,0.0080*%
%ADD24C,0.0357*%
D10*
X010850Y008200D03*
X011350Y008200D03*
X011350Y008700D03*
X010850Y008700D03*
D11*
X035300Y006200D03*
X035300Y005200D03*
X035300Y015200D03*
X035300Y016200D03*
X035300Y025200D03*
X035300Y026200D03*
D12*
X037300Y027200D03*
X037300Y023200D03*
X037300Y017200D03*
X037300Y013200D03*
X037300Y007200D03*
X037300Y003200D03*
D13*
X004950Y023000D02*
X004950Y023600D01*
X003950Y023600D02*
X003950Y023000D01*
X009050Y026350D02*
X009650Y026350D01*
X009650Y027350D02*
X009050Y027350D01*
X009050Y028350D02*
X009650Y028350D01*
D14*
X017400Y025450D03*
X019600Y025250D03*
X015700Y022750D03*
X007350Y015700D03*
X006950Y015300D03*
X009850Y014900D03*
X011650Y013850D03*
X008750Y007650D03*
X009140Y007100D03*
D15*
X009100Y005900D03*
X008400Y005850D03*
X010350Y006000D03*
X010900Y005950D03*
X011450Y006000D03*
X011850Y006100D03*
X011930Y006910D03*
X011920Y007500D03*
X010850Y006450D03*
X012360Y008890D03*
X012360Y009730D03*
X012360Y010450D03*
X012340Y011710D03*
X012340Y012260D03*
X016200Y010350D03*
X017100Y010350D03*
X017950Y010300D03*
X018800Y010750D03*
X019300Y010750D03*
X021350Y011050D03*
X021350Y010250D03*
X021350Y012150D03*
X019550Y012600D03*
X021350Y013250D03*
X021350Y014550D03*
X021350Y016050D03*
X021350Y017650D03*
X021350Y019450D03*
X021250Y021450D03*
X019250Y021450D03*
X018150Y021450D03*
X016250Y021450D03*
X015050Y021450D03*
X013050Y021450D03*
X011250Y021450D03*
X009150Y021450D03*
X008450Y021450D03*
X006550Y021450D03*
X005850Y021450D03*
X004350Y021450D03*
X002850Y021450D03*
X001950Y021450D03*
X001450Y020350D03*
X001450Y019050D03*
X001450Y017850D03*
X001450Y016750D03*
X001450Y015750D03*
X001450Y014750D03*
X001450Y013650D03*
X001450Y012650D03*
X001450Y011550D03*
X001450Y010350D03*
X001450Y009250D03*
X001450Y008150D03*
X001450Y006950D03*
X001450Y005750D03*
X001450Y004450D03*
X001450Y003050D03*
X001450Y001550D03*
X002550Y001550D03*
X004650Y001550D03*
X006750Y001550D03*
X008350Y001550D03*
X009950Y001550D03*
X011450Y001550D03*
X012950Y001550D03*
X014550Y001550D03*
X016050Y001550D03*
X017950Y001550D03*
X020250Y001550D03*
X021350Y002150D03*
X021350Y003650D03*
X021350Y005350D03*
X019350Y005250D03*
X018850Y005250D03*
D16*
X019550Y007400D03*
X019600Y008600D03*
X023100Y008600D03*
X023200Y007400D03*
X024450Y010350D03*
X025710Y010560D03*
X026420Y010750D03*
X026300Y012600D03*
X024200Y012900D03*
X026300Y015200D03*
X027600Y015300D03*
X028400Y015150D03*
X029050Y015960D03*
X030960Y014080D03*
X031650Y012350D03*
X032200Y011700D03*
X032100Y011000D03*
X028500Y008900D03*
X017200Y014750D03*
X015700Y014950D03*
X015850Y015550D03*
X015350Y016750D03*
X012750Y017900D03*
X011400Y018050D03*
X011450Y018600D03*
X007050Y016400D03*
X007500Y014000D03*
X010100Y013300D03*
X010800Y015200D03*
X013950Y013400D03*
X010550Y009750D03*
X009500Y008300D03*
X009430Y006570D03*
X012200Y005200D03*
X010200Y004300D03*
X014700Y007000D03*
X005100Y008500D03*
X017200Y020200D03*
X017950Y024350D03*
X018300Y024700D03*
X020000Y027300D03*
D17*
X000650Y029750D02*
X000650Y000650D01*
X039750Y000650D01*
X039750Y029750D01*
X000650Y029750D01*
X000650Y029741D02*
X039750Y029741D01*
X039750Y029642D02*
X000650Y029642D01*
X000650Y029544D02*
X009515Y029544D01*
X009531Y029550D02*
X009219Y029421D01*
X008998Y029200D01*
X007181Y029200D01*
X006869Y029071D01*
X006429Y028631D01*
X006300Y028319D01*
X006300Y027981D01*
X006429Y027669D01*
X006650Y027448D01*
X006650Y016775D01*
X006585Y016710D01*
X006502Y016509D01*
X006502Y016330D01*
X004314Y016330D01*
X004156Y016265D01*
X004035Y016144D01*
X003970Y015986D01*
X003970Y012814D01*
X004035Y012656D01*
X004156Y012535D01*
X004314Y012470D01*
X013098Y012470D01*
X011631Y011003D01*
X011497Y010869D01*
X011425Y010694D01*
X011425Y009275D01*
X011069Y009275D01*
X011025Y009231D01*
X011025Y008968D01*
X011002Y008984D01*
X010943Y009008D01*
X010882Y009020D01*
X010850Y009020D01*
X010850Y008700D01*
X010850Y008700D01*
X010850Y008700D01*
X010530Y008700D01*
X010530Y008732D01*
X010542Y008793D01*
X010566Y008852D01*
X010601Y008904D01*
X010646Y008949D01*
X010698Y008984D01*
X010757Y009008D01*
X010818Y009020D01*
X010850Y009020D01*
X010850Y008700D01*
X010850Y008380D01*
X010850Y008290D01*
X010850Y008290D01*
X010850Y008700D01*
X010850Y008700D01*
X010530Y008700D01*
X010530Y008668D01*
X010542Y008607D01*
X010566Y008548D01*
X010601Y008496D01*
X010646Y008451D01*
X010648Y008450D01*
X010646Y008449D01*
X010601Y008404D01*
X010566Y008352D01*
X010542Y008293D01*
X010542Y008290D01*
X010048Y008290D01*
X010048Y008409D01*
X009965Y008610D01*
X009810Y008765D01*
X009609Y008848D01*
X009391Y008848D01*
X009190Y008765D01*
X009035Y008610D01*
X008952Y008409D01*
X008952Y008261D01*
X008879Y008231D01*
X008769Y008121D01*
X008710Y007978D01*
X008710Y004622D01*
X008769Y004479D01*
X008879Y004369D01*
X009022Y004310D01*
X009178Y004310D01*
X009652Y004310D01*
X009652Y004191D01*
X009735Y003990D01*
X009890Y003835D01*
X000650Y003835D01*
X000650Y003933D02*
X009791Y003933D01*
X009718Y004032D02*
X000650Y004032D01*
X000650Y004130D02*
X009677Y004130D01*
X009652Y004229D02*
X000650Y004229D01*
X000650Y004327D02*
X008980Y004327D01*
X008822Y004426D02*
X000650Y004426D01*
X000650Y004524D02*
X008751Y004524D01*
X008710Y004623D02*
X000650Y004623D01*
X000650Y004721D02*
X008710Y004721D01*
X008710Y004820D02*
X000650Y004820D01*
X000650Y004918D02*
X008710Y004918D01*
X008710Y005017D02*
X000650Y005017D01*
X000650Y005115D02*
X008710Y005115D01*
X008710Y005214D02*
X000650Y005214D01*
X000650Y005312D02*
X008710Y005312D01*
X008710Y005411D02*
X000650Y005411D01*
X000650Y005509D02*
X008710Y005509D01*
X008710Y005608D02*
X000650Y005608D01*
X000650Y005706D02*
X008710Y005706D01*
X008710Y005805D02*
X000650Y005805D01*
X000650Y005903D02*
X008710Y005903D01*
X008710Y006002D02*
X000650Y006002D01*
X000650Y006100D02*
X008710Y006100D01*
X008710Y006199D02*
X000650Y006199D01*
X000650Y006297D02*
X008710Y006297D01*
X008710Y006396D02*
X000650Y006396D01*
X000650Y006494D02*
X008710Y006494D01*
X008710Y006593D02*
X000650Y006593D01*
X000650Y006691D02*
X008710Y006691D01*
X008710Y006790D02*
X000650Y006790D01*
X000650Y006888D02*
X008710Y006888D01*
X008710Y006987D02*
X000650Y006987D01*
X000650Y007085D02*
X008710Y007085D01*
X008710Y007184D02*
X000650Y007184D01*
X000650Y007282D02*
X008710Y007282D01*
X008710Y007381D02*
X000650Y007381D01*
X000650Y007479D02*
X008710Y007479D01*
X008710Y007578D02*
X000650Y007578D01*
X000650Y007676D02*
X008710Y007676D01*
X008710Y007775D02*
X000650Y007775D01*
X000650Y007873D02*
X008710Y007873D01*
X008710Y007972D02*
X005258Y007972D01*
X005209Y007952D02*
X005410Y008035D01*
X005565Y008190D01*
X005648Y008391D01*
X005648Y008609D01*
X005565Y008810D01*
X005410Y008965D01*
X005209Y009048D01*
X004991Y009048D01*
X004790Y008965D01*
X004635Y008810D01*
X004552Y008609D01*
X004552Y008391D01*
X004635Y008190D01*
X004790Y008035D01*
X004991Y007952D01*
X005209Y007952D01*
X005446Y008070D02*
X008748Y008070D01*
X008817Y008169D02*
X005544Y008169D01*
X005597Y008267D02*
X008952Y008267D01*
X008952Y008366D02*
X005638Y008366D01*
X005648Y008464D02*
X008975Y008464D01*
X009016Y008563D02*
X005648Y008563D01*
X005626Y008661D02*
X009086Y008661D01*
X009185Y008760D02*
X005586Y008760D01*
X005517Y008858D02*
X010571Y008858D01*
X010536Y008760D02*
X009815Y008760D01*
X009914Y008661D02*
X010531Y008661D01*
X010560Y008563D02*
X009984Y008563D01*
X010025Y008464D02*
X010633Y008464D01*
X010576Y008366D02*
X010048Y008366D01*
X010850Y008366D02*
X010850Y008366D01*
X010850Y008464D02*
X010850Y008464D01*
X010850Y008563D02*
X010850Y008563D01*
X010850Y008661D02*
X010850Y008661D01*
X010850Y008760D02*
X010850Y008760D01*
X010850Y008858D02*
X010850Y008858D01*
X010850Y008957D02*
X010850Y008957D01*
X010659Y008957D02*
X005418Y008957D01*
X004782Y008957D02*
X000650Y008957D01*
X000650Y009055D02*
X011025Y009055D01*
X011025Y009154D02*
X000650Y009154D01*
X000650Y009252D02*
X010319Y009252D01*
X010240Y009285D02*
X010441Y009202D01*
X010659Y009202D01*
X010860Y009285D01*
X011015Y009440D01*
X011098Y009641D01*
X011098Y009859D01*
X011015Y010060D01*
X010860Y010215D01*
X010659Y010298D01*
X010441Y010298D01*
X010240Y010215D01*
X010085Y010060D01*
X010002Y009859D01*
X010002Y009641D01*
X010085Y009440D01*
X010240Y009285D01*
X010174Y009351D02*
X000650Y009351D01*
X000650Y009449D02*
X010081Y009449D01*
X010040Y009548D02*
X000650Y009548D01*
X000650Y009646D02*
X010002Y009646D01*
X010002Y009745D02*
X000650Y009745D01*
X000650Y009843D02*
X010002Y009843D01*
X010036Y009942D02*
X000650Y009942D01*
X000650Y010040D02*
X010077Y010040D01*
X010164Y010139D02*
X000650Y010139D01*
X000650Y010237D02*
X010295Y010237D01*
X010805Y010237D02*
X011425Y010237D01*
X011425Y010139D02*
X010936Y010139D01*
X011023Y010040D02*
X011425Y010040D01*
X011425Y009942D02*
X011064Y009942D01*
X011098Y009843D02*
X011425Y009843D01*
X011425Y009745D02*
X011098Y009745D01*
X011098Y009646D02*
X011425Y009646D01*
X011425Y009548D02*
X011060Y009548D01*
X011019Y009449D02*
X011425Y009449D01*
X011425Y009351D02*
X010926Y009351D01*
X011046Y009252D02*
X010781Y009252D01*
X012375Y009252D02*
X018760Y009252D01*
X018760Y009337D02*
X018760Y007863D01*
X018813Y007810D01*
X018981Y007810D01*
X018963Y007785D01*
X018955Y007782D01*
X018942Y007755D01*
X018925Y007731D01*
X018927Y007722D01*
X018907Y007679D01*
X018899Y007675D01*
X018891Y007646D01*
X018879Y007619D01*
X018882Y007611D01*
X018870Y007565D01*
X018863Y007559D01*
X018860Y007530D01*
X018853Y007501D01*
X018857Y007494D01*
X018853Y007446D01*
X018847Y007439D01*
X018850Y007410D01*
X018847Y007381D01*
X015239Y007381D01*
X015230Y007394D02*
X015230Y007403D01*
X015209Y007424D01*
X015192Y007448D01*
X015183Y007449D01*
X015149Y007483D01*
X015148Y007492D01*
X015124Y007509D01*
X015103Y007530D01*
X015094Y007530D01*
X015055Y007557D01*
X015052Y007565D01*
X015025Y007578D01*
X018873Y007578D01*
X018856Y007479D02*
X015153Y007479D01*
X015230Y007394D02*
X015257Y007355D01*
X015265Y007352D01*
X015278Y007325D01*
X015295Y007301D01*
X015293Y007292D01*
X015313Y007249D01*
X015321Y007245D01*
X015329Y007216D01*
X015341Y007189D01*
X015338Y007181D01*
X015350Y007135D01*
X015357Y007129D01*
X015360Y007100D01*
X015367Y007071D01*
X015363Y007064D01*
X015367Y007016D01*
X015373Y007009D01*
X015370Y006980D01*
X015373Y006951D01*
X015367Y006944D01*
X015363Y006896D01*
X015367Y006889D01*
X015360Y006860D01*
X015357Y006831D01*
X015350Y006825D01*
X015338Y006779D01*
X015341Y006771D01*
X015329Y006744D01*
X015321Y006715D01*
X015313Y006711D01*
X015293Y006668D01*
X015295Y006659D01*
X015278Y006635D01*
X015265Y006608D01*
X015257Y006605D01*
X015230Y006566D01*
X015230Y006557D01*
X015209Y006536D01*
X015192Y006512D01*
X015183Y006511D01*
X015149Y006477D01*
X015148Y006468D01*
X015124Y006451D01*
X015103Y006430D01*
X015094Y006430D01*
X015055Y006403D01*
X015052Y006395D01*
X015025Y006382D01*
X015001Y006365D01*
X014992Y006367D01*
X014949Y006347D01*
X014945Y006339D01*
X014916Y006331D01*
X014889Y006319D01*
X014881Y006322D01*
X014835Y006310D01*
X014829Y006303D01*
X014800Y006300D01*
X014771Y006293D01*
X014764Y006297D01*
X014716Y006293D01*
X014709Y006287D01*
X014680Y006290D01*
X014651Y006287D01*
X014644Y006293D01*
X014596Y006297D01*
X014589Y006293D01*
X014560Y006300D01*
X014531Y006303D01*
X014525Y006310D01*
X014479Y006322D01*
X014471Y006319D01*
X014444Y006331D01*
X014415Y006339D01*
X014411Y006347D01*
X014368Y006367D01*
X014359Y006365D01*
X014335Y006382D01*
X014308Y006395D01*
X014305Y006403D01*
X014266Y006430D01*
X014257Y006430D01*
X014236Y006451D01*
X014212Y006468D01*
X014211Y006477D01*
X014177Y006511D01*
X014168Y006512D01*
X014151Y006536D01*
X014130Y006557D01*
X014130Y006566D01*
X014103Y006605D01*
X014095Y006608D01*
X014082Y006635D01*
X014065Y006659D01*
X014067Y006668D01*
X014047Y006711D01*
X014039Y006715D01*
X014031Y006744D01*
X014019Y006771D01*
X014022Y006779D01*
X014010Y006825D01*
X014003Y006831D01*
X014000Y006860D01*
X013993Y006889D01*
X013997Y006896D01*
X013993Y006944D01*
X013987Y006951D01*
X013990Y006980D01*
X013987Y007009D01*
X013993Y007016D01*
X013997Y007064D01*
X013993Y007071D01*
X014000Y007100D01*
X014003Y007129D01*
X014010Y007135D01*
X014022Y007181D01*
X014019Y007189D01*
X014031Y007216D01*
X014039Y007245D01*
X014047Y007249D01*
X014067Y007292D01*
X014065Y007301D01*
X014082Y007325D01*
X014095Y007352D01*
X014103Y007355D01*
X014130Y007394D01*
X014130Y007403D01*
X014151Y007424D01*
X014168Y007448D01*
X014177Y007449D01*
X014211Y007483D01*
X014212Y007492D01*
X014236Y007509D01*
X014257Y007530D01*
X014266Y007530D01*
X014305Y007557D01*
X014308Y007565D01*
X014335Y007578D01*
X012890Y007578D01*
X012890Y007676D02*
X018902Y007676D01*
X018951Y007775D02*
X012890Y007775D01*
X012890Y007873D02*
X018760Y007873D01*
X018760Y007972D02*
X012890Y007972D01*
X012890Y007978D02*
X012831Y008121D01*
X012721Y008231D01*
X012578Y008290D01*
X012375Y008290D01*
X012375Y010403D01*
X014353Y012381D01*
X014425Y012556D01*
X014425Y012744D01*
X014420Y012757D01*
X014420Y013102D01*
X014498Y013291D01*
X023350Y013291D01*
X023350Y013193D02*
X014457Y013193D01*
X014420Y013094D02*
X023350Y013094D01*
X023350Y012996D02*
X014420Y012996D01*
X014420Y012897D02*
X023350Y012897D01*
X023350Y012799D02*
X014420Y012799D01*
X014425Y012700D02*
X023363Y012700D01*
X023350Y012731D02*
X023479Y012419D01*
X023719Y012179D01*
X024031Y012050D01*
X024369Y012050D01*
X024681Y012179D01*
X024921Y012419D01*
X025050Y012731D01*
X025050Y026019D01*
X024921Y026331D01*
X024681Y026571D01*
X023402Y027850D01*
X027798Y027850D01*
X028200Y027448D01*
X028200Y015791D01*
X028329Y015479D01*
X028569Y015239D01*
X028881Y015110D01*
X029219Y015110D01*
X029531Y015239D01*
X029771Y015479D01*
X029900Y015791D01*
X029900Y027969D01*
X029771Y028281D01*
X029531Y028521D01*
X028631Y029421D01*
X028319Y029550D01*
X009531Y029550D01*
X009278Y029445D02*
X000650Y029445D01*
X000650Y029347D02*
X009144Y029347D01*
X009046Y029248D02*
X000650Y029248D01*
X000650Y029150D02*
X007059Y029150D01*
X006849Y029051D02*
X000650Y029051D01*
X000650Y028953D02*
X006750Y028953D01*
X006652Y028854D02*
X000650Y028854D01*
X000650Y028756D02*
X006553Y028756D01*
X006455Y028657D02*
X000650Y028657D01*
X000650Y028559D02*
X006399Y028559D01*
X006358Y028460D02*
X000650Y028460D01*
X000650Y028362D02*
X006318Y028362D01*
X006300Y028263D02*
X000650Y028263D01*
X000650Y028165D02*
X006300Y028165D01*
X006300Y028066D02*
X000650Y028066D01*
X000650Y027968D02*
X006306Y027968D01*
X006346Y027869D02*
X000650Y027869D01*
X000650Y027771D02*
X006387Y027771D01*
X006428Y027672D02*
X000650Y027672D01*
X000650Y027574D02*
X006524Y027574D01*
X006623Y027475D02*
X000650Y027475D01*
X000650Y027377D02*
X006650Y027377D01*
X006650Y027278D02*
X000650Y027278D01*
X000650Y027180D02*
X006650Y027180D01*
X006650Y027081D02*
X000650Y027081D01*
X000650Y026983D02*
X006650Y026983D01*
X006650Y026884D02*
X000650Y026884D01*
X000650Y026786D02*
X006650Y026786D01*
X006650Y026687D02*
X000650Y026687D01*
X000650Y026589D02*
X006650Y026589D01*
X006650Y026490D02*
X000650Y026490D01*
X000650Y026392D02*
X006650Y026392D01*
X006650Y026293D02*
X000650Y026293D01*
X000650Y026195D02*
X006650Y026195D01*
X006650Y026096D02*
X000650Y026096D01*
X000650Y025998D02*
X006650Y025998D01*
X006650Y025899D02*
X000650Y025899D01*
X000650Y025801D02*
X006650Y025801D01*
X006650Y025702D02*
X000650Y025702D01*
X000650Y025604D02*
X006650Y025604D01*
X006650Y025505D02*
X000650Y025505D01*
X000650Y025407D02*
X006650Y025407D01*
X006650Y025308D02*
X000650Y025308D01*
X000650Y025210D02*
X006650Y025210D01*
X006650Y025111D02*
X000650Y025111D01*
X000650Y025013D02*
X006650Y025013D01*
X006650Y024914D02*
X000650Y024914D01*
X000650Y024816D02*
X006650Y024816D01*
X006650Y024717D02*
X000650Y024717D01*
X000650Y024619D02*
X006650Y024619D01*
X006650Y024520D02*
X000650Y024520D01*
X000650Y024422D02*
X006650Y024422D01*
X006650Y024323D02*
X000650Y024323D01*
X000650Y024225D02*
X004759Y024225D01*
X004821Y024250D02*
X004582Y024151D01*
X004399Y023968D01*
X004340Y023826D01*
X004335Y023836D01*
X004293Y023893D01*
X004243Y023943D01*
X004186Y023985D01*
X004123Y024017D01*
X004055Y024039D01*
X004000Y024048D01*
X004000Y023350D01*
X003900Y023350D01*
X003900Y024048D01*
X003845Y024039D01*
X003777Y024017D01*
X003714Y023985D01*
X003657Y023943D01*
X003607Y023893D01*
X003565Y023836D01*
X003533Y023773D01*
X003511Y023705D01*
X003500Y023635D01*
X003500Y023350D01*
X003900Y023350D01*
X003900Y023250D01*
X003500Y023250D01*
X003500Y022965D01*
X003511Y022895D01*
X003533Y022827D01*
X003565Y022764D01*
X003607Y022707D01*
X003657Y022657D01*
X003714Y022615D01*
X003777Y022583D01*
X003845Y022561D01*
X003900Y022552D01*
X003900Y023250D01*
X004000Y023250D01*
X004000Y022552D01*
X004055Y022561D01*
X004123Y022583D01*
X004186Y022615D01*
X004243Y022657D01*
X004293Y022707D01*
X004335Y022764D01*
X004340Y022774D01*
X004399Y022632D01*
X004582Y022449D01*
X004821Y022350D01*
X005079Y022350D01*
X005318Y022449D01*
X005501Y022632D01*
X005600Y022871D01*
X005600Y023729D01*
X005501Y023968D01*
X005318Y024151D01*
X005079Y024250D01*
X004821Y024250D01*
X004557Y024126D02*
X000650Y024126D01*
X000650Y024028D02*
X003810Y024028D01*
X003900Y024028D02*
X004000Y024028D01*
X004090Y024028D02*
X004458Y024028D01*
X004383Y023929D02*
X004257Y023929D01*
X004338Y023831D02*
X004342Y023831D01*
X004000Y023831D02*
X003900Y023831D01*
X003900Y023929D02*
X004000Y023929D01*
X004000Y023732D02*
X003900Y023732D01*
X003900Y023634D02*
X004000Y023634D01*
X004000Y023535D02*
X003900Y023535D01*
X003900Y023437D02*
X004000Y023437D01*
X003900Y023338D02*
X000650Y023338D01*
X000650Y023240D02*
X003500Y023240D01*
X003500Y023141D02*
X000650Y023141D01*
X000650Y023043D02*
X003500Y023043D01*
X003503Y022944D02*
X000650Y022944D01*
X000650Y022846D02*
X003527Y022846D01*
X003578Y022747D02*
X000650Y022747D01*
X000650Y022649D02*
X003668Y022649D01*
X003900Y022649D02*
X004000Y022649D01*
X004000Y022747D02*
X003900Y022747D01*
X003900Y022846D02*
X004000Y022846D01*
X004000Y022944D02*
X003900Y022944D01*
X003900Y023043D02*
X004000Y023043D01*
X004000Y023141D02*
X003900Y023141D01*
X003900Y023240D02*
X004000Y023240D01*
X003500Y023437D02*
X000650Y023437D01*
X000650Y023535D02*
X003500Y023535D01*
X003500Y023634D02*
X000650Y023634D01*
X000650Y023732D02*
X003520Y023732D01*
X003562Y023831D02*
X000650Y023831D01*
X000650Y023929D02*
X003643Y023929D01*
X005141Y024225D02*
X006650Y024225D01*
X006650Y024126D02*
X005343Y024126D01*
X005442Y024028D02*
X006650Y024028D01*
X006650Y023929D02*
X005517Y023929D01*
X005558Y023831D02*
X006650Y023831D01*
X006650Y023732D02*
X005599Y023732D01*
X005600Y023634D02*
X006650Y023634D01*
X006650Y023535D02*
X005600Y023535D01*
X005600Y023437D02*
X006650Y023437D01*
X006650Y023338D02*
X005600Y023338D01*
X005600Y023240D02*
X006650Y023240D01*
X006650Y023141D02*
X005600Y023141D01*
X005600Y023043D02*
X006650Y023043D01*
X006650Y022944D02*
X005600Y022944D01*
X005590Y022846D02*
X006650Y022846D01*
X006650Y022747D02*
X005549Y022747D01*
X005508Y022649D02*
X006650Y022649D01*
X006650Y022550D02*
X005419Y022550D01*
X005321Y022452D02*
X006650Y022452D01*
X006650Y022353D02*
X005087Y022353D01*
X004813Y022353D02*
X000650Y022353D01*
X000650Y022255D02*
X006650Y022255D01*
X006650Y022156D02*
X000650Y022156D01*
X000650Y022058D02*
X006650Y022058D01*
X006650Y021959D02*
X000650Y021959D01*
X000650Y021861D02*
X006650Y021861D01*
X006650Y021762D02*
X000650Y021762D01*
X000650Y021664D02*
X006650Y021664D01*
X006650Y021565D02*
X000650Y021565D01*
X000650Y021467D02*
X006650Y021467D01*
X006650Y021368D02*
X000650Y021368D01*
X000650Y021270D02*
X006650Y021270D01*
X006650Y021171D02*
X000650Y021171D01*
X000650Y021073D02*
X006650Y021073D01*
X006650Y020974D02*
X000650Y020974D01*
X000650Y020876D02*
X006650Y020876D01*
X006650Y020777D02*
X000650Y020777D01*
X000650Y020679D02*
X006650Y020679D01*
X006650Y020580D02*
X000650Y020580D01*
X000650Y020482D02*
X006650Y020482D01*
X006650Y020383D02*
X000650Y020383D01*
X000650Y020285D02*
X006650Y020285D01*
X006650Y020186D02*
X000650Y020186D01*
X000650Y020088D02*
X006650Y020088D01*
X006650Y019989D02*
X000650Y019989D01*
X000650Y019891D02*
X006650Y019891D01*
X006650Y019792D02*
X000650Y019792D01*
X000650Y019694D02*
X006650Y019694D01*
X006650Y019595D02*
X000650Y019595D01*
X000650Y019497D02*
X006650Y019497D01*
X006650Y019398D02*
X000650Y019398D01*
X000650Y019300D02*
X006650Y019300D01*
X006650Y019201D02*
X000650Y019201D01*
X000650Y019103D02*
X006650Y019103D01*
X006650Y019004D02*
X000650Y019004D01*
X000650Y018906D02*
X006650Y018906D01*
X006650Y018807D02*
X000650Y018807D01*
X000650Y018709D02*
X006650Y018709D01*
X006650Y018610D02*
X000650Y018610D01*
X000650Y018512D02*
X006650Y018512D01*
X006650Y018413D02*
X000650Y018413D01*
X000650Y018315D02*
X006650Y018315D01*
X006650Y018216D02*
X000650Y018216D01*
X000650Y018118D02*
X006650Y018118D01*
X006650Y018019D02*
X000650Y018019D01*
X000650Y017921D02*
X006650Y017921D01*
X006650Y017822D02*
X000650Y017822D01*
X000650Y017724D02*
X006650Y017724D01*
X006650Y017625D02*
X000650Y017625D01*
X000650Y017527D02*
X006650Y017527D01*
X006650Y017428D02*
X000650Y017428D01*
X000650Y017330D02*
X006650Y017330D01*
X006650Y017231D02*
X000650Y017231D01*
X000650Y017133D02*
X006650Y017133D01*
X006650Y017034D02*
X000650Y017034D01*
X000650Y016936D02*
X006650Y016936D01*
X006650Y016837D02*
X000650Y016837D01*
X000650Y016739D02*
X006613Y016739D01*
X006556Y016640D02*
X000650Y016640D01*
X000650Y016542D02*
X006515Y016542D01*
X006502Y016443D02*
X000650Y016443D01*
X000650Y016345D02*
X006502Y016345D01*
X008350Y016345D02*
X014980Y016345D01*
X015040Y016285D02*
X015241Y016202D01*
X015459Y016202D01*
X015660Y016285D01*
X015815Y016440D01*
X015898Y016641D01*
X015898Y016859D01*
X015815Y017060D01*
X015660Y017215D01*
X015459Y017298D01*
X015241Y017298D01*
X015040Y017215D01*
X014885Y017060D01*
X014802Y016859D01*
X014802Y016641D01*
X014885Y016440D01*
X015040Y016285D01*
X015134Y016246D02*
X013412Y016246D01*
X013394Y016265D02*
X013236Y016330D01*
X008350Y016330D01*
X008350Y027500D01*
X008626Y027500D01*
X008611Y027455D01*
X008602Y027400D01*
X009300Y027400D01*
X009300Y027300D01*
X008602Y027300D01*
X008611Y027245D01*
X008633Y027177D01*
X008665Y027114D01*
X008707Y027057D01*
X008757Y027007D01*
X008814Y026965D01*
X008824Y026960D01*
X008682Y026901D01*
X008499Y026718D01*
X008400Y026479D01*
X008400Y026221D01*
X008499Y025982D01*
X008500Y025981D01*
X008500Y023631D01*
X008629Y023319D01*
X009350Y022598D01*
X009350Y020931D01*
X009479Y020619D01*
X011900Y018198D01*
X011900Y017731D01*
X012029Y017419D01*
X012269Y017179D01*
X012581Y017050D01*
X012919Y017050D01*
X013231Y017179D01*
X013471Y017419D01*
X013600Y017731D01*
X013600Y018719D01*
X013471Y019031D01*
X013231Y019271D01*
X011050Y021452D01*
X011050Y023119D01*
X010921Y023431D01*
X010681Y023671D01*
X010200Y024152D01*
X010200Y025860D01*
X010250Y025981D01*
X010250Y026100D01*
X010300Y026221D01*
X010300Y026479D01*
X010201Y026718D01*
X010018Y026901D01*
X009876Y026960D01*
X009886Y026965D01*
X009943Y027007D01*
X009993Y027057D01*
X010035Y027114D01*
X010067Y027177D01*
X010089Y027245D01*
X010098Y027300D01*
X009400Y027300D01*
X009400Y027400D01*
X010098Y027400D01*
X010089Y027455D01*
X010067Y027523D01*
X010035Y027586D01*
X009993Y027643D01*
X009943Y027693D01*
X009915Y027713D01*
X009989Y027787D01*
X010018Y027799D01*
X010069Y027850D01*
X019348Y027850D01*
X019279Y027781D01*
X019150Y027469D01*
X019150Y027131D01*
X019279Y026819D01*
X019519Y026579D01*
X019831Y026450D01*
X022398Y026450D01*
X023350Y025498D01*
X023350Y012731D01*
X023404Y012601D02*
X014425Y012601D01*
X014403Y012503D02*
X023444Y012503D01*
X023493Y012404D02*
X014362Y012404D01*
X014278Y012306D02*
X023592Y012306D01*
X023690Y012207D02*
X014179Y012207D01*
X014081Y012109D02*
X023888Y012109D01*
X024512Y012109D02*
X025845Y012109D01*
X025856Y012101D02*
X025877Y012080D01*
X025886Y012080D01*
X025925Y012053D01*
X025928Y012045D01*
X025955Y012032D01*
X025979Y012015D01*
X025988Y012017D01*
X026031Y011997D01*
X026035Y011989D01*
X026064Y011981D01*
X026091Y011969D01*
X026099Y011972D01*
X026145Y011960D01*
X026151Y011953D01*
X026180Y011950D01*
X026209Y011943D01*
X026216Y011947D01*
X026264Y011943D01*
X026271Y011937D01*
X026300Y011940D01*
X026329Y011937D01*
X026336Y011943D01*
X026384Y011947D01*
X026391Y011943D01*
X026420Y011950D01*
X026449Y011953D01*
X026455Y011960D01*
X026501Y011972D01*
X026509Y011969D01*
X026536Y011981D01*
X026565Y011989D01*
X026569Y011997D01*
X026612Y012017D01*
X026621Y012015D01*
X026645Y012032D01*
X026672Y012045D01*
X026675Y012053D01*
X026714Y012080D01*
X026723Y012080D01*
X026744Y012101D01*
X026768Y012118D01*
X026769Y012127D01*
X026803Y012161D01*
X026812Y012162D01*
X026829Y012186D01*
X026850Y012207D01*
X026850Y012216D01*
X026877Y012255D01*
X026885Y012258D01*
X026898Y012285D01*
X026915Y012309D01*
X026913Y012318D01*
X026933Y012361D01*
X026941Y012365D01*
X026949Y012394D01*
X026961Y012421D01*
X026958Y012429D01*
X026970Y012475D01*
X026977Y012481D01*
X026980Y012510D01*
X026987Y012539D01*
X026983Y012546D01*
X026987Y012594D01*
X026993Y012601D01*
X026990Y012630D01*
X026993Y012659D01*
X026987Y012666D01*
X026983Y012714D01*
X026987Y012721D01*
X026980Y012750D01*
X026977Y012779D01*
X026970Y012785D01*
X026958Y012831D01*
X026961Y012839D01*
X026949Y012866D01*
X026941Y012895D01*
X026933Y012899D01*
X026913Y012942D01*
X026915Y012951D01*
X026898Y012975D01*
X026885Y013002D01*
X026877Y013005D01*
X026850Y013044D01*
X026850Y013053D01*
X026829Y013074D01*
X026812Y013098D01*
X026803Y013099D01*
X026769Y013133D01*
X026768Y013142D01*
X026744Y013159D01*
X026723Y013180D01*
X026714Y013180D01*
X026675Y013207D01*
X026672Y013215D01*
X026645Y013228D01*
X026621Y013245D01*
X026612Y013243D01*
X026569Y013263D01*
X026565Y013271D01*
X026536Y013279D01*
X026509Y013291D01*
X026490Y013291D01*
X026501Y013288D02*
X026455Y013300D01*
X026449Y013307D01*
X026420Y013310D01*
X026391Y013317D01*
X026384Y013313D01*
X026336Y013317D01*
X026329Y013323D01*
X026300Y013320D01*
X026271Y013323D01*
X026264Y013317D01*
X026216Y013313D01*
X026209Y013317D01*
X026180Y013310D01*
X026151Y013307D01*
X026145Y013300D01*
X026099Y013288D01*
X026091Y013291D01*
X026110Y013291D01*
X026091Y013291D02*
X026064Y013279D01*
X026035Y013271D01*
X026031Y013263D01*
X025988Y013243D01*
X025979Y013245D01*
X025955Y013228D01*
X025928Y013215D01*
X025925Y013207D01*
X025886Y013180D01*
X025877Y013180D01*
X025856Y013159D01*
X025832Y013142D01*
X025831Y013133D01*
X025797Y013099D01*
X025788Y013098D01*
X025771Y013074D01*
X025750Y013053D01*
X025750Y013044D01*
X025723Y013005D01*
X025715Y013002D01*
X025702Y012975D01*
X025685Y012951D01*
X025687Y012942D01*
X025667Y012899D01*
X025659Y012895D01*
X025651Y012866D01*
X025639Y012839D01*
X025642Y012831D01*
X025630Y012785D01*
X025623Y012779D01*
X025620Y012750D01*
X025613Y012721D01*
X025617Y012714D01*
X025613Y012666D01*
X025607Y012659D01*
X025610Y012630D01*
X025607Y012601D01*
X025613Y012594D01*
X025617Y012546D01*
X025613Y012539D01*
X025620Y012510D01*
X025623Y012481D01*
X025630Y012475D01*
X025642Y012429D01*
X025639Y012421D01*
X025651Y012394D01*
X025659Y012365D01*
X025667Y012361D01*
X025687Y012318D01*
X025685Y012309D01*
X025702Y012285D01*
X025715Y012258D01*
X025723Y012255D01*
X025750Y012216D01*
X025750Y012207D01*
X025771Y012186D01*
X025788Y012162D01*
X025797Y012161D01*
X025831Y012127D01*
X025832Y012118D01*
X025856Y012101D01*
X025750Y012207D02*
X024710Y012207D01*
X024808Y012306D02*
X025687Y012306D01*
X025646Y012404D02*
X024907Y012404D01*
X024956Y012503D02*
X025621Y012503D01*
X025607Y012601D02*
X024996Y012601D01*
X025037Y012700D02*
X025616Y012700D01*
X025633Y012799D02*
X025050Y012799D01*
X025050Y012897D02*
X025663Y012897D01*
X025712Y012996D02*
X025050Y012996D01*
X025050Y013094D02*
X025785Y013094D01*
X025904Y013193D02*
X025050Y013193D01*
X025050Y013291D02*
X026090Y013291D01*
X026501Y013288D02*
X026509Y013291D01*
X026510Y013291D02*
X036359Y013291D01*
X036359Y013387D02*
X036359Y013013D01*
X036503Y012667D01*
X036767Y012403D01*
X037113Y012259D01*
X037487Y012259D01*
X037833Y012403D01*
X038097Y012667D01*
X038241Y013013D01*
X038241Y013387D01*
X038097Y013733D01*
X037833Y013997D01*
X037487Y014141D01*
X037113Y014141D01*
X036767Y013997D01*
X036503Y013733D01*
X036359Y013387D01*
X036360Y013390D02*
X025050Y013390D01*
X025050Y013488D02*
X036401Y013488D01*
X036442Y013587D02*
X025050Y013587D01*
X025050Y013685D02*
X036483Y013685D01*
X036553Y013784D02*
X025050Y013784D01*
X025050Y013882D02*
X036652Y013882D01*
X036750Y013981D02*
X025050Y013981D01*
X025050Y014079D02*
X036964Y014079D01*
X037636Y014079D02*
X039750Y014079D01*
X039750Y013981D02*
X037850Y013981D01*
X037948Y013882D02*
X039750Y013882D01*
X039750Y013784D02*
X038047Y013784D01*
X038117Y013685D02*
X039750Y013685D01*
X039750Y013587D02*
X038158Y013587D01*
X038199Y013488D02*
X039750Y013488D01*
X039750Y013390D02*
X038240Y013390D01*
X038241Y013291D02*
X039750Y013291D01*
X039750Y013193D02*
X038241Y013193D01*
X038241Y013094D02*
X039750Y013094D01*
X039750Y012996D02*
X038233Y012996D01*
X038193Y012897D02*
X039750Y012897D01*
X039750Y012799D02*
X038152Y012799D01*
X038111Y012700D02*
X039750Y012700D01*
X039750Y012601D02*
X038032Y012601D01*
X037933Y012503D02*
X039750Y012503D01*
X039750Y012404D02*
X037835Y012404D01*
X037599Y012306D02*
X039750Y012306D01*
X039750Y012207D02*
X032184Y012207D01*
X032198Y012241D02*
X032115Y012040D01*
X031960Y011885D01*
X031759Y011802D01*
X031541Y011802D01*
X031340Y011885D01*
X031185Y012040D01*
X031102Y012241D01*
X031102Y012459D01*
X031185Y012660D01*
X031340Y012815D01*
X031541Y012898D01*
X031759Y012898D01*
X031960Y012815D01*
X032115Y012660D01*
X032198Y012459D01*
X032198Y012241D01*
X032198Y012306D02*
X037001Y012306D01*
X036765Y012404D02*
X032198Y012404D01*
X032180Y012503D02*
X036667Y012503D01*
X036568Y012601D02*
X032139Y012601D01*
X032075Y012700D02*
X036489Y012700D01*
X036448Y012799D02*
X031977Y012799D01*
X031762Y012897D02*
X036407Y012897D01*
X036367Y012996D02*
X026888Y012996D01*
X026937Y012897D02*
X031538Y012897D01*
X031323Y012799D02*
X026967Y012799D01*
X026984Y012700D02*
X031225Y012700D01*
X031161Y012601D02*
X026993Y012601D01*
X026979Y012503D02*
X031120Y012503D01*
X031102Y012404D02*
X026954Y012404D01*
X026913Y012306D02*
X031102Y012306D01*
X031116Y012207D02*
X026850Y012207D01*
X026755Y012109D02*
X031157Y012109D01*
X031214Y012010D02*
X026599Y012010D01*
X026001Y012010D02*
X013982Y012010D01*
X013884Y011912D02*
X031313Y011912D01*
X031513Y011813D02*
X013785Y011813D01*
X013687Y011715D02*
X039750Y011715D01*
X039750Y011813D02*
X031787Y011813D01*
X031987Y011912D02*
X039750Y011912D01*
X039750Y012010D02*
X032086Y012010D01*
X032143Y012109D02*
X039750Y012109D01*
X039750Y011616D02*
X013588Y011616D01*
X013490Y011518D02*
X031918Y011518D01*
X031991Y011548D02*
X031790Y011465D01*
X031635Y011310D01*
X031552Y011109D01*
X031552Y010891D01*
X031635Y010690D01*
X031790Y010535D01*
X031991Y010452D01*
X032209Y010452D01*
X032410Y010535D01*
X032565Y010690D01*
X032648Y010891D01*
X032648Y011109D01*
X032565Y011310D01*
X032410Y011465D01*
X032209Y011548D01*
X031991Y011548D01*
X031744Y011419D02*
X013391Y011419D01*
X013293Y011321D02*
X031646Y011321D01*
X031599Y011222D02*
X013194Y011222D01*
X013096Y011124D02*
X031558Y011124D01*
X031552Y011025D02*
X012997Y011025D01*
X012899Y010927D02*
X031552Y010927D01*
X031578Y010828D02*
X012800Y010828D01*
X012702Y010730D02*
X031619Y010730D01*
X031693Y010631D02*
X012603Y010631D01*
X012505Y010533D02*
X031795Y010533D01*
X032405Y010533D02*
X039750Y010533D01*
X039750Y010631D02*
X032507Y010631D01*
X032581Y010730D02*
X039750Y010730D01*
X039750Y010828D02*
X032622Y010828D01*
X032648Y010927D02*
X039750Y010927D01*
X039750Y011025D02*
X032648Y011025D01*
X032642Y011124D02*
X039750Y011124D01*
X039750Y011222D02*
X032601Y011222D01*
X032554Y011321D02*
X039750Y011321D01*
X039750Y011419D02*
X032456Y011419D01*
X032282Y011518D02*
X039750Y011518D01*
X039750Y010434D02*
X012406Y010434D01*
X012375Y010336D02*
X039750Y010336D01*
X039750Y010237D02*
X012375Y010237D01*
X012375Y010139D02*
X039750Y010139D01*
X039750Y010040D02*
X012375Y010040D01*
X012375Y009942D02*
X039750Y009942D01*
X039750Y009843D02*
X012375Y009843D01*
X012375Y009745D02*
X028218Y009745D01*
X028225Y009747D02*
X028196Y009740D01*
X028191Y009733D01*
X028129Y009707D01*
X028122Y009709D01*
X028096Y009693D01*
X028068Y009682D01*
X028065Y009674D01*
X028008Y009639D01*
X028000Y009640D01*
X027977Y009620D01*
X027951Y009604D01*
X027949Y009597D01*
X027898Y009553D01*
X027890Y009552D01*
X027870Y009530D01*
X027848Y009510D01*
X027847Y009502D01*
X027803Y009451D01*
X027796Y009449D01*
X027780Y009423D01*
X027760Y009400D01*
X027761Y009392D01*
X027726Y009335D01*
X027718Y009332D01*
X027707Y009304D01*
X027691Y009278D01*
X027693Y009271D01*
X027667Y009209D01*
X027660Y009204D01*
X027653Y009175D01*
X027642Y009147D01*
X027645Y009140D01*
X027629Y009075D01*
X027623Y009069D01*
X027621Y009039D01*
X027614Y009010D01*
X027618Y009003D01*
X027613Y008936D01*
X027607Y008930D01*
X027610Y008900D01*
X027607Y008870D01*
X027613Y008864D01*
X027618Y008797D01*
X027614Y008790D01*
X027621Y008761D01*
X027623Y008731D01*
X027629Y008725D01*
X027645Y008660D01*
X027642Y008653D01*
X027653Y008625D01*
X027660Y008596D01*
X027667Y008591D01*
X027693Y008529D01*
X027691Y008522D01*
X027707Y008496D01*
X027718Y008468D01*
X027726Y008465D01*
X027761Y008408D01*
X027760Y008400D01*
X027780Y008377D01*
X027796Y008351D01*
X027803Y008349D01*
X027847Y008298D01*
X027848Y008290D01*
X027870Y008270D01*
X027890Y008248D01*
X027898Y008247D01*
X027949Y008203D01*
X027951Y008196D01*
X027977Y008180D01*
X028000Y008160D01*
X028008Y008161D01*
X028065Y008126D01*
X028068Y008118D01*
X028096Y008107D01*
X028122Y008091D01*
X028129Y008093D01*
X028191Y008067D01*
X028196Y008060D01*
X028225Y008053D01*
X028253Y008042D01*
X028260Y008045D01*
X028325Y008029D01*
X028331Y008023D01*
X028361Y008021D01*
X028390Y008014D01*
X028397Y008018D01*
X028464Y008013D01*
X028470Y008007D01*
X028500Y008010D01*
X028530Y008007D01*
X028536Y008013D01*
X028603Y008018D01*
X028610Y008014D01*
X028639Y008021D01*
X028669Y008023D01*
X028675Y008029D01*
X028740Y008045D01*
X028747Y008042D01*
X028775Y008053D01*
X028804Y008060D01*
X028809Y008067D01*
X028871Y008093D01*
X028878Y008091D01*
X028904Y008107D01*
X028932Y008118D01*
X028935Y008126D01*
X028992Y008161D01*
X029000Y008160D01*
X029023Y008180D01*
X029049Y008196D01*
X029051Y008203D01*
X029102Y008247D01*
X029110Y008248D01*
X029130Y008270D01*
X029152Y008290D01*
X029153Y008298D01*
X029197Y008349D01*
X029204Y008351D01*
X029220Y008377D01*
X029240Y008400D01*
X029239Y008408D01*
X029274Y008465D01*
X029282Y008468D01*
X029293Y008496D01*
X029309Y008522D01*
X029307Y008529D01*
X029333Y008591D01*
X029340Y008596D01*
X029347Y008625D01*
X029358Y008653D01*
X029355Y008660D01*
X029371Y008725D01*
X029377Y008731D01*
X029379Y008761D01*
X029386Y008790D01*
X029382Y008797D01*
X029387Y008864D01*
X029393Y008870D01*
X029390Y008900D01*
X029393Y008930D01*
X029387Y008936D01*
X029382Y009003D01*
X029386Y009010D01*
X029379Y009039D01*
X029377Y009069D01*
X029371Y009075D01*
X029355Y009140D01*
X029358Y009147D01*
X029347Y009175D01*
X029340Y009204D01*
X029333Y009209D01*
X029307Y009271D01*
X029309Y009278D01*
X029293Y009304D01*
X029282Y009332D01*
X029274Y009335D01*
X029239Y009392D01*
X029240Y009400D01*
X029220Y009423D01*
X029204Y009449D01*
X029197Y009451D01*
X029153Y009502D01*
X029152Y009510D01*
X029130Y009530D01*
X029110Y009552D01*
X029102Y009553D01*
X029051Y009597D01*
X029049Y009604D01*
X029023Y009620D01*
X029000Y009640D01*
X028992Y009639D01*
X028935Y009674D01*
X028932Y009682D01*
X028904Y009693D01*
X028878Y009709D01*
X028871Y009707D01*
X028809Y009733D01*
X028804Y009740D01*
X028775Y009747D01*
X028747Y009758D01*
X028740Y009755D01*
X028675Y009771D01*
X028669Y009777D01*
X028639Y009779D01*
X028610Y009786D01*
X028603Y009782D01*
X028536Y009787D01*
X028530Y009793D01*
X028500Y009790D01*
X028470Y009793D01*
X028464Y009787D01*
X028397Y009782D01*
X028390Y009786D01*
X028361Y009779D01*
X028331Y009777D01*
X028325Y009771D01*
X028260Y009755D01*
X028253Y009758D01*
X028225Y009747D01*
X028020Y009646D02*
X012375Y009646D01*
X012375Y009548D02*
X027886Y009548D01*
X027797Y009449D02*
X012375Y009449D01*
X012375Y009351D02*
X018774Y009351D01*
X018760Y009337D02*
X018813Y009390D01*
X020337Y009390D01*
X020390Y009337D01*
X020390Y007863D01*
X020337Y007810D01*
X020099Y007810D01*
X020117Y007785D01*
X020125Y007782D01*
X020138Y007755D01*
X020155Y007731D01*
X020153Y007722D01*
X020173Y007679D01*
X020181Y007675D01*
X020189Y007646D01*
X020201Y007619D01*
X020198Y007611D01*
X020210Y007565D01*
X020217Y007559D01*
X020220Y007530D01*
X020227Y007501D01*
X020223Y007494D01*
X020227Y007446D01*
X020233Y007439D01*
X020230Y007410D01*
X020233Y007381D01*
X022508Y007381D01*
X022507Y007371D02*
X022513Y007364D01*
X022517Y007316D01*
X022513Y007309D01*
X022520Y007280D01*
X022523Y007251D01*
X022530Y007245D01*
X022542Y007199D01*
X022539Y007191D01*
X022551Y007164D01*
X022559Y007135D01*
X022567Y007131D01*
X022587Y007088D01*
X022585Y007079D01*
X022602Y007055D01*
X022615Y007028D01*
X022623Y007025D01*
X022650Y006986D01*
X022650Y006977D01*
X022671Y006956D01*
X022688Y006932D01*
X022697Y006931D01*
X022731Y006897D01*
X022732Y006888D01*
X022756Y006871D01*
X022777Y006850D01*
X022786Y006850D01*
X022825Y006823D01*
X022828Y006815D01*
X022855Y006802D01*
X022879Y006785D01*
X022888Y006787D01*
X022931Y006767D01*
X022935Y006759D01*
X022964Y006751D01*
X022991Y006739D01*
X022999Y006742D01*
X023045Y006730D01*
X023051Y006723D01*
X023080Y006720D01*
X023109Y006713D01*
X023116Y006717D01*
X023164Y006713D01*
X023171Y006707D01*
X023200Y006710D01*
X023229Y006707D01*
X023236Y006713D01*
X023284Y006717D01*
X023291Y006713D01*
X023320Y006720D01*
X023349Y006723D01*
X023355Y006730D01*
X023401Y006742D01*
X023409Y006739D01*
X023436Y006751D01*
X023465Y006759D01*
X023469Y006767D01*
X023512Y006787D01*
X023521Y006785D01*
X023545Y006802D01*
X023572Y006815D01*
X023575Y006823D01*
X023614Y006850D01*
X023623Y006850D01*
X023644Y006871D01*
X023668Y006888D01*
X023669Y006897D01*
X023703Y006931D01*
X023712Y006932D01*
X023729Y006956D01*
X023750Y006977D01*
X023750Y006986D01*
X023777Y007025D01*
X023785Y007028D01*
X023798Y007055D01*
X023815Y007079D01*
X023813Y007088D01*
X023833Y007131D01*
X023841Y007135D01*
X023849Y007164D01*
X023861Y007191D01*
X023858Y007199D01*
X023870Y007245D01*
X023877Y007251D01*
X023880Y007280D01*
X023887Y007309D01*
X023883Y007316D01*
X023887Y007364D01*
X023893Y007371D01*
X023890Y007400D01*
X023893Y007429D01*
X023887Y007436D01*
X023883Y007484D01*
X023887Y007491D01*
X023880Y007520D01*
X023877Y007549D01*
X023870Y007555D01*
X023858Y007601D01*
X023861Y007609D01*
X023849Y007636D01*
X023841Y007665D01*
X023833Y007669D01*
X023813Y007712D01*
X023815Y007721D01*
X023798Y007745D01*
X023785Y007772D01*
X023777Y007775D01*
X036545Y007775D01*
X036503Y007733D02*
X036359Y007387D01*
X036359Y007013D01*
X036503Y006667D01*
X036767Y006403D01*
X037113Y006259D01*
X037487Y006259D01*
X037833Y006403D01*
X038097Y006667D01*
X038241Y007013D01*
X038241Y007387D01*
X038097Y007733D01*
X037833Y007997D01*
X037487Y008141D01*
X037113Y008141D01*
X036767Y007997D01*
X036503Y007733D01*
X036479Y007676D02*
X023830Y007676D01*
X023864Y007578D02*
X036439Y007578D01*
X036398Y007479D02*
X023883Y007479D01*
X023892Y007381D02*
X036359Y007381D01*
X036359Y007282D02*
X023880Y007282D01*
X023858Y007184D02*
X036359Y007184D01*
X036359Y007085D02*
X023814Y007085D01*
X023750Y006987D02*
X036370Y006987D01*
X036411Y006888D02*
X023668Y006888D01*
X023528Y006790D02*
X036452Y006790D01*
X036493Y006691D02*
X026880Y006691D01*
X026886Y006689D02*
X026859Y006701D01*
X026851Y006698D01*
X026805Y006710D01*
X026799Y006717D01*
X026770Y006720D01*
X026741Y006727D01*
X026734Y006723D01*
X026686Y006727D01*
X026679Y006733D01*
X026650Y006730D01*
X026621Y006733D01*
X026614Y006727D01*
X026566Y006723D01*
X026559Y006727D01*
X026530Y006720D01*
X026501Y006717D01*
X026495Y006710D01*
X026449Y006698D01*
X026441Y006701D01*
X026414Y006689D01*
X026385Y006681D01*
X026381Y006673D01*
X026338Y006653D01*
X026329Y006655D01*
X026305Y006638D01*
X026278Y006625D01*
X026275Y006617D01*
X026236Y006590D01*
X026227Y006590D01*
X026206Y006569D01*
X026182Y006552D01*
X026181Y006543D01*
X026147Y006509D01*
X026138Y006508D01*
X026121Y006484D01*
X026100Y006463D01*
X026100Y006454D01*
X026073Y006415D01*
X026065Y006412D01*
X026052Y006385D01*
X026035Y006361D01*
X026037Y006352D01*
X026017Y006309D01*
X026009Y006305D01*
X026001Y006276D01*
X025989Y006249D01*
X025992Y006241D01*
X025980Y006195D01*
X025973Y006189D01*
X025970Y006160D01*
X025963Y006131D01*
X025967Y006124D01*
X025963Y006076D01*
X025957Y006069D01*
X025960Y006040D01*
X025957Y006011D01*
X025963Y006004D01*
X025967Y005956D01*
X025963Y005949D01*
X025970Y005920D01*
X025973Y005891D01*
X025980Y005885D01*
X025992Y005839D01*
X025989Y005831D01*
X026001Y005804D01*
X026009Y005775D01*
X026017Y005771D01*
X026037Y005728D01*
X026035Y005719D01*
X026052Y005695D01*
X026065Y005668D01*
X026073Y005665D01*
X026100Y005626D01*
X026100Y005617D01*
X026121Y005596D01*
X026138Y005572D01*
X026147Y005571D01*
X026181Y005537D01*
X026182Y005528D01*
X026206Y005511D01*
X026227Y005490D01*
X026236Y005490D01*
X026275Y005463D01*
X026278Y005455D01*
X026305Y005442D01*
X026329Y005425D01*
X026338Y005427D01*
X026381Y005407D01*
X026385Y005399D01*
X026414Y005391D01*
X026441Y005379D01*
X026449Y005382D01*
X026495Y005370D01*
X026501Y005363D01*
X026530Y005360D01*
X026559Y005353D01*
X026566Y005357D01*
X026614Y005353D01*
X026621Y005347D01*
X026650Y005350D01*
X026679Y005347D01*
X026686Y005353D01*
X026734Y005357D01*
X026741Y005353D01*
X026770Y005360D01*
X026799Y005363D01*
X026805Y005370D01*
X026851Y005382D01*
X026859Y005379D01*
X026886Y005391D01*
X026915Y005399D01*
X026919Y005407D01*
X026962Y005427D01*
X026971Y005425D01*
X026995Y005442D01*
X027022Y005455D01*
X027025Y005463D01*
X027064Y005490D01*
X027073Y005490D01*
X027094Y005511D01*
X027118Y005528D01*
X027119Y005537D01*
X027153Y005571D01*
X027162Y005572D01*
X027179Y005596D01*
X027200Y005617D01*
X027200Y005626D01*
X027227Y005665D01*
X027235Y005668D01*
X027248Y005695D01*
X027265Y005719D01*
X027263Y005728D01*
X027283Y005771D01*
X027291Y005775D01*
X027299Y005804D01*
X027311Y005831D01*
X027308Y005839D01*
X027320Y005885D01*
X027327Y005891D01*
X027330Y005920D01*
X027337Y005949D01*
X027333Y005956D01*
X027337Y006004D01*
X027343Y006011D01*
X027340Y006040D01*
X027343Y006069D01*
X027337Y006076D01*
X027333Y006124D01*
X027337Y006131D01*
X027330Y006160D01*
X027327Y006189D01*
X027320Y006195D01*
X027308Y006241D01*
X027311Y006249D01*
X027299Y006276D01*
X027291Y006305D01*
X027283Y006309D01*
X027263Y006352D01*
X027265Y006361D01*
X027248Y006385D01*
X027235Y006412D01*
X027227Y006415D01*
X027200Y006454D01*
X027200Y006463D01*
X027179Y006484D01*
X027162Y006508D01*
X027153Y006509D01*
X027119Y006543D01*
X027118Y006552D01*
X027094Y006569D01*
X027073Y006590D01*
X027064Y006590D01*
X027025Y006617D01*
X027022Y006625D01*
X026995Y006638D01*
X026971Y006655D01*
X026962Y006653D01*
X026919Y006673D01*
X026915Y006681D01*
X026886Y006689D01*
X027059Y006593D02*
X035130Y006593D01*
X035136Y006596D02*
X035076Y006565D01*
X035022Y006526D01*
X034974Y006478D01*
X034935Y006424D01*
X034904Y006364D01*
X034883Y006300D01*
X034874Y006239D01*
X035261Y006239D01*
X035261Y006626D01*
X035200Y006617D01*
X035136Y006596D01*
X035261Y006593D02*
X035339Y006593D01*
X035339Y006626D02*
X035339Y006239D01*
X035726Y006239D01*
X035717Y006300D01*
X035696Y006364D01*
X035665Y006424D01*
X035626Y006478D01*
X035578Y006526D01*
X035524Y006565D01*
X035464Y006596D01*
X035400Y006617D01*
X035339Y006626D01*
X035339Y006494D02*
X035261Y006494D01*
X035261Y006396D02*
X035339Y006396D01*
X035339Y006297D02*
X035261Y006297D01*
X035261Y006239D02*
X035339Y006239D01*
X035339Y006161D01*
X035726Y006161D01*
X035717Y006100D01*
X035696Y006036D01*
X035681Y006007D01*
X035704Y005993D01*
X035732Y005982D01*
X035735Y005974D01*
X035792Y005939D01*
X035800Y005940D01*
X035823Y005920D01*
X035849Y005904D01*
X035851Y005897D01*
X035902Y005853D01*
X035910Y005852D01*
X035930Y005830D01*
X035952Y005810D01*
X035953Y005802D01*
X035997Y005751D01*
X036004Y005749D01*
X036020Y005723D01*
X036040Y005700D01*
X036039Y005692D01*
X036074Y005635D01*
X036082Y005632D01*
X036093Y005604D01*
X036109Y005578D01*
X036107Y005571D01*
X036133Y005509D01*
X036140Y005504D01*
X036147Y005475D01*
X036158Y005447D01*
X036155Y005440D01*
X036171Y005375D01*
X036177Y005369D01*
X036179Y005339D01*
X036186Y005310D01*
X036182Y005303D01*
X036187Y005236D01*
X036193Y005230D01*
X036190Y005200D01*
X036193Y005170D01*
X036187Y005164D01*
X036182Y005097D01*
X036186Y005090D01*
X036179Y005061D01*
X036177Y005031D01*
X036171Y005025D01*
X036155Y004960D01*
X036158Y004953D01*
X036147Y004925D01*
X036140Y004896D01*
X036133Y004891D01*
X036107Y004829D01*
X036109Y004822D01*
X036093Y004796D01*
X036082Y004768D01*
X036074Y004765D01*
X036039Y004708D01*
X036040Y004700D01*
X036020Y004677D01*
X036004Y004651D01*
X035997Y004649D01*
X035953Y004598D01*
X035952Y004590D01*
X035930Y004570D01*
X035910Y004548D01*
X035902Y004547D01*
X035851Y004503D01*
X035849Y004496D01*
X035823Y004480D01*
X035800Y004460D01*
X035792Y004461D01*
X035735Y004426D01*
X035732Y004418D01*
X035704Y004407D01*
X035678Y004391D01*
X035671Y004393D01*
X035609Y004367D01*
X035604Y004360D01*
X035575Y004353D01*
X035547Y004342D01*
X035540Y004345D01*
X035475Y004329D01*
X035469Y004323D01*
X035439Y004321D01*
X035410Y004314D01*
X035403Y004318D01*
X035336Y004313D01*
X035330Y004307D01*
X035300Y004310D01*
X035270Y004307D01*
X035264Y004313D01*
X035197Y004318D01*
X035190Y004314D01*
X035161Y004321D01*
X035131Y004323D01*
X035125Y004329D01*
X035060Y004345D01*
X035053Y004342D01*
X035025Y004353D01*
X034996Y004360D01*
X034991Y004367D01*
X034929Y004393D01*
X034922Y004391D01*
X034896Y004407D01*
X034868Y004418D01*
X034865Y004426D01*
X034808Y004461D01*
X034800Y004460D01*
X034777Y004480D01*
X034751Y004496D01*
X034749Y004503D01*
X034698Y004547D01*
X034690Y004548D01*
X034670Y004570D01*
X034648Y004590D01*
X034647Y004598D01*
X034603Y004649D01*
X034596Y004651D01*
X034580Y004677D01*
X034560Y004700D01*
X034561Y004708D01*
X034526Y004765D01*
X034518Y004768D01*
X034507Y004796D01*
X034491Y004822D01*
X034493Y004829D01*
X034467Y004891D01*
X034460Y004896D01*
X034453Y004925D01*
X034442Y004953D01*
X034445Y004960D01*
X034429Y005025D01*
X034423Y005031D01*
X034421Y005061D01*
X034414Y005090D01*
X034418Y005097D01*
X034413Y005164D01*
X034407Y005170D01*
X034410Y005200D01*
X034407Y005230D01*
X034413Y005236D01*
X034418Y005303D01*
X034414Y005310D01*
X034421Y005339D01*
X034423Y005369D01*
X034429Y005375D01*
X034445Y005440D01*
X034442Y005447D01*
X034453Y005475D01*
X034460Y005504D01*
X034467Y005509D01*
X034493Y005571D01*
X034491Y005578D01*
X034507Y005604D01*
X034518Y005632D01*
X034526Y005635D01*
X034561Y005692D01*
X034560Y005700D01*
X034580Y005723D01*
X034596Y005749D01*
X034603Y005751D01*
X034647Y005802D01*
X034648Y005810D01*
X034670Y005830D01*
X034690Y005852D01*
X034698Y005853D01*
X034749Y005897D01*
X034751Y005904D01*
X034777Y005920D01*
X034800Y005940D01*
X034808Y005939D01*
X034865Y005974D01*
X034868Y005982D01*
X034896Y005993D01*
X034919Y006007D01*
X034904Y006036D01*
X034883Y006100D01*
X034874Y006161D01*
X035261Y006161D01*
X035261Y006239D01*
X035261Y006199D02*
X027319Y006199D01*
X027335Y006100D02*
X034883Y006100D01*
X034910Y006002D02*
X027337Y006002D01*
X027328Y005903D02*
X034751Y005903D01*
X034647Y005805D02*
X027299Y005805D01*
X027256Y005706D02*
X034565Y005706D01*
X034508Y005608D02*
X027191Y005608D01*
X027092Y005509D02*
X034468Y005509D01*
X034438Y005411D02*
X026928Y005411D01*
X026372Y005411D02*
X012890Y005411D01*
X012890Y005509D02*
X026208Y005509D01*
X026109Y005608D02*
X012890Y005608D01*
X012890Y005706D02*
X026044Y005706D01*
X026001Y005805D02*
X012890Y005805D01*
X012890Y005903D02*
X025972Y005903D01*
X025963Y006002D02*
X012890Y006002D01*
X012890Y006100D02*
X025965Y006100D01*
X025981Y006199D02*
X012890Y006199D01*
X012890Y006297D02*
X014570Y006297D01*
X014790Y006297D02*
X026007Y006297D01*
X026057Y006396D02*
X015052Y006396D01*
X015167Y006494D02*
X026129Y006494D01*
X026241Y006593D02*
X015249Y006593D01*
X015304Y006691D02*
X026420Y006691D01*
X027171Y006494D02*
X034990Y006494D01*
X034920Y006396D02*
X027243Y006396D01*
X027293Y006297D02*
X034883Y006297D01*
X035339Y006199D02*
X039750Y006199D01*
X039750Y006297D02*
X037579Y006297D01*
X037817Y006396D02*
X039750Y006396D01*
X039750Y006494D02*
X037925Y006494D01*
X038023Y006593D02*
X039750Y006593D01*
X039750Y006691D02*
X038107Y006691D01*
X038148Y006790D02*
X039750Y006790D01*
X039750Y006888D02*
X038189Y006888D01*
X038230Y006987D02*
X039750Y006987D01*
X039750Y007085D02*
X038241Y007085D01*
X038241Y007184D02*
X039750Y007184D01*
X039750Y007282D02*
X038241Y007282D01*
X038241Y007381D02*
X039750Y007381D01*
X039750Y007479D02*
X038202Y007479D01*
X038161Y007578D02*
X039750Y007578D01*
X039750Y007676D02*
X038121Y007676D01*
X038055Y007775D02*
X039750Y007775D01*
X039750Y007873D02*
X037957Y007873D01*
X037858Y007972D02*
X039750Y007972D01*
X039750Y008070D02*
X037656Y008070D01*
X036944Y008070D02*
X028817Y008070D01*
X029011Y008169D02*
X039750Y008169D01*
X039750Y008267D02*
X029127Y008267D01*
X029214Y008366D02*
X039750Y008366D01*
X039750Y008464D02*
X029274Y008464D01*
X029321Y008563D02*
X039750Y008563D01*
X039750Y008661D02*
X029355Y008661D01*
X029379Y008760D02*
X039750Y008760D01*
X039750Y008858D02*
X029387Y008858D01*
X029386Y008957D02*
X039750Y008957D01*
X039750Y009055D02*
X029378Y009055D01*
X029355Y009154D02*
X039750Y009154D01*
X039750Y009252D02*
X029315Y009252D01*
X029265Y009351D02*
X039750Y009351D01*
X039750Y009449D02*
X029203Y009449D01*
X029114Y009548D02*
X039750Y009548D01*
X039750Y009646D02*
X028980Y009646D01*
X028782Y009745D02*
X039750Y009745D01*
X036742Y007972D02*
X024290Y007972D01*
X024290Y008070D02*
X028183Y008070D01*
X027989Y008169D02*
X024290Y008169D01*
X024290Y008267D02*
X027873Y008267D01*
X027786Y008366D02*
X024290Y008366D01*
X024290Y008464D02*
X027726Y008464D01*
X027679Y008563D02*
X024290Y008563D01*
X024290Y008661D02*
X027645Y008661D01*
X027621Y008760D02*
X024290Y008760D01*
X024290Y008858D02*
X027613Y008858D01*
X027614Y008957D02*
X024290Y008957D01*
X024290Y009055D02*
X027622Y009055D01*
X027645Y009154D02*
X024290Y009154D01*
X024290Y009252D02*
X027685Y009252D01*
X027735Y009351D02*
X024276Y009351D01*
X024290Y009337D02*
X024237Y009390D01*
X022313Y009390D01*
X022260Y009337D01*
X022260Y007863D01*
X022313Y007810D01*
X022648Y007810D01*
X022623Y007775D01*
X020129Y007775D01*
X020178Y007676D02*
X022570Y007676D01*
X022567Y007669D02*
X022559Y007665D01*
X022551Y007636D01*
X022539Y007609D01*
X022542Y007601D01*
X022530Y007555D01*
X022523Y007549D01*
X022520Y007520D01*
X022513Y007491D01*
X022517Y007484D01*
X022513Y007436D01*
X022507Y007429D01*
X022510Y007400D01*
X022507Y007371D01*
X022520Y007282D02*
X020219Y007282D01*
X020220Y007290D02*
X020227Y007319D01*
X020223Y007326D01*
X020227Y007374D01*
X020233Y007381D01*
X020220Y007290D02*
X020217Y007261D01*
X020210Y007255D01*
X020198Y007209D01*
X020201Y007201D01*
X020189Y007174D01*
X020181Y007145D01*
X020173Y007141D01*
X020153Y007098D01*
X020155Y007089D01*
X020138Y007065D01*
X020125Y007038D01*
X020117Y007035D01*
X020090Y006996D01*
X020090Y006987D01*
X020069Y006966D01*
X020052Y006942D01*
X020043Y006941D01*
X020009Y006907D01*
X020008Y006898D01*
X019984Y006881D01*
X019963Y006860D01*
X019954Y006860D01*
X019915Y006833D01*
X019912Y006825D01*
X019885Y006812D01*
X019861Y006795D01*
X019852Y006797D01*
X019809Y006777D01*
X019805Y006769D01*
X019776Y006761D01*
X019749Y006749D01*
X019741Y006752D01*
X019695Y006740D01*
X019689Y006733D01*
X019660Y006730D01*
X019631Y006723D01*
X019624Y006727D01*
X019576Y006723D01*
X019569Y006717D01*
X019540Y006720D01*
X019511Y006717D01*
X019504Y006723D01*
X019456Y006727D01*
X019449Y006723D01*
X019420Y006730D01*
X019391Y006733D01*
X019385Y006740D01*
X019339Y006752D01*
X019331Y006749D01*
X019304Y006761D01*
X019275Y006769D01*
X019271Y006777D01*
X019228Y006797D01*
X019219Y006795D01*
X019195Y006812D01*
X019168Y006825D01*
X019165Y006833D01*
X019126Y006860D01*
X019117Y006860D01*
X019096Y006881D01*
X019072Y006898D01*
X019071Y006907D01*
X019037Y006941D01*
X019028Y006942D01*
X019011Y006966D01*
X018990Y006987D01*
X018990Y006996D01*
X018963Y007035D01*
X018955Y007038D01*
X018942Y007065D01*
X018925Y007089D01*
X018927Y007098D01*
X018907Y007141D01*
X018899Y007145D01*
X018891Y007174D01*
X018879Y007201D01*
X018882Y007209D01*
X018870Y007255D01*
X018863Y007261D01*
X018860Y007290D01*
X018853Y007319D01*
X018857Y007326D01*
X018853Y007374D01*
X018847Y007381D01*
X018861Y007282D02*
X015298Y007282D01*
X015339Y007184D02*
X018887Y007184D01*
X018928Y007085D02*
X015364Y007085D01*
X015371Y006987D02*
X018990Y006987D01*
X019086Y006888D02*
X015367Y006888D01*
X015341Y006790D02*
X019242Y006790D01*
X019838Y006790D02*
X022872Y006790D01*
X022732Y006888D02*
X019994Y006888D01*
X020090Y006987D02*
X022650Y006987D01*
X022586Y007085D02*
X020152Y007085D01*
X020193Y007184D02*
X022542Y007184D01*
X022517Y007479D02*
X020224Y007479D01*
X020207Y007578D02*
X022536Y007578D01*
X022567Y007669D02*
X022587Y007712D01*
X022585Y007721D01*
X022602Y007745D01*
X022615Y007772D01*
X022623Y007775D01*
X022260Y007873D02*
X020390Y007873D01*
X020390Y007972D02*
X022260Y007972D01*
X022260Y008070D02*
X020390Y008070D01*
X020390Y008169D02*
X022260Y008169D01*
X022260Y008267D02*
X020390Y008267D01*
X020390Y008366D02*
X022260Y008366D01*
X022260Y008464D02*
X020390Y008464D01*
X020390Y008563D02*
X022260Y008563D01*
X022260Y008661D02*
X020390Y008661D01*
X020390Y008760D02*
X022260Y008760D01*
X022260Y008858D02*
X020390Y008858D01*
X020390Y008957D02*
X022260Y008957D01*
X022260Y009055D02*
X020390Y009055D01*
X020390Y009154D02*
X022260Y009154D01*
X022260Y009252D02*
X020390Y009252D01*
X020376Y009351D02*
X022274Y009351D01*
X024290Y009337D02*
X024290Y007863D01*
X024237Y007810D01*
X023752Y007810D01*
X023777Y007775D01*
X024290Y007873D02*
X036643Y007873D01*
X036577Y006593D02*
X035470Y006593D01*
X035610Y006494D02*
X036675Y006494D01*
X036783Y006396D02*
X035680Y006396D01*
X035717Y006297D02*
X037021Y006297D01*
X036035Y005706D02*
X039750Y005706D01*
X039750Y005608D02*
X036092Y005608D01*
X036132Y005509D02*
X039750Y005509D01*
X039750Y005411D02*
X036162Y005411D01*
X036186Y005312D02*
X039750Y005312D01*
X039750Y005214D02*
X036191Y005214D01*
X036184Y005115D02*
X039750Y005115D01*
X039750Y005017D02*
X036169Y005017D01*
X036145Y004918D02*
X039750Y004918D01*
X039750Y004820D02*
X036108Y004820D01*
X036048Y004721D02*
X039750Y004721D01*
X039750Y004623D02*
X035974Y004623D01*
X035876Y004524D02*
X039750Y004524D01*
X039750Y004426D02*
X035736Y004426D01*
X035473Y004327D02*
X039750Y004327D01*
X039750Y004229D02*
X010748Y004229D01*
X010748Y004191D02*
X010748Y004310D01*
X012578Y004310D01*
X012721Y004369D01*
X012831Y004479D01*
X012890Y004622D01*
X012890Y007978D01*
X012852Y008070D02*
X018760Y008070D01*
X018760Y008169D02*
X012783Y008169D01*
X012632Y008267D02*
X018760Y008267D01*
X018760Y008366D02*
X012375Y008366D01*
X012375Y008464D02*
X018760Y008464D01*
X018760Y008563D02*
X012375Y008563D01*
X012375Y008661D02*
X018760Y008661D01*
X018760Y008760D02*
X012375Y008760D01*
X012375Y008858D02*
X018760Y008858D01*
X018760Y008957D02*
X012375Y008957D01*
X012375Y009055D02*
X018760Y009055D01*
X018760Y009154D02*
X012375Y009154D01*
X011425Y010336D02*
X000650Y010336D01*
X000650Y010434D02*
X011425Y010434D01*
X011425Y010533D02*
X000650Y010533D01*
X000650Y010631D02*
X011425Y010631D01*
X011440Y010730D02*
X000650Y010730D01*
X000650Y010828D02*
X011481Y010828D01*
X011555Y010927D02*
X000650Y010927D01*
X000650Y011025D02*
X011654Y011025D01*
X011752Y011124D02*
X000650Y011124D01*
X000650Y011222D02*
X011851Y011222D01*
X011949Y011321D02*
X000650Y011321D01*
X000650Y011419D02*
X012048Y011419D01*
X012146Y011518D02*
X000650Y011518D01*
X000650Y011616D02*
X012245Y011616D01*
X012343Y011715D02*
X000650Y011715D01*
X000650Y011813D02*
X012442Y011813D01*
X012540Y011912D02*
X000650Y011912D01*
X000650Y012010D02*
X012639Y012010D01*
X012737Y012109D02*
X000650Y012109D01*
X000650Y012207D02*
X012836Y012207D01*
X012934Y012306D02*
X000650Y012306D01*
X000650Y012404D02*
X013033Y012404D01*
X014498Y013291D02*
X014498Y013509D01*
X014415Y013710D01*
X014260Y013865D01*
X014059Y013948D01*
X013841Y013948D01*
X013640Y013865D01*
X013580Y013805D01*
X013580Y015986D01*
X013515Y016144D01*
X013394Y016265D01*
X013511Y016148D02*
X016350Y016148D01*
X016350Y016246D02*
X015566Y016246D01*
X015720Y016345D02*
X016350Y016345D01*
X016350Y016443D02*
X015816Y016443D01*
X015857Y016542D02*
X016350Y016542D01*
X016350Y016640D02*
X015898Y016640D01*
X015898Y016739D02*
X016350Y016739D01*
X016350Y016837D02*
X015898Y016837D01*
X015866Y016936D02*
X016350Y016936D01*
X016350Y017034D02*
X015826Y017034D01*
X015743Y017133D02*
X016350Y017133D01*
X016350Y017231D02*
X015621Y017231D01*
X016350Y017330D02*
X013382Y017330D01*
X013475Y017428D02*
X016350Y017428D01*
X016350Y017527D02*
X013515Y017527D01*
X013556Y017625D02*
X016350Y017625D01*
X016350Y017724D02*
X013597Y017724D01*
X013600Y017822D02*
X016350Y017822D01*
X016350Y017921D02*
X013600Y017921D01*
X013600Y018019D02*
X016350Y018019D01*
X016350Y018118D02*
X013600Y018118D01*
X013600Y018216D02*
X016350Y018216D01*
X016350Y018315D02*
X013600Y018315D01*
X013600Y018413D02*
X016350Y018413D01*
X016350Y018512D02*
X013600Y018512D01*
X013600Y018610D02*
X016350Y018610D01*
X016350Y018709D02*
X013600Y018709D01*
X013564Y018807D02*
X016350Y018807D01*
X016350Y018906D02*
X013523Y018906D01*
X013482Y019004D02*
X016350Y019004D01*
X016350Y019103D02*
X013400Y019103D01*
X013301Y019201D02*
X016350Y019201D01*
X016350Y019300D02*
X013203Y019300D01*
X013104Y019398D02*
X016350Y019398D01*
X016350Y019497D02*
X013006Y019497D01*
X012907Y019595D02*
X016350Y019595D01*
X016350Y019694D02*
X012809Y019694D01*
X012710Y019792D02*
X016350Y019792D01*
X016350Y019891D02*
X012612Y019891D01*
X012513Y019989D02*
X016350Y019989D01*
X016350Y020088D02*
X012415Y020088D01*
X012316Y020186D02*
X016350Y020186D01*
X016350Y020285D02*
X012218Y020285D01*
X012119Y020383D02*
X016350Y020383D01*
X016350Y020482D02*
X012021Y020482D01*
X011922Y020580D02*
X016350Y020580D01*
X016350Y020679D02*
X011824Y020679D01*
X011725Y020777D02*
X016350Y020777D01*
X016350Y020876D02*
X011627Y020876D01*
X011528Y020974D02*
X016350Y020974D01*
X016350Y021073D02*
X011430Y021073D01*
X011331Y021171D02*
X016350Y021171D01*
X016350Y021270D02*
X011233Y021270D01*
X011134Y021368D02*
X016350Y021368D01*
X016350Y021467D02*
X011050Y021467D01*
X011050Y021565D02*
X016350Y021565D01*
X016350Y021664D02*
X011050Y021664D01*
X011050Y021762D02*
X016350Y021762D01*
X016350Y021861D02*
X011050Y021861D01*
X011050Y021959D02*
X016350Y021959D01*
X016350Y022058D02*
X011050Y022058D01*
X011050Y022156D02*
X016350Y022156D01*
X016350Y022255D02*
X011050Y022255D01*
X011050Y022353D02*
X016350Y022353D01*
X016350Y022452D02*
X011050Y022452D01*
X011050Y022550D02*
X016350Y022550D01*
X016350Y022649D02*
X011050Y022649D01*
X011050Y022747D02*
X016350Y022747D01*
X016350Y022846D02*
X011050Y022846D01*
X011050Y022944D02*
X016350Y022944D01*
X016350Y023043D02*
X011050Y023043D01*
X011041Y023141D02*
X016350Y023141D01*
X016350Y023240D02*
X011000Y023240D01*
X010959Y023338D02*
X016350Y023338D01*
X016350Y023437D02*
X010916Y023437D01*
X010817Y023535D02*
X016350Y023535D01*
X016350Y023634D02*
X010719Y023634D01*
X010620Y023732D02*
X016350Y023732D01*
X016350Y023769D02*
X016350Y014581D01*
X016479Y014269D01*
X016719Y014029D01*
X017031Y013900D01*
X017369Y013900D01*
X017681Y014029D01*
X017921Y014269D01*
X018050Y014581D01*
X018050Y023248D01*
X018671Y023869D01*
X018800Y024181D01*
X018800Y024475D01*
X018848Y024591D01*
X018848Y024809D01*
X018765Y025010D01*
X018610Y025165D01*
X018409Y025248D01*
X018191Y025248D01*
X018075Y025200D01*
X017781Y025200D01*
X017469Y025071D01*
X016719Y024321D01*
X016479Y024081D01*
X016350Y023769D01*
X016375Y023831D02*
X010522Y023831D01*
X010423Y023929D02*
X016416Y023929D01*
X016457Y024028D02*
X010325Y024028D01*
X010226Y024126D02*
X016524Y024126D01*
X016622Y024225D02*
X010200Y024225D01*
X010200Y024323D02*
X016721Y024323D01*
X016819Y024422D02*
X010200Y024422D01*
X010200Y024520D02*
X016918Y024520D01*
X017016Y024619D02*
X010200Y024619D01*
X010200Y024717D02*
X017115Y024717D01*
X017213Y024816D02*
X010200Y024816D01*
X010200Y024914D02*
X017312Y024914D01*
X017410Y025013D02*
X010200Y025013D01*
X010200Y025111D02*
X017566Y025111D01*
X018098Y025210D02*
X010200Y025210D01*
X010200Y025308D02*
X023350Y025308D01*
X023350Y025210D02*
X018502Y025210D01*
X018664Y025111D02*
X023350Y025111D01*
X023350Y025013D02*
X018763Y025013D01*
X018805Y024914D02*
X023350Y024914D01*
X023350Y024816D02*
X018845Y024816D01*
X018848Y024717D02*
X023350Y024717D01*
X023350Y024619D02*
X018848Y024619D01*
X018819Y024520D02*
X023350Y024520D01*
X023350Y024422D02*
X018800Y024422D01*
X018800Y024323D02*
X023350Y024323D01*
X023350Y024225D02*
X018800Y024225D01*
X018777Y024126D02*
X023350Y024126D01*
X023350Y024028D02*
X018736Y024028D01*
X018696Y023929D02*
X023350Y023929D01*
X023350Y023831D02*
X018633Y023831D01*
X018534Y023732D02*
X023350Y023732D01*
X023350Y023634D02*
X018436Y023634D01*
X018337Y023535D02*
X023350Y023535D01*
X023350Y023437D02*
X018239Y023437D01*
X018140Y023338D02*
X023350Y023338D01*
X023350Y023240D02*
X018050Y023240D01*
X018050Y023141D02*
X023350Y023141D01*
X023350Y023043D02*
X018050Y023043D01*
X018050Y022944D02*
X023350Y022944D01*
X023350Y022846D02*
X018050Y022846D01*
X018050Y022747D02*
X023350Y022747D01*
X023350Y022649D02*
X018050Y022649D01*
X018050Y022550D02*
X023350Y022550D01*
X023350Y022452D02*
X018050Y022452D01*
X018050Y022353D02*
X023350Y022353D01*
X023350Y022255D02*
X018050Y022255D01*
X018050Y022156D02*
X023350Y022156D01*
X023350Y022058D02*
X018050Y022058D01*
X018050Y021959D02*
X023350Y021959D01*
X023350Y021861D02*
X018050Y021861D01*
X018050Y021762D02*
X023350Y021762D01*
X023350Y021664D02*
X018050Y021664D01*
X018050Y021565D02*
X023350Y021565D01*
X023350Y021467D02*
X018050Y021467D01*
X018050Y021368D02*
X023350Y021368D01*
X023350Y021270D02*
X018050Y021270D01*
X018050Y021171D02*
X023350Y021171D01*
X023350Y021073D02*
X018050Y021073D01*
X018050Y020974D02*
X023350Y020974D01*
X023350Y020876D02*
X018050Y020876D01*
X018050Y020777D02*
X023350Y020777D01*
X023350Y020679D02*
X018050Y020679D01*
X018050Y020580D02*
X023350Y020580D01*
X023350Y020482D02*
X018050Y020482D01*
X018050Y020383D02*
X023350Y020383D01*
X023350Y020285D02*
X018050Y020285D01*
X018050Y020186D02*
X023350Y020186D01*
X023350Y020088D02*
X018050Y020088D01*
X018050Y019989D02*
X023350Y019989D01*
X023350Y019891D02*
X018050Y019891D01*
X018050Y019792D02*
X023350Y019792D01*
X023350Y019694D02*
X018050Y019694D01*
X018050Y019595D02*
X023350Y019595D01*
X023350Y019497D02*
X018050Y019497D01*
X018050Y019398D02*
X023350Y019398D01*
X023350Y019300D02*
X018050Y019300D01*
X018050Y019201D02*
X023350Y019201D01*
X023350Y019103D02*
X018050Y019103D01*
X018050Y019004D02*
X023350Y019004D01*
X023350Y018906D02*
X018050Y018906D01*
X018050Y018807D02*
X023350Y018807D01*
X023350Y018709D02*
X018050Y018709D01*
X018050Y018610D02*
X023350Y018610D01*
X023350Y018512D02*
X018050Y018512D01*
X018050Y018413D02*
X023350Y018413D01*
X023350Y018315D02*
X018050Y018315D01*
X018050Y018216D02*
X023350Y018216D01*
X023350Y018118D02*
X018050Y018118D01*
X018050Y018019D02*
X023350Y018019D01*
X023350Y017921D02*
X018050Y017921D01*
X018050Y017822D02*
X023350Y017822D01*
X023350Y017724D02*
X018050Y017724D01*
X018050Y017625D02*
X023350Y017625D01*
X023350Y017527D02*
X018050Y017527D01*
X018050Y017428D02*
X023350Y017428D01*
X023350Y017330D02*
X018050Y017330D01*
X018050Y017231D02*
X023350Y017231D01*
X023350Y017133D02*
X018050Y017133D01*
X018050Y017034D02*
X023350Y017034D01*
X023350Y016936D02*
X018050Y016936D01*
X018050Y016837D02*
X023350Y016837D01*
X023350Y016739D02*
X018050Y016739D01*
X018050Y016640D02*
X023350Y016640D01*
X023350Y016542D02*
X018050Y016542D01*
X018050Y016443D02*
X023350Y016443D01*
X023350Y016345D02*
X018050Y016345D01*
X018050Y016246D02*
X023350Y016246D01*
X023350Y016148D02*
X018050Y016148D01*
X018050Y016049D02*
X023350Y016049D01*
X023350Y015951D02*
X018050Y015951D01*
X018050Y015852D02*
X023350Y015852D01*
X023350Y015754D02*
X018050Y015754D01*
X018050Y015655D02*
X023350Y015655D01*
X023350Y015557D02*
X018050Y015557D01*
X018050Y015458D02*
X023350Y015458D01*
X023350Y015360D02*
X018050Y015360D01*
X018050Y015261D02*
X023350Y015261D01*
X023350Y015163D02*
X018050Y015163D01*
X018050Y015064D02*
X023350Y015064D01*
X023350Y014966D02*
X018050Y014966D01*
X018050Y014867D02*
X023350Y014867D01*
X023350Y014769D02*
X018050Y014769D01*
X018050Y014670D02*
X023350Y014670D01*
X023350Y014572D02*
X018046Y014572D01*
X018005Y014473D02*
X023350Y014473D01*
X023350Y014375D02*
X017964Y014375D01*
X017924Y014276D02*
X023350Y014276D01*
X023350Y014178D02*
X017830Y014178D01*
X017731Y014079D02*
X023350Y014079D01*
X023350Y013981D02*
X017563Y013981D01*
X016837Y013981D02*
X013580Y013981D01*
X013580Y014079D02*
X016669Y014079D01*
X016570Y014178D02*
X013580Y014178D01*
X013580Y014276D02*
X016476Y014276D01*
X016436Y014375D02*
X013580Y014375D01*
X013580Y014473D02*
X016395Y014473D01*
X016354Y014572D02*
X013580Y014572D01*
X013580Y014670D02*
X016350Y014670D01*
X016350Y014769D02*
X013580Y014769D01*
X013580Y014867D02*
X016350Y014867D01*
X016350Y014966D02*
X013580Y014966D01*
X013580Y015064D02*
X016350Y015064D01*
X016350Y015163D02*
X013580Y015163D01*
X013580Y015261D02*
X016350Y015261D01*
X016350Y015360D02*
X013580Y015360D01*
X013580Y015458D02*
X016350Y015458D01*
X016350Y015557D02*
X013580Y015557D01*
X013580Y015655D02*
X016350Y015655D01*
X016350Y015754D02*
X013580Y015754D01*
X013580Y015852D02*
X016350Y015852D01*
X016350Y015951D02*
X013580Y015951D01*
X013554Y016049D02*
X016350Y016049D01*
X014884Y016443D02*
X008350Y016443D01*
X008350Y016542D02*
X014843Y016542D01*
X014802Y016640D02*
X008350Y016640D01*
X008350Y016739D02*
X014802Y016739D01*
X014802Y016837D02*
X008350Y016837D01*
X008350Y016936D02*
X014834Y016936D01*
X014874Y017034D02*
X008350Y017034D01*
X008350Y017133D02*
X012382Y017133D01*
X012217Y017231D02*
X008350Y017231D01*
X008350Y017330D02*
X012118Y017330D01*
X012025Y017428D02*
X008350Y017428D01*
X008350Y017527D02*
X011985Y017527D01*
X011944Y017625D02*
X008350Y017625D01*
X008350Y017724D02*
X011903Y017724D01*
X011900Y017822D02*
X008350Y017822D01*
X008350Y017921D02*
X011900Y017921D01*
X011900Y018019D02*
X008350Y018019D01*
X008350Y018118D02*
X011900Y018118D01*
X011882Y018216D02*
X008350Y018216D01*
X008350Y018315D02*
X011783Y018315D01*
X011685Y018413D02*
X008350Y018413D01*
X008350Y018512D02*
X011586Y018512D01*
X011488Y018610D02*
X008350Y018610D01*
X008350Y018709D02*
X011389Y018709D01*
X011291Y018807D02*
X008350Y018807D01*
X008350Y018906D02*
X011192Y018906D01*
X011094Y019004D02*
X008350Y019004D01*
X008350Y019103D02*
X010995Y019103D01*
X010897Y019201D02*
X008350Y019201D01*
X008350Y019300D02*
X010798Y019300D01*
X010700Y019398D02*
X008350Y019398D01*
X008350Y019497D02*
X010601Y019497D01*
X010503Y019595D02*
X008350Y019595D01*
X008350Y019694D02*
X010404Y019694D01*
X010306Y019792D02*
X008350Y019792D01*
X008350Y019891D02*
X010207Y019891D01*
X010109Y019989D02*
X008350Y019989D01*
X008350Y020088D02*
X010010Y020088D01*
X009912Y020186D02*
X008350Y020186D01*
X008350Y020285D02*
X009813Y020285D01*
X009715Y020383D02*
X008350Y020383D01*
X008350Y020482D02*
X009616Y020482D01*
X009518Y020580D02*
X008350Y020580D01*
X008350Y020679D02*
X009455Y020679D01*
X009414Y020777D02*
X008350Y020777D01*
X008350Y020876D02*
X009373Y020876D01*
X009350Y020974D02*
X008350Y020974D01*
X008350Y021073D02*
X009350Y021073D01*
X009350Y021171D02*
X008350Y021171D01*
X008350Y021270D02*
X009350Y021270D01*
X009350Y021368D02*
X008350Y021368D01*
X008350Y021467D02*
X009350Y021467D01*
X009350Y021565D02*
X008350Y021565D01*
X008350Y021664D02*
X009350Y021664D01*
X009350Y021762D02*
X008350Y021762D01*
X008350Y021861D02*
X009350Y021861D01*
X009350Y021959D02*
X008350Y021959D01*
X008350Y022058D02*
X009350Y022058D01*
X009350Y022156D02*
X008350Y022156D01*
X008350Y022255D02*
X009350Y022255D01*
X009350Y022353D02*
X008350Y022353D01*
X008350Y022452D02*
X009350Y022452D01*
X009350Y022550D02*
X008350Y022550D01*
X008350Y022649D02*
X009299Y022649D01*
X009201Y022747D02*
X008350Y022747D01*
X008350Y022846D02*
X009102Y022846D01*
X009004Y022944D02*
X008350Y022944D01*
X008350Y023043D02*
X008905Y023043D01*
X008807Y023141D02*
X008350Y023141D01*
X008350Y023240D02*
X008708Y023240D01*
X008621Y023338D02*
X008350Y023338D01*
X008350Y023437D02*
X008581Y023437D01*
X008540Y023535D02*
X008350Y023535D01*
X008350Y023634D02*
X008500Y023634D01*
X008500Y023732D02*
X008350Y023732D01*
X008350Y023831D02*
X008500Y023831D01*
X008500Y023929D02*
X008350Y023929D01*
X008350Y024028D02*
X008500Y024028D01*
X008500Y024126D02*
X008350Y024126D01*
X008350Y024225D02*
X008500Y024225D01*
X008500Y024323D02*
X008350Y024323D01*
X008350Y024422D02*
X008500Y024422D01*
X008500Y024520D02*
X008350Y024520D01*
X008350Y024619D02*
X008500Y024619D01*
X008500Y024717D02*
X008350Y024717D01*
X008350Y024816D02*
X008500Y024816D01*
X008500Y024914D02*
X008350Y024914D01*
X008350Y025013D02*
X008500Y025013D01*
X008500Y025111D02*
X008350Y025111D01*
X008350Y025210D02*
X008500Y025210D01*
X008500Y025308D02*
X008350Y025308D01*
X008350Y025407D02*
X008500Y025407D01*
X008500Y025505D02*
X008350Y025505D01*
X008350Y025604D02*
X008500Y025604D01*
X008500Y025702D02*
X008350Y025702D01*
X008350Y025801D02*
X008500Y025801D01*
X008500Y025899D02*
X008350Y025899D01*
X008350Y025998D02*
X008492Y025998D01*
X008452Y026096D02*
X008350Y026096D01*
X008350Y026195D02*
X008411Y026195D01*
X008400Y026293D02*
X008350Y026293D01*
X008350Y026392D02*
X008400Y026392D01*
X008404Y026490D02*
X008350Y026490D01*
X008350Y026589D02*
X008445Y026589D01*
X008486Y026687D02*
X008350Y026687D01*
X008350Y026786D02*
X008566Y026786D01*
X008665Y026884D02*
X008350Y026884D01*
X008350Y026983D02*
X008790Y026983D01*
X008689Y027081D02*
X008350Y027081D01*
X008350Y027180D02*
X008632Y027180D01*
X008606Y027278D02*
X008350Y027278D01*
X008350Y027377D02*
X009300Y027377D01*
X009400Y027377D02*
X019150Y027377D01*
X019152Y027475D02*
X010083Y027475D01*
X010041Y027574D02*
X019193Y027574D01*
X019234Y027672D02*
X009964Y027672D01*
X009973Y027771D02*
X019275Y027771D01*
X019150Y027278D02*
X010094Y027278D01*
X010068Y027180D02*
X019150Y027180D01*
X019171Y027081D02*
X010011Y027081D01*
X009910Y026983D02*
X019211Y026983D01*
X019252Y026884D02*
X010035Y026884D01*
X010134Y026786D02*
X019312Y026786D01*
X019411Y026687D02*
X010214Y026687D01*
X010255Y026589D02*
X019509Y026589D01*
X019734Y026490D02*
X010296Y026490D01*
X010300Y026392D02*
X022456Y026392D01*
X022555Y026293D02*
X010300Y026293D01*
X010289Y026195D02*
X022653Y026195D01*
X022752Y026096D02*
X010250Y026096D01*
X010250Y025998D02*
X022850Y025998D01*
X022949Y025899D02*
X010216Y025899D01*
X010200Y025801D02*
X023047Y025801D01*
X023146Y025702D02*
X010200Y025702D01*
X010200Y025604D02*
X023244Y025604D01*
X023343Y025505D02*
X010200Y025505D01*
X010200Y025407D02*
X023350Y025407D01*
X025050Y025407D02*
X028200Y025407D01*
X028200Y025505D02*
X025050Y025505D01*
X025050Y025604D02*
X028200Y025604D01*
X028200Y025702D02*
X025050Y025702D01*
X025050Y025801D02*
X028200Y025801D01*
X028200Y025899D02*
X025050Y025899D01*
X025050Y025998D02*
X028200Y025998D01*
X028200Y026096D02*
X025018Y026096D01*
X024977Y026195D02*
X028200Y026195D01*
X028200Y026293D02*
X024937Y026293D01*
X024861Y026392D02*
X028200Y026392D01*
X028200Y026490D02*
X024762Y026490D01*
X024664Y026589D02*
X028200Y026589D01*
X028200Y026687D02*
X024565Y026687D01*
X024467Y026786D02*
X028200Y026786D01*
X028200Y026884D02*
X024368Y026884D01*
X024270Y026983D02*
X028200Y026983D01*
X028200Y027081D02*
X024171Y027081D01*
X024073Y027180D02*
X028200Y027180D01*
X028200Y027278D02*
X023974Y027278D01*
X023876Y027377D02*
X028200Y027377D01*
X028173Y027475D02*
X023777Y027475D01*
X023679Y027574D02*
X028074Y027574D01*
X027976Y027672D02*
X023580Y027672D01*
X023482Y027771D02*
X027877Y027771D01*
X029198Y028854D02*
X039750Y028854D01*
X039750Y028756D02*
X029297Y028756D01*
X029395Y028657D02*
X039750Y028657D01*
X039750Y028559D02*
X029494Y028559D01*
X029592Y028460D02*
X039750Y028460D01*
X039750Y028362D02*
X029691Y028362D01*
X029778Y028263D02*
X039750Y028263D01*
X039750Y028165D02*
X029819Y028165D01*
X029860Y028066D02*
X036933Y028066D01*
X036767Y027997D02*
X036503Y027733D01*
X036359Y027387D01*
X036359Y027013D01*
X036503Y026667D01*
X036767Y026403D01*
X037113Y026259D01*
X037487Y026259D01*
X037833Y026403D01*
X038097Y026667D01*
X038241Y027013D01*
X038241Y027387D01*
X038097Y027733D01*
X037833Y027997D01*
X037487Y028141D01*
X037113Y028141D01*
X036767Y027997D01*
X036737Y027968D02*
X029900Y027968D01*
X029900Y027869D02*
X036639Y027869D01*
X036540Y027771D02*
X029900Y027771D01*
X029900Y027672D02*
X036477Y027672D01*
X036437Y027574D02*
X029900Y027574D01*
X029900Y027475D02*
X036396Y027475D01*
X036359Y027377D02*
X029900Y027377D01*
X029900Y027278D02*
X036359Y027278D01*
X036359Y027180D02*
X029900Y027180D01*
X029900Y027081D02*
X036359Y027081D01*
X036372Y026983D02*
X029900Y026983D01*
X029900Y026884D02*
X036413Y026884D01*
X036454Y026786D02*
X029900Y026786D01*
X029900Y026687D02*
X036494Y026687D01*
X036581Y026589D02*
X035478Y026589D01*
X035464Y026596D02*
X035400Y026617D01*
X035339Y026626D01*
X035339Y026239D01*
X035726Y026239D01*
X035717Y026300D01*
X035696Y026364D01*
X035665Y026424D01*
X035626Y026478D01*
X035578Y026526D01*
X035524Y026565D01*
X035464Y026596D01*
X035339Y026589D02*
X035261Y026589D01*
X035261Y026626D02*
X035200Y026617D01*
X035136Y026596D01*
X035076Y026565D01*
X035022Y026526D01*
X034974Y026478D01*
X034935Y026424D01*
X034904Y026364D01*
X034883Y026300D01*
X034874Y026239D01*
X035261Y026239D01*
X035261Y026626D01*
X035261Y026490D02*
X035339Y026490D01*
X035339Y026392D02*
X035261Y026392D01*
X035261Y026293D02*
X035339Y026293D01*
X035339Y026239D02*
X035261Y026239D01*
X035261Y026161D01*
X034874Y026161D01*
X034883Y026100D01*
X034904Y026036D01*
X034935Y025976D01*
X034974Y025922D01*
X035022Y025874D01*
X035076Y025835D01*
X035129Y025808D01*
X034945Y025732D01*
X034768Y025555D01*
X034673Y025325D01*
X034673Y025075D01*
X034768Y024845D01*
X034945Y024668D01*
X035175Y024573D01*
X035425Y024573D01*
X035655Y024668D01*
X035832Y024845D01*
X035927Y025075D01*
X035927Y025325D01*
X035832Y025555D01*
X035655Y025732D01*
X035471Y025808D01*
X035524Y025835D01*
X035578Y025874D01*
X035626Y025922D01*
X035665Y025976D01*
X035696Y026036D01*
X035717Y026100D01*
X035726Y026161D01*
X035339Y026161D01*
X035339Y026239D01*
X035339Y026195D02*
X039750Y026195D01*
X039750Y026293D02*
X037568Y026293D01*
X037806Y026392D02*
X039750Y026392D01*
X039750Y026490D02*
X037920Y026490D01*
X038019Y026589D02*
X039750Y026589D01*
X039750Y026687D02*
X038106Y026687D01*
X038146Y026786D02*
X039750Y026786D01*
X039750Y026884D02*
X038187Y026884D01*
X038228Y026983D02*
X039750Y026983D01*
X039750Y027081D02*
X038241Y027081D01*
X038241Y027180D02*
X039750Y027180D01*
X039750Y027278D02*
X038241Y027278D01*
X038241Y027377D02*
X039750Y027377D01*
X039750Y027475D02*
X038204Y027475D01*
X038163Y027574D02*
X039750Y027574D01*
X039750Y027672D02*
X038123Y027672D01*
X038060Y027771D02*
X039750Y027771D01*
X039750Y027869D02*
X037961Y027869D01*
X037863Y027968D02*
X039750Y027968D01*
X039750Y028066D02*
X037667Y028066D01*
X039750Y028953D02*
X029100Y028953D01*
X029001Y029051D02*
X039750Y029051D01*
X039750Y029150D02*
X028903Y029150D01*
X028804Y029248D02*
X039750Y029248D01*
X039750Y029347D02*
X028706Y029347D01*
X028572Y029445D02*
X039750Y029445D01*
X039750Y029544D02*
X028335Y029544D01*
X029900Y026589D02*
X035122Y026589D01*
X034986Y026490D02*
X029900Y026490D01*
X029900Y026392D02*
X034918Y026392D01*
X034882Y026293D02*
X029900Y026293D01*
X029900Y026195D02*
X035261Y026195D01*
X034885Y026096D02*
X029900Y026096D01*
X029900Y025998D02*
X034924Y025998D01*
X034997Y025899D02*
X029900Y025899D01*
X029900Y025801D02*
X035111Y025801D01*
X034915Y025702D02*
X029900Y025702D01*
X029900Y025604D02*
X034817Y025604D01*
X034748Y025505D02*
X029900Y025505D01*
X029900Y025407D02*
X034707Y025407D01*
X034673Y025308D02*
X029900Y025308D01*
X029900Y025210D02*
X034673Y025210D01*
X034673Y025111D02*
X029900Y025111D01*
X029900Y025013D02*
X034699Y025013D01*
X034740Y024914D02*
X029900Y024914D01*
X029900Y024816D02*
X034798Y024816D01*
X034896Y024717D02*
X029900Y024717D01*
X029900Y024619D02*
X035065Y024619D01*
X035535Y024619D02*
X039750Y024619D01*
X039750Y024717D02*
X035704Y024717D01*
X035802Y024816D02*
X039750Y024816D01*
X039750Y024914D02*
X035860Y024914D01*
X035901Y025013D02*
X039750Y025013D01*
X039750Y025111D02*
X035927Y025111D01*
X035927Y025210D02*
X039750Y025210D01*
X039750Y025308D02*
X035927Y025308D01*
X035893Y025407D02*
X039750Y025407D01*
X039750Y025505D02*
X035852Y025505D01*
X035783Y025604D02*
X039750Y025604D01*
X039750Y025702D02*
X035685Y025702D01*
X035603Y025899D02*
X039750Y025899D01*
X039750Y025801D02*
X035489Y025801D01*
X035676Y025998D02*
X039750Y025998D01*
X039750Y026096D02*
X035715Y026096D01*
X035718Y026293D02*
X037032Y026293D01*
X036794Y026392D02*
X035682Y026392D01*
X035614Y026490D02*
X036680Y026490D01*
X039750Y024520D02*
X029900Y024520D01*
X029900Y024422D02*
X039750Y024422D01*
X039750Y024323D02*
X029900Y024323D01*
X029900Y024225D02*
X039750Y024225D01*
X039750Y024126D02*
X037522Y024126D01*
X037487Y024141D02*
X037113Y024141D01*
X036767Y023997D01*
X036503Y023733D01*
X036359Y023387D01*
X036359Y023013D01*
X036503Y022667D01*
X036767Y022403D01*
X037113Y022259D01*
X037487Y022259D01*
X037833Y022403D01*
X038097Y022667D01*
X038241Y023013D01*
X038241Y023387D01*
X038097Y023733D01*
X037833Y023997D01*
X037487Y024141D01*
X037760Y024028D02*
X039750Y024028D01*
X039750Y023929D02*
X037901Y023929D01*
X038000Y023831D02*
X039750Y023831D01*
X039750Y023732D02*
X038098Y023732D01*
X038138Y023634D02*
X039750Y023634D01*
X039750Y023535D02*
X038179Y023535D01*
X038220Y023437D02*
X039750Y023437D01*
X039750Y023338D02*
X038241Y023338D01*
X038241Y023240D02*
X039750Y023240D01*
X039750Y023141D02*
X038241Y023141D01*
X038241Y023043D02*
X039750Y023043D01*
X039750Y022944D02*
X038212Y022944D01*
X038171Y022846D02*
X039750Y022846D01*
X039750Y022747D02*
X038130Y022747D01*
X038079Y022649D02*
X039750Y022649D01*
X039750Y022550D02*
X037980Y022550D01*
X037882Y022452D02*
X039750Y022452D01*
X039750Y022353D02*
X037713Y022353D01*
X036887Y022353D02*
X029900Y022353D01*
X029900Y022255D02*
X039750Y022255D01*
X039750Y022156D02*
X029900Y022156D01*
X029900Y022058D02*
X039750Y022058D01*
X039750Y021959D02*
X029900Y021959D01*
X029900Y021861D02*
X039750Y021861D01*
X039750Y021762D02*
X029900Y021762D01*
X029900Y021664D02*
X039750Y021664D01*
X039750Y021565D02*
X029900Y021565D01*
X029900Y021467D02*
X039750Y021467D01*
X039750Y021368D02*
X029900Y021368D01*
X029900Y021270D02*
X039750Y021270D01*
X039750Y021171D02*
X029900Y021171D01*
X029900Y021073D02*
X039750Y021073D01*
X039750Y020974D02*
X029900Y020974D01*
X029900Y020876D02*
X039750Y020876D01*
X039750Y020777D02*
X029900Y020777D01*
X029900Y020679D02*
X039750Y020679D01*
X039750Y020580D02*
X029900Y020580D01*
X029900Y020482D02*
X039750Y020482D01*
X039750Y020383D02*
X029900Y020383D01*
X029900Y020285D02*
X039750Y020285D01*
X039750Y020186D02*
X029900Y020186D01*
X029900Y020088D02*
X039750Y020088D01*
X039750Y019989D02*
X029900Y019989D01*
X029900Y019891D02*
X039750Y019891D01*
X039750Y019792D02*
X029900Y019792D01*
X029900Y019694D02*
X039750Y019694D01*
X039750Y019595D02*
X029900Y019595D01*
X029900Y019497D02*
X039750Y019497D01*
X039750Y019398D02*
X029900Y019398D01*
X029900Y019300D02*
X039750Y019300D01*
X039750Y019201D02*
X029900Y019201D01*
X029900Y019103D02*
X039750Y019103D01*
X039750Y019004D02*
X029900Y019004D01*
X029900Y018906D02*
X039750Y018906D01*
X039750Y018807D02*
X029900Y018807D01*
X029900Y018709D02*
X039750Y018709D01*
X039750Y018610D02*
X029900Y018610D01*
X029900Y018512D02*
X039750Y018512D01*
X039750Y018413D02*
X029900Y018413D01*
X029900Y018315D02*
X039750Y018315D01*
X039750Y018216D02*
X029900Y018216D01*
X029900Y018118D02*
X037057Y018118D01*
X037113Y018141D02*
X036767Y017997D01*
X036503Y017733D01*
X036359Y017387D01*
X036359Y017013D01*
X036503Y016667D01*
X036767Y016403D01*
X037113Y016259D01*
X037487Y016259D01*
X037833Y016403D01*
X038097Y016667D01*
X038241Y017013D01*
X038241Y017387D01*
X038097Y017733D01*
X037833Y017997D01*
X037487Y018141D01*
X037113Y018141D01*
X036819Y018019D02*
X029900Y018019D01*
X029900Y017921D02*
X036690Y017921D01*
X036592Y017822D02*
X029900Y017822D01*
X029900Y017724D02*
X036499Y017724D01*
X036458Y017625D02*
X029900Y017625D01*
X029900Y017527D02*
X036417Y017527D01*
X036376Y017428D02*
X029900Y017428D01*
X029900Y017330D02*
X036359Y017330D01*
X036359Y017231D02*
X029900Y017231D01*
X029900Y017133D02*
X036359Y017133D01*
X036359Y017034D02*
X029900Y017034D01*
X029900Y016936D02*
X036392Y016936D01*
X036432Y016837D02*
X029900Y016837D01*
X029900Y016739D02*
X036473Y016739D01*
X036530Y016640D02*
X029900Y016640D01*
X029900Y016542D02*
X035043Y016542D01*
X035022Y016526D02*
X035076Y016565D01*
X035136Y016596D01*
X035200Y016617D01*
X035261Y016626D01*
X035261Y016239D01*
X035339Y016239D01*
X035726Y016239D01*
X035717Y016300D01*
X035696Y016364D01*
X035665Y016424D01*
X035626Y016478D01*
X035578Y016526D01*
X035524Y016565D01*
X035464Y016596D01*
X035400Y016617D01*
X035339Y016626D01*
X035339Y016239D01*
X035339Y016161D01*
X035726Y016161D01*
X035717Y016100D01*
X035696Y016036D01*
X035665Y015976D01*
X035626Y015922D01*
X035578Y015874D01*
X035524Y015835D01*
X035471Y015808D01*
X035655Y015732D01*
X035832Y015555D01*
X035927Y015325D01*
X035927Y015075D01*
X035832Y014845D01*
X035655Y014668D01*
X035425Y014573D01*
X035175Y014573D01*
X034945Y014668D01*
X034768Y014845D01*
X034673Y015075D01*
X034673Y015325D01*
X034768Y015555D01*
X034945Y015732D01*
X035129Y015808D01*
X035076Y015835D01*
X035022Y015874D01*
X034974Y015922D01*
X034935Y015976D01*
X034904Y016036D01*
X034883Y016100D01*
X034874Y016161D01*
X035261Y016161D01*
X035261Y016239D01*
X034874Y016239D01*
X034883Y016300D01*
X034904Y016364D01*
X034935Y016424D01*
X034974Y016478D01*
X035022Y016526D01*
X034949Y016443D02*
X029900Y016443D01*
X029900Y016345D02*
X034898Y016345D01*
X034875Y016246D02*
X029900Y016246D01*
X029900Y016148D02*
X034876Y016148D01*
X034900Y016049D02*
X029900Y016049D01*
X029900Y015951D02*
X034953Y015951D01*
X035052Y015852D02*
X029900Y015852D01*
X029884Y015754D02*
X034997Y015754D01*
X034868Y015655D02*
X029844Y015655D01*
X029803Y015557D02*
X034770Y015557D01*
X034728Y015458D02*
X029750Y015458D01*
X029652Y015360D02*
X034687Y015360D01*
X034673Y015261D02*
X029553Y015261D01*
X029346Y015163D02*
X034673Y015163D01*
X034677Y015064D02*
X025050Y015064D01*
X025050Y014966D02*
X034718Y014966D01*
X034759Y014867D02*
X025050Y014867D01*
X025050Y014769D02*
X034845Y014769D01*
X034943Y014670D02*
X025050Y014670D01*
X025050Y014572D02*
X039750Y014572D01*
X039750Y014670D02*
X035657Y014670D01*
X035755Y014769D02*
X039750Y014769D01*
X039750Y014867D02*
X035841Y014867D01*
X035882Y014966D02*
X039750Y014966D01*
X039750Y015064D02*
X035923Y015064D01*
X035927Y015163D02*
X039750Y015163D01*
X039750Y015261D02*
X035927Y015261D01*
X035913Y015360D02*
X039750Y015360D01*
X039750Y015458D02*
X035872Y015458D01*
X035830Y015557D02*
X039750Y015557D01*
X039750Y015655D02*
X035732Y015655D01*
X035603Y015754D02*
X039750Y015754D01*
X039750Y015852D02*
X035548Y015852D01*
X035647Y015951D02*
X039750Y015951D01*
X039750Y016049D02*
X035700Y016049D01*
X035724Y016148D02*
X039750Y016148D01*
X039750Y016246D02*
X035725Y016246D01*
X035702Y016345D02*
X036908Y016345D01*
X036727Y016443D02*
X035651Y016443D01*
X035557Y016542D02*
X036628Y016542D01*
X037692Y016345D02*
X039750Y016345D01*
X039750Y016443D02*
X037873Y016443D01*
X037972Y016542D02*
X039750Y016542D01*
X039750Y016640D02*
X038070Y016640D01*
X038127Y016739D02*
X039750Y016739D01*
X039750Y016837D02*
X038168Y016837D01*
X038208Y016936D02*
X039750Y016936D01*
X039750Y017034D02*
X038241Y017034D01*
X038241Y017133D02*
X039750Y017133D01*
X039750Y017231D02*
X038241Y017231D01*
X038241Y017330D02*
X039750Y017330D01*
X039750Y017428D02*
X038224Y017428D01*
X038183Y017527D02*
X039750Y017527D01*
X039750Y017625D02*
X038142Y017625D01*
X038101Y017724D02*
X039750Y017724D01*
X039750Y017822D02*
X038008Y017822D01*
X037910Y017921D02*
X039750Y017921D01*
X039750Y018019D02*
X037781Y018019D01*
X037543Y018118D02*
X039750Y018118D01*
X035339Y016542D02*
X035261Y016542D01*
X035261Y016443D02*
X035339Y016443D01*
X035339Y016345D02*
X035261Y016345D01*
X035261Y016246D02*
X035339Y016246D01*
X039750Y014473D02*
X025050Y014473D01*
X025050Y014375D02*
X039750Y014375D01*
X039750Y014276D02*
X025050Y014276D01*
X025050Y014178D02*
X039750Y014178D01*
X036359Y013193D02*
X026696Y013193D01*
X026815Y013094D02*
X036359Y013094D01*
X028754Y015163D02*
X025050Y015163D01*
X025050Y015261D02*
X028547Y015261D01*
X028448Y015360D02*
X025050Y015360D01*
X025050Y015458D02*
X028350Y015458D01*
X028297Y015557D02*
X025050Y015557D01*
X025050Y015655D02*
X028256Y015655D01*
X028215Y015754D02*
X025050Y015754D01*
X025050Y015852D02*
X028200Y015852D01*
X028200Y015951D02*
X025050Y015951D01*
X025050Y016049D02*
X028200Y016049D01*
X028200Y016148D02*
X025050Y016148D01*
X025050Y016246D02*
X028200Y016246D01*
X028200Y016345D02*
X025050Y016345D01*
X025050Y016443D02*
X028200Y016443D01*
X028200Y016542D02*
X025050Y016542D01*
X025050Y016640D02*
X028200Y016640D01*
X028200Y016739D02*
X025050Y016739D01*
X025050Y016837D02*
X028200Y016837D01*
X028200Y016936D02*
X025050Y016936D01*
X025050Y017034D02*
X028200Y017034D01*
X028200Y017133D02*
X025050Y017133D01*
X025050Y017231D02*
X028200Y017231D01*
X028200Y017330D02*
X025050Y017330D01*
X025050Y017428D02*
X028200Y017428D01*
X028200Y017527D02*
X025050Y017527D01*
X025050Y017625D02*
X028200Y017625D01*
X028200Y017724D02*
X025050Y017724D01*
X025050Y017822D02*
X028200Y017822D01*
X028200Y017921D02*
X025050Y017921D01*
X025050Y018019D02*
X028200Y018019D01*
X028200Y018118D02*
X025050Y018118D01*
X025050Y018216D02*
X028200Y018216D01*
X028200Y018315D02*
X025050Y018315D01*
X025050Y018413D02*
X028200Y018413D01*
X028200Y018512D02*
X025050Y018512D01*
X025050Y018610D02*
X028200Y018610D01*
X028200Y018709D02*
X025050Y018709D01*
X025050Y018807D02*
X028200Y018807D01*
X028200Y018906D02*
X025050Y018906D01*
X025050Y019004D02*
X028200Y019004D01*
X028200Y019103D02*
X025050Y019103D01*
X025050Y019201D02*
X028200Y019201D01*
X028200Y019300D02*
X025050Y019300D01*
X025050Y019398D02*
X028200Y019398D01*
X028200Y019497D02*
X025050Y019497D01*
X025050Y019595D02*
X028200Y019595D01*
X028200Y019694D02*
X025050Y019694D01*
X025050Y019792D02*
X028200Y019792D01*
X028200Y019891D02*
X025050Y019891D01*
X025050Y019989D02*
X028200Y019989D01*
X028200Y020088D02*
X025050Y020088D01*
X025050Y020186D02*
X028200Y020186D01*
X028200Y020285D02*
X025050Y020285D01*
X025050Y020383D02*
X028200Y020383D01*
X028200Y020482D02*
X025050Y020482D01*
X025050Y020580D02*
X028200Y020580D01*
X028200Y020679D02*
X025050Y020679D01*
X025050Y020777D02*
X028200Y020777D01*
X028200Y020876D02*
X025050Y020876D01*
X025050Y020974D02*
X028200Y020974D01*
X028200Y021073D02*
X025050Y021073D01*
X025050Y021171D02*
X028200Y021171D01*
X028200Y021270D02*
X025050Y021270D01*
X025050Y021368D02*
X028200Y021368D01*
X028200Y021467D02*
X025050Y021467D01*
X025050Y021565D02*
X028200Y021565D01*
X028200Y021664D02*
X025050Y021664D01*
X025050Y021762D02*
X028200Y021762D01*
X028200Y021861D02*
X025050Y021861D01*
X025050Y021959D02*
X028200Y021959D01*
X028200Y022058D02*
X025050Y022058D01*
X025050Y022156D02*
X028200Y022156D01*
X028200Y022255D02*
X025050Y022255D01*
X025050Y022353D02*
X028200Y022353D01*
X028200Y022452D02*
X025050Y022452D01*
X025050Y022550D02*
X028200Y022550D01*
X028200Y022649D02*
X025050Y022649D01*
X025050Y022747D02*
X028200Y022747D01*
X028200Y022846D02*
X025050Y022846D01*
X025050Y022944D02*
X028200Y022944D01*
X028200Y023043D02*
X025050Y023043D01*
X025050Y023141D02*
X028200Y023141D01*
X028200Y023240D02*
X025050Y023240D01*
X025050Y023338D02*
X028200Y023338D01*
X028200Y023437D02*
X025050Y023437D01*
X025050Y023535D02*
X028200Y023535D01*
X028200Y023634D02*
X025050Y023634D01*
X025050Y023732D02*
X028200Y023732D01*
X028200Y023831D02*
X025050Y023831D01*
X025050Y023929D02*
X028200Y023929D01*
X028200Y024028D02*
X025050Y024028D01*
X025050Y024126D02*
X028200Y024126D01*
X028200Y024225D02*
X025050Y024225D01*
X025050Y024323D02*
X028200Y024323D01*
X028200Y024422D02*
X025050Y024422D01*
X025050Y024520D02*
X028200Y024520D01*
X028200Y024619D02*
X025050Y024619D01*
X025050Y024717D02*
X028200Y024717D01*
X028200Y024816D02*
X025050Y024816D01*
X025050Y024914D02*
X028200Y024914D01*
X028200Y025013D02*
X025050Y025013D01*
X025050Y025111D02*
X028200Y025111D01*
X028200Y025210D02*
X025050Y025210D01*
X025050Y025308D02*
X028200Y025308D01*
X029900Y024126D02*
X037078Y024126D01*
X036840Y024028D02*
X029900Y024028D01*
X029900Y023929D02*
X036699Y023929D01*
X036600Y023831D02*
X029900Y023831D01*
X029900Y023732D02*
X036502Y023732D01*
X036462Y023634D02*
X029900Y023634D01*
X029900Y023535D02*
X036421Y023535D01*
X036380Y023437D02*
X029900Y023437D01*
X029900Y023338D02*
X036359Y023338D01*
X036359Y023240D02*
X029900Y023240D01*
X029900Y023141D02*
X036359Y023141D01*
X036359Y023043D02*
X029900Y023043D01*
X029900Y022944D02*
X036388Y022944D01*
X036429Y022846D02*
X029900Y022846D01*
X029900Y022747D02*
X036470Y022747D01*
X036521Y022649D02*
X029900Y022649D01*
X029900Y022550D02*
X036620Y022550D01*
X036718Y022452D02*
X029900Y022452D01*
X018300Y024700D02*
X018100Y024550D01*
X018050Y024550D01*
X008617Y027475D02*
X008350Y027475D01*
X004351Y022747D02*
X004322Y022747D01*
X004392Y022649D02*
X004232Y022649D01*
X004481Y022550D02*
X000650Y022550D01*
X000650Y022452D02*
X004579Y022452D01*
X013118Y017133D02*
X014957Y017133D01*
X015079Y017231D02*
X013283Y017231D01*
X013580Y013882D02*
X013681Y013882D01*
X014219Y013882D02*
X023350Y013882D01*
X023350Y013784D02*
X014342Y013784D01*
X014425Y013685D02*
X023350Y013685D01*
X023350Y013587D02*
X014466Y013587D01*
X014498Y013488D02*
X023350Y013488D01*
X023350Y013390D02*
X014498Y013390D01*
X014651Y007673D02*
X014644Y007667D01*
X014596Y007663D01*
X014589Y007667D01*
X014560Y007660D01*
X014531Y007657D01*
X014525Y007650D01*
X014479Y007638D01*
X014471Y007641D01*
X014444Y007629D01*
X014415Y007621D01*
X014411Y007613D01*
X014368Y007593D01*
X014359Y007595D01*
X014335Y007578D01*
X014207Y007479D02*
X012890Y007479D01*
X012890Y007381D02*
X014121Y007381D01*
X014062Y007282D02*
X012890Y007282D01*
X012890Y007184D02*
X014021Y007184D01*
X013996Y007085D02*
X012890Y007085D01*
X012890Y006987D02*
X013989Y006987D01*
X013993Y006888D02*
X012890Y006888D01*
X012890Y006790D02*
X014019Y006790D01*
X014056Y006691D02*
X012890Y006691D01*
X012890Y006593D02*
X014111Y006593D01*
X014193Y006494D02*
X012890Y006494D01*
X012890Y006396D02*
X014308Y006396D01*
X014949Y007613D02*
X014992Y007593D01*
X015001Y007595D01*
X015025Y007578D01*
X014949Y007613D02*
X014945Y007621D01*
X014916Y007629D01*
X014889Y007641D01*
X014881Y007638D01*
X014835Y007650D01*
X014829Y007657D01*
X014800Y007660D01*
X014771Y007667D01*
X014764Y007663D01*
X014716Y007667D01*
X014709Y007673D01*
X014680Y007670D01*
X014651Y007673D01*
X012890Y005312D02*
X034414Y005312D01*
X034409Y005214D02*
X012890Y005214D01*
X012890Y005115D02*
X034416Y005115D01*
X034431Y005017D02*
X012890Y005017D01*
X012890Y004918D02*
X034455Y004918D01*
X034492Y004820D02*
X012890Y004820D01*
X012890Y004721D02*
X034552Y004721D01*
X034626Y004623D02*
X012890Y004623D01*
X012849Y004524D02*
X034724Y004524D01*
X034864Y004426D02*
X012778Y004426D01*
X012620Y004327D02*
X035127Y004327D01*
X036503Y003733D02*
X036359Y003387D01*
X036359Y003013D01*
X036503Y002667D01*
X036767Y002403D01*
X037113Y002259D01*
X037487Y002259D01*
X037833Y002403D01*
X038097Y002667D01*
X038241Y003013D01*
X038241Y003387D01*
X038097Y003733D01*
X037833Y003997D01*
X037487Y004141D01*
X037113Y004141D01*
X036767Y003997D01*
X036503Y003733D01*
X036506Y003736D02*
X000650Y003736D01*
X000650Y003638D02*
X036463Y003638D01*
X036423Y003539D02*
X000650Y003539D01*
X000650Y003441D02*
X036382Y003441D01*
X036359Y003342D02*
X000650Y003342D01*
X000650Y003244D02*
X036359Y003244D01*
X036359Y003145D02*
X000650Y003145D01*
X000650Y003047D02*
X036359Y003047D01*
X036386Y002948D02*
X000650Y002948D01*
X000650Y002850D02*
X036427Y002850D01*
X036468Y002751D02*
X000650Y002751D01*
X000650Y002653D02*
X036517Y002653D01*
X036615Y002554D02*
X000650Y002554D01*
X000650Y002456D02*
X036714Y002456D01*
X036876Y002357D02*
X000650Y002357D01*
X000650Y002259D02*
X039750Y002259D01*
X039750Y002357D02*
X037724Y002357D01*
X037886Y002456D02*
X039750Y002456D01*
X039750Y002554D02*
X037985Y002554D01*
X038083Y002653D02*
X039750Y002653D01*
X039750Y002751D02*
X038132Y002751D01*
X038173Y002850D02*
X039750Y002850D01*
X039750Y002948D02*
X038214Y002948D01*
X038241Y003047D02*
X039750Y003047D01*
X039750Y003145D02*
X038241Y003145D01*
X038241Y003244D02*
X039750Y003244D01*
X039750Y003342D02*
X038241Y003342D01*
X038218Y003441D02*
X039750Y003441D01*
X039750Y003539D02*
X038177Y003539D01*
X038137Y003638D02*
X039750Y003638D01*
X039750Y003736D02*
X038094Y003736D01*
X037995Y003835D02*
X039750Y003835D01*
X039750Y003933D02*
X037897Y003933D01*
X037749Y004032D02*
X039750Y004032D01*
X039750Y004130D02*
X037511Y004130D01*
X037089Y004130D02*
X010723Y004130D01*
X010748Y004191D02*
X010665Y003990D01*
X010510Y003835D01*
X036605Y003835D01*
X036703Y003933D02*
X010609Y003933D01*
X010682Y004032D02*
X036851Y004032D01*
X035953Y005805D02*
X039750Y005805D01*
X039750Y005903D02*
X035849Y005903D01*
X035690Y006002D02*
X039750Y006002D01*
X039750Y006100D02*
X035717Y006100D01*
X039750Y002160D02*
X000650Y002160D01*
X000650Y002062D02*
X039750Y002062D01*
X039750Y001963D02*
X000650Y001963D01*
X000650Y001865D02*
X039750Y001865D01*
X039750Y001766D02*
X000650Y001766D01*
X000650Y001668D02*
X039750Y001668D01*
X039750Y001569D02*
X000650Y001569D01*
X000650Y001471D02*
X039750Y001471D01*
X039750Y001372D02*
X000650Y001372D01*
X000650Y001274D02*
X039750Y001274D01*
X039750Y001175D02*
X000650Y001175D01*
X000650Y001077D02*
X039750Y001077D01*
X039750Y000978D02*
X000650Y000978D01*
X000650Y000880D02*
X039750Y000880D01*
X039750Y000781D02*
X000650Y000781D01*
X000650Y000683D02*
X039750Y000683D01*
X010510Y003835D02*
X010309Y003752D01*
X010091Y003752D01*
X009890Y003835D01*
X004942Y007972D02*
X000650Y007972D01*
X000650Y008070D02*
X004754Y008070D01*
X004656Y008169D02*
X000650Y008169D01*
X000650Y008267D02*
X004603Y008267D01*
X004562Y008366D02*
X000650Y008366D01*
X000650Y008464D02*
X004552Y008464D01*
X004552Y008563D02*
X000650Y008563D01*
X000650Y008661D02*
X004574Y008661D01*
X004614Y008760D02*
X000650Y008760D01*
X000650Y008858D02*
X004683Y008858D01*
X004235Y012503D02*
X000650Y012503D01*
X000650Y012601D02*
X004090Y012601D01*
X004017Y012700D02*
X000650Y012700D01*
X000650Y012799D02*
X003977Y012799D01*
X003970Y012897D02*
X000650Y012897D01*
X000650Y012996D02*
X003970Y012996D01*
X003970Y013094D02*
X000650Y013094D01*
X000650Y013193D02*
X003970Y013193D01*
X003970Y013291D02*
X000650Y013291D01*
X000650Y013390D02*
X003970Y013390D01*
X003970Y013488D02*
X000650Y013488D01*
X000650Y013587D02*
X003970Y013587D01*
X003970Y013685D02*
X000650Y013685D01*
X000650Y013784D02*
X003970Y013784D01*
X003970Y013882D02*
X000650Y013882D01*
X000650Y013981D02*
X003970Y013981D01*
X003970Y014079D02*
X000650Y014079D01*
X000650Y014178D02*
X003970Y014178D01*
X003970Y014276D02*
X000650Y014276D01*
X000650Y014375D02*
X003970Y014375D01*
X003970Y014473D02*
X000650Y014473D01*
X000650Y014572D02*
X003970Y014572D01*
X003970Y014670D02*
X000650Y014670D01*
X000650Y014769D02*
X003970Y014769D01*
X003970Y014867D02*
X000650Y014867D01*
X000650Y014966D02*
X003970Y014966D01*
X003970Y015064D02*
X000650Y015064D01*
X000650Y015163D02*
X003970Y015163D01*
X003970Y015261D02*
X000650Y015261D01*
X000650Y015360D02*
X003970Y015360D01*
X003970Y015458D02*
X000650Y015458D01*
X000650Y015557D02*
X003970Y015557D01*
X003970Y015655D02*
X000650Y015655D01*
X000650Y015754D02*
X003970Y015754D01*
X003970Y015852D02*
X000650Y015852D01*
X000650Y015951D02*
X003970Y015951D01*
X003996Y016049D02*
X000650Y016049D01*
X000650Y016148D02*
X004039Y016148D01*
X004138Y016246D02*
X000650Y016246D01*
D18*
X007500Y014000D02*
X007550Y013900D01*
X010000Y013300D02*
X010100Y013300D01*
X013950Y013400D02*
X013950Y012650D01*
X017200Y014750D02*
X017300Y014750D01*
D19*
X017200Y014750D02*
X017200Y019300D01*
X017200Y020200D01*
X017200Y023600D01*
X017950Y024350D01*
X020000Y027300D02*
X022750Y027300D01*
X024200Y025850D01*
X024200Y012900D01*
X029050Y015960D02*
X029050Y027800D01*
X028150Y028700D01*
X009700Y028700D01*
X009350Y028350D01*
X007350Y028350D01*
X007150Y028150D01*
X007500Y028150D01*
X007500Y014000D01*
X012750Y017900D02*
X012750Y018550D01*
X010200Y021100D01*
X010200Y022950D01*
X009350Y023800D01*
X009350Y026100D01*
X009400Y026150D01*
D20*
X009400Y026300D01*
X009350Y026350D01*
D21*
X010580Y015900D02*
X007752Y015900D01*
X007798Y015789D01*
X007798Y015611D01*
X007730Y015446D01*
X007604Y015320D01*
X007439Y015252D01*
X007398Y015252D01*
X007398Y015211D01*
X007330Y015046D01*
X007204Y014920D01*
X007039Y014852D01*
X006861Y014852D01*
X006696Y014920D01*
X006570Y015046D01*
X006502Y015211D01*
X006502Y015389D01*
X006570Y015554D01*
X006696Y015680D01*
X006861Y015748D01*
X006902Y015748D01*
X006902Y015789D01*
X006948Y015900D01*
X004400Y015900D01*
X004400Y012900D01*
X013150Y012900D01*
X013150Y015900D01*
X011060Y015900D01*
X011066Y015897D01*
X011104Y015887D01*
X011110Y015877D01*
X011136Y015864D01*
X011148Y015866D01*
X011180Y015844D01*
X011216Y015827D01*
X011220Y015816D01*
X011244Y015800D01*
X011255Y015800D01*
X011283Y015772D01*
X011315Y015749D01*
X011317Y015738D01*
X011338Y015717D01*
X011349Y015715D01*
X011372Y015683D01*
X011400Y015655D01*
X011400Y015644D01*
X011416Y015620D01*
X011427Y015616D01*
X011444Y015580D01*
X011466Y015548D01*
X011464Y015536D01*
X011477Y015510D01*
X011487Y015504D01*
X011497Y015466D01*
X011514Y015431D01*
X011510Y015420D01*
X011517Y015392D01*
X011526Y015384D01*
X011530Y015345D01*
X011540Y015307D01*
X011534Y015297D01*
X011536Y015268D01*
X011544Y015259D01*
X011540Y015220D01*
X011544Y015181D01*
X011536Y015172D01*
X011534Y015143D01*
X011540Y015133D01*
X011530Y015095D01*
X011526Y015056D01*
X011517Y015048D01*
X011510Y015020D01*
X011514Y015009D01*
X011497Y014974D01*
X011487Y014936D01*
X011477Y014930D01*
X011464Y014904D01*
X011466Y014892D01*
X011444Y014860D01*
X011427Y014824D01*
X011416Y014820D01*
X011400Y014796D01*
X011400Y014785D01*
X011372Y014757D01*
X011349Y014725D01*
X011338Y014723D01*
X011317Y014702D01*
X011315Y014691D01*
X011283Y014668D01*
X011255Y014640D01*
X011244Y014640D01*
X011220Y014624D01*
X011216Y014613D01*
X011180Y014596D01*
X011148Y014574D01*
X011136Y014576D01*
X011110Y014563D01*
X011104Y014553D01*
X011066Y014543D01*
X011031Y014526D01*
X011020Y014530D01*
X010992Y014523D01*
X010984Y014514D01*
X010945Y014510D01*
X010907Y014500D01*
X010897Y014506D01*
X010868Y014504D01*
X010859Y014496D01*
X010820Y014500D01*
X010781Y014496D01*
X010772Y014504D01*
X010743Y014506D01*
X010733Y014500D01*
X010695Y014510D01*
X010656Y014514D01*
X010648Y014523D01*
X010620Y014530D01*
X010609Y014526D01*
X010574Y014543D01*
X010536Y014553D01*
X010530Y014563D01*
X010504Y014576D01*
X010492Y014574D01*
X010460Y014596D01*
X010424Y014613D01*
X010420Y014624D01*
X010396Y014640D01*
X010385Y014640D01*
X010357Y014668D01*
X010325Y014691D01*
X010323Y014702D01*
X010302Y014723D01*
X010291Y014725D01*
X010273Y014750D01*
X010230Y014646D01*
X010104Y014520D01*
X009939Y014452D01*
X009761Y014452D01*
X009596Y014520D01*
X009470Y014646D01*
X009402Y014811D01*
X009402Y014989D01*
X009470Y015154D01*
X009596Y015280D01*
X009761Y015348D01*
X009939Y015348D01*
X010104Y015280D01*
X010105Y015279D01*
X010106Y015297D01*
X010100Y015307D01*
X010110Y015345D01*
X010114Y015384D01*
X010123Y015392D01*
X010130Y015420D01*
X010126Y015431D01*
X010143Y015466D01*
X010153Y015504D01*
X010163Y015510D01*
X010176Y015536D01*
X010174Y015548D01*
X010196Y015580D01*
X010213Y015616D01*
X010224Y015620D01*
X010240Y015644D01*
X010240Y015655D01*
X010268Y015683D01*
X010291Y015715D01*
X010302Y015717D01*
X010323Y015738D01*
X010325Y015749D01*
X010357Y015772D01*
X010385Y015800D01*
X010396Y015800D01*
X010420Y015816D01*
X010424Y015827D01*
X010460Y015844D01*
X010492Y015866D01*
X010504Y015864D01*
X010530Y015877D01*
X010536Y015887D01*
X010574Y015897D01*
X010580Y015900D01*
X010516Y015870D02*
X007764Y015870D01*
X007798Y015712D02*
X010288Y015712D01*
X010177Y015553D02*
X007774Y015553D01*
X007678Y015395D02*
X010124Y015395D01*
X009553Y015236D02*
X007398Y015236D01*
X007343Y015078D02*
X009439Y015078D01*
X009402Y014919D02*
X007200Y014919D01*
X006700Y014919D02*
X004400Y014919D01*
X004400Y014761D02*
X009423Y014761D01*
X009515Y014602D02*
X004400Y014602D01*
X004400Y014444D02*
X013150Y014444D01*
X013150Y014602D02*
X011193Y014602D01*
X011376Y014761D02*
X013150Y014761D01*
X013150Y014919D02*
X011472Y014919D01*
X011528Y015078D02*
X013150Y015078D01*
X013150Y015236D02*
X011542Y015236D01*
X011516Y015395D02*
X013150Y015395D01*
X013150Y015553D02*
X011463Y015553D01*
X011352Y015712D02*
X013150Y015712D01*
X013150Y015870D02*
X011124Y015870D01*
X010447Y014602D02*
X010185Y014602D01*
X011270Y014104D02*
X011202Y013939D01*
X011202Y013761D01*
X011270Y013596D01*
X011396Y013470D01*
X011561Y013402D01*
X011739Y013402D01*
X011904Y013470D01*
X012030Y013596D01*
X012098Y013761D01*
X012098Y013939D01*
X012030Y014104D01*
X011904Y014230D01*
X011739Y014298D01*
X011561Y014298D01*
X011396Y014230D01*
X011270Y014104D01*
X011293Y014127D02*
X004400Y014127D01*
X004400Y014285D02*
X011530Y014285D01*
X011770Y014285D02*
X013150Y014285D01*
X013150Y014127D02*
X012007Y014127D01*
X012086Y013968D02*
X013150Y013968D01*
X013150Y013810D02*
X012098Y013810D01*
X012052Y013651D02*
X013150Y013651D01*
X013150Y013493D02*
X011926Y013493D01*
X011374Y013493D02*
X004400Y013493D01*
X004400Y013651D02*
X011248Y013651D01*
X011202Y013810D02*
X004400Y013810D01*
X004400Y013968D02*
X011214Y013968D01*
X013150Y013334D02*
X004400Y013334D01*
X004400Y013176D02*
X013150Y013176D01*
X013150Y013017D02*
X004400Y013017D01*
X004400Y015078D02*
X006557Y015078D01*
X006502Y015236D02*
X004400Y015236D01*
X004400Y015395D02*
X006504Y015395D01*
X006570Y015553D02*
X004400Y015553D01*
X004400Y015712D02*
X006773Y015712D01*
X006936Y015870D02*
X004400Y015870D01*
D22*
X011900Y010600D02*
X011900Y008100D01*
X010850Y007050D01*
X010850Y006450D01*
X011900Y010600D02*
X013950Y012650D01*
D23*
X012500Y007900D02*
X012265Y007900D01*
X012265Y007123D01*
X012227Y007085D01*
X012226Y007085D01*
X012270Y006978D01*
X012270Y006842D01*
X012218Y006717D01*
X012123Y006622D01*
X011998Y006570D01*
X011862Y006570D01*
X011737Y006622D01*
X011642Y006717D01*
X011590Y006842D01*
X011590Y006978D01*
X011634Y007085D01*
X011330Y007085D01*
X011165Y006920D01*
X011165Y006578D01*
X011190Y006518D01*
X011190Y006382D01*
X011138Y006257D01*
X011106Y006225D01*
X011155Y006176D01*
X011162Y006193D01*
X011257Y006288D01*
X011382Y006340D01*
X011518Y006340D01*
X011582Y006313D01*
X011657Y006388D01*
X011782Y006440D01*
X011918Y006440D01*
X012043Y006388D01*
X012138Y006293D01*
X012190Y006168D01*
X012190Y006032D01*
X012138Y005907D01*
X012043Y005812D01*
X011918Y005760D01*
X011782Y005760D01*
X011718Y005787D01*
X011643Y005712D01*
X011518Y005660D01*
X011382Y005660D01*
X011257Y005712D01*
X011195Y005774D01*
X011188Y005757D01*
X011093Y005662D01*
X010968Y005610D01*
X010832Y005610D01*
X010707Y005662D01*
X010612Y005757D01*
X010605Y005774D01*
X010543Y005712D01*
X010418Y005660D01*
X010282Y005660D01*
X010157Y005712D01*
X010062Y005807D01*
X010010Y005932D01*
X010010Y006068D01*
X010062Y006193D01*
X010157Y006288D01*
X010282Y006340D01*
X010418Y006340D01*
X010543Y006288D01*
X010554Y006277D01*
X010510Y006382D01*
X010510Y006518D01*
X010535Y006578D01*
X010535Y007113D01*
X010583Y007228D01*
X010672Y007317D01*
X010885Y007530D01*
X010885Y007840D01*
X010778Y007840D01*
X010646Y007895D01*
X010641Y007900D01*
X009100Y007900D01*
X009100Y007871D01*
X009158Y007731D01*
X009158Y007569D01*
X009132Y007508D01*
X009221Y007508D01*
X009371Y007446D01*
X009486Y007331D01*
X009548Y007181D01*
X009548Y007019D01*
X009486Y006869D01*
X009371Y006754D01*
X009221Y006692D01*
X009100Y006692D01*
X009100Y006240D01*
X009168Y006240D01*
X009293Y006188D01*
X009388Y006093D01*
X009440Y005968D01*
X009440Y005832D01*
X009388Y005707D01*
X009293Y005612D01*
X009168Y005560D01*
X009100Y005560D01*
X009100Y004700D01*
X012500Y004700D01*
X012500Y007900D01*
X012500Y007833D02*
X012265Y007833D01*
X012265Y007754D02*
X012500Y007754D01*
X012500Y007676D02*
X012265Y007676D01*
X012265Y007597D02*
X012500Y007597D01*
X012500Y007519D02*
X012265Y007519D01*
X012265Y007440D02*
X012500Y007440D01*
X012500Y007362D02*
X012265Y007362D01*
X012265Y007283D02*
X012500Y007283D01*
X012500Y007205D02*
X012265Y007205D01*
X012265Y007126D02*
X012500Y007126D01*
X012500Y007048D02*
X012241Y007048D01*
X012270Y006969D02*
X012500Y006969D01*
X012500Y006891D02*
X012270Y006891D01*
X012258Y006812D02*
X012500Y006812D01*
X012500Y006734D02*
X012225Y006734D01*
X012156Y006655D02*
X012500Y006655D01*
X012500Y006577D02*
X012014Y006577D01*
X011966Y006420D02*
X012500Y006420D01*
X012500Y006498D02*
X011190Y006498D01*
X011190Y006420D02*
X011734Y006420D01*
X011611Y006341D02*
X011173Y006341D01*
X011141Y006263D02*
X011232Y006263D01*
X011158Y006184D02*
X011146Y006184D01*
X011165Y006577D02*
X011846Y006577D01*
X011704Y006655D02*
X011165Y006655D01*
X011165Y006734D02*
X011635Y006734D01*
X011602Y006812D02*
X011165Y006812D01*
X011165Y006891D02*
X011590Y006891D01*
X011590Y006969D02*
X011215Y006969D01*
X011293Y007048D02*
X011619Y007048D01*
X010874Y007519D02*
X009137Y007519D01*
X009158Y007597D02*
X010885Y007597D01*
X010885Y007676D02*
X009158Y007676D01*
X009148Y007754D02*
X010885Y007754D01*
X010885Y007833D02*
X009116Y007833D01*
X009376Y007440D02*
X010795Y007440D01*
X010717Y007362D02*
X009455Y007362D01*
X009505Y007283D02*
X010638Y007283D01*
X010573Y007205D02*
X009538Y007205D01*
X009548Y007126D02*
X010541Y007126D01*
X010535Y007048D02*
X009548Y007048D01*
X009527Y006969D02*
X010535Y006969D01*
X010535Y006891D02*
X009495Y006891D01*
X009429Y006812D02*
X010535Y006812D01*
X010535Y006734D02*
X009322Y006734D01*
X009100Y006655D02*
X010535Y006655D01*
X010535Y006577D02*
X009100Y006577D01*
X009100Y006498D02*
X010510Y006498D01*
X010510Y006420D02*
X009100Y006420D01*
X009100Y006341D02*
X010527Y006341D01*
X010132Y006263D02*
X009100Y006263D01*
X009296Y006184D02*
X010058Y006184D01*
X010026Y006106D02*
X009375Y006106D01*
X009415Y006027D02*
X010010Y006027D01*
X010010Y005949D02*
X009440Y005949D01*
X009440Y005870D02*
X010036Y005870D01*
X010077Y005792D02*
X009423Y005792D01*
X009391Y005713D02*
X010156Y005713D01*
X010544Y005713D02*
X010656Y005713D01*
X010772Y005635D02*
X009316Y005635D01*
X009100Y005556D02*
X012500Y005556D01*
X012500Y005478D02*
X009100Y005478D01*
X009100Y005399D02*
X012500Y005399D01*
X012500Y005321D02*
X009100Y005321D01*
X009100Y005242D02*
X012500Y005242D01*
X012500Y005164D02*
X009100Y005164D01*
X009100Y005085D02*
X012500Y005085D01*
X012500Y005007D02*
X009100Y005007D01*
X009100Y004928D02*
X012500Y004928D01*
X012500Y004850D02*
X009100Y004850D01*
X009100Y004771D02*
X012500Y004771D01*
X012500Y005635D02*
X011028Y005635D01*
X011144Y005713D02*
X011256Y005713D01*
X011644Y005713D02*
X012500Y005713D01*
X012500Y005792D02*
X011995Y005792D01*
X012101Y005870D02*
X012500Y005870D01*
X012500Y005949D02*
X012155Y005949D01*
X012188Y006027D02*
X012500Y006027D01*
X012500Y006106D02*
X012190Y006106D01*
X012183Y006184D02*
X012500Y006184D01*
X012500Y006263D02*
X012151Y006263D01*
X012089Y006341D02*
X012500Y006341D01*
D24*
X026650Y006050D03*
M02*
