G75*
%MOIN*%
%OFA0B0*%
%FSLAX24Y24*%
%IPPOS*%
%LPD*%
%AMOC8*
5,1,8,0,0,1.08239X$1,22.5*
%
%ADD10R,0.0415X0.0190*%
%ADD11R,0.0190X0.0415*%
%ADD12R,0.1143X0.1143*%
%ADD13C,0.0420*%
%ADD14R,0.0434X0.0592*%
%ADD15R,0.0395X0.0395*%
%ADD16R,0.0297X0.0474*%
%ADD17R,0.0434X0.0316*%
%ADD18R,0.0474X0.0631*%
%ADD19R,0.0710X0.0434*%
%ADD20R,0.0592X0.0434*%
%ADD21R,0.0434X0.0710*%
%ADD22C,0.0634*%
%ADD23C,0.1261*%
%ADD24C,0.0680*%
%ADD25R,0.4178X0.4332*%
%ADD26R,0.0930X0.0500*%
%ADD27R,0.0710X0.1655*%
%ADD28R,0.0356X0.0592*%
%ADD29R,0.0316X0.0434*%
%ADD30R,0.0946X0.0316*%
%ADD31R,0.0631X0.0474*%
%ADD32R,2.0356X0.0474*%
%ADD33R,0.0474X2.0356*%
%ADD34C,0.0516*%
%ADD35C,0.0476*%
%ADD36C,0.0437*%
D10*
X010322Y008056D03*
X010322Y008253D03*
X010322Y008450D03*
X010322Y008647D03*
X010322Y008844D03*
X011878Y008844D03*
X011878Y008647D03*
X011878Y008450D03*
X011878Y008253D03*
X011878Y008056D03*
D11*
X011494Y007672D03*
X011297Y007672D03*
X011100Y007672D03*
X010903Y007672D03*
X010706Y007672D03*
X010706Y009228D03*
X010903Y009228D03*
X011100Y009228D03*
X011297Y009228D03*
X011494Y009228D03*
D12*
X011100Y008450D03*
D13*
X010850Y008200D03*
X011350Y008200D03*
X011350Y008700D03*
X010850Y008700D03*
D14*
X013076Y006250D03*
X013824Y006250D03*
X013824Y005450D03*
X013076Y005450D03*
X010524Y013950D03*
X009776Y013950D03*
X008424Y014700D03*
X007676Y014700D03*
X012026Y018500D03*
X012774Y018500D03*
X009874Y018800D03*
X009126Y018800D03*
X016426Y015400D03*
X017174Y015400D03*
X029056Y015210D03*
X029804Y015210D03*
X018674Y025450D03*
X017926Y025450D03*
D15*
X016450Y023345D03*
X016450Y022755D03*
X011350Y017445D03*
X011350Y016855D03*
X013505Y015950D03*
X014095Y015950D03*
X015650Y014345D03*
X015650Y013755D03*
X011950Y013395D03*
X011950Y012805D03*
X008445Y015400D03*
X007855Y015400D03*
X009255Y007650D03*
X009845Y007650D03*
X009605Y007090D03*
X010195Y007090D03*
X011805Y006550D03*
X012395Y006550D03*
X011845Y005550D03*
X011255Y005550D03*
X010700Y005545D03*
X010700Y004955D03*
X026500Y011205D03*
X026500Y011795D03*
X028970Y013355D03*
X028970Y013945D03*
D16*
X013044Y008341D03*
X012356Y008341D03*
X012356Y007159D03*
X013044Y007159D03*
D17*
X012400Y006145D03*
X012400Y005555D03*
X011320Y006645D03*
X011320Y007235D03*
X010550Y010005D03*
X010550Y010595D03*
X010500Y012705D03*
X010500Y013295D03*
X012750Y016905D03*
X012750Y017495D03*
X017200Y014345D03*
X017200Y013755D03*
X025000Y012395D03*
X025000Y011805D03*
X028050Y013405D03*
X028050Y013995D03*
D18*
X013874Y009067D03*
X013126Y009067D03*
X013500Y009933D03*
D19*
X014400Y010640D03*
X013500Y010679D03*
X013500Y011821D03*
X014400Y011860D03*
X016200Y011821D03*
X017100Y011821D03*
X017950Y011860D03*
X017100Y010679D03*
X017950Y010640D03*
X019050Y010360D03*
X019050Y009140D03*
X019050Y008610D03*
X019050Y007390D03*
X019050Y006860D03*
X019050Y005640D03*
X016650Y007390D03*
X016650Y008610D03*
X013850Y008360D03*
X013850Y007140D03*
X016200Y010679D03*
X025050Y010360D03*
X025050Y009140D03*
X025050Y008610D03*
X025050Y007390D03*
X025050Y006860D03*
X025050Y005640D03*
X027450Y007390D03*
X028450Y007410D03*
X028450Y006190D03*
X027450Y008610D03*
X027450Y009290D03*
X028450Y009329D03*
X028450Y010471D03*
X027450Y010510D03*
X027200Y013440D03*
X027200Y014660D03*
X017650Y022229D03*
X017650Y023371D03*
X019000Y023379D03*
X019000Y024521D03*
D20*
X012050Y017674D03*
X012050Y016926D03*
X016400Y014524D03*
X016400Y013776D03*
X011200Y013474D03*
X011200Y012726D03*
X006950Y013976D03*
X006950Y014724D03*
X009700Y005724D03*
X009700Y004976D03*
X024200Y011626D03*
X024200Y012374D03*
X025700Y011774D03*
X025700Y011026D03*
X029680Y013306D03*
X029680Y014054D03*
D21*
X007729Y005000D03*
X008871Y005000D03*
X017979Y012600D03*
X019121Y012600D03*
X014371Y015100D03*
X013229Y015100D03*
X012671Y015100D03*
X012671Y016000D03*
X013529Y016750D03*
X014671Y016750D03*
X011529Y016000D03*
X011529Y015100D03*
X029190Y009100D03*
X030410Y009100D03*
X030379Y010500D03*
X031521Y010500D03*
X031610Y011500D03*
X030390Y011500D03*
X030380Y013190D03*
X031600Y013190D03*
D22*
X035300Y015200D03*
X035300Y016200D03*
X035300Y025200D03*
X035300Y026200D03*
X035300Y006200D03*
X035300Y005200D03*
D23*
X037300Y007200D03*
X037300Y003200D03*
X037300Y013200D03*
X037300Y017200D03*
X037300Y023200D03*
X037300Y027200D03*
D24*
X009650Y027350D02*
X009050Y027350D01*
X009050Y026350D02*
X009650Y026350D01*
X009650Y028350D02*
X009050Y028350D01*
X004950Y023600D02*
X004950Y023000D01*
X003950Y023000D02*
X003950Y023600D01*
D25*
X023600Y025250D03*
D26*
X020320Y025250D03*
X020320Y025920D03*
X020320Y026590D03*
X020320Y024580D03*
X020320Y023910D03*
D27*
X013850Y025702D03*
X013850Y028498D03*
X003900Y028348D03*
X003900Y025552D03*
D28*
X030326Y012350D03*
X031074Y012350D03*
X026624Y008600D03*
X025876Y008600D03*
X025876Y007400D03*
X026624Y007400D03*
X026676Y006550D03*
X027424Y006550D03*
X024274Y007400D03*
X023526Y007400D03*
X023526Y008600D03*
X024274Y008600D03*
X018224Y008600D03*
X017476Y008600D03*
X015824Y008600D03*
X015076Y008600D03*
X015076Y007400D03*
X015824Y007400D03*
X017476Y007400D03*
X018224Y007400D03*
D29*
X011845Y004950D03*
X011255Y004950D03*
X010395Y006570D03*
X009805Y006570D03*
X008445Y014000D03*
X007855Y014000D03*
X007645Y016850D03*
X007055Y016850D03*
X009205Y018100D03*
X009795Y018100D03*
X028475Y014500D03*
X029065Y014500D03*
D30*
X029374Y012800D03*
X029374Y012300D03*
X029374Y011800D03*
X029374Y011300D03*
X027326Y011300D03*
X027326Y011800D03*
X027326Y012300D03*
X027326Y012800D03*
X014824Y012700D03*
X014824Y013200D03*
X014824Y013700D03*
X014824Y014200D03*
X012776Y014200D03*
X012776Y013700D03*
X012776Y013200D03*
X012776Y012700D03*
X010524Y015850D03*
X010524Y016350D03*
X010524Y016850D03*
X010524Y017350D03*
X008476Y017350D03*
X008476Y016850D03*
X008476Y016350D03*
X008476Y015850D03*
D31*
X025867Y005000D03*
X026733Y004626D03*
X026733Y005374D03*
D32*
X011413Y001539D03*
X011413Y021421D03*
D33*
X021354Y011480D03*
X001472Y011480D03*
D34*
X006950Y015300D03*
X007350Y015700D03*
X009850Y014900D03*
X011650Y013850D03*
X008750Y007650D03*
X009140Y007100D03*
X015700Y022750D03*
X017400Y025450D03*
X019600Y025250D03*
D35*
X018300Y024700D03*
X017950Y024350D03*
X020000Y027300D03*
X017200Y020200D03*
X012750Y017900D03*
X011400Y018050D03*
X011450Y018600D03*
X015350Y016750D03*
X015850Y015550D03*
X015700Y014950D03*
X017200Y014750D03*
X013950Y013400D03*
X010800Y015200D03*
X010100Y013300D03*
X007500Y014000D03*
X007050Y016400D03*
X010550Y009750D03*
X009500Y008300D03*
X009430Y006570D03*
X012200Y005200D03*
X010200Y004300D03*
X014700Y007000D03*
X019550Y007400D03*
X019600Y008600D03*
X023100Y008600D03*
X023200Y007400D03*
X024450Y010350D03*
X025710Y010560D03*
X026420Y010750D03*
X026300Y012600D03*
X024200Y012900D03*
X026300Y015200D03*
X027600Y015300D03*
X028400Y015150D03*
X029050Y015960D03*
X030960Y014080D03*
X031650Y012350D03*
X032200Y011700D03*
X032100Y011000D03*
X028500Y008900D03*
X005100Y008500D03*
D36*
X026650Y006050D03*
M02*
