G75*
%MOIN*%
%OFA0B0*%
%FSLAX24Y24*%
%IPPOS*%
%LPD*%
%AMOC8*
5,1,8,0,0,1.08239X$1,22.5*
%
%ADD10C,0.0420*%
%ADD11C,0.0634*%
%ADD12C,0.1261*%
%ADD13C,0.0680*%
%ADD14C,0.0516*%
%ADD15C,0.0476*%
%ADD16C,0.0437*%
D10*
X010850Y008200D03*
X011350Y008200D03*
X011350Y008700D03*
X010850Y008700D03*
D11*
X035300Y006200D03*
X035300Y005200D03*
X035300Y015200D03*
X035300Y016200D03*
X035300Y025200D03*
X035300Y026200D03*
D12*
X037300Y027200D03*
X037300Y023200D03*
X037300Y017200D03*
X037300Y013200D03*
X037300Y007200D03*
X037300Y003200D03*
D13*
X004950Y023000D02*
X004950Y023600D01*
X003950Y023600D02*
X003950Y023000D01*
X009050Y026350D02*
X009650Y026350D01*
X009650Y027350D02*
X009050Y027350D01*
X009050Y028350D02*
X009650Y028350D01*
D14*
X017400Y025450D03*
X019600Y025250D03*
X015700Y022750D03*
X007350Y015700D03*
X006950Y015300D03*
X009850Y014900D03*
X011650Y013850D03*
X008750Y007650D03*
X009140Y007100D03*
D15*
X010200Y004300D03*
X012200Y005200D03*
X014700Y007000D03*
X010550Y009750D03*
X009500Y008300D03*
X009430Y006570D03*
X005100Y008500D03*
X010100Y013300D03*
X007500Y014000D03*
X007050Y016400D03*
X010800Y015200D03*
X013950Y013400D03*
X015700Y014950D03*
X015850Y015550D03*
X017200Y014750D03*
X015350Y016750D03*
X012750Y017900D03*
X011400Y018050D03*
X011450Y018600D03*
X017200Y020200D03*
X017950Y024350D03*
X018300Y024700D03*
X020000Y027300D03*
X029050Y015960D03*
X028400Y015150D03*
X027600Y015300D03*
X026300Y015200D03*
X024200Y012900D03*
X026300Y012600D03*
X026420Y010750D03*
X025710Y010560D03*
X024450Y010350D03*
X023100Y008600D03*
X023200Y007400D03*
X019550Y007400D03*
X019600Y008600D03*
X028500Y008900D03*
X032100Y011000D03*
X032200Y011700D03*
X031650Y012350D03*
X030960Y014080D03*
D16*
X026650Y006050D03*
M02*
