%
M48
M72
T01C0.0140
T02C0.0197
T03C0.0236
T04C0.0276
T05C0.0354
T06C0.0400
T07C0.0787
%
T01
X1450Y1550
X2550Y1550
X4650Y1550
X6750Y1550
X8350Y1550
X9950Y1550
X11450Y1550
X12950Y1550
X14550Y1550
X16050Y1550
X17950Y1550
X20250Y1550
X21350Y2150
X21350Y3650
X21350Y5350
X19350Y5250
X18850Y5250
X12360Y8890
X11350Y8700
X10850Y8700
X10850Y8200
X11350Y8200
X11920Y7500
X11930Y6910
X11850Y6100
X11450Y6000
X10900Y5950
X10350Y6000
X10850Y6450
X9100Y5900
X8400Y5850
X12360Y9730
X12360Y10450
X12340Y11710
X12340Y12260
X16200Y10350
X17100Y10350
X17950Y10300
X18800Y10750
X19300Y10750
X21350Y11050
X21350Y10250
X21350Y12150
X19550Y12600
X21350Y13250
X21350Y14550
X21350Y16050
X21350Y17650
X21350Y19450
X21250Y21450
X19250Y21450
X18150Y21450
X16250Y21450
X15050Y21450
X13050Y21450
X11250Y21450
X9150Y21450
X8450Y21450
X6550Y21450
X5850Y21450
X4350Y21450
X2850Y21450
X1950Y21450
X1450Y20350
X1450Y19050
X1450Y17850
X1450Y16750
X1450Y15750
X1450Y14750
X1450Y13650
X1450Y12650
X1450Y11550
X1450Y10350
X1450Y9250
X1450Y8150
X1450Y6950
X1450Y5750
X1450Y4450
X1450Y3050
T02
X26650Y6050
T03
X23200Y7400
X23100Y8600
X24450Y10350
X25710Y10560
X26420Y10750
X26300Y12600
X24200Y12900
X26300Y15200
X27600Y15300
X28400Y15150
X29050Y15960
X30960Y14080
X31650Y12350
X32200Y11700
X32100Y11000
X28500Y8900
X19600Y8600
X19550Y7400
X14700Y7000
X12200Y5200
X10200Y4300
X9430Y6570
X9500Y8300
X10550Y9750
X10100Y13300
X7500Y14000
X7050Y16400
X10800Y15200
X13950Y13400
X15700Y14950
X15850Y15550
X17200Y14750
X15350Y16750
X12750Y17900
X11400Y18050
X11450Y18600
X17200Y20200
X17950Y24350
X18300Y24700
X20000Y27300
X5100Y8500
T04
X8750Y7650
X9140Y7100
X11650Y13850
X9850Y14900
X7350Y15700
X6950Y15300
X15700Y22750
X17400Y25450
X19600Y25250
T05
X35300Y25200
X35300Y26200
X35300Y16200
X35300Y15200
X35300Y6200
X35300Y5200
T06
X4950Y23300
X3950Y23300
X9350Y26350
X9350Y27350
X9350Y28350
T07
X37300Y27200
X37300Y23200
X37300Y17200
X37300Y13200
X37300Y7200
X37300Y3200
M30
