G75*
%MOIN*%
%OFA0B0*%
%FSLAX24Y24*%
%IPPOS*%
%LPD*%
%AMOC8*
5,1,8,0,0,1.08239X$1,22.5*
%
%ADD10R,0.0170X0.0395*%
%ADD11R,0.0395X0.0170*%
%ADD12R,0.1123X0.1123*%
%ADD13C,0.0370*%
%ADD14R,0.0414X0.0572*%
%ADD15R,0.0375X0.0375*%
%ADD16R,0.0277X0.0454*%
%ADD17R,0.0414X0.0296*%
%ADD18R,0.0454X0.0611*%
%ADD19R,0.1044X0.0414*%
%ADD20R,0.2265X0.0414*%
%ADD21R,0.0572X0.0414*%
%ADD22R,0.0690X0.0414*%
%ADD23R,0.0296X0.0414*%
%ADD24R,0.0414X0.0690*%
%ADD25C,0.0591*%
%ADD26C,0.1241*%
%ADD27C,0.0660*%
%ADD28R,0.0480X0.0910*%
%ADD29R,0.4312X0.4158*%
%ADD30R,0.0690X0.1635*%
%ADD31R,0.0336X0.0572*%
%ADD32R,0.0926X0.0296*%
%ADD33R,0.0611X0.0454*%
%ADD34R,2.0336X0.0454*%
%ADD35R,0.0454X2.0336*%
%ADD36R,0.0572X0.0336*%
%ADD37R,0.0158X0.0454*%
%ADD38R,0.0336X0.0257*%
%ADD39OC8,0.0600*%
%ADD40R,0.0414X0.0154*%
%ADD41R,0.0154X0.0414*%
%ADD42R,0.0651X0.0651*%
%ADD43R,0.0532X0.0277*%
%ADD44R,0.0257X0.0336*%
%ADD45C,0.0060*%
%ADD46C,0.0690*%
%ADD47OC8,0.0690*%
%ADD48C,0.1160*%
%ADD49R,0.0450X0.0470*%
%ADD50R,0.0470X0.0930*%
%ADD51R,0.0540X0.0940*%
%ADD52R,0.1477X0.0926*%
%ADD53R,0.0296X0.0926*%
%ADD54R,0.0454X0.0336*%
%ADD55R,0.0375X0.0198*%
%ADD56OC8,0.0560*%
%ADD57R,0.0640X0.0170*%
%ADD58R,0.0170X0.0640*%
%ADD59R,0.0572X0.0473*%
%ADD60R,0.0237X0.0651*%
%ADD61R,0.0555X0.0555*%
%ADD62R,0.0765X0.0765*%
%ADD63R,0.0380X0.0180*%
%ADD64R,0.0180X0.0380*%
%ADD65R,0.0730X0.0730*%
%ADD66R,0.0651X0.0296*%
%ADD67C,0.0496*%
%ADD68R,0.0496X0.0496*%
D10*
X040357Y029062D03*
X040554Y029062D03*
X040751Y029062D03*
X040947Y029062D03*
X041144Y029062D03*
X041144Y030618D03*
X040947Y030618D03*
X040751Y030618D03*
X040554Y030618D03*
X040357Y030618D03*
D11*
X039973Y030234D03*
X039973Y030037D03*
X039973Y029840D03*
X039973Y029643D03*
X039973Y029446D03*
X041528Y029446D03*
X041528Y029643D03*
X041528Y029840D03*
X041528Y030037D03*
X041528Y030234D03*
D12*
X040751Y029840D03*
D13*
X041001Y029590D03*
X041001Y030090D03*
X040501Y030090D03*
X040501Y029590D03*
D14*
X038775Y032040D03*
X038027Y032040D03*
X038027Y032840D03*
X038775Y032840D03*
X039557Y024160D03*
X040305Y024160D03*
X034375Y023090D03*
X033627Y023090D03*
X022795Y023080D03*
X022047Y023080D03*
X020325Y022640D03*
X019577Y022640D03*
X019725Y026490D03*
X018977Y026490D03*
X018005Y015730D03*
X017257Y015730D03*
X053477Y015740D03*
X054225Y015740D03*
D15*
X052896Y014590D03*
X052305Y014590D03*
X046971Y018935D03*
X046971Y019525D03*
X046381Y019525D03*
X046381Y018935D03*
X042751Y019995D03*
X042751Y020585D03*
X042366Y023670D03*
X041775Y023670D03*
X044041Y025815D03*
X044041Y026405D03*
X046451Y026085D03*
X046451Y025495D03*
X047235Y025410D03*
X047826Y025410D03*
X042401Y028145D03*
X042401Y028735D03*
X042596Y030640D03*
X042005Y030640D03*
X042246Y031200D03*
X041655Y031200D03*
X040046Y031740D03*
X039455Y031740D03*
X040005Y032740D03*
X040596Y032740D03*
X041151Y032745D03*
X041151Y033335D03*
X036646Y027040D03*
X036055Y027040D03*
X038901Y025485D03*
X038901Y024895D03*
X035201Y024535D03*
X035201Y023945D03*
X025351Y026495D03*
X025351Y027085D03*
X022881Y024935D03*
X022881Y024345D03*
X021001Y025275D03*
X021001Y025865D03*
X020796Y024040D03*
X020205Y024040D03*
X020346Y023490D03*
X019755Y023490D03*
X016951Y026495D03*
X016951Y027085D03*
X021155Y035740D03*
X021746Y035740D03*
X024005Y038240D03*
X024596Y038240D03*
X038555Y042490D03*
X039146Y042490D03*
X052501Y035285D03*
X052501Y034695D03*
X053551Y032185D03*
X053551Y031595D03*
X058655Y029390D03*
X059246Y029390D03*
X059246Y028390D03*
X058655Y028390D03*
X058655Y027390D03*
X059246Y027390D03*
X059246Y026390D03*
X058655Y026390D03*
X017796Y015050D03*
X017205Y015050D03*
X015776Y014450D03*
X015185Y014450D03*
D16*
X038806Y029949D03*
X039495Y029949D03*
X039495Y031131D03*
X038806Y031131D03*
D17*
X039451Y032145D03*
X039451Y032735D03*
X040531Y031645D03*
X040531Y031055D03*
X041151Y028485D03*
X041151Y027895D03*
X040351Y025585D03*
X040351Y024995D03*
X044051Y029595D03*
X044051Y030185D03*
X052401Y031595D03*
X052401Y032185D03*
X053001Y032185D03*
X053001Y031595D03*
X061151Y041595D03*
X061151Y042185D03*
X033651Y024535D03*
X033651Y023945D03*
X026851Y025895D03*
X026851Y026485D03*
X023801Y024885D03*
X023801Y024295D03*
X021551Y025295D03*
X021551Y025885D03*
X020351Y025885D03*
X020351Y025295D03*
X017851Y025085D03*
X017851Y024495D03*
X014751Y021455D03*
X014751Y020865D03*
X017411Y014435D03*
X017411Y013845D03*
X016151Y030895D03*
X016151Y031485D03*
X045551Y018635D03*
X045551Y018045D03*
D18*
X038351Y028357D03*
X038725Y029223D03*
X037977Y029223D03*
D19*
X035201Y029680D03*
X035201Y030900D03*
X032801Y030900D03*
X032801Y029680D03*
X026801Y029680D03*
X026801Y030900D03*
X024351Y030900D03*
X024351Y029680D03*
D20*
X022501Y029438D03*
X022501Y031642D03*
D21*
X026151Y027264D03*
X026151Y026516D03*
X027651Y026664D03*
X027651Y025916D03*
X022171Y024984D03*
X022171Y024236D03*
X021151Y022664D03*
X021151Y021916D03*
X015191Y013924D03*
X015191Y013176D03*
X034451Y023766D03*
X034451Y024514D03*
X039651Y024816D03*
X039651Y025564D03*
X048241Y023524D03*
X048241Y022776D03*
X047681Y020484D03*
X047681Y019736D03*
X055651Y021016D03*
X055651Y021764D03*
X056001Y016864D03*
X056001Y016116D03*
X042151Y032566D03*
X042151Y033314D03*
X035751Y043816D03*
X035751Y044564D03*
X020651Y037464D03*
X020651Y036716D03*
D22*
X026801Y032650D03*
X026801Y031430D03*
X026801Y029150D03*
X026801Y027930D03*
X024401Y027780D03*
X023401Y027819D03*
X023401Y028961D03*
X024401Y029000D03*
X019251Y030219D03*
X019251Y031361D03*
X016151Y030361D03*
X015251Y030400D03*
X015251Y029180D03*
X016151Y029219D03*
X032801Y029150D03*
X032801Y027930D03*
X037451Y027650D03*
X038351Y027611D03*
X038351Y026469D03*
X037451Y026430D03*
X038001Y029930D03*
X038001Y031150D03*
X032801Y031430D03*
X032801Y032650D03*
D23*
X036105Y027590D03*
X036696Y027590D03*
X036696Y026490D03*
X036105Y026490D03*
X036755Y023190D03*
X037346Y023190D03*
X037346Y022590D03*
X036755Y022590D03*
X044355Y027590D03*
X044946Y027590D03*
X043496Y028390D03*
X042905Y028390D03*
X042046Y031720D03*
X041455Y031720D03*
X040596Y033340D03*
X040005Y033340D03*
X037746Y042490D03*
X037155Y042490D03*
X049455Y043550D03*
X050046Y043550D03*
X061755Y041590D03*
X062346Y041590D03*
X053096Y034090D03*
X052505Y034090D03*
X052505Y033440D03*
X053096Y033440D03*
X049756Y022990D03*
X049165Y022990D03*
X048826Y022300D03*
X048235Y022300D03*
X048235Y021650D03*
X048826Y021650D03*
X056555Y021790D03*
X057146Y021790D03*
X057146Y016090D03*
X056555Y016090D03*
X023376Y023790D03*
X022785Y023790D03*
X020196Y021890D03*
X019605Y021890D03*
X017846Y025590D03*
X017255Y025590D03*
X016356Y013940D03*
X015765Y013940D03*
D24*
X020340Y026790D03*
X021561Y026790D03*
X021471Y027790D03*
X020330Y027790D03*
X019880Y029590D03*
X021021Y029590D03*
X038180Y023190D03*
X039321Y023190D03*
D25*
X013616Y021690D02*
X013085Y021690D01*
X013085Y020690D02*
X013616Y020690D01*
X013616Y014190D02*
X013085Y014190D01*
X013085Y013190D02*
X013616Y013190D01*
X013616Y028190D02*
X013085Y028190D01*
X013085Y029190D02*
X013616Y029190D01*
D26*
X011351Y031190D03*
X011351Y027190D03*
X011351Y023690D03*
X011351Y019690D03*
X011351Y016190D03*
X011351Y012190D03*
D27*
X052101Y019090D02*
X052701Y019090D01*
X052701Y020090D02*
X052101Y020090D01*
X057401Y019640D02*
X058001Y019640D01*
X058001Y018640D02*
X057401Y018640D01*
X057401Y017640D02*
X058001Y017640D01*
X054451Y041590D02*
X054451Y042190D01*
X053451Y042190D02*
X053451Y041590D01*
X052451Y041590D02*
X052451Y042190D01*
X051451Y042190D02*
X051451Y041590D01*
X050451Y041590D02*
X050451Y042190D01*
X049451Y042190D02*
X049451Y041590D01*
X048451Y041590D02*
X048451Y042190D01*
D28*
X053561Y014570D03*
X054231Y014570D03*
X054901Y014570D03*
X055571Y014570D03*
X056241Y014570D03*
D29*
X054901Y011290D03*
D30*
X061301Y013592D03*
X061301Y016388D03*
X062051Y018342D03*
X062051Y021138D03*
D31*
X036775Y029690D03*
X036027Y029690D03*
X034375Y029690D03*
X033627Y029690D03*
X033627Y030890D03*
X034375Y030890D03*
X036027Y030890D03*
X036775Y030890D03*
X028475Y030890D03*
X027727Y030890D03*
X027727Y029690D03*
X028475Y029690D03*
X025975Y029690D03*
X025227Y029690D03*
X025227Y030890D03*
X025975Y030890D03*
X025175Y031740D03*
X024427Y031740D03*
X019725Y027390D03*
X018977Y027390D03*
X024877Y036240D03*
X025625Y036240D03*
D32*
X023824Y036240D03*
X023824Y036740D03*
X023824Y037240D03*
X023824Y037740D03*
X021777Y037740D03*
X021777Y037240D03*
X021777Y036740D03*
X021777Y036240D03*
X022477Y026990D03*
X022477Y026490D03*
X022477Y025990D03*
X022477Y025490D03*
X024524Y025490D03*
X024524Y025990D03*
X024524Y026490D03*
X024524Y026990D03*
X036027Y025590D03*
X036027Y025090D03*
X036027Y024590D03*
X036027Y024090D03*
X038074Y024090D03*
X038074Y024590D03*
X038074Y025090D03*
X038074Y025590D03*
D33*
X025984Y033290D03*
X025118Y032916D03*
X025118Y033664D03*
D34*
X040738Y035451D03*
X040738Y015569D03*
D35*
X050679Y025510D03*
X030797Y025510D03*
D36*
X022801Y032166D03*
X022801Y032914D03*
X019601Y036716D03*
X019601Y037464D03*
X018951Y038266D03*
X018251Y037464D03*
X018251Y036716D03*
X020601Y038266D03*
X021501Y038266D03*
X021501Y039014D03*
X020601Y039014D03*
X018951Y039014D03*
X015451Y021544D03*
X015451Y020796D03*
D37*
X018957Y024108D03*
X019154Y024108D03*
X019351Y024108D03*
X019547Y024108D03*
X019744Y024108D03*
X019744Y025772D03*
X019547Y025772D03*
X019351Y025772D03*
X019154Y025772D03*
X018957Y025772D03*
D38*
X052514Y032840D03*
X053026Y032840D03*
D39*
X055401Y029390D03*
X056401Y029390D03*
X056401Y028390D03*
X055401Y028390D03*
X055401Y027390D03*
X056401Y027390D03*
X056401Y026390D03*
X055401Y026390D03*
X032501Y039590D03*
X031501Y039590D03*
X031501Y040590D03*
X032501Y040590D03*
X032501Y041590D03*
X032501Y042590D03*
X031501Y042590D03*
X031501Y041590D03*
D40*
X036340Y041285D03*
X036340Y041088D03*
X036340Y040892D03*
X036340Y040695D03*
X037561Y040695D03*
X037561Y040892D03*
X037561Y041088D03*
X037561Y041285D03*
D41*
X037246Y041600D03*
X037049Y041600D03*
X036852Y041600D03*
X036655Y041600D03*
X036655Y040380D03*
X036852Y040380D03*
X037049Y040380D03*
X037246Y040380D03*
D42*
X036951Y040990D03*
D43*
X036539Y043816D03*
X036539Y044564D03*
X037562Y044564D03*
X037562Y044190D03*
X037562Y043816D03*
D44*
X038301Y043804D03*
X038301Y044316D03*
X034951Y044466D03*
X034951Y043954D03*
X058841Y042136D03*
X058841Y041624D03*
D45*
X008451Y010200D02*
X008451Y007200D01*
X011451Y007200D01*
X008451Y043580D02*
X008451Y046580D01*
X011451Y046580D01*
X068451Y046580D02*
X071451Y046580D01*
X071451Y043580D01*
X071451Y010200D02*
X071451Y007200D01*
X068451Y007200D01*
D46*
X069351Y042390D03*
D47*
X069351Y041390D03*
X069351Y040390D03*
X069351Y039390D03*
X069351Y038390D03*
X069351Y037390D03*
X069351Y036390D03*
X069351Y035390D03*
X069351Y034390D03*
X069351Y033390D03*
X069351Y032390D03*
X069351Y031390D03*
X069351Y030390D03*
X069351Y029390D03*
X069351Y028390D03*
X069351Y027390D03*
X069351Y026390D03*
X069351Y025390D03*
X069351Y024390D03*
X069351Y023390D03*
X069351Y022390D03*
X069351Y021390D03*
X069351Y020390D03*
X069351Y019390D03*
X069351Y018390D03*
X069351Y017390D03*
X069351Y016390D03*
X069351Y015390D03*
X069351Y014390D03*
X069351Y013390D03*
X069351Y012390D03*
X069351Y011390D03*
X067351Y011390D03*
X067351Y012390D03*
X067351Y013390D03*
X067351Y014390D03*
X067351Y015390D03*
X067351Y016390D03*
X067351Y017390D03*
X067351Y018390D03*
X067351Y019390D03*
X067351Y020390D03*
X067351Y021390D03*
X067351Y022390D03*
X067351Y023390D03*
X067351Y024390D03*
X067351Y025390D03*
X067351Y026390D03*
X067351Y027390D03*
X067351Y028390D03*
X067351Y029390D03*
X067351Y030390D03*
X067351Y031390D03*
X067351Y032390D03*
X067351Y033390D03*
X067351Y034390D03*
X067351Y035390D03*
X067351Y036390D03*
X067351Y037390D03*
X067351Y038390D03*
X067351Y039390D03*
X067351Y040390D03*
X067351Y041390D03*
X067351Y042390D03*
D48*
X070351Y044390D03*
X070351Y009390D03*
X009851Y009390D03*
D49*
X016101Y024535D03*
D50*
X016681Y023940D03*
X015521Y023940D03*
D51*
X018341Y032370D03*
X019251Y032370D03*
X020161Y032370D03*
D52*
X019251Y034810D03*
D53*
X016751Y017524D03*
X016251Y017524D03*
X015751Y017524D03*
X015251Y017524D03*
X015251Y015476D03*
X015751Y015476D03*
X016251Y015476D03*
X016751Y015476D03*
D54*
X042439Y029216D03*
X042439Y029964D03*
X043462Y029964D03*
X043462Y029590D03*
X043462Y029216D03*
D55*
X018185Y026746D03*
X018185Y026490D03*
X018185Y026234D03*
X017516Y026234D03*
X017516Y026490D03*
X017516Y026746D03*
D56*
X017182Y019574D03*
X016394Y019574D03*
X015607Y019574D03*
X014820Y019574D03*
X014820Y018786D03*
X015607Y018786D03*
X016394Y018786D03*
X017182Y018786D03*
X059886Y034914D03*
X060673Y034914D03*
X061461Y034914D03*
X062248Y034914D03*
X062248Y035701D03*
X061461Y035701D03*
X061461Y036488D03*
X062248Y036488D03*
X062248Y037276D03*
X061461Y037276D03*
X061461Y038063D03*
X062248Y038063D03*
X062248Y038851D03*
X061461Y038851D03*
X060673Y038851D03*
X059886Y038851D03*
X059886Y038063D03*
X059886Y037276D03*
X060673Y037276D03*
X060673Y038063D03*
X060673Y036488D03*
X059886Y036488D03*
X059886Y035701D03*
X060673Y035701D03*
X060673Y039638D03*
X059886Y039638D03*
X059886Y040425D03*
X060673Y040425D03*
X061461Y040425D03*
X061461Y039638D03*
X062248Y039638D03*
X062248Y040425D03*
D57*
X047501Y024070D03*
X047501Y023870D03*
X047501Y023670D03*
X047501Y023480D03*
X047501Y023280D03*
X047501Y023080D03*
X047501Y022890D03*
X047501Y022690D03*
X047501Y022490D03*
X047501Y022290D03*
X047501Y022100D03*
X047501Y021900D03*
X047501Y021700D03*
X047501Y021510D03*
X047501Y021310D03*
X047501Y021110D03*
X043001Y021110D03*
X043001Y021310D03*
X043001Y021510D03*
X043001Y021700D03*
X043001Y021900D03*
X043001Y022100D03*
X043001Y022290D03*
X043001Y022490D03*
X043001Y022690D03*
X043001Y022890D03*
X043001Y023080D03*
X043001Y023280D03*
X043001Y023480D03*
X043001Y023670D03*
X043001Y023870D03*
X043001Y024070D03*
D58*
X043771Y024840D03*
X043971Y024840D03*
X044171Y024840D03*
X044361Y024840D03*
X044561Y024840D03*
X044761Y024840D03*
X044951Y024840D03*
X045151Y024840D03*
X045351Y024840D03*
X045551Y024840D03*
X045741Y024840D03*
X045941Y024840D03*
X046141Y024840D03*
X046331Y024840D03*
X046531Y024840D03*
X046731Y024840D03*
X046731Y020340D03*
X046531Y020340D03*
X046331Y020340D03*
X046141Y020340D03*
X045941Y020340D03*
X045741Y020340D03*
X045551Y020340D03*
X045351Y020340D03*
X045151Y020340D03*
X044951Y020340D03*
X044761Y020340D03*
X044561Y020340D03*
X044361Y020340D03*
X044171Y020340D03*
X043971Y020340D03*
X043771Y020340D03*
D59*
X042803Y024926D03*
X042803Y025654D03*
X041898Y025654D03*
X041898Y024926D03*
D60*
X049089Y012890D03*
X049345Y012890D03*
X049601Y012890D03*
X049857Y012890D03*
X050112Y012890D03*
D61*
X050701Y012990D03*
X048501Y012990D03*
D62*
X049601Y012130D03*
D63*
X045731Y026090D03*
X045731Y026290D03*
X045731Y026490D03*
X045731Y026690D03*
X044571Y026690D03*
X044571Y026490D03*
X044571Y026290D03*
X044571Y026090D03*
D64*
X044851Y025810D03*
X045051Y025810D03*
X045251Y025810D03*
X045451Y025810D03*
X045451Y026970D03*
X045251Y026970D03*
X045051Y026970D03*
X044851Y026970D03*
D65*
X045151Y026390D03*
D66*
X052451Y026460D03*
X052451Y027720D03*
D67*
X043101Y030640D03*
X042711Y031190D03*
X040151Y034440D03*
X038301Y034340D03*
X035601Y034340D03*
X033951Y033490D03*
X035551Y032790D03*
X032001Y034390D03*
X028651Y034790D03*
X027251Y033640D03*
X025751Y035040D03*
X027201Y036390D03*
X023801Y039740D03*
X034801Y038090D03*
X037501Y036890D03*
X038931Y024330D03*
X052551Y015240D03*
X052951Y015740D03*
X054901Y015390D03*
X019951Y014940D03*
X014631Y013190D03*
D68*
X020161Y033030D03*
M02*
