G75*
%MOIN*%
%OFA0B0*%
%FSLAX24Y24*%
%IPPOS*%
%LPD*%
%AMOC8*
5,1,8,0,0,1.08239X$1,22.5*
%
%ADD10C,0.0456*%
%ADD11C,0.0591*%
%ADD12C,0.1241*%
%ADD13C,0.0660*%
%ADD14OC8,0.0540*%
%ADD15C,0.0660*%
%ADD16OC8,0.0660*%
%ADD17OC8,0.0600*%
%ADD18C,0.0060*%
%ADD19C,0.0690*%
%ADD20OC8,0.0690*%
%ADD21C,0.1160*%
%ADD22OC8,0.0560*%
%ADD23C,0.0496*%
D10*
X040501Y029590D03*
X041001Y029590D03*
X041001Y030090D03*
X040501Y030090D03*
D11*
X013616Y029190D02*
X013085Y029190D01*
X013085Y028190D02*
X013616Y028190D01*
X013616Y021690D02*
X013085Y021690D01*
X013085Y020690D02*
X013616Y020690D01*
X013616Y014190D02*
X013085Y014190D01*
X013085Y013190D02*
X013616Y013190D01*
D12*
X011351Y012190D03*
X011351Y016190D03*
X011351Y019690D03*
X011351Y023690D03*
X011351Y027190D03*
X011351Y031190D03*
D13*
X048551Y041390D02*
X048551Y041990D01*
X049551Y041990D02*
X049551Y041390D01*
X050551Y041390D02*
X050551Y041990D01*
X051551Y041990D02*
X051551Y041390D01*
X052551Y041390D02*
X052551Y041990D01*
X053551Y041990D02*
X053551Y041390D01*
X052701Y020090D02*
X052101Y020090D01*
X052101Y019090D02*
X052701Y019090D01*
X057401Y018640D02*
X058001Y018640D01*
X058001Y017640D02*
X057401Y017640D01*
X057401Y019640D02*
X058001Y019640D01*
D14*
X020251Y033090D03*
X019251Y033340D03*
X018251Y033090D03*
D15*
X043251Y041190D03*
D16*
X044251Y041190D03*
X045251Y041190D03*
X045251Y042190D03*
X044251Y042190D03*
X043251Y042190D03*
D17*
X032501Y042590D03*
X032501Y041590D03*
X031501Y041590D03*
X031501Y042590D03*
X031501Y040590D03*
X032501Y040590D03*
X032501Y039590D03*
X031501Y039590D03*
X055401Y029390D03*
X056401Y029390D03*
X056401Y028390D03*
X055401Y028390D03*
X055401Y027390D03*
X056401Y027390D03*
X056401Y026390D03*
X055401Y026390D03*
D18*
X008451Y010200D02*
X008451Y007200D01*
X011451Y007200D01*
X008451Y043580D02*
X008451Y046580D01*
X011451Y046580D01*
X068451Y046580D02*
X071451Y046580D01*
X071451Y043580D01*
X071451Y010200D02*
X071451Y007200D01*
X068451Y007200D01*
D19*
X069351Y042390D03*
D20*
X069351Y041390D03*
X069351Y040390D03*
X069351Y039390D03*
X069351Y038390D03*
X069351Y037390D03*
X069351Y036390D03*
X069351Y035390D03*
X069351Y034390D03*
X069351Y033390D03*
X069351Y032390D03*
X069351Y031390D03*
X069351Y030390D03*
X069351Y029390D03*
X069351Y028390D03*
X069351Y027390D03*
X069351Y026390D03*
X069351Y025390D03*
X069351Y024390D03*
X069351Y023390D03*
X069351Y022390D03*
X069351Y021390D03*
X069351Y020390D03*
X069351Y019390D03*
X069351Y018390D03*
X069351Y017390D03*
X069351Y016390D03*
X069351Y015390D03*
X069351Y014390D03*
X069351Y013390D03*
X069351Y012390D03*
X069351Y011390D03*
X067351Y011390D03*
X067351Y012390D03*
X067351Y013390D03*
X067351Y014390D03*
X067351Y015390D03*
X067351Y016390D03*
X067351Y017390D03*
X067351Y018390D03*
X067351Y019390D03*
X067351Y020390D03*
X067351Y021390D03*
X067351Y022390D03*
X067351Y023390D03*
X067351Y024390D03*
X067351Y025390D03*
X067351Y026390D03*
X067351Y027390D03*
X067351Y028390D03*
X067351Y029390D03*
X067351Y030390D03*
X067351Y031390D03*
X067351Y032390D03*
X067351Y033390D03*
X067351Y034390D03*
X067351Y035390D03*
X067351Y036390D03*
X067351Y037390D03*
X067351Y038390D03*
X067351Y039390D03*
X067351Y040390D03*
X067351Y041390D03*
X067351Y042390D03*
D21*
X070351Y044390D03*
X070351Y009390D03*
X009851Y009390D03*
D22*
X014820Y018786D03*
X015607Y018786D03*
X016394Y018786D03*
X017182Y018786D03*
X017182Y019574D03*
X016394Y019574D03*
X015607Y019574D03*
X014820Y019574D03*
X059886Y034914D03*
X060673Y034914D03*
X061461Y034914D03*
X062248Y034914D03*
X062248Y035701D03*
X061461Y035701D03*
X061461Y036488D03*
X062248Y036488D03*
X062248Y037276D03*
X061461Y037276D03*
X061461Y038063D03*
X062248Y038063D03*
X062248Y038851D03*
X061461Y038851D03*
X060673Y038851D03*
X059886Y038851D03*
X059886Y038063D03*
X059886Y037276D03*
X060673Y037276D03*
X060673Y038063D03*
X060673Y036488D03*
X059886Y036488D03*
X059886Y035701D03*
X060673Y035701D03*
X060673Y039638D03*
X059886Y039638D03*
X059886Y040425D03*
X060673Y040425D03*
X061461Y040425D03*
X061461Y039638D03*
X062248Y039638D03*
X062248Y040425D03*
D23*
X043101Y030640D03*
X042711Y031190D03*
X040151Y034440D03*
X038301Y034340D03*
X035601Y034340D03*
X033951Y033490D03*
X035551Y032790D03*
X032001Y034390D03*
X028651Y034790D03*
X027251Y033640D03*
X025751Y035040D03*
X027201Y036390D03*
X023801Y039740D03*
X034801Y038090D03*
X037501Y036890D03*
X040201Y024440D03*
X052551Y015240D03*
X052951Y015740D03*
X054901Y015390D03*
X019951Y014940D03*
X014631Y013190D03*
M02*
