G75*
%MOIN*%
%OFA0B0*%
%FSLAX24Y24*%
%IPPOS*%
%LPD*%
%AMOC8*
5,1,8,0,0,1.08239X$1,22.5*
%
%ADD10R,0.0335X0.0110*%
%ADD11R,0.0110X0.0335*%
%ADD12R,0.1063X0.1063*%
%ADD13C,0.0396*%
%ADD14R,0.0354X0.0512*%
%ADD15R,0.0315X0.0315*%
%ADD16R,0.0217X0.0394*%
%ADD17R,0.0354X0.0236*%
%ADD18R,0.0394X0.0551*%
%ADD19R,0.0984X0.0354*%
%ADD20R,0.2205X0.0354*%
%ADD21R,0.0512X0.0354*%
%ADD22R,0.0630X0.0354*%
%ADD23R,0.0236X0.0354*%
%ADD24R,0.0354X0.0630*%
%ADD25C,0.0531*%
%ADD26C,0.1181*%
%ADD27C,0.0600*%
%ADD28R,0.4252X0.4098*%
%ADD29R,0.0420X0.0850*%
%ADD30R,0.0630X0.1575*%
%ADD31R,0.0276X0.0512*%
%ADD32R,0.0866X0.0236*%
%ADD33R,0.0551X0.0394*%
%ADD34R,2.0276X0.0394*%
%ADD35R,0.0394X2.0276*%
%ADD36OC8,0.0480*%
%ADD37R,0.0512X0.0276*%
%ADD38R,0.0098X0.0394*%
%ADD39R,0.0500X0.0220*%
%ADD40R,0.0220X0.0500*%
%ADD41C,0.0600*%
%ADD42OC8,0.0600*%
%ADD43R,0.0276X0.0197*%
%ADD44OC8,0.0540*%
%ADD45R,0.0354X0.0094*%
%ADD46R,0.0094X0.0354*%
%ADD47R,0.0591X0.0591*%
%ADD48R,0.0197X0.0276*%
%ADD49R,0.0472X0.0217*%
%ADD50C,0.0630*%
%ADD51OC8,0.0630*%
%ADD52R,0.0390X0.0410*%
%ADD53R,0.0410X0.0870*%
%ADD54R,0.0480X0.0880*%
%ADD55R,0.1417X0.0866*%
%ADD56R,0.0236X0.0866*%
%ADD57R,0.0394X0.0276*%
%ADD58R,0.0315X0.0138*%
%ADD59OC8,0.0500*%
%ADD60C,0.0200*%
%ADD61C,0.0436*%
%ADD62C,0.0100*%
%ADD63C,0.0300*%
%ADD64C,0.0500*%
%ADD65C,0.0300*%
%ADD66C,0.0160*%
%ADD67C,0.0140*%
%ADD68C,0.0250*%
%ADD69C,0.1000*%
%ADD70C,0.0240*%
%ADD71C,0.0110*%
%ADD72C,0.0400*%
%ADD73C,0.0357*%
%ADD74C,0.0080*%
%ADD75C,0.0350*%
D10*
X039973Y029446D03*
X039973Y029643D03*
X039973Y029840D03*
X039973Y030037D03*
X039973Y030234D03*
X041528Y030234D03*
X041528Y030037D03*
X041528Y029840D03*
X041528Y029643D03*
X041528Y029446D03*
D11*
X041144Y029062D03*
X040947Y029062D03*
X040751Y029062D03*
X040554Y029062D03*
X040357Y029062D03*
X040357Y030618D03*
X040554Y030618D03*
X040751Y030618D03*
X040947Y030618D03*
X041144Y030618D03*
D12*
X040751Y029840D03*
D13*
X041001Y029590D03*
X041001Y030090D03*
X040501Y030090D03*
X040501Y029590D03*
X041251Y027040D03*
X043001Y026090D03*
X041751Y024990D03*
X042001Y023390D03*
X041051Y023090D03*
X042951Y022940D03*
X044451Y024440D03*
X046351Y024590D03*
X045801Y023090D03*
X049351Y020890D03*
X048401Y019140D03*
X048601Y017540D03*
X046151Y018590D03*
X044501Y017390D03*
X043251Y019040D03*
X041501Y017440D03*
X040401Y019690D03*
X038501Y019040D03*
X036501Y018990D03*
X037351Y017540D03*
X033001Y016540D03*
X032001Y017290D03*
X032501Y018640D03*
X029201Y018140D03*
X028001Y019290D03*
X025551Y019140D03*
X024301Y017590D03*
X023001Y019340D03*
X027201Y016790D03*
X022301Y014440D03*
X016791Y013970D03*
X031751Y023340D03*
X033251Y023390D03*
X032851Y025040D03*
X033701Y026240D03*
X036151Y023340D03*
X036001Y022740D03*
X037901Y024890D03*
X037151Y031290D03*
X039651Y033090D03*
X041651Y033990D03*
X042421Y031720D03*
X032051Y030890D03*
X028801Y030890D03*
X028851Y029690D03*
X027401Y027940D03*
X026141Y027730D03*
X025431Y027540D03*
X025551Y025690D03*
X029101Y039090D03*
X028401Y040640D03*
X026351Y043890D03*
X023251Y044040D03*
X021451Y043390D03*
X019151Y043240D03*
X017851Y044290D03*
X015551Y043690D03*
X052101Y013690D03*
X057751Y012490D03*
X062651Y009840D03*
X066351Y008990D03*
X066151Y022590D03*
X062901Y024040D03*
X064151Y025490D03*
X065501Y025240D03*
X063101Y029040D03*
X064351Y029290D03*
X065351Y030240D03*
X064751Y031340D03*
X065801Y031440D03*
X066001Y033540D03*
X066151Y035340D03*
X063201Y030790D03*
X064901Y042890D03*
X065201Y043840D03*
X068001Y044340D03*
X062346Y044295D03*
D14*
X038775Y032840D03*
X038027Y032840D03*
X038027Y032040D03*
X038775Y032040D03*
X041327Y024340D03*
X042075Y024340D03*
X035375Y023090D03*
X034627Y023090D03*
X022795Y023080D03*
X022047Y023080D03*
X020325Y022640D03*
X019577Y022640D03*
X019725Y026490D03*
X018977Y026490D03*
X018005Y015730D03*
X017257Y015730D03*
X053477Y015740D03*
X054225Y015740D03*
D15*
X052896Y014590D03*
X052305Y014590D03*
X039901Y024895D03*
X039901Y025485D03*
X036646Y027040D03*
X036055Y027040D03*
X036201Y024535D03*
X036201Y023945D03*
X042401Y028145D03*
X042401Y028735D03*
X042596Y030640D03*
X042005Y030640D03*
X042246Y031200D03*
X041655Y031200D03*
X040046Y031740D03*
X039455Y031740D03*
X040005Y032740D03*
X040596Y032740D03*
X041151Y032745D03*
X041151Y033335D03*
X044455Y032190D03*
X045046Y032190D03*
X049951Y032085D03*
X049951Y031495D03*
X053551Y031595D03*
X053551Y032185D03*
X052501Y034695D03*
X052501Y035285D03*
X047946Y039790D03*
X047355Y039790D03*
X039146Y042490D03*
X038555Y042490D03*
X024596Y038240D03*
X024005Y038240D03*
X021746Y035740D03*
X021155Y035740D03*
X025351Y027085D03*
X025351Y026495D03*
X022881Y024935D03*
X022881Y024345D03*
X021001Y025275D03*
X021001Y025865D03*
X020796Y024040D03*
X020205Y024040D03*
X020346Y023490D03*
X019755Y023490D03*
X016951Y026495D03*
X016951Y027085D03*
X017205Y015050D03*
X017796Y015050D03*
X015776Y014450D03*
X015185Y014450D03*
X058655Y026390D03*
X059246Y026390D03*
X059246Y027390D03*
X058655Y027390D03*
X058655Y028390D03*
X059246Y028390D03*
X059246Y029390D03*
X058655Y029390D03*
D16*
X039495Y029949D03*
X038806Y029949D03*
X038806Y031131D03*
X039495Y031131D03*
D17*
X040531Y031055D03*
X040531Y031645D03*
X039451Y032145D03*
X039451Y032735D03*
X044051Y030185D03*
X044051Y029595D03*
X041151Y028485D03*
X041151Y027895D03*
X041351Y025585D03*
X041351Y024995D03*
X034651Y024535D03*
X034651Y023945D03*
X026851Y025895D03*
X026851Y026485D03*
X023801Y024885D03*
X023801Y024295D03*
X021551Y025295D03*
X021551Y025885D03*
X020351Y025885D03*
X020351Y025295D03*
X014751Y021455D03*
X014751Y020865D03*
X017411Y014435D03*
X017411Y013845D03*
X049851Y033345D03*
X049851Y033935D03*
X052401Y032185D03*
X052401Y031595D03*
X053001Y031595D03*
X053001Y032185D03*
X047351Y040395D03*
X047351Y040985D03*
X061151Y041595D03*
X061151Y042185D03*
D18*
X038725Y029223D03*
X037977Y029223D03*
X038351Y028357D03*
D19*
X035201Y029680D03*
X035201Y030900D03*
X032801Y030900D03*
X032801Y029680D03*
X026801Y029680D03*
X026801Y030900D03*
X024351Y030900D03*
X024351Y029680D03*
D20*
X022501Y029438D03*
X022501Y031642D03*
D21*
X026151Y027264D03*
X026151Y026516D03*
X027651Y026664D03*
X027651Y025916D03*
X022171Y024984D03*
X022171Y024236D03*
X021151Y022664D03*
X021151Y021916D03*
X015191Y013924D03*
X015191Y013176D03*
X035451Y023766D03*
X035451Y024514D03*
X040651Y024816D03*
X040651Y025564D03*
X042151Y032566D03*
X042151Y033314D03*
X035751Y043816D03*
X035751Y044564D03*
X020651Y037464D03*
X020651Y036716D03*
X055651Y021764D03*
X055651Y021016D03*
X056001Y016864D03*
X056001Y016116D03*
D22*
X038351Y026469D03*
X037451Y026430D03*
X037451Y027650D03*
X038351Y027611D03*
X038001Y029930D03*
X038001Y031150D03*
X032801Y031430D03*
X032801Y032650D03*
X032801Y029150D03*
X032801Y027930D03*
X026801Y027930D03*
X026801Y029150D03*
X024401Y029000D03*
X023401Y028961D03*
X023401Y027819D03*
X024401Y027780D03*
X024651Y024850D03*
X024651Y023630D03*
X019251Y030219D03*
X019251Y031361D03*
X026801Y031430D03*
X026801Y032650D03*
D23*
X022496Y027790D03*
X021905Y027790D03*
X017846Y025590D03*
X017255Y025590D03*
X019605Y021890D03*
X020196Y021890D03*
X022785Y023790D03*
X023376Y023790D03*
X036105Y026490D03*
X036696Y026490D03*
X036696Y027590D03*
X036105Y027590D03*
X041455Y031720D03*
X042046Y031720D03*
X040596Y033340D03*
X040005Y033340D03*
X042905Y028390D03*
X043496Y028390D03*
X038346Y023190D03*
X037755Y023190D03*
X037755Y022590D03*
X038346Y022590D03*
X052505Y033440D03*
X053096Y033440D03*
X053096Y034090D03*
X052505Y034090D03*
X061755Y041590D03*
X062346Y041590D03*
X037746Y042490D03*
X037155Y042490D03*
X056555Y021790D03*
X057146Y021790D03*
X057146Y016090D03*
X056555Y016090D03*
X016356Y013940D03*
X015765Y013940D03*
D24*
X020340Y026790D03*
X021561Y026790D03*
X021471Y027790D03*
X020330Y027790D03*
X019880Y029590D03*
X021021Y029590D03*
X039180Y023190D03*
X040321Y023190D03*
D25*
X013616Y021690D02*
X013085Y021690D01*
X013085Y020690D02*
X013616Y020690D01*
X013616Y014190D02*
X013085Y014190D01*
X013085Y013190D02*
X013616Y013190D01*
X013616Y028190D02*
X013085Y028190D01*
X013085Y029190D02*
X013616Y029190D01*
D26*
X011351Y031190D03*
X011351Y027190D03*
X011351Y023690D03*
X011351Y019690D03*
X011351Y016190D03*
X011351Y012190D03*
D27*
X052101Y019090D02*
X052701Y019090D01*
X052701Y020090D02*
X052101Y020090D01*
X057401Y019640D02*
X058001Y019640D01*
X058001Y018640D02*
X057401Y018640D01*
X057401Y017640D02*
X058001Y017640D01*
X053551Y041390D02*
X053551Y041990D01*
X052551Y041990D02*
X052551Y041390D01*
X051551Y041390D02*
X051551Y041990D01*
X050551Y041990D02*
X050551Y041390D01*
X049551Y041390D02*
X049551Y041990D01*
X048551Y041990D02*
X048551Y041390D01*
D28*
X054901Y011290D03*
D29*
X054901Y014570D03*
X055571Y014570D03*
X056241Y014570D03*
X054231Y014570D03*
X053561Y014570D03*
D30*
X061301Y013592D03*
X061301Y016388D03*
X062051Y018342D03*
X062051Y021138D03*
D31*
X036775Y029690D03*
X036027Y029690D03*
X034375Y029690D03*
X033627Y029690D03*
X033627Y030890D03*
X034375Y030890D03*
X036027Y030890D03*
X036775Y030890D03*
X028475Y030890D03*
X027727Y030890D03*
X027727Y029690D03*
X028475Y029690D03*
X025975Y029690D03*
X025227Y029690D03*
X025227Y030890D03*
X025975Y030890D03*
X025175Y031740D03*
X024427Y031740D03*
X019725Y027390D03*
X018977Y027390D03*
X024877Y036240D03*
X025625Y036240D03*
D32*
X023824Y036240D03*
X023824Y036740D03*
X023824Y037240D03*
X023824Y037740D03*
X021777Y037740D03*
X021777Y037240D03*
X021777Y036740D03*
X021777Y036240D03*
X022477Y026990D03*
X022477Y026490D03*
X022477Y025990D03*
X022477Y025490D03*
X024524Y025490D03*
X024524Y025990D03*
X024524Y026490D03*
X024524Y026990D03*
X037027Y025590D03*
X037027Y025090D03*
X037027Y024590D03*
X037027Y024090D03*
X039074Y024090D03*
X039074Y024590D03*
X039074Y025090D03*
X039074Y025590D03*
D33*
X025984Y033290D03*
X025118Y032916D03*
X025118Y033664D03*
D34*
X040738Y035451D03*
X040738Y015569D03*
D35*
X050679Y025510D03*
X030797Y025510D03*
D36*
X020251Y033090D03*
X019251Y033340D03*
X018251Y033090D03*
D37*
X018251Y036716D03*
X018251Y037464D03*
X018951Y038266D03*
X019601Y037464D03*
X020601Y038266D03*
X021501Y038266D03*
X021501Y039014D03*
X020601Y039014D03*
X018951Y039014D03*
X019601Y036716D03*
X022801Y032914D03*
X022801Y032166D03*
X015451Y021544D03*
X015451Y020796D03*
D38*
X018957Y024108D03*
X019154Y024108D03*
X019351Y024108D03*
X019547Y024108D03*
X019744Y024108D03*
X019744Y025772D03*
X019547Y025772D03*
X019351Y025772D03*
X019154Y025772D03*
X018957Y025772D03*
D39*
X045661Y030888D03*
X045661Y031203D03*
X045661Y031518D03*
X045661Y031833D03*
X045661Y032147D03*
X045661Y032462D03*
X045661Y032777D03*
X045661Y033092D03*
X049041Y033092D03*
X049041Y032777D03*
X049041Y032462D03*
X049041Y032147D03*
X049041Y031833D03*
X049041Y031518D03*
X049041Y031203D03*
X049041Y030888D03*
D40*
X048453Y030300D03*
X048138Y030300D03*
X047823Y030300D03*
X047508Y030300D03*
X047193Y030300D03*
X046878Y030300D03*
X046563Y030300D03*
X046248Y030300D03*
X046248Y033680D03*
X046563Y033680D03*
X046878Y033680D03*
X047193Y033680D03*
X047508Y033680D03*
X047823Y033680D03*
X048138Y033680D03*
X048453Y033680D03*
D41*
X043251Y041190D03*
D42*
X044251Y041190D03*
X045251Y041190D03*
X045251Y042190D03*
X044251Y042190D03*
X043251Y042190D03*
D43*
X052514Y032840D03*
X053026Y032840D03*
X046416Y029180D03*
X045904Y029180D03*
D44*
X055401Y029390D03*
X056401Y029390D03*
X056401Y028390D03*
X055401Y028390D03*
X055401Y027390D03*
X056401Y027390D03*
X056401Y026390D03*
X055401Y026390D03*
X032501Y039590D03*
X031501Y039590D03*
X031501Y040590D03*
X032501Y040590D03*
X032501Y041590D03*
X032501Y042590D03*
X031501Y042590D03*
X031501Y041590D03*
D45*
X036340Y041285D03*
X036340Y041088D03*
X036340Y040892D03*
X036340Y040695D03*
X037561Y040695D03*
X037561Y040892D03*
X037561Y041088D03*
X037561Y041285D03*
D46*
X037246Y041600D03*
X037049Y041600D03*
X036852Y041600D03*
X036655Y041600D03*
X036655Y040380D03*
X036852Y040380D03*
X037049Y040380D03*
X037246Y040380D03*
D47*
X036951Y040990D03*
D48*
X038301Y043804D03*
X038301Y044316D03*
X034951Y044466D03*
X034951Y043954D03*
X050551Y043576D03*
X050551Y043064D03*
D49*
X037562Y043816D03*
X037562Y044190D03*
X037562Y044564D03*
X036539Y044564D03*
X036539Y043816D03*
D50*
X069351Y042390D03*
D51*
X069351Y041390D03*
X069351Y040390D03*
X069351Y039390D03*
X069351Y038390D03*
X069351Y037390D03*
X069351Y036390D03*
X069351Y035390D03*
X069351Y034390D03*
X069351Y033390D03*
X069351Y032390D03*
X069351Y031390D03*
X069351Y030390D03*
X069351Y029390D03*
X069351Y028390D03*
X069351Y027390D03*
X069351Y026390D03*
X069351Y025390D03*
X069351Y024390D03*
X069351Y023390D03*
X069351Y022390D03*
X069351Y021390D03*
X069351Y020390D03*
X069351Y019390D03*
X069351Y018390D03*
X069351Y017390D03*
X069351Y016390D03*
X069351Y015390D03*
X069351Y014390D03*
X069351Y013390D03*
X069351Y012390D03*
X069351Y011390D03*
X067351Y011390D03*
X067351Y012390D03*
X067351Y013390D03*
X067351Y014390D03*
X067351Y015390D03*
X067351Y016390D03*
X067351Y017390D03*
X067351Y018390D03*
X067351Y019390D03*
X067351Y020390D03*
X067351Y021390D03*
X067351Y022390D03*
X067351Y023390D03*
X067351Y024390D03*
X067351Y025390D03*
X067351Y026390D03*
X067351Y027390D03*
X067351Y028390D03*
X067351Y029390D03*
X067351Y030390D03*
X067351Y031390D03*
X067351Y032390D03*
X067351Y033390D03*
X067351Y034390D03*
X067351Y035390D03*
X067351Y036390D03*
X067351Y037390D03*
X067351Y038390D03*
X067351Y039390D03*
X067351Y040390D03*
X067351Y041390D03*
X067351Y042390D03*
D52*
X016101Y024535D03*
D53*
X016681Y023940D03*
X015521Y023940D03*
D54*
X018341Y032370D03*
X019251Y032370D03*
X020161Y032370D03*
D55*
X019251Y034810D03*
D56*
X016751Y017524D03*
X016251Y017524D03*
X015751Y017524D03*
X015251Y017524D03*
X015251Y015476D03*
X015751Y015476D03*
X016251Y015476D03*
X016751Y015476D03*
D57*
X042439Y029216D03*
X042439Y029964D03*
X043462Y029964D03*
X043462Y029590D03*
X043462Y029216D03*
D58*
X018185Y026746D03*
X018185Y026490D03*
X018185Y026234D03*
X017516Y026234D03*
X017516Y026490D03*
X017516Y026746D03*
D59*
X017182Y019574D03*
X016394Y019574D03*
X015607Y019574D03*
X014820Y019574D03*
X014820Y018786D03*
X015607Y018786D03*
X016394Y018786D03*
X017182Y018786D03*
X059886Y034914D03*
X060673Y034914D03*
X061461Y034914D03*
X062248Y034914D03*
X062248Y035701D03*
X061461Y035701D03*
X061461Y036488D03*
X062248Y036488D03*
X062248Y037276D03*
X061461Y037276D03*
X061461Y038063D03*
X062248Y038063D03*
X062248Y038851D03*
X061461Y038851D03*
X060673Y038851D03*
X059886Y038851D03*
X059886Y038063D03*
X059886Y037276D03*
X060673Y037276D03*
X060673Y038063D03*
X060673Y036488D03*
X059886Y036488D03*
X059886Y035701D03*
X060673Y035701D03*
X060673Y039638D03*
X059886Y039638D03*
X059886Y040425D03*
X060673Y040425D03*
X061461Y040425D03*
X061461Y039638D03*
X062248Y039638D03*
X062248Y040425D03*
D60*
X008751Y031890D02*
X008751Y007500D01*
X071151Y007500D01*
X071151Y009100D01*
X071071Y008909D01*
X070832Y008669D01*
X070520Y008540D01*
X070182Y008540D01*
X069869Y008669D01*
X069630Y008909D01*
X069501Y009221D01*
X069501Y009559D01*
X069630Y009871D01*
X069869Y010111D01*
X070182Y010240D01*
X070520Y010240D01*
X070832Y010111D01*
X071071Y009871D01*
X071151Y009680D01*
X071151Y044100D01*
X071071Y043909D01*
X070832Y043669D01*
X070520Y043540D01*
X070182Y043540D01*
X069869Y043669D01*
X069630Y043909D01*
X069501Y044221D01*
X069501Y044559D01*
X069630Y044871D01*
X069869Y045111D01*
X070182Y045240D01*
X070520Y045240D01*
X070832Y045111D01*
X071071Y044871D01*
X071151Y044680D01*
X071151Y046280D01*
X013751Y046280D01*
X013751Y032130D01*
X013705Y032020D01*
X013621Y031936D01*
X013510Y031890D01*
X011910Y031890D01*
X012106Y031694D01*
X012241Y031367D01*
X012241Y031013D01*
X012106Y030686D01*
X011855Y030435D01*
X011528Y030299D01*
X011173Y030299D01*
X010846Y030435D01*
X010596Y030686D01*
X010460Y031013D01*
X010460Y031367D01*
X010596Y031694D01*
X010791Y031890D01*
X008751Y031890D01*
X008751Y031786D02*
X010687Y031786D01*
X010551Y031587D02*
X008751Y031587D01*
X008751Y031389D02*
X010469Y031389D01*
X010460Y031190D02*
X008751Y031190D01*
X008751Y030992D02*
X010469Y030992D01*
X010551Y030793D02*
X008751Y030793D01*
X008751Y030595D02*
X010686Y030595D01*
X010939Y030396D02*
X008751Y030396D01*
X008751Y030198D02*
X016411Y030198D01*
X016411Y030396D02*
X011762Y030396D01*
X012015Y030595D02*
X016411Y030595D01*
X016411Y030793D02*
X012150Y030793D01*
X012232Y030992D02*
X016411Y030992D01*
X016411Y031190D02*
X012241Y031190D01*
X012232Y031389D02*
X016411Y031389D01*
X016411Y031587D02*
X012150Y031587D01*
X012014Y031786D02*
X016411Y031786D01*
X016411Y031984D02*
X013669Y031984D01*
X013751Y032183D02*
X016411Y032183D01*
X016411Y032381D02*
X013751Y032381D01*
X013751Y032580D02*
X016411Y032580D01*
X016411Y032778D02*
X013751Y032778D01*
X013751Y032977D02*
X016411Y032977D01*
X016411Y033175D02*
X013751Y033175D01*
X013751Y033374D02*
X016411Y033374D01*
X016411Y033572D02*
X013751Y033572D01*
X013751Y033771D02*
X016411Y033771D01*
X016411Y033969D02*
X013751Y033969D01*
X013751Y034168D02*
X016411Y034168D01*
X016411Y034366D02*
X013751Y034366D01*
X013751Y034565D02*
X016411Y034565D01*
X016411Y034763D02*
X013751Y034763D01*
X013751Y034962D02*
X016411Y034962D01*
X016411Y035160D02*
X013751Y035160D01*
X013751Y035359D02*
X016411Y035359D01*
X016411Y035557D02*
X013751Y035557D01*
X013751Y035756D02*
X016411Y035756D01*
X016411Y035954D02*
X013751Y035954D01*
X013751Y036153D02*
X016411Y036153D01*
X016411Y036351D02*
X013751Y036351D01*
X013751Y036550D02*
X017519Y036550D01*
X017474Y036505D02*
X017449Y036480D01*
X016493Y036480D01*
X016411Y036398D01*
X016411Y027932D01*
X016493Y027850D01*
X018619Y027850D01*
X018609Y027840D01*
X018461Y027840D01*
X018296Y027771D01*
X018169Y027645D01*
X018101Y027480D01*
X018101Y027300D01*
X018169Y027135D01*
X018296Y027009D01*
X018461Y026940D01*
X018569Y026940D01*
X018545Y026916D01*
X018534Y026890D01*
X018371Y026890D01*
X018299Y026860D01*
X018112Y026860D01*
X018109Y026859D01*
X017973Y026859D01*
X017973Y026874D01*
X017928Y026985D01*
X017901Y027012D01*
X017901Y027130D01*
X017832Y027295D01*
X017706Y027421D01*
X017540Y027490D01*
X017361Y027490D01*
X017196Y027421D01*
X017069Y027295D01*
X017001Y027130D01*
X017001Y026952D01*
X016733Y026952D01*
X016623Y026907D01*
X016607Y026890D01*
X016271Y026890D01*
X016124Y026829D01*
X016024Y026729D01*
X015912Y026617D01*
X015851Y026470D01*
X015851Y026300D01*
X015801Y026180D01*
X015801Y026000D01*
X015869Y025835D01*
X015996Y025709D01*
X016161Y025640D01*
X016340Y025640D01*
X016506Y025709D01*
X016632Y025835D01*
X016701Y026000D01*
X016701Y026051D01*
X016733Y026037D01*
X017168Y026037D01*
X017278Y026083D01*
X017315Y026120D01*
X017590Y026120D01*
X017592Y026121D01*
X017728Y026121D01*
X017728Y026106D01*
X017744Y026067D01*
X017668Y026067D01*
X017558Y026021D01*
X017473Y025937D01*
X017428Y025827D01*
X017428Y025353D01*
X017473Y025243D01*
X017558Y025159D01*
X017668Y025113D01*
X018024Y025113D01*
X018134Y025159D01*
X018158Y025183D01*
X018207Y025065D01*
X018151Y024930D01*
X018151Y024750D01*
X018219Y024585D01*
X018346Y024459D01*
X018511Y024390D01*
X018618Y024390D01*
X018608Y024365D01*
X018608Y024240D01*
X018461Y024240D01*
X018296Y024171D01*
X018169Y024045D01*
X018101Y023880D01*
X018101Y023700D01*
X018169Y023535D01*
X018296Y023409D01*
X018443Y023347D01*
X018469Y023285D01*
X018596Y023159D01*
X018761Y023090D01*
X018914Y023090D01*
X018996Y023009D01*
X019103Y022964D01*
X019099Y022956D01*
X019099Y022324D01*
X019145Y022214D01*
X019200Y022159D01*
X019187Y022127D01*
X019187Y021653D01*
X019233Y021543D01*
X019317Y021459D01*
X019428Y021413D01*
X019783Y021413D01*
X019818Y021427D01*
X019901Y021345D01*
X019901Y015881D01*
X020022Y015587D01*
X021847Y013762D01*
X022141Y013640D01*
X022460Y013640D01*
X022754Y013762D01*
X022979Y013987D01*
X023101Y014281D01*
X023101Y014599D01*
X022979Y014893D01*
X021501Y016371D01*
X021501Y021303D01*
X021599Y021343D01*
X021697Y021442D01*
X021751Y021570D01*
X021751Y022110D01*
X021697Y022238D01*
X021599Y022337D01*
X021579Y022345D01*
X021576Y022347D01*
X021466Y022393D01*
X020835Y022393D01*
X020827Y022390D01*
X020054Y022390D01*
X020054Y022956D01*
X020044Y022980D01*
X020066Y023071D01*
X020083Y023078D01*
X020167Y023163D01*
X020213Y023273D01*
X020213Y023583D01*
X020423Y023583D01*
X020533Y023628D01*
X020617Y023713D01*
X020663Y023823D01*
X020663Y024257D01*
X020617Y024367D01*
X020533Y024452D01*
X020501Y024465D01*
X020606Y024509D01*
X020732Y024635D01*
X020801Y024800D01*
X020801Y024980D01*
X020786Y025015D01*
X020828Y025117D01*
X020828Y025408D01*
X021218Y025408D01*
X021328Y025453D01*
X021340Y025465D01*
X021634Y025465D01*
X021639Y025467D01*
X021744Y025467D01*
X021744Y025415D01*
X021660Y025331D01*
X021615Y025221D01*
X021615Y024747D01*
X021660Y024637D01*
X021745Y024553D01*
X021855Y024507D01*
X022486Y024507D01*
X022545Y024531D01*
X022553Y024523D01*
X022663Y024478D01*
X022951Y024478D01*
X022951Y024267D01*
X022608Y024267D01*
X022497Y024221D01*
X022413Y024137D01*
X022367Y024027D01*
X022367Y023553D01*
X022380Y023523D01*
X022363Y023506D01*
X022317Y023396D01*
X022317Y022764D01*
X022363Y022654D01*
X022448Y022570D01*
X022558Y022524D01*
X023031Y022524D01*
X023142Y022570D01*
X023212Y022640D01*
X023340Y022640D01*
X023506Y022709D01*
X023632Y022835D01*
X023701Y023000D01*
X023701Y023180D01*
X023632Y023345D01*
X023632Y023345D01*
X023664Y023359D01*
X023748Y023443D01*
X023794Y023553D01*
X023794Y024027D01*
X023751Y024132D01*
X023751Y024465D01*
X024119Y024465D01*
X024166Y024419D01*
X024276Y024373D01*
X025025Y024373D01*
X025136Y024419D01*
X025220Y024503D01*
X025266Y024613D01*
X025266Y024973D01*
X025297Y024964D01*
X025339Y024945D01*
X025352Y024950D01*
X025368Y024945D01*
X025376Y024935D01*
X025422Y024931D01*
X025466Y024919D01*
X025478Y024926D01*
X025494Y024924D01*
X025505Y024915D01*
X025551Y024919D01*
X025596Y024915D01*
X025607Y024924D01*
X025623Y024926D01*
X025635Y024919D01*
X025679Y024931D01*
X025725Y024935D01*
X025734Y024945D01*
X025749Y024950D01*
X025762Y024945D01*
X025804Y024964D01*
X025848Y024976D01*
X025855Y024988D01*
X025870Y024995D01*
X025883Y024992D01*
X025921Y025019D01*
X025962Y025038D01*
X025967Y025051D01*
X025980Y025060D01*
X025994Y025060D01*
X026027Y025093D01*
X026064Y025119D01*
X026067Y025133D01*
X026078Y025144D01*
X026092Y025147D01*
X026118Y025184D01*
X026150Y025216D01*
X026150Y025230D01*
X026160Y025244D01*
X026173Y025248D01*
X026192Y025290D01*
X026218Y025327D01*
X026216Y025341D01*
X026223Y025356D01*
X026235Y025363D01*
X026247Y025407D01*
X026266Y025448D01*
X026261Y025461D01*
X026265Y025477D01*
X026276Y025486D01*
X026280Y025531D01*
X026292Y025576D01*
X026285Y025588D01*
X026286Y025604D01*
X026295Y025614D01*
X026291Y025660D01*
X026295Y025706D01*
X026286Y025716D01*
X026285Y025732D01*
X026292Y025744D01*
X026280Y025789D01*
X026276Y025834D01*
X026265Y025843D01*
X026261Y025859D01*
X026266Y025872D01*
X026247Y025913D01*
X026235Y025957D01*
X026223Y025964D01*
X026216Y025979D01*
X026218Y025993D01*
X026192Y026030D01*
X026188Y026039D01*
X026373Y026039D01*
X026373Y025717D01*
X026419Y025607D01*
X026504Y025522D01*
X026614Y025477D01*
X026749Y025477D01*
X026766Y025470D01*
X027260Y025470D01*
X027335Y025439D01*
X027966Y025439D01*
X028032Y025466D01*
X028416Y025466D01*
X028582Y025534D01*
X028706Y025659D01*
X028832Y025785D01*
X028901Y025950D01*
X028901Y026130D01*
X028832Y026295D01*
X028706Y026421D01*
X028540Y026490D01*
X028361Y026490D01*
X028196Y026421D01*
X028140Y026366D01*
X028032Y026366D01*
X027966Y026393D01*
X027335Y026393D01*
X027328Y026390D01*
X027328Y026663D01*
X027282Y026773D01*
X027198Y026858D01*
X027087Y026903D01*
X026995Y026903D01*
X026904Y026941D01*
X026583Y026941D01*
X026576Y026947D01*
X026466Y026993D01*
X025835Y026993D01*
X025725Y026947D01*
X025718Y026941D01*
X025595Y026941D01*
X025568Y026952D01*
X025257Y026952D01*
X025257Y027168D01*
X025212Y027278D01*
X025127Y027362D01*
X025017Y027408D01*
X024945Y027408D01*
X024970Y027433D01*
X025016Y027543D01*
X025016Y027850D01*
X027109Y027850D01*
X027191Y027932D01*
X027229Y027971D01*
X027678Y028150D01*
X030259Y028150D01*
X030341Y028232D01*
X030341Y032548D01*
X030259Y032630D01*
X026591Y032630D01*
X026591Y033948D01*
X026509Y034030D01*
X023201Y034030D01*
X023201Y035888D01*
X023221Y035868D01*
X023332Y035822D01*
X023736Y035822D01*
X023741Y035820D01*
X024482Y035820D01*
X024484Y035814D01*
X024569Y035730D01*
X024679Y035684D01*
X025074Y035684D01*
X025184Y035730D01*
X025251Y035796D01*
X025317Y035730D01*
X025427Y035684D01*
X025822Y035684D01*
X025932Y035730D01*
X026017Y035814D01*
X026062Y035924D01*
X026062Y036081D01*
X026075Y036110D01*
X026075Y036124D01*
X026090Y036139D01*
X026151Y036286D01*
X026151Y041580D01*
X026201Y041700D01*
X026201Y041880D01*
X026132Y042045D01*
X026006Y042171D01*
X025840Y042240D01*
X025661Y042240D01*
X025496Y042171D01*
X025369Y042045D01*
X025301Y041880D01*
X025301Y041700D01*
X025351Y041580D01*
X025351Y036764D01*
X025317Y036750D01*
X025251Y036684D01*
X025184Y036750D01*
X025074Y036796D01*
X024679Y036796D01*
X024569Y036750D01*
X024557Y036739D01*
X024557Y036790D01*
X024640Y036790D01*
X024806Y036859D01*
X024932Y036985D01*
X025001Y037150D01*
X025001Y037330D01*
X024932Y037495D01*
X024806Y037621D01*
X024640Y037690D01*
X024557Y037690D01*
X024557Y037918D01*
X024512Y038028D01*
X024471Y038069D01*
X024471Y038278D01*
X024463Y038297D01*
X024463Y038457D01*
X024431Y038534D01*
X024532Y038635D01*
X024601Y038800D01*
X024601Y038980D01*
X024532Y039145D01*
X024406Y039271D01*
X024240Y039340D01*
X024061Y039340D01*
X024014Y039321D01*
X023965Y039370D01*
X023810Y039434D01*
X021859Y039434D01*
X021816Y039452D01*
X021351Y039452D01*
X021351Y040180D01*
X021282Y040345D01*
X021156Y040471D01*
X020990Y040540D01*
X018611Y040540D01*
X018446Y040471D01*
X018319Y040345D01*
X018251Y040180D01*
X018251Y038750D01*
X018319Y038585D01*
X018408Y038496D01*
X018395Y038463D01*
X018395Y038069D01*
X018440Y037958D01*
X018497Y037902D01*
X017935Y037902D01*
X017825Y037856D01*
X017740Y037772D01*
X017695Y037661D01*
X017695Y037267D01*
X017740Y037156D01*
X017807Y037090D01*
X017740Y037024D01*
X017695Y036913D01*
X017695Y036726D01*
X017474Y036505D01*
X017695Y036748D02*
X013751Y036748D01*
X013751Y036947D02*
X017709Y036947D01*
X017751Y037145D02*
X013751Y037145D01*
X013751Y037344D02*
X017695Y037344D01*
X017695Y037542D02*
X013751Y037542D01*
X013751Y037741D02*
X017728Y037741D01*
X018251Y037464D02*
X018951Y037464D01*
X018951Y038266D01*
X018395Y038336D02*
X013751Y038336D01*
X013751Y038138D02*
X018395Y038138D01*
X018459Y037939D02*
X013751Y037939D01*
X013751Y038535D02*
X018369Y038535D01*
X018258Y038733D02*
X013751Y038733D01*
X013751Y038932D02*
X018251Y038932D01*
X018251Y039130D02*
X013751Y039130D01*
X013751Y039329D02*
X018251Y039329D01*
X018251Y039527D02*
X013751Y039527D01*
X013751Y039726D02*
X018251Y039726D01*
X018251Y039924D02*
X013751Y039924D01*
X013751Y040123D02*
X018251Y040123D01*
X018309Y040321D02*
X013751Y040321D01*
X013751Y040520D02*
X018563Y040520D01*
X018951Y039690D02*
X020501Y039740D01*
X021351Y039726D02*
X025351Y039726D01*
X025351Y039924D02*
X021351Y039924D01*
X021351Y040123D02*
X025351Y040123D01*
X025351Y040321D02*
X021292Y040321D01*
X021039Y040520D02*
X025351Y040520D01*
X025351Y040718D02*
X013751Y040718D01*
X013751Y040917D02*
X025351Y040917D01*
X025351Y041115D02*
X013751Y041115D01*
X013751Y041314D02*
X025351Y041314D01*
X025351Y041512D02*
X013751Y041512D01*
X013751Y041711D02*
X025301Y041711D01*
X025313Y041909D02*
X013751Y041909D01*
X013751Y042108D02*
X025432Y042108D01*
X025751Y041790D02*
X025751Y036366D01*
X025625Y036240D01*
X025675Y036190D01*
X026095Y036153D02*
X059941Y036153D01*
X059941Y036351D02*
X026151Y036351D01*
X026151Y036550D02*
X059941Y036550D01*
X059941Y036748D02*
X026151Y036748D01*
X026151Y036947D02*
X059941Y036947D01*
X059941Y037145D02*
X026151Y037145D01*
X026151Y037344D02*
X043752Y037344D01*
X043761Y037340D02*
X043940Y037340D01*
X044106Y037409D01*
X044232Y037535D01*
X044301Y037700D01*
X044301Y037880D01*
X044232Y038045D01*
X044106Y038171D01*
X043940Y038240D01*
X043761Y038240D01*
X043596Y038171D01*
X043469Y038045D01*
X043401Y037880D01*
X043401Y037700D01*
X043469Y037535D01*
X043596Y037409D01*
X043761Y037340D01*
X043950Y037344D02*
X059941Y037344D01*
X059941Y037542D02*
X044235Y037542D01*
X044301Y037741D02*
X059941Y037741D01*
X059941Y037939D02*
X044276Y037939D01*
X044369Y038135D02*
X044496Y038009D01*
X044661Y037940D01*
X044840Y037940D01*
X045006Y038009D01*
X045132Y038135D01*
X045201Y038300D01*
X045201Y038480D01*
X045132Y038645D01*
X045006Y038771D01*
X044840Y038840D01*
X044661Y038840D01*
X044496Y038771D01*
X044369Y038645D01*
X044301Y038480D01*
X044301Y038300D01*
X044369Y038135D01*
X044368Y038138D02*
X044139Y038138D01*
X044301Y038336D02*
X026151Y038336D01*
X026151Y038138D02*
X043562Y038138D01*
X043425Y037939D02*
X026151Y037939D01*
X026151Y037741D02*
X043401Y037741D01*
X043466Y037542D02*
X026151Y037542D01*
X025351Y037542D02*
X024885Y037542D01*
X024995Y037344D02*
X025351Y037344D01*
X025351Y037145D02*
X024999Y037145D01*
X024894Y036947D02*
X025351Y036947D01*
X025315Y036748D02*
X025186Y036748D01*
X024567Y036748D02*
X024557Y036748D01*
X024557Y037741D02*
X025351Y037741D01*
X025351Y037939D02*
X024548Y037939D01*
X024471Y038138D02*
X025351Y038138D01*
X025351Y038336D02*
X024463Y038336D01*
X024432Y038535D02*
X025351Y038535D01*
X025351Y038733D02*
X024573Y038733D01*
X024601Y038932D02*
X025351Y038932D01*
X025351Y039130D02*
X024538Y039130D01*
X024267Y039329D02*
X025351Y039329D01*
X025351Y039527D02*
X021351Y039527D01*
X021501Y038266D02*
X020601Y038266D01*
X020651Y037464D02*
X020675Y037440D01*
X021101Y037440D01*
X021301Y037240D01*
X021777Y037240D01*
X022551Y037240D01*
X022801Y036990D01*
X022801Y032914D01*
X022401Y034030D02*
X020991Y034030D01*
X020991Y035048D01*
X020909Y035130D01*
X020591Y035130D01*
X020591Y036239D01*
X020966Y036239D01*
X021044Y036271D01*
X021044Y036062D01*
X021090Y035952D01*
X021174Y035868D01*
X021284Y035822D01*
X021288Y035822D01*
X021288Y035564D01*
X021219Y035495D01*
X021151Y035330D01*
X021151Y035150D01*
X021219Y034985D01*
X021346Y034859D01*
X021511Y034790D01*
X021690Y034790D01*
X021856Y034859D01*
X021982Y034985D01*
X022012Y035058D01*
X022102Y035147D01*
X022166Y035302D01*
X022166Y035432D01*
X022203Y035523D01*
X022203Y035822D01*
X022270Y035822D01*
X022380Y035868D01*
X022401Y035888D01*
X022401Y034030D01*
X022401Y034168D02*
X020991Y034168D01*
X020991Y034366D02*
X022401Y034366D01*
X022401Y034565D02*
X020991Y034565D01*
X020991Y034763D02*
X022401Y034763D01*
X022401Y034962D02*
X021959Y034962D01*
X022107Y035160D02*
X022401Y035160D01*
X022401Y035359D02*
X022166Y035359D01*
X022203Y035557D02*
X022401Y035557D01*
X022401Y035756D02*
X022203Y035756D01*
X021288Y035756D02*
X020591Y035756D01*
X020591Y035954D02*
X021089Y035954D01*
X021044Y036153D02*
X020591Y036153D01*
X020651Y036716D02*
X019601Y036716D01*
X020651Y036716D02*
X020675Y036740D01*
X021777Y036740D01*
X021777Y037740D02*
X021601Y037740D01*
X021501Y037840D01*
X021501Y038266D01*
X019601Y037464D02*
X018951Y037464D01*
X018251Y036716D02*
X017701Y036166D01*
X017701Y033640D01*
X018251Y033090D01*
X019251Y033340D02*
X019251Y034810D01*
X020591Y035160D02*
X021151Y035160D01*
X021163Y035359D02*
X020591Y035359D01*
X020591Y035557D02*
X021282Y035557D01*
X021242Y034962D02*
X020991Y034962D01*
X023201Y034962D02*
X045986Y034962D01*
X045996Y034971D02*
X045869Y034845D01*
X045801Y034680D01*
X045801Y034640D01*
X045761Y034640D01*
X045596Y034571D01*
X045469Y034445D01*
X045401Y034280D01*
X045401Y034100D01*
X045446Y033992D01*
X045396Y033971D01*
X045269Y033845D01*
X045201Y033680D01*
X045201Y033500D01*
X045225Y033441D01*
X045224Y033440D01*
X044031Y033440D01*
X043902Y033387D01*
X043804Y033288D01*
X043504Y032988D01*
X043451Y032860D01*
X043451Y031620D01*
X043504Y031492D01*
X043585Y031411D01*
X043519Y031345D01*
X043451Y031180D01*
X043451Y031000D01*
X043519Y030835D01*
X043646Y030709D01*
X043701Y030686D01*
X043701Y030555D01*
X043619Y030473D01*
X043573Y030363D01*
X043573Y030028D01*
X043299Y030028D01*
X043206Y030121D01*
X043040Y030190D01*
X042924Y030190D01*
X042890Y030272D01*
X042806Y030356D01*
X042695Y030402D01*
X042496Y030402D01*
X042463Y030435D01*
X042463Y030857D01*
X042417Y030967D01*
X042333Y031052D01*
X042223Y031097D01*
X042113Y031097D01*
X042113Y031243D01*
X042224Y031243D01*
X042247Y031253D01*
X042322Y031222D01*
X042520Y031222D01*
X042703Y031298D01*
X042843Y031438D01*
X042919Y031621D01*
X042919Y031819D01*
X042843Y032002D01*
X042703Y032142D01*
X042520Y032218D01*
X042322Y032218D01*
X042247Y032187D01*
X042224Y032197D01*
X041868Y032197D01*
X041758Y032151D01*
X041751Y032144D01*
X041743Y032151D01*
X041633Y032197D01*
X041280Y032197D01*
X041256Y032221D01*
X041090Y032290D01*
X040911Y032290D01*
X040746Y032221D01*
X040619Y032095D01*
X040606Y032063D01*
X040294Y032063D01*
X040184Y032018D01*
X040099Y031933D01*
X040053Y031823D01*
X040053Y031467D01*
X040099Y031357D01*
X040106Y031350D01*
X040099Y031343D01*
X040053Y031233D01*
X040053Y030877D01*
X040099Y030767D01*
X040184Y030682D01*
X040294Y030637D01*
X040396Y030637D01*
X040396Y030391D01*
X040441Y030280D01*
X040526Y030196D01*
X040636Y030150D01*
X041061Y030150D01*
X041061Y030119D01*
X041107Y030009D01*
X041177Y029938D01*
X041107Y029868D01*
X041061Y029758D01*
X041061Y029530D01*
X040440Y029530D01*
X040440Y030152D01*
X040395Y030262D01*
X040310Y030346D01*
X040200Y030392D01*
X039891Y030392D01*
X039891Y030843D01*
X039903Y030874D01*
X039903Y031387D01*
X039895Y031407D01*
X039895Y031480D01*
X039913Y031523D01*
X039913Y031931D01*
X039928Y031967D01*
X039928Y032283D01*
X040223Y032283D01*
X040333Y032328D01*
X040417Y032413D01*
X040463Y032523D01*
X040463Y032863D01*
X040774Y032863D01*
X040872Y032903D01*
X040933Y032878D01*
X041368Y032878D01*
X041395Y032889D01*
X041718Y032889D01*
X041725Y032883D01*
X041835Y032837D01*
X042466Y032837D01*
X042576Y032883D01*
X042661Y032967D01*
X042707Y033077D01*
X042707Y033551D01*
X042661Y033661D01*
X042576Y033746D01*
X042466Y033791D01*
X042107Y033791D01*
X042149Y033891D01*
X042149Y034089D01*
X042073Y034272D01*
X041933Y034412D01*
X041750Y034488D01*
X041552Y034488D01*
X041368Y034412D01*
X041228Y034272D01*
X041153Y034089D01*
X041153Y033891D01*
X041163Y033866D01*
X041163Y033793D01*
X040933Y033793D01*
X040883Y033772D01*
X040774Y033817D01*
X040418Y033817D01*
X040308Y033771D01*
X040301Y033764D01*
X040293Y033771D01*
X040183Y033817D01*
X039828Y033817D01*
X039717Y033771D01*
X026591Y033771D01*
X026591Y033572D02*
X039514Y033572D01*
X039552Y033588D02*
X039368Y033512D01*
X039228Y033372D01*
X039191Y033281D01*
X039122Y033350D01*
X039011Y033396D01*
X038538Y033396D01*
X038428Y033350D01*
X038343Y033266D01*
X038297Y033156D01*
X038297Y032524D01*
X038332Y032440D01*
X038297Y032356D01*
X038297Y032130D01*
X038293Y032130D01*
X038211Y032048D01*
X038211Y031830D01*
X037697Y031830D01*
X037686Y031838D01*
X037684Y031851D01*
X037647Y031877D01*
X037614Y031910D01*
X037600Y031910D01*
X037587Y031919D01*
X037582Y031932D01*
X037541Y031951D01*
X037503Y031978D01*
X037501Y031977D01*
X037343Y032096D01*
X037309Y032130D01*
X037297Y032130D01*
X037288Y032137D01*
X037241Y032130D01*
X030693Y032130D01*
X030611Y032048D01*
X030611Y028032D01*
X030693Y027950D01*
X033841Y027950D01*
X033888Y027943D01*
X033897Y027950D01*
X033909Y027950D01*
X033943Y027984D01*
X034297Y028250D01*
X036211Y028250D01*
X036211Y027804D01*
X036201Y027780D01*
X036201Y027641D01*
X036196Y027630D01*
X036196Y027275D01*
X036188Y027257D01*
X036188Y026823D01*
X036196Y026805D01*
X036196Y026450D01*
X036201Y026439D01*
X036201Y026300D01*
X036269Y026135D01*
X036396Y026009D01*
X036465Y025980D01*
X036424Y025962D01*
X036340Y025878D01*
X036294Y025768D01*
X036294Y025412D01*
X036324Y025340D01*
X036294Y025268D01*
X036294Y025010D01*
X036172Y025010D01*
X036130Y024993D01*
X035983Y024993D01*
X035893Y024955D01*
X035853Y024955D01*
X035766Y024991D01*
X035135Y024991D01*
X035025Y024946D01*
X035013Y024934D01*
X034934Y024934D01*
X034887Y024953D01*
X034739Y024953D01*
X034734Y024955D01*
X034567Y024955D01*
X034563Y024953D01*
X034414Y024953D01*
X034304Y024908D01*
X034219Y024823D01*
X034173Y024713D01*
X034173Y024357D01*
X034219Y024247D01*
X034226Y024240D01*
X034219Y024233D01*
X034173Y024123D01*
X034173Y023767D01*
X034219Y023657D01*
X034231Y023645D01*
X034231Y023551D01*
X034195Y023516D01*
X034149Y023406D01*
X034149Y022774D01*
X034195Y022664D01*
X034207Y022653D01*
X034207Y022515D01*
X034151Y022380D01*
X034151Y022200D01*
X034219Y022035D01*
X034346Y021909D01*
X034511Y021840D01*
X034690Y021840D01*
X034856Y021909D01*
X034982Y022035D01*
X035051Y022200D01*
X035051Y022380D01*
X035047Y022389D01*
X035047Y022653D01*
X035058Y022664D01*
X035104Y022774D01*
X035104Y023406D01*
X035071Y023486D01*
X035071Y023645D01*
X035082Y023657D01*
X035128Y023767D01*
X035128Y024040D01*
X035135Y024037D01*
X035766Y024037D01*
X035876Y024083D01*
X035904Y024111D01*
X035983Y024078D01*
X036294Y024078D01*
X036294Y023912D01*
X036340Y023802D01*
X036424Y023718D01*
X036534Y023672D01*
X037331Y023672D01*
X037331Y023541D01*
X037329Y023537D01*
X037331Y023457D01*
X037331Y023377D01*
X037332Y023374D01*
X037337Y023099D01*
X037337Y023098D01*
X037337Y023040D01*
X037161Y023040D01*
X036996Y022971D01*
X036869Y022845D01*
X036801Y022680D01*
X036801Y022500D01*
X036869Y022335D01*
X036996Y022209D01*
X037161Y022140D01*
X037340Y022140D01*
X037443Y022183D01*
X037467Y022159D01*
X037578Y022113D01*
X037933Y022113D01*
X038043Y022159D01*
X038051Y022166D01*
X038058Y022159D01*
X038168Y022113D01*
X038524Y022113D01*
X038634Y022159D01*
X038718Y022243D01*
X038764Y022353D01*
X038764Y022689D01*
X038833Y022621D01*
X038943Y022575D01*
X039301Y022575D01*
X039301Y022478D01*
X039388Y022390D01*
X040731Y022390D01*
X040733Y022386D01*
X040777Y022374D01*
X040819Y022355D01*
X040832Y022360D01*
X040848Y022355D01*
X040856Y022345D01*
X040902Y022341D01*
X040946Y022329D01*
X040958Y022336D01*
X040974Y022334D01*
X040985Y022325D01*
X041031Y022329D01*
X041076Y022325D01*
X041087Y022334D01*
X041103Y022336D01*
X041115Y022329D01*
X041159Y022341D01*
X041205Y022345D01*
X041214Y022355D01*
X041229Y022360D01*
X041242Y022355D01*
X041284Y022374D01*
X041328Y022386D01*
X041335Y022398D01*
X041350Y022405D01*
X041363Y022402D01*
X041401Y022429D01*
X041442Y022448D01*
X041447Y022461D01*
X041460Y022470D01*
X041474Y022470D01*
X041507Y022503D01*
X041544Y022529D01*
X041547Y022543D01*
X041558Y022554D01*
X041572Y022557D01*
X041598Y022594D01*
X041630Y022626D01*
X041630Y022640D01*
X041640Y022654D01*
X041653Y022658D01*
X041672Y022700D01*
X041698Y022737D01*
X041696Y022751D01*
X041703Y022766D01*
X041715Y022773D01*
X041727Y022817D01*
X041746Y022858D01*
X041741Y022871D01*
X041745Y022887D01*
X041756Y022896D01*
X041760Y022941D01*
X041772Y022986D01*
X041765Y022998D01*
X041766Y023014D01*
X041775Y023024D01*
X041771Y023070D01*
X041775Y023116D01*
X041766Y023126D01*
X041765Y023142D01*
X041772Y023154D01*
X041760Y023199D01*
X041756Y023244D01*
X041745Y023253D01*
X041741Y023269D01*
X041746Y023282D01*
X041727Y023323D01*
X041715Y023367D01*
X041703Y023374D01*
X041696Y023389D01*
X041698Y023403D01*
X041672Y023440D01*
X041653Y023482D01*
X041640Y023486D01*
X041630Y023500D01*
X041630Y023514D01*
X041598Y023546D01*
X041572Y023583D01*
X041558Y023586D01*
X041547Y023597D01*
X041544Y023611D01*
X041507Y023637D01*
X041474Y023670D01*
X041460Y023670D01*
X041447Y023679D01*
X041442Y023692D01*
X041401Y023711D01*
X041363Y023738D01*
X041350Y023735D01*
X041335Y023742D01*
X041328Y023754D01*
X041284Y023766D01*
X041245Y023784D01*
X041563Y023784D01*
X041674Y023830D01*
X041758Y023914D01*
X041804Y024024D01*
X041804Y024492D01*
X041850Y024492D01*
X042033Y024568D01*
X042173Y024708D01*
X042249Y024891D01*
X042249Y025089D01*
X042173Y025272D01*
X042033Y025412D01*
X041850Y025488D01*
X041828Y025488D01*
X041828Y025763D01*
X041782Y025873D01*
X041698Y025958D01*
X041587Y026003D01*
X041439Y026003D01*
X041434Y026005D01*
X041267Y026005D01*
X041263Y026003D01*
X041114Y026003D01*
X041082Y025990D01*
X041076Y025996D01*
X040966Y026041D01*
X040335Y026041D01*
X040260Y026010D01*
X039910Y026010D01*
X039892Y026016D01*
X039827Y026010D01*
X038991Y026010D01*
X038986Y026008D01*
X038805Y026008D01*
X038806Y026009D01*
X038834Y026037D01*
X038836Y026038D01*
X038920Y026122D01*
X038921Y026124D01*
X038932Y026135D01*
X039001Y026300D01*
X039001Y026650D01*
X039359Y026650D01*
X039441Y026732D01*
X039441Y028987D01*
X039460Y029453D01*
X039506Y029453D01*
X039506Y029332D01*
X039551Y029221D01*
X039636Y029137D01*
X039746Y029091D01*
X040002Y029091D01*
X040002Y028835D01*
X040047Y028725D01*
X040132Y028641D01*
X040242Y028595D01*
X040673Y028595D01*
X040673Y028307D01*
X040719Y028197D01*
X040804Y028113D01*
X040914Y028067D01*
X041387Y028067D01*
X041498Y028113D01*
X041582Y028197D01*
X041628Y028307D01*
X041628Y028663D01*
X041582Y028773D01*
X041499Y028856D01*
X041499Y029091D01*
X041755Y029091D01*
X041865Y029137D01*
X041942Y029213D01*
X041942Y029019D01*
X041956Y028984D01*
X041943Y028952D01*
X041943Y028518D01*
X041989Y028408D01*
X042073Y028323D01*
X042183Y028278D01*
X042386Y028278D01*
X042487Y028217D01*
X042487Y028153D01*
X042501Y028121D01*
X042501Y027860D01*
X042562Y027713D01*
X042674Y027601D01*
X042821Y027540D01*
X043980Y027540D01*
X044127Y027601D01*
X044240Y027713D01*
X044301Y027860D01*
X044301Y028640D01*
X045320Y028640D01*
X045449Y028693D01*
X045586Y028830D01*
X045594Y028830D01*
X045597Y028827D01*
X045707Y028782D01*
X046102Y028782D01*
X046160Y028806D01*
X046219Y028782D01*
X046614Y028782D01*
X046724Y028827D01*
X046727Y028830D01*
X046810Y028830D01*
X046939Y028883D01*
X046946Y028890D01*
X046990Y028890D01*
X047156Y028959D01*
X047203Y029006D01*
X047361Y028940D01*
X047540Y028940D01*
X047706Y029009D01*
X047832Y029135D01*
X047901Y029300D01*
X047901Y029350D01*
X047908Y029368D01*
X047908Y029750D01*
X048073Y029750D01*
X048073Y028449D01*
X048069Y028445D01*
X048001Y028280D01*
X048001Y028100D01*
X048069Y027935D01*
X048196Y027809D01*
X048361Y027740D01*
X048540Y027740D01*
X048706Y027809D01*
X048803Y027906D01*
X048961Y027840D01*
X049140Y027840D01*
X049306Y027909D01*
X049432Y028035D01*
X049501Y028200D01*
X049501Y028380D01*
X049432Y028545D01*
X049431Y028546D01*
X049431Y030178D01*
X049469Y030085D01*
X049596Y029959D01*
X049761Y029890D01*
X049940Y029890D01*
X050106Y029959D01*
X050232Y030085D01*
X050301Y030250D01*
X050301Y030430D01*
X050232Y030595D01*
X050231Y030596D01*
X050231Y030866D01*
X050173Y031005D01*
X050066Y031112D01*
X049662Y031516D01*
X049666Y031518D01*
X049773Y031625D01*
X049776Y031628D01*
X050168Y031628D01*
X050278Y031673D01*
X050362Y031758D01*
X050408Y031868D01*
X050408Y032302D01*
X050362Y032413D01*
X050278Y032497D01*
X050168Y032543D01*
X049733Y032543D01*
X049636Y032503D01*
X049879Y032745D01*
X050011Y032690D01*
X050190Y032690D01*
X050356Y032759D01*
X050482Y032885D01*
X050551Y033050D01*
X050551Y033230D01*
X050482Y033395D01*
X050356Y033521D01*
X050323Y033535D01*
X050282Y033633D01*
X050198Y033717D01*
X050087Y033763D01*
X049614Y033763D01*
X049504Y033717D01*
X049419Y033633D01*
X049373Y033523D01*
X049373Y033493D01*
X049350Y033502D01*
X048863Y033502D01*
X048863Y033810D01*
X048944Y033810D01*
X048946Y033809D01*
X049111Y033740D01*
X049290Y033740D01*
X049456Y033809D01*
X049582Y033935D01*
X049651Y034100D01*
X049651Y034280D01*
X049613Y034370D01*
X049706Y034409D01*
X049832Y034535D01*
X049901Y034700D01*
X049901Y034880D01*
X049832Y035045D01*
X049706Y035171D01*
X049540Y035240D01*
X049361Y035240D01*
X049196Y035171D01*
X049194Y035170D01*
X048375Y035170D01*
X048235Y035112D01*
X048128Y035005D01*
X048072Y034949D01*
X048032Y035045D01*
X047906Y035171D01*
X047740Y035240D01*
X047561Y035240D01*
X047396Y035171D01*
X047269Y035045D01*
X047213Y034910D01*
X047140Y034940D01*
X046961Y034940D01*
X046796Y034871D01*
X046672Y034748D01*
X046632Y034845D01*
X046506Y034971D01*
X046340Y035040D01*
X046161Y035040D01*
X045996Y034971D01*
X045835Y034763D02*
X023201Y034763D01*
X023201Y034565D02*
X045589Y034565D01*
X045437Y034366D02*
X041979Y034366D01*
X042116Y034168D02*
X045401Y034168D01*
X045394Y033969D02*
X042149Y033969D01*
X042515Y033771D02*
X045238Y033771D01*
X045201Y033572D02*
X042698Y033572D01*
X042707Y033374D02*
X043890Y033374D01*
X043691Y033175D02*
X042707Y033175D01*
X042665Y032977D02*
X043499Y032977D01*
X043451Y032778D02*
X040463Y032778D01*
X040463Y032580D02*
X043451Y032580D01*
X043451Y032381D02*
X040386Y032381D01*
X040707Y032183D02*
X039928Y032183D01*
X039928Y031984D02*
X040150Y031984D01*
X040053Y031786D02*
X039913Y031786D01*
X039913Y031587D02*
X040053Y031587D01*
X040086Y031389D02*
X039903Y031389D01*
X039903Y031190D02*
X040053Y031190D01*
X040053Y030992D02*
X039903Y030992D01*
X039891Y030793D02*
X040088Y030793D01*
X039891Y030595D02*
X040396Y030595D01*
X040396Y030396D02*
X039891Y030396D01*
X040421Y030198D02*
X040524Y030198D01*
X040440Y029999D02*
X041116Y029999D01*
X041079Y029801D02*
X040440Y029801D01*
X040440Y029602D02*
X041061Y029602D01*
X041499Y029007D02*
X041947Y029007D01*
X041934Y029205D02*
X041942Y029205D01*
X041943Y028808D02*
X041547Y028808D01*
X041628Y028610D02*
X041943Y028610D01*
X041987Y028411D02*
X041628Y028411D01*
X041589Y028213D02*
X042487Y028213D01*
X042501Y028014D02*
X039441Y028014D01*
X039441Y027816D02*
X042519Y027816D01*
X042658Y027617D02*
X039441Y027617D01*
X039441Y027419D02*
X051101Y027419D01*
X051101Y027617D02*
X045664Y027617D01*
X045606Y027559D02*
X045732Y027685D01*
X045801Y027850D01*
X045801Y028030D01*
X045732Y028195D01*
X045606Y028321D01*
X045440Y028390D01*
X045261Y028390D01*
X045096Y028321D01*
X044969Y028195D01*
X044901Y028030D01*
X044901Y027850D01*
X044969Y027685D01*
X045096Y027559D01*
X045261Y027490D01*
X045440Y027490D01*
X045606Y027559D01*
X045786Y027816D02*
X048188Y027816D01*
X048036Y028014D02*
X045801Y028014D01*
X045714Y028213D02*
X048001Y028213D01*
X048055Y028411D02*
X044301Y028411D01*
X044301Y028213D02*
X044987Y028213D01*
X044901Y028014D02*
X044301Y028014D01*
X044282Y027816D02*
X044915Y027816D01*
X045037Y027617D02*
X044144Y027617D01*
X043901Y027940D02*
X042901Y027940D01*
X042901Y028435D01*
X042905Y028390D01*
X042901Y028435D02*
X042401Y028735D01*
X042401Y029178D01*
X042439Y029216D01*
X042921Y030198D02*
X043573Y030198D01*
X043587Y030396D02*
X042708Y030396D01*
X042596Y030640D02*
X043101Y030640D01*
X043561Y030793D02*
X042463Y030793D01*
X042463Y030595D02*
X043701Y030595D01*
X043454Y030992D02*
X042393Y030992D01*
X042113Y031190D02*
X043455Y031190D01*
X043563Y031389D02*
X042794Y031389D01*
X042905Y031587D02*
X043464Y031587D01*
X043451Y031786D02*
X042919Y031786D01*
X042850Y031984D02*
X043451Y031984D01*
X043451Y032183D02*
X042605Y032183D01*
X042421Y031720D02*
X042046Y031720D01*
X041834Y032183D02*
X041668Y032183D01*
X040005Y032740D02*
X039455Y032740D01*
X039453Y032739D01*
X039451Y032738D01*
X039450Y032735D01*
X039451Y032735D02*
X038879Y032735D01*
X038861Y032737D01*
X038843Y032741D01*
X038827Y032749D01*
X038812Y032760D01*
X038799Y032773D01*
X038788Y032788D01*
X038780Y032804D01*
X038776Y032822D01*
X038774Y032840D01*
X038297Y032778D02*
X026591Y032778D01*
X026591Y032977D02*
X038297Y032977D01*
X038306Y033175D02*
X026591Y033175D01*
X026591Y033374D02*
X038485Y033374D01*
X039065Y033374D02*
X039230Y033374D01*
X039552Y033588D02*
X039592Y033588D01*
X039633Y033687D01*
X039717Y033771D01*
X040294Y033771D02*
X040307Y033771D01*
X039905Y033090D02*
X039651Y033090D01*
X039451Y032145D02*
X039451Y031745D01*
X039450Y031745D02*
X039451Y031743D01*
X039453Y031741D01*
X039455Y031740D01*
X039495Y031740D01*
X039495Y031131D01*
X038806Y031131D02*
X038020Y031131D01*
X038020Y031130D02*
X038012Y031132D01*
X038006Y031136D01*
X038002Y031142D01*
X038000Y031150D01*
X038001Y031150D02*
X037411Y031150D01*
X037151Y030890D01*
X036775Y030890D01*
X036027Y030890D02*
X035211Y030890D01*
X035206Y030891D01*
X035202Y030895D01*
X035201Y030900D01*
X034385Y030900D01*
X034380Y030899D01*
X034376Y030895D01*
X034375Y030890D01*
X033627Y030890D02*
X032561Y030890D01*
X032801Y030900D01*
X032811Y029690D02*
X032811Y029150D01*
X032801Y029140D01*
X033551Y029140D01*
X033601Y029090D01*
X033627Y029690D02*
X032811Y029690D01*
X032801Y029680D01*
X034385Y029680D02*
X035201Y029680D01*
X035202Y029685D01*
X035206Y029689D01*
X035211Y029690D01*
X036027Y029690D01*
X036775Y029690D02*
X037977Y029690D01*
X038725Y029223D02*
X038806Y029223D01*
X038806Y029949D01*
X039458Y029404D02*
X039506Y029404D01*
X039450Y029205D02*
X039567Y029205D01*
X039441Y029007D02*
X040002Y029007D01*
X040013Y028808D02*
X039441Y028808D01*
X039441Y028610D02*
X040206Y028610D01*
X040673Y028411D02*
X039441Y028411D01*
X039441Y028213D02*
X040713Y028213D01*
X039441Y027220D02*
X051101Y027220D01*
X051101Y027022D02*
X039441Y027022D01*
X039441Y026823D02*
X051101Y026823D01*
X051101Y026625D02*
X039001Y026625D01*
X039001Y026426D02*
X051101Y026426D01*
X051101Y026228D02*
X038971Y026228D01*
X038826Y026029D02*
X040307Y026029D01*
X040995Y026029D02*
X051101Y026029D01*
X051101Y025831D02*
X041800Y025831D01*
X041828Y025632D02*
X051101Y025632D01*
X051101Y025434D02*
X041981Y025434D01*
X042188Y025235D02*
X051101Y025235D01*
X051101Y025037D02*
X042249Y025037D01*
X042227Y024838D02*
X051101Y024838D01*
X051101Y024640D02*
X042105Y024640D01*
X041804Y024441D02*
X051101Y024441D01*
X051101Y024243D02*
X041804Y024243D01*
X041804Y024044D02*
X051101Y024044D01*
X051101Y023876D02*
X051069Y023845D01*
X051001Y023680D01*
X051001Y023500D01*
X051069Y023335D01*
X051196Y023209D01*
X051361Y023140D01*
X051540Y023140D01*
X051706Y023209D01*
X051832Y023335D01*
X051901Y023500D01*
X051901Y023680D01*
X051832Y023845D01*
X051801Y023876D01*
X051801Y031786D01*
X051911Y031740D01*
X051923Y031740D01*
X051923Y031417D01*
X051951Y031351D01*
X051951Y028750D01*
X052019Y028585D01*
X052146Y028459D01*
X052311Y028390D01*
X052490Y028390D01*
X052656Y028459D01*
X052782Y028585D01*
X052851Y028750D01*
X052851Y031351D01*
X052878Y031417D01*
X052878Y031767D01*
X053237Y031767D01*
X053238Y031767D01*
X053333Y031728D01*
X053768Y031728D01*
X053878Y031773D01*
X053951Y031846D01*
X053951Y023140D01*
X051431Y023140D01*
X051302Y023087D01*
X051204Y022988D01*
X051151Y022860D01*
X051151Y021420D01*
X051204Y021292D01*
X051302Y021193D01*
X051431Y021140D01*
X056601Y021140D01*
X056601Y020586D01*
X056590Y020590D01*
X056411Y020590D01*
X056246Y020521D01*
X056119Y020395D01*
X056051Y020230D01*
X056051Y020050D01*
X056119Y019885D01*
X056246Y019759D01*
X056411Y019690D01*
X056590Y019690D01*
X056601Y019694D01*
X056601Y019200D01*
X056669Y019035D01*
X056796Y018909D01*
X056961Y018840D01*
X058940Y018840D01*
X059106Y018909D01*
X059232Y019035D01*
X059301Y019200D01*
X059301Y019340D01*
X062672Y019340D01*
X064101Y017996D01*
X064101Y015300D01*
X064126Y015240D01*
X059880Y015240D01*
X059301Y016036D01*
X059301Y018080D01*
X059232Y018245D01*
X059106Y018371D01*
X058940Y018440D01*
X056961Y018440D01*
X056796Y018371D01*
X056669Y018245D01*
X056601Y018080D01*
X056601Y016640D01*
X055281Y016640D01*
X055152Y016587D01*
X055054Y016488D01*
X055001Y016360D01*
X055001Y013820D01*
X055054Y013692D01*
X055152Y013593D01*
X055281Y013540D01*
X056720Y013540D01*
X056849Y013593D01*
X056947Y013692D01*
X057001Y013820D01*
X057001Y014630D01*
X059759Y011159D01*
X059769Y011135D01*
X059814Y011090D01*
X059854Y011040D01*
X059877Y011027D01*
X059896Y011009D01*
X059955Y010984D01*
X060011Y010953D01*
X060037Y010950D01*
X060061Y010940D01*
X060125Y010940D01*
X060188Y010933D01*
X060214Y010940D01*
X065940Y010940D01*
X066106Y011009D01*
X066736Y011639D01*
X066736Y011135D01*
X067096Y010775D01*
X067605Y010775D01*
X067966Y011135D01*
X067966Y011640D01*
X068736Y011640D01*
X068736Y011135D01*
X069096Y010775D01*
X069605Y010775D01*
X069966Y011135D01*
X069966Y011645D01*
X069962Y011649D01*
X070106Y011709D01*
X070232Y011835D01*
X070301Y012000D01*
X070301Y012780D01*
X070255Y012890D01*
X070301Y013000D01*
X070301Y013780D01*
X070232Y013945D01*
X070106Y014071D01*
X069962Y014131D01*
X069966Y014135D01*
X069966Y014645D01*
X069720Y014890D01*
X069966Y015135D01*
X069966Y015645D01*
X069720Y015890D01*
X069966Y016135D01*
X069966Y016645D01*
X069720Y016890D01*
X069966Y017135D01*
X069966Y017645D01*
X069720Y017890D01*
X069966Y018135D01*
X069966Y018645D01*
X069720Y018890D01*
X069966Y019135D01*
X069966Y019645D01*
X069720Y019890D01*
X069966Y020135D01*
X069966Y020645D01*
X069720Y020890D01*
X069966Y021135D01*
X069966Y021645D01*
X069720Y021890D01*
X069966Y022135D01*
X069966Y022645D01*
X069720Y022890D01*
X069966Y023135D01*
X069966Y023645D01*
X069720Y023890D01*
X069966Y024135D01*
X069966Y024645D01*
X069720Y024890D01*
X069966Y025135D01*
X069966Y025645D01*
X069720Y025890D01*
X069966Y026135D01*
X069966Y026645D01*
X069720Y026890D01*
X069966Y027135D01*
X069966Y027645D01*
X069720Y027890D01*
X069966Y028135D01*
X069966Y028645D01*
X069720Y028890D01*
X069966Y029135D01*
X069966Y029645D01*
X069720Y029890D01*
X069966Y030135D01*
X069966Y030645D01*
X069720Y030890D01*
X069966Y031135D01*
X069966Y031645D01*
X069720Y031890D01*
X069966Y032135D01*
X069966Y032645D01*
X069720Y032890D01*
X069966Y033135D01*
X069966Y033645D01*
X069720Y033890D01*
X069966Y034135D01*
X069966Y034645D01*
X069720Y034890D01*
X069966Y035135D01*
X069966Y035645D01*
X069720Y035890D01*
X069966Y036135D01*
X069966Y036645D01*
X069720Y036890D01*
X069966Y037135D01*
X069966Y037645D01*
X069720Y037890D01*
X069966Y038135D01*
X069966Y038645D01*
X069720Y038890D01*
X069966Y039135D01*
X069966Y039645D01*
X069720Y039890D01*
X069966Y040135D01*
X069966Y040645D01*
X069720Y040890D01*
X069966Y041135D01*
X069966Y041645D01*
X069605Y042005D01*
X069096Y042005D01*
X068736Y041645D01*
X068736Y041135D01*
X068981Y040890D01*
X068736Y040645D01*
X068736Y040135D01*
X068981Y039890D01*
X068736Y039645D01*
X068736Y039135D01*
X068981Y038890D01*
X068736Y038645D01*
X068736Y038135D01*
X068981Y037890D01*
X068736Y037645D01*
X068736Y037135D01*
X068981Y036890D01*
X068736Y036645D01*
X068736Y036135D01*
X068981Y035890D01*
X068736Y035645D01*
X068736Y035135D01*
X068981Y034890D01*
X068736Y034645D01*
X068736Y034135D01*
X068981Y033890D01*
X068736Y033645D01*
X068736Y033135D01*
X068981Y032890D01*
X068736Y032645D01*
X068736Y032135D01*
X068981Y031890D01*
X068736Y031645D01*
X068736Y031135D01*
X068981Y030890D01*
X068736Y030645D01*
X068736Y030135D01*
X068981Y029890D01*
X068736Y029645D01*
X068736Y029135D01*
X068981Y028890D01*
X068736Y028645D01*
X068736Y028135D01*
X068981Y027890D01*
X068736Y027645D01*
X068736Y027135D01*
X068981Y026890D01*
X068736Y026645D01*
X068736Y026135D01*
X068981Y025890D01*
X068736Y025645D01*
X068736Y025135D01*
X068981Y024890D01*
X068736Y024645D01*
X068736Y024135D01*
X068981Y023890D01*
X068736Y023645D01*
X068736Y023135D01*
X068981Y022890D01*
X068736Y022645D01*
X068736Y022135D01*
X068981Y021890D01*
X068736Y021645D01*
X068736Y021135D01*
X068981Y020890D01*
X068736Y020645D01*
X068736Y020135D01*
X068981Y019890D01*
X068736Y019645D01*
X068736Y019135D01*
X068981Y018890D01*
X068831Y018740D01*
X067870Y018740D01*
X067720Y018890D01*
X067966Y019135D01*
X067966Y019645D01*
X067720Y019890D01*
X067966Y020135D01*
X067966Y020645D01*
X067720Y020890D01*
X067966Y021135D01*
X067966Y021645D01*
X067720Y021890D01*
X067966Y022135D01*
X067966Y022645D01*
X067720Y022890D01*
X067966Y023135D01*
X067966Y023645D01*
X067720Y023890D01*
X067966Y024135D01*
X067966Y024645D01*
X067720Y024890D01*
X067966Y025135D01*
X067966Y025645D01*
X067720Y025890D01*
X067966Y026135D01*
X067966Y026645D01*
X067720Y026890D01*
X067966Y027135D01*
X067966Y027645D01*
X067720Y027890D01*
X067966Y028135D01*
X067966Y028645D01*
X067720Y028890D01*
X067966Y029135D01*
X067966Y029645D01*
X067720Y029890D01*
X067966Y030135D01*
X067966Y030645D01*
X067720Y030890D01*
X067966Y031135D01*
X067966Y031645D01*
X067720Y031890D01*
X067966Y032135D01*
X067966Y032645D01*
X067720Y032890D01*
X067966Y033135D01*
X067966Y033645D01*
X067720Y033890D01*
X067966Y034135D01*
X067966Y034645D01*
X067720Y034890D01*
X067966Y035135D01*
X067966Y035645D01*
X067720Y035890D01*
X067966Y036135D01*
X067966Y036645D01*
X067720Y036890D01*
X067966Y037135D01*
X067966Y037645D01*
X067720Y037890D01*
X067966Y038135D01*
X067966Y038645D01*
X067720Y038890D01*
X067966Y039135D01*
X067966Y039645D01*
X067720Y039890D01*
X067966Y040135D01*
X067966Y040645D01*
X067720Y040890D01*
X067966Y041135D01*
X067966Y041645D01*
X067605Y042005D01*
X067096Y042005D01*
X066736Y041645D01*
X066736Y041135D01*
X066981Y040890D01*
X066736Y040645D01*
X066736Y040135D01*
X066981Y039890D01*
X066736Y039645D01*
X066736Y039135D01*
X066981Y038890D01*
X066736Y038645D01*
X066736Y038135D01*
X066981Y037890D01*
X066736Y037645D01*
X066736Y037135D01*
X066981Y036890D01*
X066736Y036645D01*
X066736Y036135D01*
X066981Y035890D01*
X066736Y035645D01*
X066736Y035135D01*
X066981Y034890D01*
X066736Y034645D01*
X066736Y034135D01*
X066981Y033890D01*
X066736Y033645D01*
X066736Y033135D01*
X066981Y032890D01*
X066736Y032645D01*
X066736Y032135D01*
X066981Y031890D01*
X066736Y031645D01*
X066736Y031135D01*
X066981Y030890D01*
X066736Y030645D01*
X066736Y030135D01*
X066981Y029890D01*
X066736Y029645D01*
X066736Y029135D01*
X066981Y028890D01*
X066736Y028645D01*
X066736Y028135D01*
X066981Y027890D01*
X066736Y027645D01*
X066736Y027135D01*
X066981Y026890D01*
X066736Y026645D01*
X066736Y026135D01*
X066981Y025890D01*
X066736Y025645D01*
X066736Y025135D01*
X066981Y024890D01*
X066736Y024645D01*
X066736Y024135D01*
X066981Y023890D01*
X066736Y023645D01*
X066736Y023135D01*
X066981Y022890D01*
X066736Y022645D01*
X066736Y022135D01*
X066981Y021890D01*
X066736Y021645D01*
X066736Y021135D01*
X066981Y020890D01*
X066833Y020742D01*
X066832Y020745D01*
X066706Y020871D01*
X064606Y022971D01*
X064440Y023040D01*
X056996Y023040D01*
X056949Y023087D01*
X056820Y023140D01*
X054851Y023140D01*
X054851Y032930D01*
X054782Y033095D01*
X054182Y033695D01*
X054056Y033821D01*
X053890Y033890D01*
X053514Y033890D01*
X053514Y034002D01*
X053516Y034006D01*
X053516Y034567D01*
X053551Y034650D01*
X053551Y034830D01*
X053482Y034995D01*
X053356Y035121D01*
X053190Y035190D01*
X053011Y035190D01*
X052846Y035121D01*
X052829Y035105D01*
X052828Y035107D01*
X052718Y035152D01*
X052283Y035152D01*
X052173Y035107D01*
X052089Y035022D01*
X052043Y034912D01*
X052043Y034478D01*
X052085Y034376D01*
X052085Y033356D01*
X052087Y033352D01*
X052087Y033305D01*
X051962Y033305D01*
X051925Y033290D01*
X051911Y033290D01*
X051746Y033221D01*
X051630Y033106D01*
X051601Y033135D01*
X051601Y033180D01*
X051532Y033345D01*
X051406Y033471D01*
X051240Y033540D01*
X051061Y033540D01*
X050896Y033471D01*
X050769Y033345D01*
X050701Y033180D01*
X050701Y033000D01*
X050769Y032835D01*
X050896Y032709D01*
X051061Y032640D01*
X051101Y032640D01*
X051101Y023876D01*
X051070Y023846D02*
X041690Y023846D01*
X041497Y023647D02*
X051001Y023647D01*
X051022Y023449D02*
X041668Y023449D01*
X041749Y023250D02*
X051154Y023250D01*
X051268Y023052D02*
X041773Y023052D01*
X041744Y022853D02*
X051151Y022853D01*
X051151Y022655D02*
X043922Y022655D01*
X043932Y022645D02*
X043806Y022771D01*
X043640Y022840D01*
X043461Y022840D01*
X043296Y022771D01*
X043169Y022645D01*
X043101Y022480D01*
X043101Y022300D01*
X043169Y022135D01*
X043296Y022009D01*
X043461Y021940D01*
X043640Y021940D01*
X043806Y022009D01*
X043932Y022135D01*
X044001Y022300D01*
X044001Y022480D01*
X043932Y022645D01*
X044001Y022456D02*
X051151Y022456D01*
X051151Y022258D02*
X043983Y022258D01*
X043856Y022059D02*
X051151Y022059D01*
X051151Y021861D02*
X034741Y021861D01*
X034461Y021861D02*
X021751Y021861D01*
X021751Y022059D02*
X034209Y022059D01*
X034151Y022258D02*
X021678Y022258D01*
X021751Y021662D02*
X051151Y021662D01*
X051151Y021464D02*
X021707Y021464D01*
X021501Y021265D02*
X051230Y021265D01*
X051761Y020599D02*
X051592Y020430D01*
X051501Y020209D01*
X051501Y019971D01*
X051592Y019750D01*
X051761Y019581D01*
X051981Y019490D01*
X052820Y019490D01*
X053041Y019581D01*
X053209Y019750D01*
X053301Y019971D01*
X053301Y020209D01*
X053209Y020430D01*
X053041Y020599D01*
X052820Y020690D01*
X051981Y020690D01*
X051761Y020599D01*
X051633Y020471D02*
X021501Y020471D01*
X021501Y020273D02*
X051527Y020273D01*
X051501Y020074D02*
X021501Y020074D01*
X021501Y019876D02*
X051540Y019876D01*
X051665Y019677D02*
X021501Y019677D01*
X021501Y019479D02*
X056601Y019479D01*
X056601Y019677D02*
X053137Y019677D01*
X053261Y019876D02*
X056128Y019876D01*
X056051Y020074D02*
X053301Y020074D01*
X053274Y020273D02*
X056069Y020273D01*
X056196Y020471D02*
X053168Y020471D01*
X052869Y020670D02*
X056601Y020670D01*
X056601Y020868D02*
X021501Y020868D01*
X021501Y020670D02*
X051933Y020670D01*
X051747Y023250D02*
X053951Y023250D01*
X053951Y023449D02*
X051879Y023449D01*
X051901Y023647D02*
X053951Y023647D01*
X053951Y023846D02*
X051831Y023846D01*
X051801Y024044D02*
X053951Y024044D01*
X053951Y024243D02*
X051801Y024243D01*
X051801Y024441D02*
X053951Y024441D01*
X053951Y024640D02*
X051801Y024640D01*
X051801Y024838D02*
X053951Y024838D01*
X053951Y025037D02*
X051801Y025037D01*
X051801Y025235D02*
X053951Y025235D01*
X053951Y025434D02*
X051801Y025434D01*
X051801Y025632D02*
X053951Y025632D01*
X053951Y025831D02*
X051801Y025831D01*
X051801Y026029D02*
X053951Y026029D01*
X053951Y026228D02*
X051801Y026228D01*
X051801Y026426D02*
X053951Y026426D01*
X053951Y026625D02*
X051801Y026625D01*
X051801Y026823D02*
X053951Y026823D01*
X053951Y027022D02*
X051801Y027022D01*
X051801Y027220D02*
X053951Y027220D01*
X053951Y027419D02*
X051801Y027419D01*
X051801Y027617D02*
X053951Y027617D01*
X053951Y027816D02*
X051801Y027816D01*
X051801Y028014D02*
X053951Y028014D01*
X053951Y028213D02*
X051801Y028213D01*
X051801Y028411D02*
X052259Y028411D01*
X052542Y028411D02*
X053951Y028411D01*
X053951Y028610D02*
X052792Y028610D01*
X052851Y028808D02*
X053951Y028808D01*
X053951Y029007D02*
X052851Y029007D01*
X052851Y029205D02*
X053951Y029205D01*
X053951Y029404D02*
X052851Y029404D01*
X052851Y029602D02*
X053951Y029602D01*
X053951Y029801D02*
X052851Y029801D01*
X052851Y029999D02*
X053951Y029999D01*
X053951Y030198D02*
X052851Y030198D01*
X052851Y030396D02*
X053951Y030396D01*
X053951Y030595D02*
X052851Y030595D01*
X052851Y030793D02*
X053951Y030793D01*
X053951Y030992D02*
X052851Y030992D01*
X052851Y031190D02*
X053951Y031190D01*
X053951Y031389D02*
X052866Y031389D01*
X052878Y031587D02*
X053951Y031587D01*
X053951Y031786D02*
X053890Y031786D01*
X054851Y031786D02*
X066877Y031786D01*
X066887Y031984D02*
X054851Y031984D01*
X054851Y032183D02*
X066736Y032183D01*
X066736Y032381D02*
X054851Y032381D01*
X054851Y032580D02*
X066736Y032580D01*
X066869Y032778D02*
X054851Y032778D01*
X054831Y032977D02*
X066894Y032977D01*
X066736Y033175D02*
X054702Y033175D01*
X054503Y033374D02*
X066736Y033374D01*
X066736Y033572D02*
X054305Y033572D01*
X054106Y033771D02*
X066862Y033771D01*
X066901Y033969D02*
X053514Y033969D01*
X053516Y034168D02*
X066736Y034168D01*
X066736Y034366D02*
X062479Y034366D01*
X062476Y034364D02*
X062798Y034686D01*
X062798Y035141D01*
X062632Y035307D01*
X062798Y035473D01*
X062798Y035929D01*
X062632Y036095D01*
X062798Y036261D01*
X062798Y036716D01*
X062632Y036882D01*
X062798Y037048D01*
X062798Y037504D01*
X062632Y037670D01*
X062798Y037835D01*
X062798Y038291D01*
X062632Y038457D01*
X062798Y038623D01*
X062798Y039078D01*
X062632Y039244D01*
X062798Y039410D01*
X062798Y039866D01*
X062632Y040032D01*
X062798Y040198D01*
X062798Y040653D01*
X062746Y040706D01*
X062746Y041309D01*
X062764Y041353D01*
X062764Y041827D01*
X062746Y041871D01*
X062746Y043990D01*
X062768Y044013D01*
X062844Y044196D01*
X062844Y044394D01*
X062768Y044577D01*
X062628Y044717D01*
X062445Y044793D01*
X062247Y044793D01*
X062064Y044717D01*
X061924Y044577D01*
X061848Y044394D01*
X061848Y044196D01*
X061924Y044013D01*
X061946Y043990D01*
X061946Y042062D01*
X061933Y042067D01*
X061578Y042067D01*
X061467Y042021D01*
X061438Y041992D01*
X061387Y042013D01*
X060914Y042013D01*
X060870Y041995D01*
X055582Y041995D01*
X055506Y042071D01*
X055340Y042140D01*
X055161Y042140D01*
X054996Y042071D01*
X054869Y041945D01*
X054801Y041780D01*
X054801Y041600D01*
X054869Y041435D01*
X054996Y041309D01*
X055116Y041259D01*
X055119Y041256D01*
X055266Y041195D01*
X060870Y041195D01*
X060914Y041177D01*
X061387Y041177D01*
X061420Y041190D01*
X061436Y041190D01*
X061467Y041159D01*
X061578Y041113D01*
X061933Y041113D01*
X061946Y041118D01*
X061946Y040901D01*
X061855Y040810D01*
X061689Y040975D01*
X061233Y040975D01*
X061067Y040810D01*
X060901Y040975D01*
X060446Y040975D01*
X060123Y040653D01*
X060123Y040198D01*
X060289Y040032D01*
X060123Y039866D01*
X060123Y039560D01*
X060036Y039466D01*
X059992Y039423D01*
X059990Y039417D01*
X059986Y039413D01*
X059964Y039355D01*
X059941Y039298D01*
X059941Y039292D01*
X059939Y039286D01*
X059941Y039224D01*
X059941Y035232D01*
X059992Y035107D01*
X060123Y034976D01*
X060123Y034686D01*
X060446Y034364D01*
X060901Y034364D01*
X061067Y034530D01*
X061233Y034364D01*
X061689Y034364D01*
X061855Y034530D01*
X062020Y034364D01*
X062476Y034364D01*
X062677Y034565D02*
X066736Y034565D01*
X066854Y034763D02*
X062798Y034763D01*
X062798Y034962D02*
X066909Y034962D01*
X066736Y035160D02*
X062779Y035160D01*
X062684Y035359D02*
X066736Y035359D01*
X066736Y035557D02*
X062798Y035557D01*
X062798Y035756D02*
X066847Y035756D01*
X066916Y035954D02*
X062773Y035954D01*
X062691Y036153D02*
X066736Y036153D01*
X066736Y036351D02*
X062798Y036351D01*
X062798Y036550D02*
X066736Y036550D01*
X066839Y036748D02*
X062766Y036748D01*
X062697Y036947D02*
X066924Y036947D01*
X066736Y037145D02*
X062798Y037145D01*
X062798Y037344D02*
X066736Y037344D01*
X066736Y037542D02*
X062760Y037542D01*
X062704Y037741D02*
X066832Y037741D01*
X066931Y037939D02*
X062798Y037939D01*
X062798Y038138D02*
X066736Y038138D01*
X066736Y038336D02*
X062753Y038336D01*
X062710Y038535D02*
X066736Y038535D01*
X066824Y038733D02*
X062798Y038733D01*
X062798Y038932D02*
X066939Y038932D01*
X066740Y039130D02*
X062746Y039130D01*
X062717Y039329D02*
X066736Y039329D01*
X066736Y039527D02*
X062798Y039527D01*
X062798Y039726D02*
X066817Y039726D01*
X066946Y039924D02*
X062740Y039924D01*
X062724Y040123D02*
X066748Y040123D01*
X066736Y040321D02*
X062798Y040321D01*
X062798Y040520D02*
X066736Y040520D01*
X066809Y040718D02*
X062746Y040718D01*
X062746Y040917D02*
X066954Y040917D01*
X066755Y041115D02*
X062746Y041115D01*
X062748Y041314D02*
X066736Y041314D01*
X066736Y041512D02*
X062764Y041512D01*
X062764Y041711D02*
X066802Y041711D01*
X067000Y041909D02*
X062746Y041909D01*
X062746Y042108D02*
X071151Y042108D01*
X071151Y042306D02*
X062746Y042306D01*
X062746Y042505D02*
X071151Y042505D01*
X071151Y042703D02*
X062746Y042703D01*
X062746Y042902D02*
X071151Y042902D01*
X071151Y043100D02*
X062746Y043100D01*
X062746Y043299D02*
X071151Y043299D01*
X071151Y043497D02*
X062746Y043497D01*
X062746Y043696D02*
X069843Y043696D01*
X069644Y043894D02*
X062746Y043894D01*
X062801Y044093D02*
X069554Y044093D01*
X069501Y044291D02*
X062844Y044291D01*
X062804Y044490D02*
X069501Y044490D01*
X069554Y044688D02*
X062657Y044688D01*
X062346Y044295D02*
X062346Y041590D01*
X062346Y040523D01*
X062248Y040425D01*
X061946Y040917D02*
X061747Y040917D01*
X061571Y041115D02*
X054086Y041115D01*
X054059Y041050D02*
X054151Y041271D01*
X054151Y042109D01*
X054059Y042330D01*
X053891Y042499D01*
X053670Y042590D01*
X053431Y042590D01*
X053211Y042499D01*
X053051Y042339D01*
X052891Y042499D01*
X052670Y042590D01*
X052431Y042590D01*
X052211Y042499D01*
X052051Y042339D01*
X051891Y042499D01*
X051670Y042590D01*
X051431Y042590D01*
X051211Y042499D01*
X051051Y042339D01*
X050931Y042459D01*
X050931Y042822D01*
X050949Y042867D01*
X050949Y043090D01*
X051040Y043090D01*
X051206Y043159D01*
X051332Y043285D01*
X051401Y043450D01*
X051401Y043630D01*
X051332Y043795D01*
X051206Y043921D01*
X051040Y043990D01*
X050861Y043990D01*
X050814Y043970D01*
X050709Y044014D01*
X050393Y044014D01*
X050282Y043968D01*
X050198Y043884D01*
X050152Y043774D01*
X050152Y043379D01*
X050176Y043320D01*
X050152Y043262D01*
X050152Y042867D01*
X050171Y042822D01*
X050171Y042459D01*
X050042Y042330D01*
X049951Y042109D01*
X049951Y041271D01*
X050042Y041050D01*
X050211Y040881D01*
X050431Y040790D01*
X050670Y040790D01*
X050891Y040881D01*
X051051Y041041D01*
X051211Y040881D01*
X051431Y040790D01*
X051670Y040790D01*
X051891Y040881D01*
X052051Y041041D01*
X052211Y040881D01*
X052431Y040790D01*
X052670Y040790D01*
X052866Y040871D01*
X052185Y040190D01*
X048285Y040190D01*
X048273Y040202D01*
X048163Y040247D01*
X047828Y040247D01*
X047828Y040573D01*
X047782Y040683D01*
X047775Y040690D01*
X047782Y040697D01*
X047828Y040807D01*
X047828Y041163D01*
X047782Y041273D01*
X047771Y041285D01*
X047771Y042828D01*
X047801Y042900D01*
X047801Y043080D01*
X047732Y043245D01*
X047606Y043371D01*
X047440Y043440D01*
X047261Y043440D01*
X047096Y043371D01*
X046969Y043245D01*
X046901Y043080D01*
X046901Y042900D01*
X046931Y042828D01*
X046931Y041285D01*
X046919Y041273D01*
X046873Y041163D01*
X046873Y040807D01*
X046919Y040697D01*
X046926Y040690D01*
X046919Y040683D01*
X046873Y040573D01*
X046873Y040240D01*
X046861Y040240D01*
X046696Y040171D01*
X046569Y040045D01*
X046501Y039880D01*
X046501Y039700D01*
X046569Y039535D01*
X046696Y039409D01*
X046861Y039340D01*
X047040Y039340D01*
X047080Y039357D01*
X047138Y039333D01*
X047573Y039333D01*
X047651Y039365D01*
X047729Y039333D01*
X048163Y039333D01*
X048273Y039378D01*
X048285Y039390D01*
X052430Y039390D01*
X052577Y039451D01*
X053890Y040763D01*
X053951Y040910D01*
X053951Y040941D01*
X054059Y041050D01*
X053951Y040917D02*
X060387Y040917D01*
X060189Y040718D02*
X053845Y040718D01*
X053646Y040520D02*
X060123Y040520D01*
X060123Y040321D02*
X053448Y040321D01*
X053249Y040123D02*
X060198Y040123D01*
X060182Y039924D02*
X053051Y039924D01*
X052852Y039726D02*
X060123Y039726D01*
X060093Y039527D02*
X052654Y039527D01*
X052351Y039790D02*
X053551Y040990D01*
X054151Y041314D02*
X054990Y041314D01*
X054837Y041512D02*
X054151Y041512D01*
X054151Y041711D02*
X054801Y041711D01*
X054854Y041909D02*
X054151Y041909D01*
X054151Y042108D02*
X055084Y042108D01*
X055418Y042108D02*
X061946Y042108D01*
X061946Y042306D02*
X054069Y042306D01*
X053875Y042505D02*
X061946Y042505D01*
X061946Y042703D02*
X050931Y042703D01*
X050931Y042505D02*
X051226Y042505D01*
X050949Y042902D02*
X061946Y042902D01*
X061946Y043100D02*
X051065Y043100D01*
X051338Y043299D02*
X061946Y043299D01*
X061946Y043497D02*
X051401Y043497D01*
X051373Y043696D02*
X061946Y043696D01*
X061946Y043894D02*
X051233Y043894D01*
X050208Y043894D02*
X039194Y043894D01*
X039201Y043880D02*
X039132Y044045D01*
X039006Y044171D01*
X038840Y044240D01*
X038661Y044240D01*
X038574Y044204D01*
X038550Y044204D01*
X038459Y044242D01*
X038143Y044242D01*
X038032Y044196D01*
X037955Y044196D01*
X037969Y044201D01*
X038053Y044286D01*
X038099Y044396D01*
X038099Y044732D01*
X038053Y044842D01*
X037969Y044927D01*
X037858Y044972D01*
X037267Y044972D01*
X037198Y044944D01*
X037149Y044944D01*
X037009Y044886D01*
X036997Y044874D01*
X036945Y044927D01*
X036835Y044972D01*
X036243Y044972D01*
X036133Y044927D01*
X036048Y044842D01*
X036003Y044732D01*
X036003Y044396D01*
X036045Y044293D01*
X035435Y044293D01*
X035325Y044247D01*
X035314Y044236D01*
X035303Y044262D01*
X035219Y044346D01*
X035109Y044392D01*
X034793Y044392D01*
X034701Y044354D01*
X032785Y044354D01*
X032638Y044293D01*
X031505Y043160D01*
X031265Y043160D01*
X030931Y042826D01*
X030931Y042354D01*
X031195Y042090D01*
X030931Y041826D01*
X030931Y041354D01*
X031195Y041090D01*
X030931Y040826D01*
X030931Y040354D01*
X031195Y040090D01*
X030931Y039826D01*
X030931Y039354D01*
X031265Y039020D01*
X031737Y039020D01*
X032001Y039284D01*
X032265Y039020D01*
X032737Y039020D01*
X033071Y039354D01*
X033071Y039540D01*
X036520Y039540D01*
X036649Y039593D01*
X036747Y039692D01*
X036801Y039745D01*
X036801Y039600D01*
X036869Y039435D01*
X036996Y039309D01*
X037161Y039240D01*
X037340Y039240D01*
X037506Y039309D01*
X037632Y039435D01*
X037701Y039600D01*
X037701Y039780D01*
X037632Y039945D01*
X037601Y039976D01*
X037601Y040340D01*
X037706Y040340D01*
X037801Y040245D01*
X037801Y040076D01*
X037769Y040045D01*
X037701Y039880D01*
X037701Y039700D01*
X037769Y039535D01*
X037896Y039409D01*
X038061Y039340D01*
X038240Y039340D01*
X038406Y039409D01*
X038532Y039535D01*
X038601Y039700D01*
X038601Y039880D01*
X038534Y040040D01*
X038640Y040040D01*
X038806Y040109D01*
X038932Y040235D01*
X039001Y040400D01*
X039001Y040580D01*
X038976Y040640D01*
X039040Y040640D01*
X039206Y040709D01*
X039332Y040835D01*
X039401Y041000D01*
X039401Y041180D01*
X039332Y041345D01*
X039206Y041471D01*
X039040Y041540D01*
X038934Y041540D01*
X039001Y041700D01*
X039001Y041880D01*
X038932Y042045D01*
X038891Y042086D01*
X038967Y042163D01*
X039013Y042273D01*
X039013Y042707D01*
X038967Y042817D01*
X038883Y042902D01*
X038773Y042947D01*
X038338Y042947D01*
X038228Y042902D01*
X038092Y042902D01*
X038097Y042890D02*
X038068Y042960D01*
X037620Y043408D01*
X037858Y043408D01*
X037927Y043436D01*
X038008Y043436D01*
X038032Y043412D01*
X038143Y043366D01*
X038459Y043366D01*
X038529Y043395D01*
X038661Y043340D01*
X038840Y043340D01*
X039006Y043409D01*
X039132Y043535D01*
X039201Y043700D01*
X039201Y043880D01*
X039199Y043696D02*
X050152Y043696D01*
X050152Y043497D02*
X039094Y043497D01*
X038751Y043790D02*
X038737Y043804D01*
X038301Y043804D01*
X038275Y044290D02*
X038301Y044316D01*
X038275Y044290D02*
X038101Y044290D01*
X038001Y044190D01*
X037562Y044190D01*
X038055Y044291D02*
X061848Y044291D01*
X061890Y044093D02*
X039084Y044093D01*
X038099Y044490D02*
X061888Y044490D01*
X062035Y044688D02*
X038099Y044688D01*
X038008Y044887D02*
X069645Y044887D01*
X069844Y045085D02*
X013751Y045085D01*
X013751Y044887D02*
X036093Y044887D01*
X036003Y044688D02*
X013751Y044688D01*
X013751Y044490D02*
X036003Y044490D01*
X035431Y044291D02*
X035273Y044291D01*
X034951Y043954D02*
X035088Y043816D01*
X035751Y043816D01*
X036539Y043816D01*
X036671Y043408D02*
X036243Y043408D01*
X036223Y043416D01*
X036208Y043416D01*
X036176Y043384D01*
X036101Y043353D01*
X036101Y043135D01*
X036723Y042512D01*
X036737Y042546D01*
X036737Y042727D01*
X036783Y042837D01*
X036867Y042921D01*
X036978Y042967D01*
X036986Y042967D01*
X036835Y043118D01*
X036728Y043225D01*
X036671Y043364D01*
X036671Y043408D01*
X036698Y043299D02*
X036101Y043299D01*
X036135Y043100D02*
X036853Y043100D01*
X036848Y042902D02*
X036334Y042902D01*
X036532Y042703D02*
X036737Y042703D01*
X035939Y042306D02*
X034729Y042306D01*
X034747Y042288D02*
X034649Y042387D01*
X034520Y042440D01*
X032071Y042440D01*
X032071Y042594D01*
X033030Y043554D01*
X034701Y043554D01*
X034793Y043516D01*
X034823Y043516D01*
X034862Y043477D01*
X035009Y043416D01*
X035293Y043416D01*
X035325Y043384D01*
X035401Y043353D01*
X035401Y042920D01*
X035454Y042792D01*
X035552Y042693D01*
X036305Y041940D01*
X036305Y041635D01*
X035400Y041635D01*
X034747Y042288D01*
X034928Y042108D02*
X036138Y042108D01*
X036305Y041909D02*
X035126Y041909D01*
X035325Y041711D02*
X036305Y041711D01*
X036818Y041146D02*
X036852Y041160D01*
X036942Y041123D01*
X037084Y041123D01*
X037084Y040857D01*
X036818Y040857D01*
X036818Y040982D01*
X036818Y041146D01*
X036818Y041115D02*
X037084Y041115D01*
X037084Y040917D02*
X036818Y040917D01*
X037601Y040321D02*
X037724Y040321D01*
X037801Y040123D02*
X037601Y040123D01*
X037641Y039924D02*
X037719Y039924D01*
X037701Y039726D02*
X037701Y039726D01*
X037670Y039527D02*
X037777Y039527D01*
X037526Y039329D02*
X059954Y039329D01*
X059941Y039130D02*
X032847Y039130D01*
X033046Y039329D02*
X036975Y039329D01*
X036831Y039527D02*
X033071Y039527D01*
X032154Y039130D02*
X031847Y039130D01*
X031154Y039130D02*
X026151Y039130D01*
X026151Y038932D02*
X059941Y038932D01*
X059941Y038733D02*
X045044Y038733D01*
X045178Y038535D02*
X059941Y038535D01*
X059941Y038336D02*
X045201Y038336D01*
X045133Y038138D02*
X059941Y038138D01*
X059941Y035954D02*
X026062Y035954D01*
X025959Y035756D02*
X059941Y035756D01*
X059941Y035557D02*
X023201Y035557D01*
X023201Y035359D02*
X059941Y035359D01*
X059970Y035160D02*
X053262Y035160D01*
X053496Y034962D02*
X060123Y034962D01*
X060123Y034763D02*
X053551Y034763D01*
X053516Y034565D02*
X060244Y034565D01*
X060443Y034366D02*
X053516Y034366D01*
X052940Y035160D02*
X049717Y035160D01*
X049867Y034962D02*
X052064Y034962D01*
X052043Y034763D02*
X049901Y034763D01*
X049844Y034565D02*
X052043Y034565D01*
X052085Y034366D02*
X049615Y034366D01*
X049651Y034168D02*
X052085Y034168D01*
X052085Y033969D02*
X049596Y033969D01*
X049365Y033771D02*
X052085Y033771D01*
X052085Y033572D02*
X050307Y033572D01*
X050491Y033374D02*
X050798Y033374D01*
X050701Y033175D02*
X050551Y033175D01*
X050520Y032977D02*
X050710Y032977D01*
X050826Y032778D02*
X050375Y032778D01*
X050375Y032381D02*
X051101Y032381D01*
X051101Y032183D02*
X050408Y032183D01*
X050408Y031984D02*
X051101Y031984D01*
X051101Y031786D02*
X050374Y031786D01*
X049735Y031587D02*
X051101Y031587D01*
X051101Y031389D02*
X049789Y031389D01*
X049988Y031190D02*
X051101Y031190D01*
X051101Y030992D02*
X050178Y030992D01*
X050231Y030793D02*
X051101Y030793D01*
X051101Y030595D02*
X050232Y030595D01*
X050301Y030396D02*
X051101Y030396D01*
X051101Y030198D02*
X050279Y030198D01*
X050146Y029999D02*
X051101Y029999D01*
X051101Y029801D02*
X049431Y029801D01*
X049431Y029999D02*
X049555Y029999D01*
X049431Y029602D02*
X051101Y029602D01*
X051101Y029404D02*
X049431Y029404D01*
X049431Y029205D02*
X051101Y029205D01*
X051101Y029007D02*
X049431Y029007D01*
X049431Y028808D02*
X051101Y028808D01*
X051101Y028610D02*
X049431Y028610D01*
X049487Y028411D02*
X051101Y028411D01*
X051101Y028213D02*
X049501Y028213D01*
X049411Y028014D02*
X051101Y028014D01*
X051101Y027816D02*
X048713Y027816D01*
X048073Y028610D02*
X044301Y028610D01*
X043901Y029040D02*
X043901Y027940D01*
X043496Y028390D02*
X043462Y028673D01*
X043462Y028840D01*
X043462Y029216D01*
X045564Y028808D02*
X045642Y028808D01*
X046678Y028808D02*
X048073Y028808D01*
X048073Y029007D02*
X047702Y029007D01*
X047861Y029205D02*
X048073Y029205D01*
X048073Y029404D02*
X047908Y029404D01*
X047908Y029602D02*
X048073Y029602D01*
X047508Y029447D02*
X047451Y029390D01*
X047508Y029447D02*
X047508Y030300D01*
X049041Y031518D02*
X049251Y031518D01*
X049478Y031518D01*
X049551Y031590D01*
X049714Y032580D02*
X051101Y032580D01*
X051601Y033175D02*
X051700Y033175D01*
X051503Y033374D02*
X052085Y033374D01*
X052952Y032963D02*
X052952Y032682D01*
X052920Y032603D01*
X053237Y032603D01*
X053238Y032603D01*
X053333Y032643D01*
X053768Y032643D01*
X053878Y032597D01*
X053951Y032524D01*
X053951Y032654D01*
X053614Y032990D01*
X053339Y032990D01*
X053274Y032963D01*
X052952Y032963D01*
X052952Y032778D02*
X053826Y032778D01*
X053895Y032580D02*
X053951Y032580D01*
X053627Y032977D02*
X053308Y032977D01*
X051923Y031587D02*
X051801Y031587D01*
X051801Y031389D02*
X051935Y031389D01*
X051951Y031190D02*
X051801Y031190D01*
X051801Y030992D02*
X051951Y030992D01*
X051951Y030793D02*
X051801Y030793D01*
X051801Y030595D02*
X051951Y030595D01*
X051951Y030396D02*
X051801Y030396D01*
X051801Y030198D02*
X051951Y030198D01*
X051951Y029999D02*
X051801Y029999D01*
X051801Y029801D02*
X051951Y029801D01*
X051951Y029602D02*
X051801Y029602D01*
X051801Y029404D02*
X051951Y029404D01*
X051951Y029205D02*
X051801Y029205D01*
X051801Y029007D02*
X051951Y029007D01*
X051951Y028808D02*
X051801Y028808D01*
X051801Y028610D02*
X052009Y028610D01*
X054851Y028610D02*
X055831Y028610D01*
X055831Y028626D02*
X055831Y028154D01*
X056095Y027890D01*
X055831Y027626D01*
X055831Y027154D01*
X056095Y026890D01*
X055831Y026626D01*
X055831Y026154D01*
X056165Y025820D01*
X056637Y025820D01*
X056827Y026010D01*
X058296Y026010D01*
X058328Y025978D01*
X058438Y025933D01*
X058873Y025933D01*
X058983Y025978D01*
X059067Y026063D01*
X059113Y026173D01*
X059113Y026607D01*
X059067Y026717D01*
X058983Y026802D01*
X058873Y026847D01*
X058438Y026847D01*
X058328Y026802D01*
X058296Y026770D01*
X056827Y026770D01*
X056707Y026890D01*
X056827Y027010D01*
X058296Y027010D01*
X058328Y026978D01*
X058438Y026933D01*
X058873Y026933D01*
X058983Y026978D01*
X059067Y027063D01*
X059113Y027173D01*
X059113Y027607D01*
X059067Y027717D01*
X058983Y027802D01*
X058873Y027847D01*
X058438Y027847D01*
X058328Y027802D01*
X058296Y027770D01*
X056827Y027770D01*
X056707Y027890D01*
X056827Y028010D01*
X058296Y028010D01*
X058328Y027978D01*
X058438Y027933D01*
X058873Y027933D01*
X058983Y027978D01*
X059067Y028063D01*
X059113Y028173D01*
X059113Y028607D01*
X059067Y028717D01*
X058983Y028802D01*
X058873Y028847D01*
X058438Y028847D01*
X058328Y028802D01*
X058296Y028770D01*
X056827Y028770D01*
X056707Y028890D01*
X056827Y029010D01*
X058296Y029010D01*
X058328Y028978D01*
X058438Y028933D01*
X058873Y028933D01*
X058983Y028978D01*
X059067Y029063D01*
X059113Y029173D01*
X059113Y029607D01*
X059067Y029717D01*
X058983Y029802D01*
X058873Y029847D01*
X058438Y029847D01*
X058328Y029802D01*
X058296Y029770D01*
X056827Y029770D01*
X056637Y029960D01*
X056165Y029960D01*
X055831Y029626D01*
X055831Y029154D01*
X056095Y028890D01*
X055831Y028626D01*
X055831Y028411D02*
X054851Y028411D01*
X054851Y028213D02*
X055831Y028213D01*
X055970Y028014D02*
X054851Y028014D01*
X054851Y027816D02*
X056020Y027816D01*
X055831Y027617D02*
X054851Y027617D01*
X054851Y027419D02*
X055831Y027419D01*
X055831Y027220D02*
X054851Y027220D01*
X054851Y027022D02*
X055963Y027022D01*
X056028Y026823D02*
X054851Y026823D01*
X054851Y026625D02*
X055831Y026625D01*
X055831Y026426D02*
X054851Y026426D01*
X054851Y026228D02*
X055831Y026228D01*
X055955Y026029D02*
X054851Y026029D01*
X054851Y025831D02*
X056154Y025831D01*
X056648Y025831D02*
X066922Y025831D01*
X066842Y026029D02*
X059034Y026029D01*
X059113Y026228D02*
X066736Y026228D01*
X066736Y026426D02*
X059113Y026426D01*
X059105Y026625D02*
X066736Y026625D01*
X066914Y026823D02*
X058931Y026823D01*
X059026Y027022D02*
X066849Y027022D01*
X066736Y027220D02*
X059113Y027220D01*
X059113Y027419D02*
X066736Y027419D01*
X066736Y027617D02*
X059109Y027617D01*
X058949Y027816D02*
X066907Y027816D01*
X066857Y028014D02*
X059019Y028014D01*
X059113Y028213D02*
X066736Y028213D01*
X066736Y028411D02*
X059113Y028411D01*
X059112Y028610D02*
X066736Y028610D01*
X066899Y028808D02*
X058967Y028808D01*
X059011Y029007D02*
X066864Y029007D01*
X066736Y029205D02*
X059113Y029205D01*
X059113Y029404D02*
X066736Y029404D01*
X066736Y029602D02*
X059113Y029602D01*
X058984Y029801D02*
X066892Y029801D01*
X066872Y029999D02*
X054851Y029999D01*
X054851Y029801D02*
X056005Y029801D01*
X055831Y029602D02*
X054851Y029602D01*
X054851Y029404D02*
X055831Y029404D01*
X055831Y029205D02*
X054851Y029205D01*
X054851Y029007D02*
X055978Y029007D01*
X056013Y028808D02*
X054851Y028808D01*
X054851Y030198D02*
X066736Y030198D01*
X066736Y030396D02*
X054851Y030396D01*
X054851Y030595D02*
X066736Y030595D01*
X066884Y030793D02*
X054851Y030793D01*
X054851Y030992D02*
X066879Y030992D01*
X066736Y031190D02*
X054851Y031190D01*
X054851Y031389D02*
X066736Y031389D01*
X066736Y031587D02*
X054851Y031587D01*
X056796Y029801D02*
X058327Y029801D01*
X058299Y029007D02*
X056824Y029007D01*
X056788Y028808D02*
X058344Y028808D01*
X058362Y027816D02*
X056781Y027816D01*
X056773Y026823D02*
X058380Y026823D01*
X054851Y025632D02*
X066736Y025632D01*
X066736Y025434D02*
X054851Y025434D01*
X054851Y025235D02*
X066736Y025235D01*
X066834Y025037D02*
X054851Y025037D01*
X054851Y024838D02*
X066929Y024838D01*
X066736Y024640D02*
X054851Y024640D01*
X054851Y024441D02*
X066736Y024441D01*
X066736Y024243D02*
X054851Y024243D01*
X054851Y024044D02*
X066827Y024044D01*
X066937Y023846D02*
X054851Y023846D01*
X054851Y023647D02*
X066738Y023647D01*
X066736Y023449D02*
X054851Y023449D01*
X054851Y023250D02*
X066736Y023250D01*
X066819Y023052D02*
X056984Y023052D01*
X056601Y021067D02*
X021501Y021067D01*
X021125Y021890D02*
X020701Y021890D01*
X020196Y021890D01*
X020054Y022456D02*
X034182Y022456D01*
X034204Y022655D02*
X023376Y022655D01*
X023640Y022853D02*
X034149Y022853D01*
X034149Y023052D02*
X023701Y023052D01*
X023671Y023250D02*
X034149Y023250D01*
X034167Y023449D02*
X023751Y023449D01*
X023794Y023647D02*
X034228Y023647D01*
X034173Y023846D02*
X023794Y023846D01*
X023787Y024044D02*
X034173Y024044D01*
X034223Y024243D02*
X023751Y024243D01*
X023751Y024441D02*
X024143Y024441D01*
X023801Y024885D02*
X023351Y025335D01*
X023351Y026590D01*
X023451Y026690D01*
X023451Y027769D01*
X023401Y027819D01*
X022801Y027790D02*
X022496Y027790D01*
X021905Y027790D02*
X021471Y027790D01*
X022477Y026490D02*
X023251Y026490D01*
X023351Y026590D01*
X024524Y025990D02*
X025251Y025990D01*
X025551Y025690D01*
X026193Y026029D02*
X026373Y026029D01*
X026373Y025831D02*
X026276Y025831D01*
X026294Y025632D02*
X026408Y025632D01*
X026259Y025434D02*
X036294Y025434D01*
X036294Y025632D02*
X028679Y025632D01*
X028851Y025831D02*
X036320Y025831D01*
X036375Y026029D02*
X028901Y026029D01*
X028860Y026228D02*
X036231Y026228D01*
X036201Y026426D02*
X028694Y026426D01*
X028208Y026426D02*
X027328Y026426D01*
X027328Y026625D02*
X036196Y026625D01*
X036188Y026823D02*
X027232Y026823D01*
X027339Y028014D02*
X030628Y028014D01*
X030611Y028213D02*
X030322Y028213D01*
X030341Y028411D02*
X030611Y028411D01*
X030611Y028610D02*
X030341Y028610D01*
X030341Y028808D02*
X030611Y028808D01*
X030611Y029007D02*
X030341Y029007D01*
X030341Y029205D02*
X030611Y029205D01*
X030611Y029404D02*
X030341Y029404D01*
X030341Y029602D02*
X030611Y029602D01*
X030611Y029801D02*
X030341Y029801D01*
X030341Y029999D02*
X030611Y029999D01*
X030611Y030198D02*
X030341Y030198D01*
X030341Y030396D02*
X030611Y030396D01*
X030611Y030595D02*
X030341Y030595D01*
X030341Y030793D02*
X030611Y030793D01*
X030611Y030992D02*
X030341Y030992D01*
X030341Y031190D02*
X030611Y031190D01*
X030611Y031389D02*
X030341Y031389D01*
X030341Y031587D02*
X030611Y031587D01*
X030611Y031786D02*
X030341Y031786D01*
X030341Y031984D02*
X030611Y031984D01*
X030341Y032183D02*
X038297Y032183D01*
X038308Y032381D02*
X030341Y032381D01*
X030309Y032580D02*
X038297Y032580D01*
X038211Y031984D02*
X037491Y031984D01*
X038774Y032040D02*
X038776Y032058D01*
X038780Y032076D01*
X038788Y032093D01*
X038799Y032107D01*
X038812Y032120D01*
X038827Y032131D01*
X038843Y032139D01*
X038861Y032143D01*
X038879Y032145D01*
X039451Y032145D01*
X041153Y033969D02*
X026569Y033969D01*
X025118Y034423D02*
X025101Y034440D01*
X023201Y034366D02*
X041323Y034366D01*
X041185Y034168D02*
X023201Y034168D01*
X023201Y035160D02*
X047385Y035160D01*
X047235Y034962D02*
X046515Y034962D01*
X046666Y034763D02*
X046688Y034763D01*
X047917Y035160D02*
X048352Y035160D01*
X048085Y034962D02*
X048067Y034962D01*
X048863Y033771D02*
X049037Y033771D01*
X048863Y033572D02*
X049394Y033572D01*
X046250Y031890D02*
X046249Y031877D01*
X046244Y031865D01*
X046238Y031854D01*
X046229Y031845D01*
X046218Y031839D01*
X046206Y031834D01*
X046193Y031833D01*
X045661Y031833D01*
X045293Y031833D01*
X045051Y031590D01*
X045111Y031587D02*
X044398Y031587D01*
X044597Y031389D02*
X044955Y031389D01*
X044954Y031388D02*
X044804Y031238D01*
X044787Y031198D01*
X044151Y031835D01*
X044151Y032645D01*
X044246Y032740D01*
X044501Y032740D01*
X044501Y032700D01*
X044569Y032535D01*
X044620Y032484D01*
X044588Y032407D01*
X044588Y031973D01*
X044634Y031863D01*
X044718Y031778D01*
X044829Y031733D01*
X045129Y031733D01*
X045111Y031687D01*
X045111Y031511D01*
X045052Y031487D01*
X044954Y031388D01*
X044711Y031786D02*
X044200Y031786D01*
X044151Y031984D02*
X044588Y031984D01*
X044588Y032183D02*
X044151Y032183D01*
X044151Y032381D02*
X044588Y032381D01*
X044551Y032580D02*
X044151Y032580D01*
X044951Y032790D02*
X044963Y032777D01*
X045661Y032777D01*
X045661Y032147D02*
X045053Y032147D01*
X045046Y032190D01*
X044324Y038535D02*
X026151Y038535D01*
X026151Y038733D02*
X044458Y038733D01*
X046577Y039527D02*
X038524Y039527D01*
X038601Y039726D02*
X046501Y039726D01*
X046519Y039924D02*
X038582Y039924D01*
X038820Y040123D02*
X046647Y040123D01*
X046873Y040321D02*
X038968Y040321D01*
X039001Y040520D02*
X046873Y040520D01*
X046910Y040718D02*
X045628Y040718D01*
X045499Y040590D02*
X045851Y040941D01*
X045851Y041439D01*
X045499Y041790D01*
X045002Y041790D01*
X044751Y041539D01*
X044599Y041690D01*
X044851Y041941D01*
X044851Y042439D01*
X044499Y042790D01*
X044002Y042790D01*
X043751Y042539D01*
X043499Y042790D01*
X043002Y042790D01*
X042651Y042439D01*
X042651Y041941D01*
X042902Y041690D01*
X042742Y041530D01*
X042651Y041309D01*
X042651Y041071D01*
X042742Y040850D01*
X042911Y040681D01*
X043131Y040590D01*
X043370Y040590D01*
X043591Y040681D01*
X043751Y040841D01*
X044002Y040590D01*
X044499Y040590D01*
X044751Y040841D01*
X045002Y040590D01*
X045499Y040590D01*
X045826Y040917D02*
X046873Y040917D01*
X046873Y041115D02*
X045851Y041115D01*
X045851Y041314D02*
X046931Y041314D01*
X046931Y041512D02*
X045777Y041512D01*
X045578Y041711D02*
X046931Y041711D01*
X046931Y041909D02*
X044819Y041909D01*
X044851Y042108D02*
X046931Y042108D01*
X046931Y042306D02*
X044851Y042306D01*
X044784Y042505D02*
X046931Y042505D01*
X046931Y042703D02*
X044586Y042703D01*
X043916Y042703D02*
X043586Y042703D01*
X042916Y042703D02*
X039013Y042703D01*
X039013Y042505D02*
X042717Y042505D01*
X042651Y042306D02*
X039013Y042306D01*
X038912Y042108D02*
X042651Y042108D01*
X042683Y041909D02*
X038988Y041909D01*
X039001Y041711D02*
X042881Y041711D01*
X042735Y041512D02*
X039107Y041512D01*
X039345Y041314D02*
X042653Y041314D01*
X042651Y041115D02*
X039401Y041115D01*
X039366Y040917D02*
X042714Y040917D01*
X042874Y040718D02*
X039215Y040718D01*
X038555Y042490D02*
X038251Y042490D01*
X037746Y042490D01*
X038097Y042890D02*
X038216Y042890D01*
X038228Y042902D01*
X037928Y043100D02*
X046909Y043100D01*
X046901Y042902D02*
X038883Y042902D01*
X037729Y043299D02*
X047023Y043299D01*
X047678Y043299D02*
X050168Y043299D01*
X050152Y043100D02*
X047792Y043100D01*
X047801Y042902D02*
X050152Y042902D01*
X050171Y042703D02*
X047771Y042703D01*
X047771Y042505D02*
X050171Y042505D01*
X050032Y042306D02*
X047771Y042306D01*
X047771Y042108D02*
X049951Y042108D01*
X049951Y041909D02*
X047771Y041909D01*
X047771Y041711D02*
X049951Y041711D01*
X049951Y041512D02*
X047771Y041512D01*
X047771Y041314D02*
X049951Y041314D01*
X050015Y041115D02*
X047828Y041115D01*
X047828Y040917D02*
X050175Y040917D01*
X050926Y040917D02*
X051175Y040917D01*
X051926Y040917D02*
X052175Y040917D01*
X052515Y040520D02*
X047828Y040520D01*
X047828Y040321D02*
X052316Y040321D01*
X052351Y039790D02*
X047946Y039790D01*
X047355Y039790D02*
X046951Y039790D01*
X047791Y040718D02*
X052713Y040718D01*
X052875Y042505D02*
X053226Y042505D01*
X052226Y042505D02*
X051875Y042505D01*
X055251Y041690D02*
X055346Y041595D01*
X061151Y041595D01*
X061155Y041590D01*
X061755Y041590D01*
X061939Y041115D02*
X061946Y041115D01*
X061175Y040917D02*
X060960Y040917D01*
X067747Y040917D02*
X068954Y040917D01*
X068809Y040718D02*
X067892Y040718D01*
X067966Y040520D02*
X068736Y040520D01*
X068736Y040321D02*
X067966Y040321D01*
X067953Y040123D02*
X068748Y040123D01*
X068946Y039924D02*
X067755Y039924D01*
X067884Y039726D02*
X068817Y039726D01*
X068736Y039527D02*
X067966Y039527D01*
X067966Y039329D02*
X068736Y039329D01*
X068740Y039130D02*
X067961Y039130D01*
X067762Y038932D02*
X068939Y038932D01*
X068824Y038733D02*
X067877Y038733D01*
X067966Y038535D02*
X068736Y038535D01*
X068736Y038336D02*
X067966Y038336D01*
X067966Y038138D02*
X068736Y038138D01*
X068931Y037939D02*
X067770Y037939D01*
X067869Y037741D02*
X068832Y037741D01*
X068736Y037542D02*
X067966Y037542D01*
X067966Y037344D02*
X068736Y037344D01*
X068736Y037145D02*
X067966Y037145D01*
X067777Y036947D02*
X068924Y036947D01*
X068839Y036748D02*
X067862Y036748D01*
X067966Y036550D02*
X068736Y036550D01*
X068736Y036351D02*
X067966Y036351D01*
X067966Y036153D02*
X068736Y036153D01*
X068916Y035954D02*
X067785Y035954D01*
X067854Y035756D02*
X068847Y035756D01*
X068736Y035557D02*
X067966Y035557D01*
X067966Y035359D02*
X068736Y035359D01*
X068736Y035160D02*
X067966Y035160D01*
X067792Y034962D02*
X068909Y034962D01*
X068854Y034763D02*
X067847Y034763D01*
X067966Y034565D02*
X068736Y034565D01*
X068736Y034366D02*
X067966Y034366D01*
X067966Y034168D02*
X068736Y034168D01*
X068901Y033969D02*
X067800Y033969D01*
X067839Y033771D02*
X068862Y033771D01*
X068736Y033572D02*
X067966Y033572D01*
X067966Y033374D02*
X068736Y033374D01*
X068736Y033175D02*
X067966Y033175D01*
X067807Y032977D02*
X068894Y032977D01*
X068869Y032778D02*
X067832Y032778D01*
X067966Y032580D02*
X068736Y032580D01*
X068736Y032381D02*
X067966Y032381D01*
X067966Y032183D02*
X068736Y032183D01*
X068887Y031984D02*
X067815Y031984D01*
X067824Y031786D02*
X068877Y031786D01*
X068736Y031587D02*
X067966Y031587D01*
X067966Y031389D02*
X068736Y031389D01*
X068736Y031190D02*
X067966Y031190D01*
X067822Y030992D02*
X068879Y030992D01*
X068884Y030793D02*
X067817Y030793D01*
X067966Y030595D02*
X068736Y030595D01*
X068736Y030396D02*
X067966Y030396D01*
X067966Y030198D02*
X068736Y030198D01*
X068872Y029999D02*
X067830Y029999D01*
X067809Y029801D02*
X068892Y029801D01*
X068736Y029602D02*
X067966Y029602D01*
X067966Y029404D02*
X068736Y029404D01*
X068736Y029205D02*
X067966Y029205D01*
X067837Y029007D02*
X068864Y029007D01*
X068899Y028808D02*
X067802Y028808D01*
X067966Y028610D02*
X068736Y028610D01*
X068736Y028411D02*
X067966Y028411D01*
X067966Y028213D02*
X068736Y028213D01*
X068857Y028014D02*
X067845Y028014D01*
X067794Y027816D02*
X068907Y027816D01*
X068736Y027617D02*
X067966Y027617D01*
X067966Y027419D02*
X068736Y027419D01*
X068736Y027220D02*
X067966Y027220D01*
X067852Y027022D02*
X068849Y027022D01*
X068914Y026823D02*
X067787Y026823D01*
X067966Y026625D02*
X068736Y026625D01*
X068736Y026426D02*
X067966Y026426D01*
X067966Y026228D02*
X068736Y026228D01*
X068842Y026029D02*
X067860Y026029D01*
X067779Y025831D02*
X068922Y025831D01*
X068736Y025632D02*
X067966Y025632D01*
X067966Y025434D02*
X068736Y025434D01*
X068736Y025235D02*
X067966Y025235D01*
X067867Y025037D02*
X068834Y025037D01*
X068929Y024838D02*
X067772Y024838D01*
X067966Y024640D02*
X068736Y024640D01*
X068736Y024441D02*
X067966Y024441D01*
X067966Y024243D02*
X068736Y024243D01*
X068827Y024044D02*
X067875Y024044D01*
X067764Y023846D02*
X068937Y023846D01*
X068738Y023647D02*
X067963Y023647D01*
X067966Y023449D02*
X068736Y023449D01*
X068736Y023250D02*
X067966Y023250D01*
X067882Y023052D02*
X068819Y023052D01*
X068944Y022853D02*
X067757Y022853D01*
X067955Y022655D02*
X068746Y022655D01*
X068736Y022456D02*
X067966Y022456D01*
X067966Y022258D02*
X068736Y022258D01*
X068812Y022059D02*
X067890Y022059D01*
X067749Y021861D02*
X068952Y021861D01*
X068753Y021662D02*
X067948Y021662D01*
X067966Y021464D02*
X068736Y021464D01*
X068736Y021265D02*
X067966Y021265D01*
X067897Y021067D02*
X068804Y021067D01*
X068959Y020868D02*
X067742Y020868D01*
X067940Y020670D02*
X068761Y020670D01*
X068736Y020471D02*
X067966Y020471D01*
X067966Y020273D02*
X068736Y020273D01*
X068797Y020074D02*
X067905Y020074D01*
X067734Y019876D02*
X068967Y019876D01*
X068768Y019677D02*
X067933Y019677D01*
X067966Y019479D02*
X068736Y019479D01*
X068736Y019280D02*
X067966Y019280D01*
X067912Y019082D02*
X068789Y019082D01*
X068974Y018883D02*
X067727Y018883D01*
X069727Y018883D02*
X071151Y018883D01*
X071151Y018685D02*
X069925Y018685D01*
X069966Y018486D02*
X071151Y018486D01*
X071151Y018288D02*
X069966Y018288D01*
X069920Y018089D02*
X071151Y018089D01*
X071151Y017891D02*
X069721Y017891D01*
X069918Y017692D02*
X071151Y017692D01*
X071151Y017494D02*
X069966Y017494D01*
X069966Y017295D02*
X071151Y017295D01*
X071151Y017097D02*
X069927Y017097D01*
X069729Y016898D02*
X071151Y016898D01*
X071151Y016700D02*
X069911Y016700D01*
X069966Y016501D02*
X071151Y016501D01*
X071151Y016303D02*
X069966Y016303D01*
X069935Y016104D02*
X071151Y016104D01*
X071151Y015906D02*
X069736Y015906D01*
X069903Y015707D02*
X071151Y015707D01*
X071151Y015509D02*
X069966Y015509D01*
X069966Y015310D02*
X071151Y015310D01*
X071151Y015112D02*
X069942Y015112D01*
X069744Y014913D02*
X071151Y014913D01*
X071151Y014715D02*
X069896Y014715D01*
X069966Y014516D02*
X071151Y014516D01*
X071151Y014318D02*
X069966Y014318D01*
X069990Y014119D02*
X071151Y014119D01*
X071151Y013921D02*
X070242Y013921D01*
X070301Y013722D02*
X071151Y013722D01*
X071151Y013524D02*
X070301Y013524D01*
X070301Y013325D02*
X071151Y013325D01*
X071151Y013127D02*
X070301Y013127D01*
X070271Y012928D02*
X071151Y012928D01*
X071151Y012730D02*
X070301Y012730D01*
X070301Y012531D02*
X071151Y012531D01*
X071151Y012333D02*
X070301Y012333D01*
X070301Y012134D02*
X071151Y012134D01*
X071151Y011936D02*
X070274Y011936D01*
X070134Y011737D02*
X071151Y011737D01*
X071151Y011539D02*
X069966Y011539D01*
X069966Y011340D02*
X071151Y011340D01*
X071151Y011142D02*
X069966Y011142D01*
X069774Y010943D02*
X071151Y010943D01*
X071151Y010745D02*
X008751Y010745D01*
X008751Y010943D02*
X060053Y010943D01*
X059766Y011142D02*
X008751Y011142D01*
X008751Y011340D02*
X011075Y011340D01*
X011173Y011299D02*
X010846Y011435D01*
X010596Y011686D01*
X010460Y012013D01*
X010460Y012367D01*
X010596Y012694D01*
X010846Y012945D01*
X011173Y013081D01*
X011528Y013081D01*
X011855Y012945D01*
X012106Y012694D01*
X012241Y012367D01*
X012241Y012013D01*
X012106Y011686D01*
X011855Y011435D01*
X011528Y011299D01*
X011173Y011299D01*
X011627Y011340D02*
X059615Y011340D01*
X059457Y011539D02*
X011959Y011539D01*
X012127Y011737D02*
X059300Y011737D01*
X059142Y011936D02*
X012209Y011936D01*
X012241Y012134D02*
X058984Y012134D01*
X058826Y012333D02*
X012241Y012333D01*
X012173Y012531D02*
X058669Y012531D01*
X058511Y012730D02*
X012070Y012730D01*
X011872Y012928D02*
X058353Y012928D01*
X058195Y013127D02*
X017694Y013127D01*
X017666Y013099D02*
X017792Y013225D01*
X017861Y013390D01*
X017861Y013570D01*
X017854Y013585D01*
X017888Y013667D01*
X017888Y014023D01*
X017842Y014133D01*
X017835Y014140D01*
X017842Y014147D01*
X017888Y014257D01*
X017888Y014613D01*
X017842Y014723D01*
X017758Y014808D01*
X017663Y014847D01*
X017663Y015267D01*
X017659Y015275D01*
X017688Y015304D01*
X017734Y015414D01*
X017734Y016046D01*
X017688Y016156D01*
X017604Y016240D01*
X017493Y016286D01*
X017020Y016286D01*
X016910Y016240D01*
X016879Y016209D01*
X016700Y016209D01*
X016701Y016210D01*
X016701Y016390D01*
X016632Y016555D01*
X016506Y016681D01*
X016340Y016750D01*
X016161Y016750D01*
X015996Y016681D01*
X015869Y016555D01*
X015801Y016390D01*
X015801Y016210D01*
X015851Y016090D01*
X015851Y016013D01*
X015833Y015969D01*
X015833Y014984D01*
X015878Y014873D01*
X015963Y014789D01*
X016073Y014743D01*
X016428Y014743D01*
X016501Y014773D01*
X016573Y014743D01*
X016696Y014743D01*
X016750Y014690D01*
X016780Y014677D01*
X016780Y014556D01*
X016817Y014468D01*
X016692Y014468D01*
X016551Y014410D01*
X016534Y014417D01*
X016178Y014417D01*
X016068Y014371D01*
X016061Y014364D01*
X016053Y014371D01*
X015943Y014417D01*
X015670Y014417D01*
X015676Y014431D01*
X015676Y015561D01*
X015669Y015578D01*
X015669Y015969D01*
X015623Y016079D01*
X015539Y016164D01*
X015428Y016209D01*
X015073Y016209D01*
X014963Y016164D01*
X014878Y016079D01*
X014833Y015969D01*
X014833Y015578D01*
X014826Y015561D01*
X014826Y014830D01*
X014774Y014777D01*
X014728Y014667D01*
X014728Y014319D01*
X014680Y014271D01*
X014635Y014161D01*
X014635Y013687D01*
X014680Y013577D01*
X014765Y013493D01*
X014875Y013447D01*
X015506Y013447D01*
X015566Y013472D01*
X015588Y013463D01*
X015943Y013463D01*
X016053Y013509D01*
X016061Y013516D01*
X016068Y013509D01*
X016178Y013463D01*
X016534Y013463D01*
X016624Y013500D01*
X016692Y013472D01*
X016890Y013472D01*
X016961Y013501D01*
X016961Y013390D01*
X017029Y013225D01*
X017156Y013099D01*
X017321Y013030D01*
X017500Y013030D01*
X017666Y013099D01*
X017834Y013325D02*
X058037Y013325D01*
X057880Y013524D02*
X017861Y013524D01*
X017888Y013722D02*
X021943Y013722D01*
X021688Y013921D02*
X017888Y013921D01*
X017848Y014119D02*
X021490Y014119D01*
X021291Y014318D02*
X017888Y014318D01*
X017888Y014516D02*
X021093Y014516D01*
X020894Y014715D02*
X017846Y014715D01*
X017663Y014913D02*
X020696Y014913D01*
X020497Y015112D02*
X017663Y015112D01*
X017691Y015310D02*
X020299Y015310D01*
X020100Y015509D02*
X017734Y015509D01*
X017734Y015707D02*
X019972Y015707D01*
X019901Y015906D02*
X017734Y015906D01*
X017709Y016104D02*
X019901Y016104D01*
X019901Y016303D02*
X016701Y016303D01*
X016654Y016501D02*
X019901Y016501D01*
X019901Y016700D02*
X016461Y016700D01*
X016428Y016791D02*
X016073Y016791D01*
X016001Y016820D01*
X015928Y016791D01*
X015573Y016791D01*
X015501Y016820D01*
X015428Y016791D01*
X015073Y016791D01*
X014963Y016836D01*
X014878Y016921D01*
X014833Y017031D01*
X014833Y018016D01*
X014851Y018060D01*
X014851Y018236D01*
X014592Y018236D01*
X014270Y018558D01*
X014270Y019014D01*
X014435Y019180D01*
X014270Y019346D01*
X014270Y019802D01*
X014592Y020124D01*
X015047Y020124D01*
X015213Y019958D01*
X015225Y019970D01*
X015268Y020073D01*
X015451Y020256D01*
X015451Y020358D01*
X015135Y020358D01*
X015025Y020404D01*
X014982Y020447D01*
X014898Y020447D01*
X014802Y020351D01*
X014655Y020290D01*
X014016Y020290D01*
X013937Y020210D01*
X013729Y020124D01*
X012972Y020124D01*
X012764Y020210D01*
X012605Y020370D01*
X012519Y020577D01*
X012519Y020803D01*
X012605Y021010D01*
X012764Y021170D01*
X012814Y021190D01*
X012764Y021210D01*
X012605Y021370D01*
X012519Y021577D01*
X012519Y021803D01*
X012605Y022010D01*
X012764Y022170D01*
X012972Y022256D01*
X013729Y022256D01*
X013937Y022170D01*
X014016Y022090D01*
X014595Y022090D01*
X014742Y022029D01*
X014898Y021873D01*
X014987Y021873D01*
X015098Y021828D01*
X015182Y021743D01*
X015228Y021633D01*
X015228Y021570D01*
X016020Y021570D01*
X016167Y021509D01*
X016280Y021397D01*
X016540Y021137D01*
X016601Y020990D01*
X016601Y020226D01*
X016733Y020093D01*
X016789Y019959D01*
X016954Y020124D01*
X017410Y020124D01*
X017732Y019802D01*
X017732Y019346D01*
X017566Y019180D01*
X017732Y019014D01*
X017732Y018558D01*
X017410Y018236D01*
X017151Y018236D01*
X017151Y018060D01*
X017169Y018016D01*
X017169Y017031D01*
X017123Y016921D01*
X017039Y016836D01*
X016928Y016791D01*
X016573Y016791D01*
X016501Y016820D01*
X016428Y016791D01*
X016040Y016700D02*
X012100Y016700D01*
X012106Y016694D02*
X011855Y016945D01*
X011528Y017081D01*
X011173Y017081D01*
X010846Y016945D01*
X010596Y016694D01*
X010460Y016367D01*
X010460Y016013D01*
X010596Y015686D01*
X010846Y015435D01*
X011173Y015299D01*
X011528Y015299D01*
X011855Y015435D01*
X012106Y015686D01*
X012241Y016013D01*
X012241Y016367D01*
X012106Y016694D01*
X012186Y016501D02*
X015847Y016501D01*
X015801Y016303D02*
X012241Y016303D01*
X012241Y016104D02*
X014903Y016104D01*
X014833Y015906D02*
X012197Y015906D01*
X012115Y015707D02*
X014833Y015707D01*
X014826Y015509D02*
X011929Y015509D01*
X011554Y015310D02*
X014826Y015310D01*
X014826Y015112D02*
X008751Y015112D01*
X008751Y015310D02*
X011147Y015310D01*
X010772Y015509D02*
X008751Y015509D01*
X008751Y015707D02*
X010587Y015707D01*
X010504Y015906D02*
X008751Y015906D01*
X008751Y016104D02*
X010460Y016104D01*
X010460Y016303D02*
X008751Y016303D01*
X008751Y016501D02*
X010516Y016501D01*
X010601Y016700D02*
X008751Y016700D01*
X008751Y016898D02*
X010800Y016898D01*
X011902Y016898D02*
X014900Y016898D01*
X014833Y017097D02*
X008751Y017097D01*
X008751Y017295D02*
X014833Y017295D01*
X014833Y017494D02*
X008751Y017494D01*
X008751Y017692D02*
X014833Y017692D01*
X014833Y017891D02*
X008751Y017891D01*
X008751Y018089D02*
X014851Y018089D01*
X014540Y018288D02*
X008751Y018288D01*
X008751Y018486D02*
X014342Y018486D01*
X014270Y018685D02*
X008751Y018685D01*
X008751Y018883D02*
X010971Y018883D01*
X010846Y018935D02*
X011173Y018799D01*
X011528Y018799D01*
X011855Y018935D01*
X012106Y019186D01*
X012241Y019513D01*
X012241Y019867D01*
X012106Y020194D01*
X011855Y020445D01*
X011528Y020581D01*
X011173Y020581D01*
X010846Y020445D01*
X010596Y020194D01*
X010460Y019867D01*
X010460Y019513D01*
X010596Y019186D01*
X010846Y018935D01*
X010699Y019082D02*
X008751Y019082D01*
X008751Y019280D02*
X010556Y019280D01*
X010474Y019479D02*
X008751Y019479D01*
X008751Y019677D02*
X010460Y019677D01*
X010464Y019876D02*
X008751Y019876D01*
X008751Y020074D02*
X010546Y020074D01*
X010674Y020273D02*
X008751Y020273D01*
X008751Y020471D02*
X010910Y020471D01*
X011791Y020471D02*
X012563Y020471D01*
X012519Y020670D02*
X008751Y020670D01*
X008751Y020868D02*
X012546Y020868D01*
X012662Y021067D02*
X008751Y021067D01*
X008751Y021265D02*
X012709Y021265D01*
X012566Y021464D02*
X008751Y021464D01*
X008751Y021662D02*
X012519Y021662D01*
X012543Y021861D02*
X008751Y021861D01*
X008751Y022059D02*
X012654Y022059D01*
X013351Y021690D02*
X014516Y021690D01*
X014751Y021455D01*
X015036Y021170D01*
X015941Y021170D01*
X016201Y020910D01*
X016201Y020060D01*
X016394Y019866D01*
X016394Y019574D01*
X016741Y020074D02*
X016905Y020074D01*
X016601Y020273D02*
X018101Y020273D01*
X018101Y020280D02*
X018101Y020100D01*
X018169Y019935D01*
X018296Y019809D01*
X018461Y019740D01*
X018640Y019740D01*
X018806Y019809D01*
X018932Y019935D01*
X019001Y020100D01*
X019001Y020280D01*
X018932Y020445D01*
X018806Y020571D01*
X018640Y020640D01*
X018461Y020640D01*
X018296Y020571D01*
X018169Y020445D01*
X018101Y020280D01*
X018111Y020074D02*
X017459Y020074D01*
X017657Y019876D02*
X018228Y019876D01*
X017732Y019677D02*
X019901Y019677D01*
X019901Y019479D02*
X017732Y019479D01*
X017666Y019280D02*
X019901Y019280D01*
X019901Y019082D02*
X017664Y019082D01*
X017732Y018883D02*
X019901Y018883D01*
X019901Y018685D02*
X017732Y018685D01*
X017660Y018486D02*
X019901Y018486D01*
X019901Y018288D02*
X017461Y018288D01*
X017151Y018089D02*
X019901Y018089D01*
X019901Y017891D02*
X017169Y017891D01*
X017169Y017692D02*
X019901Y017692D01*
X019901Y017494D02*
X017169Y017494D01*
X017169Y017295D02*
X019901Y017295D01*
X019901Y017097D02*
X017169Y017097D01*
X017101Y016898D02*
X019901Y016898D01*
X021501Y016898D02*
X052501Y016898D01*
X052501Y016700D02*
X021501Y016700D01*
X021501Y016501D02*
X052501Y016501D01*
X052501Y016370D02*
X052554Y016242D01*
X052652Y016143D01*
X052781Y016090D01*
X053701Y016090D01*
X053701Y015295D01*
X053291Y015295D01*
X053181Y015249D01*
X053096Y015165D01*
X053051Y015055D01*
X053051Y015047D01*
X052679Y015047D01*
X052568Y015002D01*
X052484Y014917D01*
X052438Y014807D01*
X052438Y014373D01*
X052484Y014263D01*
X052568Y014178D01*
X052679Y014133D01*
X053051Y014133D01*
X053051Y014085D01*
X053096Y013975D01*
X053181Y013891D01*
X053291Y013845D01*
X053830Y013845D01*
X053845Y013851D01*
X053852Y013843D01*
X053981Y013790D01*
X054520Y013790D01*
X054649Y013843D01*
X054747Y013942D01*
X054801Y014070D01*
X054801Y017710D01*
X054747Y017838D01*
X054649Y017937D01*
X054520Y017990D01*
X054381Y017990D01*
X052781Y017990D01*
X052652Y017937D01*
X052554Y017838D01*
X052501Y017710D01*
X052501Y016370D01*
X052529Y016303D02*
X021569Y016303D01*
X021768Y016104D02*
X052746Y016104D01*
X053701Y015906D02*
X021966Y015906D01*
X022165Y015707D02*
X053701Y015707D01*
X053701Y015509D02*
X022363Y015509D01*
X022562Y015310D02*
X053701Y015310D01*
X053074Y015112D02*
X022760Y015112D01*
X022959Y014913D02*
X052482Y014913D01*
X052438Y014715D02*
X023053Y014715D01*
X023101Y014516D02*
X052438Y014516D01*
X052461Y014318D02*
X023101Y014318D01*
X023034Y014119D02*
X053051Y014119D01*
X053151Y013921D02*
X022913Y013921D01*
X022659Y013722D02*
X055041Y013722D01*
X055001Y013921D02*
X054726Y013921D01*
X054801Y014119D02*
X055001Y014119D01*
X055001Y014318D02*
X054801Y014318D01*
X054801Y014516D02*
X055001Y014516D01*
X055001Y014715D02*
X054801Y014715D01*
X054801Y014913D02*
X055001Y014913D01*
X055001Y015112D02*
X054801Y015112D01*
X054801Y015310D02*
X055001Y015310D01*
X055001Y015509D02*
X054801Y015509D01*
X054801Y015707D02*
X055001Y015707D01*
X055001Y015906D02*
X054801Y015906D01*
X054801Y016104D02*
X055001Y016104D01*
X055001Y016303D02*
X054801Y016303D01*
X054801Y016501D02*
X055067Y016501D01*
X054801Y016700D02*
X056601Y016700D01*
X056601Y016898D02*
X054801Y016898D01*
X054801Y017097D02*
X056601Y017097D01*
X056601Y017295D02*
X054801Y017295D01*
X054801Y017494D02*
X056601Y017494D01*
X056601Y017692D02*
X054801Y017692D01*
X054695Y017891D02*
X056601Y017891D01*
X056605Y018089D02*
X021501Y018089D01*
X021501Y017891D02*
X052607Y017891D01*
X052501Y017692D02*
X021501Y017692D01*
X021501Y017494D02*
X052501Y017494D01*
X052501Y017295D02*
X021501Y017295D01*
X021501Y017097D02*
X052501Y017097D01*
X056601Y019280D02*
X021501Y019280D01*
X021501Y019082D02*
X056650Y019082D01*
X056856Y018883D02*
X021501Y018883D01*
X021501Y018685D02*
X063368Y018685D01*
X063157Y018883D02*
X059045Y018883D01*
X059251Y019082D02*
X062946Y019082D01*
X062736Y019280D02*
X059301Y019280D01*
X059189Y018288D02*
X063790Y018288D01*
X063579Y018486D02*
X021501Y018486D01*
X021501Y018288D02*
X056712Y018288D01*
X059297Y018089D02*
X064001Y018089D01*
X064101Y017891D02*
X059301Y017891D01*
X059301Y017692D02*
X064101Y017692D01*
X064101Y017494D02*
X059301Y017494D01*
X059301Y017295D02*
X064101Y017295D01*
X064101Y017097D02*
X059301Y017097D01*
X059301Y016898D02*
X064101Y016898D01*
X064101Y016700D02*
X059301Y016700D01*
X059301Y016501D02*
X064101Y016501D01*
X064101Y016303D02*
X059301Y016303D01*
X059301Y016104D02*
X064101Y016104D01*
X064101Y015906D02*
X059396Y015906D01*
X059540Y015707D02*
X064101Y015707D01*
X064101Y015509D02*
X059684Y015509D01*
X059829Y015310D02*
X064101Y015310D01*
X066636Y011539D02*
X066736Y011539D01*
X066736Y011340D02*
X066437Y011340D01*
X066239Y011142D02*
X066736Y011142D01*
X066928Y010943D02*
X065948Y010943D01*
X067774Y010943D02*
X068928Y010943D01*
X068736Y011142D02*
X067966Y011142D01*
X067966Y011340D02*
X068736Y011340D01*
X068736Y011539D02*
X067966Y011539D01*
X069709Y009951D02*
X010492Y009951D01*
X010571Y009871D02*
X010332Y010111D01*
X010020Y010240D01*
X009682Y010240D01*
X009369Y010111D01*
X009130Y009871D01*
X009001Y009559D01*
X009001Y009221D01*
X009130Y008909D01*
X009369Y008669D01*
X009682Y008540D01*
X010020Y008540D01*
X010332Y008669D01*
X010571Y008909D01*
X010701Y009221D01*
X010701Y009559D01*
X010571Y009871D01*
X010621Y009752D02*
X069581Y009752D01*
X069501Y009554D02*
X010701Y009554D01*
X010701Y009355D02*
X069501Y009355D01*
X069527Y009157D02*
X010674Y009157D01*
X010592Y008958D02*
X069609Y008958D01*
X069779Y008760D02*
X010423Y008760D01*
X010071Y008561D02*
X070130Y008561D01*
X070571Y008561D02*
X071151Y008561D01*
X071151Y008363D02*
X008751Y008363D01*
X008751Y008561D02*
X009630Y008561D01*
X009279Y008760D02*
X008751Y008760D01*
X008751Y008958D02*
X009109Y008958D01*
X009027Y009157D02*
X008751Y009157D01*
X008751Y009355D02*
X009001Y009355D01*
X009001Y009554D02*
X008751Y009554D01*
X008751Y009752D02*
X009081Y009752D01*
X009209Y009951D02*
X008751Y009951D01*
X008751Y010149D02*
X009463Y010149D01*
X008751Y010348D02*
X071151Y010348D01*
X071151Y010546D02*
X008751Y010546D01*
X008751Y011539D02*
X010742Y011539D01*
X010574Y011737D02*
X008751Y011737D01*
X008751Y011936D02*
X010492Y011936D01*
X010460Y012134D02*
X008751Y012134D01*
X008751Y012333D02*
X010460Y012333D01*
X010528Y012531D02*
X008751Y012531D01*
X008751Y012730D02*
X010631Y012730D01*
X010830Y012928D02*
X008751Y012928D01*
X008751Y013127D02*
X017127Y013127D01*
X016988Y013325D02*
X008751Y013325D01*
X008751Y013524D02*
X014733Y013524D01*
X014635Y013722D02*
X013949Y013722D01*
X013937Y013710D02*
X014096Y013870D01*
X014182Y014077D01*
X014182Y014303D01*
X014096Y014510D01*
X013937Y014670D01*
X013729Y014756D01*
X012972Y014756D01*
X012764Y014670D01*
X012605Y014510D01*
X012519Y014303D01*
X012519Y014077D01*
X012605Y013870D01*
X012764Y013710D01*
X012972Y013624D01*
X013729Y013624D01*
X013937Y013710D01*
X014117Y013921D02*
X014635Y013921D01*
X014635Y014119D02*
X014182Y014119D01*
X014176Y014318D02*
X014727Y014318D01*
X014728Y014516D02*
X014090Y014516D01*
X013828Y014715D02*
X014748Y014715D01*
X014826Y014913D02*
X008751Y014913D01*
X008751Y014715D02*
X012874Y014715D01*
X012611Y014516D02*
X008751Y014516D01*
X008751Y014318D02*
X012525Y014318D01*
X012519Y014119D02*
X008751Y014119D01*
X008751Y013921D02*
X012584Y013921D01*
X012752Y013722D02*
X008751Y013722D01*
X010239Y010149D02*
X069963Y010149D01*
X070739Y010149D02*
X071151Y010149D01*
X071151Y009951D02*
X070992Y009951D01*
X071121Y009752D02*
X071151Y009752D01*
X071151Y008958D02*
X071092Y008958D01*
X071151Y008760D02*
X070923Y008760D01*
X071151Y008164D02*
X008751Y008164D01*
X008751Y007966D02*
X071151Y007966D01*
X071151Y007767D02*
X008751Y007767D01*
X008751Y007569D02*
X071151Y007569D01*
X057722Y013722D02*
X056960Y013722D01*
X057001Y013921D02*
X057564Y013921D01*
X057406Y014119D02*
X057001Y014119D01*
X057001Y014318D02*
X057249Y014318D01*
X057091Y014516D02*
X057001Y014516D01*
X066113Y021464D02*
X066736Y021464D01*
X066736Y021265D02*
X066312Y021265D01*
X066510Y021067D02*
X066804Y021067D01*
X066709Y020868D02*
X066959Y020868D01*
X066753Y021662D02*
X065915Y021662D01*
X065716Y021861D02*
X066952Y021861D01*
X066812Y022059D02*
X065518Y022059D01*
X065319Y022258D02*
X066736Y022258D01*
X066736Y022456D02*
X065121Y022456D01*
X064922Y022655D02*
X066746Y022655D01*
X066944Y022853D02*
X064724Y022853D01*
X069757Y022853D02*
X071151Y022853D01*
X071151Y022655D02*
X069955Y022655D01*
X069966Y022456D02*
X071151Y022456D01*
X071151Y022258D02*
X069966Y022258D01*
X069890Y022059D02*
X071151Y022059D01*
X071151Y021861D02*
X069749Y021861D01*
X069948Y021662D02*
X071151Y021662D01*
X071151Y021464D02*
X069966Y021464D01*
X069966Y021265D02*
X071151Y021265D01*
X071151Y021067D02*
X069897Y021067D01*
X069742Y020868D02*
X071151Y020868D01*
X071151Y020670D02*
X069940Y020670D01*
X069966Y020471D02*
X071151Y020471D01*
X071151Y020273D02*
X069966Y020273D01*
X069905Y020074D02*
X071151Y020074D01*
X071151Y019876D02*
X069734Y019876D01*
X069933Y019677D02*
X071151Y019677D01*
X071151Y019479D02*
X069966Y019479D01*
X069966Y019280D02*
X071151Y019280D01*
X071151Y019082D02*
X069912Y019082D01*
X069882Y023052D02*
X071151Y023052D01*
X071151Y023250D02*
X069966Y023250D01*
X069966Y023449D02*
X071151Y023449D01*
X071151Y023647D02*
X069963Y023647D01*
X069764Y023846D02*
X071151Y023846D01*
X071151Y024044D02*
X069875Y024044D01*
X069966Y024243D02*
X071151Y024243D01*
X071151Y024441D02*
X069966Y024441D01*
X069966Y024640D02*
X071151Y024640D01*
X071151Y024838D02*
X069772Y024838D01*
X069867Y025037D02*
X071151Y025037D01*
X071151Y025235D02*
X069966Y025235D01*
X069966Y025434D02*
X071151Y025434D01*
X071151Y025632D02*
X069966Y025632D01*
X069779Y025831D02*
X071151Y025831D01*
X071151Y026029D02*
X069860Y026029D01*
X069966Y026228D02*
X071151Y026228D01*
X071151Y026426D02*
X069966Y026426D01*
X069966Y026625D02*
X071151Y026625D01*
X071151Y026823D02*
X069787Y026823D01*
X069852Y027022D02*
X071151Y027022D01*
X071151Y027220D02*
X069966Y027220D01*
X069966Y027419D02*
X071151Y027419D01*
X071151Y027617D02*
X069966Y027617D01*
X069794Y027816D02*
X071151Y027816D01*
X071151Y028014D02*
X069845Y028014D01*
X069966Y028213D02*
X071151Y028213D01*
X071151Y028411D02*
X069966Y028411D01*
X069966Y028610D02*
X071151Y028610D01*
X071151Y028808D02*
X069802Y028808D01*
X069837Y029007D02*
X071151Y029007D01*
X071151Y029205D02*
X069966Y029205D01*
X069966Y029404D02*
X071151Y029404D01*
X071151Y029602D02*
X069966Y029602D01*
X069809Y029801D02*
X071151Y029801D01*
X071151Y029999D02*
X069830Y029999D01*
X069966Y030198D02*
X071151Y030198D01*
X071151Y030396D02*
X069966Y030396D01*
X069966Y030595D02*
X071151Y030595D01*
X071151Y030793D02*
X069817Y030793D01*
X069822Y030992D02*
X071151Y030992D01*
X071151Y031190D02*
X069966Y031190D01*
X069966Y031389D02*
X071151Y031389D01*
X071151Y031587D02*
X069966Y031587D01*
X069824Y031786D02*
X071151Y031786D01*
X071151Y031984D02*
X069815Y031984D01*
X069966Y032183D02*
X071151Y032183D01*
X071151Y032381D02*
X069966Y032381D01*
X069966Y032580D02*
X071151Y032580D01*
X071151Y032778D02*
X069832Y032778D01*
X069807Y032977D02*
X071151Y032977D01*
X071151Y033175D02*
X069966Y033175D01*
X069966Y033374D02*
X071151Y033374D01*
X071151Y033572D02*
X069966Y033572D01*
X069839Y033771D02*
X071151Y033771D01*
X071151Y033969D02*
X069800Y033969D01*
X069966Y034168D02*
X071151Y034168D01*
X071151Y034366D02*
X069966Y034366D01*
X069966Y034565D02*
X071151Y034565D01*
X071151Y034763D02*
X069847Y034763D01*
X069792Y034962D02*
X071151Y034962D01*
X071151Y035160D02*
X069966Y035160D01*
X069966Y035359D02*
X071151Y035359D01*
X071151Y035557D02*
X069966Y035557D01*
X069854Y035756D02*
X071151Y035756D01*
X071151Y035954D02*
X069785Y035954D01*
X069966Y036153D02*
X071151Y036153D01*
X071151Y036351D02*
X069966Y036351D01*
X069966Y036550D02*
X071151Y036550D01*
X071151Y036748D02*
X069862Y036748D01*
X069777Y036947D02*
X071151Y036947D01*
X071151Y037145D02*
X069966Y037145D01*
X069966Y037344D02*
X071151Y037344D01*
X071151Y037542D02*
X069966Y037542D01*
X069869Y037741D02*
X071151Y037741D01*
X071151Y037939D02*
X069770Y037939D01*
X069966Y038138D02*
X071151Y038138D01*
X071151Y038336D02*
X069966Y038336D01*
X069966Y038535D02*
X071151Y038535D01*
X071151Y038733D02*
X069877Y038733D01*
X069762Y038932D02*
X071151Y038932D01*
X071151Y039130D02*
X069961Y039130D01*
X069966Y039329D02*
X071151Y039329D01*
X071151Y039527D02*
X069966Y039527D01*
X069884Y039726D02*
X071151Y039726D01*
X071151Y039924D02*
X069755Y039924D01*
X069953Y040123D02*
X071151Y040123D01*
X071151Y040321D02*
X069966Y040321D01*
X069966Y040520D02*
X071151Y040520D01*
X071151Y040718D02*
X069892Y040718D01*
X069747Y040917D02*
X071151Y040917D01*
X071151Y041115D02*
X069946Y041115D01*
X069966Y041314D02*
X071151Y041314D01*
X071151Y041512D02*
X069966Y041512D01*
X069899Y041711D02*
X071151Y041711D01*
X071151Y041909D02*
X069701Y041909D01*
X069000Y041909D02*
X067701Y041909D01*
X067899Y041711D02*
X068802Y041711D01*
X068736Y041512D02*
X067966Y041512D01*
X067966Y041314D02*
X068736Y041314D01*
X068755Y041115D02*
X067946Y041115D01*
X070859Y043696D02*
X071151Y043696D01*
X071151Y043894D02*
X071057Y043894D01*
X071148Y044093D02*
X071151Y044093D01*
X071147Y044688D02*
X071151Y044688D01*
X071151Y044887D02*
X071056Y044887D01*
X071151Y045085D02*
X070857Y045085D01*
X071151Y045284D02*
X013751Y045284D01*
X013751Y045482D02*
X071151Y045482D01*
X071151Y045681D02*
X013751Y045681D01*
X013751Y045879D02*
X071151Y045879D01*
X071151Y046078D02*
X013751Y046078D01*
X013751Y046276D02*
X071151Y046276D01*
X062018Y034366D02*
X061691Y034366D01*
X061230Y034366D02*
X060904Y034366D01*
X044874Y040718D02*
X044628Y040718D01*
X043874Y040718D02*
X043628Y040718D01*
X044620Y041711D02*
X044923Y041711D01*
X036801Y039726D02*
X036781Y039726D01*
X034607Y041438D02*
X034306Y041740D01*
X032196Y041740D01*
X032071Y041615D01*
X032071Y041438D01*
X034607Y041438D01*
X034533Y041512D02*
X032071Y041512D01*
X032167Y041711D02*
X034335Y041711D01*
X035741Y042505D02*
X032071Y042505D01*
X032180Y042703D02*
X035542Y042703D01*
X035408Y042902D02*
X032378Y042902D01*
X032577Y043100D02*
X035401Y043100D01*
X035401Y043299D02*
X032775Y043299D01*
X032974Y043497D02*
X034841Y043497D01*
X034951Y043954D02*
X032864Y043954D01*
X031501Y042590D01*
X030931Y042505D02*
X013751Y042505D01*
X013751Y042703D02*
X030931Y042703D01*
X031006Y042902D02*
X013751Y042902D01*
X013751Y043100D02*
X031205Y043100D01*
X031644Y043299D02*
X013751Y043299D01*
X013751Y043497D02*
X031842Y043497D01*
X032041Y043696D02*
X013751Y043696D01*
X013751Y043894D02*
X032239Y043894D01*
X032438Y044093D02*
X013751Y044093D01*
X013751Y044291D02*
X032636Y044291D01*
X030978Y042306D02*
X013751Y042306D01*
X018951Y039690D02*
X018951Y039014D01*
X023201Y035756D02*
X024543Y035756D01*
X025210Y035756D02*
X025291Y035756D01*
X025118Y032916D02*
X025201Y032833D01*
X025201Y032240D01*
X025985Y030900D02*
X026801Y030900D01*
X026802Y030895D01*
X026806Y030891D01*
X026811Y030890D01*
X027727Y030890D01*
X027727Y029690D02*
X026811Y029690D01*
X026806Y029689D01*
X026802Y029685D01*
X026801Y029680D01*
X026790Y029690D01*
X025975Y029690D01*
X025227Y029690D02*
X024361Y029690D01*
X024351Y029680D01*
X024351Y029000D01*
X024361Y028961D02*
X024001Y028961D01*
X023901Y029061D01*
X023901Y029290D01*
X024001Y028961D02*
X023401Y028961D01*
X023401Y029340D01*
X023303Y029438D01*
X022501Y029438D01*
X021074Y029438D01*
X021021Y029590D01*
X019251Y031361D02*
X019251Y032370D01*
X016411Y029999D02*
X014586Y029999D01*
X014588Y029994D02*
X014583Y030007D01*
X014538Y030027D01*
X014497Y030055D01*
X014483Y030052D01*
X014454Y030065D01*
X014447Y030077D01*
X014399Y030090D01*
X014354Y030110D01*
X014341Y030105D01*
X014311Y030113D01*
X014301Y030124D01*
X014252Y030128D01*
X014204Y030140D01*
X014192Y030133D01*
X014168Y030135D01*
X014163Y030140D01*
X014107Y030140D01*
X014051Y030145D01*
X014046Y030140D01*
X012700Y030140D01*
X012690Y030148D01*
X012640Y030140D01*
X012588Y030140D01*
X012580Y030131D01*
X012556Y030128D01*
X012544Y030134D01*
X012496Y030119D01*
X012447Y030111D01*
X012439Y030100D01*
X012415Y030093D01*
X012402Y030097D01*
X012358Y030074D01*
X012310Y030059D01*
X012304Y030047D01*
X012282Y030036D01*
X012268Y030038D01*
X012228Y030008D01*
X012183Y029986D01*
X012179Y029972D01*
X012159Y029958D01*
X012145Y029958D01*
X012110Y029922D01*
X012070Y029892D01*
X012068Y029879D01*
X012051Y029861D01*
X012037Y029859D01*
X012008Y029818D01*
X011973Y029782D01*
X011973Y029769D01*
X011959Y029748D01*
X011946Y029744D01*
X011924Y029699D01*
X011896Y029658D01*
X011898Y029644D01*
X011887Y029622D01*
X011875Y029616D01*
X011861Y029568D01*
X011839Y029523D01*
X011843Y029510D01*
X011836Y029486D01*
X011825Y029478D01*
X011819Y029428D01*
X011805Y029380D01*
X011811Y029368D01*
X011808Y029344D01*
X011799Y029334D01*
X011800Y029284D01*
X011794Y029234D01*
X011802Y029223D01*
X011803Y029199D01*
X011795Y029187D01*
X011805Y029138D01*
X011807Y029088D01*
X011817Y029079D01*
X011822Y029055D01*
X011816Y029042D01*
X011833Y028995D01*
X011843Y028946D01*
X011855Y028938D01*
X011863Y028915D01*
X011860Y028902D01*
X011884Y028859D01*
X011902Y028812D01*
X011914Y028806D01*
X011927Y028785D01*
X011925Y028771D01*
X011957Y028732D01*
X011981Y028689D01*
X011995Y028685D01*
X012010Y028666D01*
X012011Y028652D01*
X012048Y028619D01*
X012080Y028580D01*
X012093Y028579D01*
X012112Y028562D01*
X012115Y028549D01*
X012157Y028522D01*
X012194Y028489D01*
X012208Y028489D01*
X012229Y028476D01*
X012234Y028463D01*
X012280Y028444D01*
X012322Y028417D01*
X012336Y028420D01*
X012358Y028410D01*
X012365Y028398D01*
X012414Y028386D01*
X012460Y028367D01*
X012473Y028372D01*
X012497Y028366D01*
X012506Y028355D01*
X012555Y028351D01*
X012604Y028339D01*
X012616Y028346D01*
X012634Y028345D01*
X012638Y028340D01*
X012695Y028340D01*
X012750Y028335D01*
X012756Y028340D01*
X013990Y028340D01*
X013991Y028339D01*
X014052Y028340D01*
X014113Y028340D01*
X014114Y028341D01*
X014132Y028341D01*
X014144Y028333D01*
X014193Y028343D01*
X014242Y028343D01*
X014252Y028354D01*
X014283Y028359D01*
X014296Y028354D01*
X014342Y028371D01*
X014391Y028380D01*
X014399Y028392D01*
X014428Y028403D01*
X014442Y028399D01*
X014484Y028424D01*
X014531Y028441D01*
X014537Y028454D01*
X014564Y028469D01*
X014578Y028468D01*
X014616Y028500D01*
X014659Y028524D01*
X014663Y028538D01*
X014687Y028558D01*
X014701Y028559D01*
X014733Y028597D01*
X014771Y028628D01*
X014772Y028643D01*
X014793Y028666D01*
X014807Y028670D01*
X014832Y028712D01*
X014864Y028750D01*
X014863Y028764D01*
X014879Y028791D01*
X014892Y028797D01*
X014910Y028843D01*
X014936Y028885D01*
X014932Y028899D01*
X014943Y028928D01*
X014955Y028936D01*
X014965Y028984D01*
X014983Y029030D01*
X014977Y029044D01*
X014984Y029074D01*
X014994Y029084D01*
X014996Y029133D01*
X015006Y029182D01*
X014998Y029194D01*
X014999Y029225D01*
X015008Y029236D01*
X015001Y029285D01*
X015002Y029335D01*
X014993Y029345D01*
X014988Y029376D01*
X014995Y029389D01*
X014980Y029436D01*
X014974Y029485D01*
X014962Y029494D01*
X014953Y029523D01*
X014957Y029537D01*
X014935Y029581D01*
X014920Y029628D01*
X014907Y029635D01*
X014893Y029662D01*
X014895Y029677D01*
X014865Y029716D01*
X014843Y029760D01*
X014829Y029765D01*
X014811Y029790D01*
X014810Y029804D01*
X014774Y029838D01*
X014745Y029878D01*
X014731Y029880D01*
X014708Y029901D01*
X014705Y029915D01*
X014664Y029943D01*
X014628Y029977D01*
X014614Y029976D01*
X014588Y029994D01*
X014810Y029801D02*
X016411Y029801D01*
X016411Y029602D02*
X014928Y029602D01*
X014990Y029404D02*
X016411Y029404D01*
X016411Y029205D02*
X014998Y029205D01*
X014974Y029007D02*
X016411Y029007D01*
X016411Y028808D02*
X014897Y028808D01*
X014749Y028610D02*
X016411Y028610D01*
X016411Y028411D02*
X014463Y028411D01*
X016411Y028213D02*
X008751Y028213D01*
X008751Y028411D02*
X012355Y028411D01*
X012056Y028610D02*
X008751Y028610D01*
X008751Y028808D02*
X011909Y028808D01*
X011829Y029007D02*
X008751Y029007D01*
X008751Y029205D02*
X011803Y029205D01*
X011812Y029404D02*
X008751Y029404D01*
X008751Y029602D02*
X011871Y029602D01*
X011992Y029801D02*
X008751Y029801D01*
X008751Y029999D02*
X012211Y029999D01*
X011528Y028081D02*
X011173Y028081D01*
X010846Y027945D01*
X010596Y027694D01*
X010460Y027367D01*
X010460Y027013D01*
X010596Y026686D01*
X010846Y026435D01*
X011173Y026299D01*
X011528Y026299D01*
X011855Y026435D01*
X012106Y026686D01*
X012241Y027013D01*
X012241Y027367D01*
X012106Y027694D01*
X011855Y027945D01*
X011528Y028081D01*
X011688Y028014D02*
X016411Y028014D01*
X017193Y027419D02*
X012220Y027419D01*
X012241Y027220D02*
X017038Y027220D01*
X017001Y027022D02*
X012241Y027022D01*
X012163Y026823D02*
X016118Y026823D01*
X015920Y026625D02*
X012045Y026625D01*
X011834Y026426D02*
X015851Y026426D01*
X015821Y026228D02*
X008751Y026228D01*
X008751Y026426D02*
X010867Y026426D01*
X010656Y026625D02*
X008751Y026625D01*
X008751Y026823D02*
X010539Y026823D01*
X010460Y027022D02*
X008751Y027022D01*
X008751Y027220D02*
X010460Y027220D01*
X010482Y027419D02*
X008751Y027419D01*
X008751Y027617D02*
X010564Y027617D01*
X010717Y027816D02*
X008751Y027816D01*
X008751Y028014D02*
X011014Y028014D01*
X011984Y027816D02*
X018403Y027816D01*
X018158Y027617D02*
X012138Y027617D01*
X008751Y026029D02*
X015801Y026029D01*
X015873Y025831D02*
X008751Y025831D01*
X008751Y025632D02*
X017428Y025632D01*
X017428Y025434D02*
X016255Y025434D01*
X016240Y025440D02*
X016061Y025440D01*
X015896Y025371D01*
X015769Y025245D01*
X015701Y025080D01*
X015701Y024959D01*
X015651Y024910D01*
X015606Y024800D01*
X015606Y024270D01*
X015651Y024160D01*
X015736Y024076D01*
X015846Y024030D01*
X016355Y024030D01*
X016466Y024076D01*
X016550Y024160D01*
X016596Y024270D01*
X016596Y024800D01*
X016577Y024844D01*
X016601Y024900D01*
X016601Y025080D01*
X016532Y025245D01*
X016406Y025371D01*
X016240Y025440D01*
X016046Y025434D02*
X008751Y025434D01*
X008751Y025235D02*
X015765Y025235D01*
X015701Y025037D02*
X008751Y025037D01*
X008751Y024838D02*
X015622Y024838D01*
X015606Y024640D02*
X008751Y024640D01*
X008751Y024441D02*
X010843Y024441D01*
X010846Y024445D02*
X010596Y024194D01*
X010460Y023867D01*
X010460Y023513D01*
X010596Y023186D01*
X010846Y022935D01*
X011173Y022799D01*
X011528Y022799D01*
X011855Y022935D01*
X012106Y023186D01*
X012241Y023513D01*
X012241Y023867D01*
X012106Y024194D01*
X011855Y024445D01*
X011528Y024581D01*
X011173Y024581D01*
X010846Y024445D01*
X010644Y024243D02*
X008751Y024243D01*
X008751Y024044D02*
X010533Y024044D01*
X010460Y023846D02*
X008751Y023846D01*
X008751Y023647D02*
X010460Y023647D01*
X010487Y023449D02*
X008751Y023449D01*
X008751Y023250D02*
X010569Y023250D01*
X010729Y023052D02*
X008751Y023052D01*
X008751Y022853D02*
X011043Y022853D01*
X011658Y022853D02*
X019099Y022853D01*
X019099Y022655D02*
X008751Y022655D01*
X008751Y022456D02*
X019099Y022456D01*
X019127Y022258D02*
X008751Y022258D01*
X011859Y024441D02*
X015606Y024441D01*
X015617Y024243D02*
X012057Y024243D01*
X012168Y024044D02*
X015811Y024044D01*
X016390Y024044D02*
X018169Y024044D01*
X018101Y023846D02*
X012241Y023846D01*
X012241Y023647D02*
X018123Y023647D01*
X018255Y023449D02*
X012215Y023449D01*
X012132Y023250D02*
X018504Y023250D01*
X018952Y023052D02*
X011972Y023052D01*
X014669Y022059D02*
X019187Y022059D01*
X019187Y021861D02*
X015018Y021861D01*
X015216Y021662D02*
X019187Y021662D01*
X019312Y021464D02*
X016212Y021464D01*
X016411Y021265D02*
X019901Y021265D01*
X019901Y021067D02*
X016569Y021067D01*
X016601Y020868D02*
X019901Y020868D01*
X019901Y020670D02*
X016601Y020670D01*
X016601Y020471D02*
X018196Y020471D01*
X018906Y020471D02*
X019901Y020471D01*
X019901Y020273D02*
X019001Y020273D01*
X018990Y020074D02*
X019901Y020074D01*
X019901Y019876D02*
X018873Y019876D01*
X020451Y019690D02*
X020651Y019690D01*
X020701Y019640D01*
X021125Y021890D02*
X021151Y021916D01*
X020054Y022655D02*
X022363Y022655D01*
X022317Y022853D02*
X020054Y022853D01*
X020061Y023052D02*
X022317Y023052D01*
X022317Y023250D02*
X020204Y023250D01*
X020213Y023449D02*
X022340Y023449D01*
X022367Y023647D02*
X020552Y023647D01*
X020663Y023846D02*
X022367Y023846D01*
X022375Y024044D02*
X020663Y024044D01*
X020663Y024243D02*
X022549Y024243D01*
X022951Y024441D02*
X020543Y024441D01*
X020734Y024640D02*
X021659Y024640D01*
X021615Y024838D02*
X020801Y024838D01*
X020795Y025037D02*
X021615Y025037D01*
X021621Y025235D02*
X020828Y025235D01*
X021281Y025434D02*
X021744Y025434D01*
X022171Y024984D02*
X022219Y024935D01*
X022881Y024935D01*
X022751Y025065D01*
X022881Y024935D02*
X023105Y024935D01*
X023351Y024690D01*
X023351Y023815D01*
X023376Y023790D01*
X022785Y023790D02*
X022785Y023089D01*
X022795Y023080D01*
X025158Y024441D02*
X034173Y024441D01*
X034173Y024640D02*
X025266Y024640D01*
X025266Y024838D02*
X034234Y024838D01*
X035128Y023846D02*
X036321Y023846D01*
X036294Y024044D02*
X035784Y024044D01*
X035073Y023647D02*
X037331Y023647D01*
X037331Y023449D02*
X035086Y023449D01*
X035104Y023250D02*
X037334Y023250D01*
X037337Y023052D02*
X035104Y023052D01*
X035104Y022853D02*
X036878Y022853D01*
X036801Y022655D02*
X035049Y022655D01*
X035047Y022456D02*
X036819Y022456D01*
X036946Y022258D02*
X035051Y022258D01*
X034992Y022059D02*
X043245Y022059D01*
X043118Y022258D02*
X038725Y022258D01*
X038764Y022456D02*
X039322Y022456D01*
X038798Y022655D02*
X038764Y022655D01*
X038346Y022590D02*
X038346Y023190D01*
X039807Y023940D02*
X039807Y024268D01*
X039777Y024340D01*
X039807Y024412D01*
X039807Y024768D01*
X039777Y024840D01*
X039807Y024912D01*
X039807Y025028D01*
X040118Y025028D01*
X040228Y025073D01*
X040269Y025114D01*
X040335Y025087D01*
X040873Y025087D01*
X040873Y024817D01*
X040895Y024765D01*
X040849Y024656D01*
X040849Y024024D01*
X040895Y023914D01*
X040980Y023830D01*
X041025Y023811D01*
X040985Y023815D01*
X040974Y023806D01*
X040958Y023804D01*
X040946Y023811D01*
X040902Y023799D01*
X040856Y023795D01*
X040851Y023788D01*
X040851Y023852D01*
X040763Y023940D01*
X039807Y023940D01*
X039807Y024044D02*
X040849Y024044D01*
X040851Y023846D02*
X040963Y023846D01*
X040849Y024243D02*
X039807Y024243D01*
X039807Y024441D02*
X040849Y024441D01*
X040849Y024640D02*
X039807Y024640D01*
X039778Y024838D02*
X040873Y024838D01*
X040873Y025037D02*
X040140Y025037D01*
X041643Y022655D02*
X043179Y022655D01*
X043101Y022456D02*
X041445Y022456D01*
X036294Y025037D02*
X025960Y025037D01*
X026154Y025235D02*
X036294Y025235D01*
X036188Y027022D02*
X025257Y027022D01*
X025236Y027220D02*
X036188Y027220D01*
X036196Y027419D02*
X024956Y027419D01*
X025016Y027617D02*
X036196Y027617D01*
X036211Y027816D02*
X025016Y027816D01*
X022751Y025490D02*
X022477Y025490D01*
X020351Y025885D02*
X020329Y025885D01*
X019725Y026490D01*
X018977Y026490D02*
X018451Y026490D01*
X018282Y027022D02*
X017901Y027022D01*
X017863Y027220D02*
X018134Y027220D01*
X018101Y027419D02*
X017708Y027419D01*
X018551Y027390D02*
X018977Y027390D01*
X017577Y026029D02*
X016701Y026029D01*
X016628Y025831D02*
X017429Y025831D01*
X017481Y025235D02*
X016536Y025235D01*
X016601Y025037D02*
X018195Y025037D01*
X018151Y024838D02*
X016580Y024838D01*
X016596Y024640D02*
X018196Y024640D01*
X018387Y024441D02*
X016596Y024441D01*
X016584Y024243D02*
X018608Y024243D01*
X019095Y024605D02*
X019300Y024722D01*
X019340Y024737D01*
X019360Y024757D01*
X019369Y024735D01*
X019496Y024609D01*
X019504Y024605D01*
X019095Y024605D01*
X019156Y024640D02*
X019464Y024640D01*
X019755Y023490D02*
X019555Y022661D01*
X019577Y022640D01*
X019605Y022611D01*
X019605Y021890D01*
X015851Y020730D02*
X015851Y020090D01*
X015607Y019846D01*
X015607Y019574D01*
X015269Y020074D02*
X015097Y020074D01*
X015451Y020273D02*
X013999Y020273D01*
X014344Y019876D02*
X012238Y019876D01*
X012241Y019677D02*
X014270Y019677D01*
X014270Y019479D02*
X012227Y019479D01*
X012145Y019280D02*
X014335Y019280D01*
X014337Y019082D02*
X012002Y019082D01*
X011730Y018883D02*
X014270Y018883D01*
X015251Y018390D02*
X015251Y017524D01*
X015251Y018390D02*
X015607Y018746D01*
X015607Y018786D01*
X016394Y018786D02*
X016394Y018746D01*
X016751Y018390D01*
X016751Y017524D01*
X016251Y016300D02*
X016251Y015476D01*
X015833Y015509D02*
X015676Y015509D01*
X015669Y015707D02*
X015833Y015707D01*
X015833Y015906D02*
X015669Y015906D01*
X015598Y016104D02*
X015845Y016104D01*
X015833Y015310D02*
X015676Y015310D01*
X015676Y015112D02*
X015833Y015112D01*
X015862Y014913D02*
X015676Y014913D01*
X015676Y014715D02*
X016725Y014715D01*
X016797Y014516D02*
X015676Y014516D01*
X014542Y020074D02*
X012155Y020074D01*
X012027Y020273D02*
X012702Y020273D01*
X013351Y020690D02*
X014576Y020690D01*
X014751Y020865D01*
X014755Y020860D01*
X015451Y020860D01*
X015721Y020860D01*
X015851Y020730D01*
X016251Y026090D02*
X016251Y026390D01*
X016351Y026490D01*
X016955Y026490D01*
X025975Y030890D02*
X025976Y030895D01*
X025980Y030899D01*
X025985Y030900D01*
X033983Y028014D02*
X036211Y028014D01*
X036211Y028213D02*
X034248Y028213D01*
X034385Y029680D02*
X034380Y029681D01*
X034376Y029685D01*
X034375Y029690D01*
X030956Y039329D02*
X026151Y039329D01*
X026151Y039527D02*
X030931Y039527D01*
X030931Y039726D02*
X026151Y039726D01*
X026151Y039924D02*
X031029Y039924D01*
X031162Y040123D02*
X026151Y040123D01*
X026151Y040321D02*
X030963Y040321D01*
X030931Y040520D02*
X026151Y040520D01*
X026151Y040718D02*
X030931Y040718D01*
X031021Y040917D02*
X026151Y040917D01*
X026151Y041115D02*
X031169Y041115D01*
X030971Y041314D02*
X026151Y041314D01*
X026151Y041512D02*
X030931Y041512D01*
X030931Y041711D02*
X026201Y041711D01*
X026188Y041909D02*
X031014Y041909D01*
X031177Y042108D02*
X026069Y042108D01*
X024034Y039329D02*
X024006Y039329D01*
X036985Y044887D02*
X037011Y044887D01*
D61*
X034801Y038090D03*
X037501Y036890D03*
X038301Y034340D03*
X040151Y034440D03*
X042711Y031190D03*
X043101Y030640D03*
X035551Y032790D03*
X033951Y033490D03*
X035601Y034340D03*
X032001Y034390D03*
X028651Y034790D03*
X027251Y033640D03*
X025751Y035040D03*
X027201Y036390D03*
X023801Y039740D03*
X040201Y024440D03*
X052551Y015240D03*
X052951Y015740D03*
X054901Y015390D03*
X019951Y014940D03*
X014631Y013190D03*
D62*
X020701Y021590D02*
X020701Y021640D01*
X021001Y021940D01*
X021151Y021940D01*
X021151Y021916D02*
X021027Y022040D01*
X020101Y022040D01*
X020101Y021640D01*
X020701Y021640D01*
X020701Y021890D01*
X020351Y021890D01*
X020151Y021690D01*
X021151Y021690D01*
X021201Y021740D01*
X021301Y021740D01*
X021351Y021740D01*
X021301Y021740D02*
X021151Y021890D01*
X021251Y021890D01*
X021401Y022040D01*
X021401Y021640D01*
X020701Y021640D01*
X019755Y023490D02*
X019547Y023698D01*
X019547Y024108D01*
X019351Y024108D02*
X019351Y023740D01*
X019251Y023390D01*
X019154Y023793D02*
X018851Y023540D01*
X018901Y023840D02*
X018601Y023840D01*
X018551Y023790D01*
X018901Y023840D02*
X018957Y023896D01*
X018957Y024108D01*
X019154Y024108D02*
X019154Y023793D01*
X019744Y024108D02*
X019812Y024040D01*
X020205Y024040D01*
X019751Y024990D02*
X019551Y025190D01*
X019551Y025769D01*
X019547Y025772D01*
X019551Y025775D01*
X019744Y025772D02*
X019751Y025766D01*
X019751Y025390D01*
X019846Y025295D01*
X020351Y025295D01*
X019351Y025772D02*
X019351Y024740D01*
X019311Y024700D01*
X019151Y025040D02*
X018801Y024840D01*
X018601Y024840D01*
X018601Y025290D02*
X018701Y025390D01*
X018901Y025390D01*
X018957Y025446D01*
X018957Y025772D01*
X019154Y025772D02*
X019154Y025143D01*
X019151Y025040D01*
X018185Y026746D02*
X018185Y026925D01*
X018251Y027040D01*
X017516Y026746D02*
X017512Y026750D01*
X017441Y026750D01*
X017451Y026760D01*
X017451Y027040D01*
X018701Y038840D02*
X018701Y040090D01*
X020901Y040090D01*
X020901Y039236D01*
X020895Y039221D01*
X020895Y038840D01*
X018701Y038840D01*
X018701Y038884D02*
X020895Y038884D01*
X020895Y038983D02*
X018701Y038983D01*
X018701Y039081D02*
X020895Y039081D01*
X020895Y039180D02*
X018701Y039180D01*
X018701Y039278D02*
X020901Y039278D01*
X020901Y039377D02*
X018701Y039377D01*
X018701Y039475D02*
X020901Y039475D01*
X020901Y039574D02*
X018701Y039574D01*
X018701Y039672D02*
X020901Y039672D01*
X020901Y039771D02*
X018701Y039771D01*
X018701Y039869D02*
X020901Y039869D01*
X020901Y039968D02*
X018701Y039968D01*
X018701Y040066D02*
X020901Y040066D01*
X031501Y039640D02*
X031951Y040090D01*
X033151Y040090D01*
X033751Y040690D01*
X036336Y040690D01*
X036340Y040695D01*
X036340Y040892D02*
X032802Y040892D01*
X032501Y040590D01*
X031999Y041088D02*
X031501Y040590D01*
X031999Y041088D02*
X036340Y041088D01*
X036340Y041285D02*
X035255Y041285D01*
X034451Y042090D01*
X032051Y042090D01*
X031501Y041540D01*
X031501Y041590D01*
X031501Y039640D02*
X031501Y039590D01*
X032501Y039590D02*
X032801Y039890D01*
X036451Y039890D01*
X036655Y040095D01*
X036655Y040380D01*
X037246Y040380D02*
X037251Y040375D01*
X037251Y039690D01*
X038151Y039790D02*
X038151Y040390D01*
X037851Y040690D01*
X037566Y040690D01*
X037561Y040695D01*
X037561Y040892D02*
X038149Y040892D01*
X038551Y040490D01*
X038951Y041090D02*
X037562Y041090D01*
X037561Y041088D01*
X037561Y041285D02*
X038046Y041285D01*
X038551Y041790D01*
X037746Y042285D02*
X037746Y042490D01*
X037746Y042285D02*
X037246Y041785D01*
X037246Y041600D01*
X037049Y041600D02*
X037049Y042384D01*
X037155Y042490D01*
X036851Y042290D02*
X036851Y041602D01*
X036852Y041600D01*
X036851Y041599D01*
X036851Y041090D01*
X036951Y040990D01*
X036655Y041600D02*
X036655Y042085D01*
X035751Y042990D01*
X035751Y043816D01*
X036701Y042740D02*
X036751Y042390D01*
X036851Y042290D01*
X044101Y033090D02*
X045658Y033090D01*
X045661Y033092D01*
X044101Y033090D02*
X043801Y032790D01*
X043801Y031690D01*
X044651Y030840D01*
X044651Y030340D01*
X044051Y030185D02*
X044051Y030940D01*
X043901Y031090D01*
X045101Y031040D02*
X045251Y031190D01*
X045648Y031190D01*
X045661Y031203D01*
X045661Y030888D02*
X045701Y030848D01*
X045701Y030340D01*
X046248Y030300D02*
X046251Y030298D01*
X046251Y029740D01*
X046151Y029640D01*
X045904Y029180D02*
X045441Y029180D01*
X045251Y028990D01*
X043951Y028990D01*
X043901Y029040D01*
X043462Y029216D02*
X042975Y029216D01*
X042951Y029240D01*
X043101Y029590D02*
X042951Y029740D01*
X043101Y029590D02*
X043462Y029590D01*
X044046Y029590D01*
X044051Y029595D01*
X043462Y028840D02*
X043151Y028840D01*
X042439Y029964D02*
X042169Y030234D01*
X041528Y030234D01*
X041528Y030037D02*
X041528Y030018D01*
X041451Y029940D01*
X041528Y029918D02*
X041551Y029940D01*
X041528Y029918D02*
X041528Y029840D01*
X041528Y030037D01*
X041144Y030618D02*
X041983Y030618D01*
X042005Y030640D01*
X041655Y031200D02*
X041761Y031380D01*
X041761Y031505D01*
X042046Y031720D01*
X041455Y031720D02*
X041355Y031690D01*
X041351Y031690D01*
X040951Y031290D01*
X040766Y031290D01*
X040531Y031055D01*
X040565Y031055D01*
X040601Y031090D01*
X040951Y030990D02*
X040947Y030618D01*
X040554Y030618D02*
X040528Y030618D01*
X040451Y030540D01*
X040357Y030618D02*
X040554Y030618D01*
X040451Y030340D02*
X040344Y030234D01*
X039973Y030234D01*
X039973Y030037D02*
X039973Y029840D01*
X040051Y029840D01*
X040051Y029990D01*
X039951Y029940D01*
X041144Y029062D02*
X041144Y028492D01*
X041151Y028485D01*
X038001Y029930D02*
X037988Y029928D01*
X037976Y029923D01*
X037966Y029915D01*
X037958Y029905D01*
X037953Y029893D01*
X037951Y029880D01*
X037951Y029790D01*
X040531Y031645D02*
X041001Y031840D01*
X045101Y031040D02*
X045101Y029490D01*
X046416Y029180D02*
X046741Y029180D01*
X046901Y029340D01*
X046878Y030300D02*
X046878Y031018D01*
X047151Y031290D01*
X047451Y030990D02*
X047193Y030733D01*
X047193Y030300D01*
X047801Y030322D02*
X047801Y031640D01*
X048138Y031327D02*
X048138Y030300D01*
X047823Y030300D02*
X047801Y030322D01*
X048138Y031327D02*
X048251Y031440D01*
X048501Y032990D02*
X048603Y033092D01*
X049041Y033092D01*
X051151Y033090D02*
X051451Y032790D01*
X051451Y023590D01*
X051501Y022790D02*
X056751Y022790D01*
X056751Y021490D01*
X051501Y021490D01*
X051501Y022790D01*
X051501Y022730D02*
X056751Y022730D01*
X056751Y022632D02*
X051501Y022632D01*
X051501Y022533D02*
X056751Y022533D01*
X056751Y022435D02*
X051501Y022435D01*
X051501Y022336D02*
X056751Y022336D01*
X056751Y022238D02*
X051501Y022238D01*
X051501Y022139D02*
X056751Y022139D01*
X056751Y022041D02*
X051501Y022041D01*
X051501Y021942D02*
X056751Y021942D01*
X056751Y021844D02*
X051501Y021844D01*
X051501Y021745D02*
X056751Y021745D01*
X056751Y021647D02*
X051501Y021647D01*
X051501Y021548D02*
X056751Y021548D01*
X057051Y021548D02*
X065392Y021548D01*
X065294Y021647D02*
X057051Y021647D01*
X057051Y021745D02*
X065195Y021745D01*
X065097Y021844D02*
X057051Y021844D01*
X057051Y021942D02*
X064998Y021942D01*
X064900Y022041D02*
X057051Y022041D01*
X057051Y022139D02*
X064801Y022139D01*
X064703Y022238D02*
X057051Y022238D01*
X057051Y022336D02*
X064604Y022336D01*
X064506Y022435D02*
X057051Y022435D01*
X057051Y022533D02*
X064407Y022533D01*
X064351Y022590D02*
X066451Y020490D01*
X066451Y014290D01*
X067051Y013690D01*
X069851Y013690D01*
X069851Y013090D01*
X066851Y013090D01*
X064551Y015390D01*
X064551Y018190D01*
X062851Y019790D01*
X058851Y019790D01*
X058851Y019290D01*
X057051Y019290D01*
X057051Y022590D01*
X064351Y022590D01*
X065491Y021450D02*
X057051Y021450D01*
X057051Y021351D02*
X065589Y021351D01*
X065688Y021253D02*
X057051Y021253D01*
X057051Y021154D02*
X065786Y021154D01*
X065885Y021056D02*
X057051Y021056D01*
X057051Y020957D02*
X065983Y020957D01*
X066082Y020859D02*
X057051Y020859D01*
X057051Y020760D02*
X066180Y020760D01*
X066279Y020662D02*
X057051Y020662D01*
X057051Y020563D02*
X066377Y020563D01*
X066451Y020465D02*
X057051Y020465D01*
X057051Y020366D02*
X066451Y020366D01*
X066451Y020268D02*
X057051Y020268D01*
X057051Y020169D02*
X066451Y020169D01*
X066451Y020071D02*
X057051Y020071D01*
X057051Y019972D02*
X066451Y019972D01*
X066451Y019874D02*
X057051Y019874D01*
X057051Y019775D02*
X058851Y019775D01*
X058851Y019677D02*
X057051Y019677D01*
X057051Y019578D02*
X058851Y019578D01*
X058851Y019480D02*
X057051Y019480D01*
X057051Y019381D02*
X058851Y019381D01*
X058851Y017990D02*
X058851Y015890D01*
X059651Y014790D01*
X064351Y014790D01*
X066551Y012690D01*
X069851Y012690D01*
X069851Y012090D01*
X066551Y012090D01*
X065851Y011390D01*
X060151Y011390D01*
X057051Y015290D01*
X057051Y017990D01*
X058851Y017990D01*
X058851Y017904D02*
X057051Y017904D01*
X057051Y017805D02*
X058851Y017805D01*
X058851Y017707D02*
X057051Y017707D01*
X057051Y017608D02*
X058851Y017608D01*
X058851Y017510D02*
X057051Y017510D01*
X057051Y017411D02*
X058851Y017411D01*
X058851Y017313D02*
X057051Y017313D01*
X057051Y017214D02*
X058851Y017214D01*
X058851Y017116D02*
X057051Y017116D01*
X057051Y017017D02*
X058851Y017017D01*
X058851Y016919D02*
X057051Y016919D01*
X057051Y016820D02*
X058851Y016820D01*
X058851Y016722D02*
X057051Y016722D01*
X057051Y016623D02*
X058851Y016623D01*
X058851Y016525D02*
X057051Y016525D01*
X057051Y016426D02*
X058851Y016426D01*
X058851Y016328D02*
X057051Y016328D01*
X057051Y016229D02*
X058851Y016229D01*
X058851Y016131D02*
X057051Y016131D01*
X057051Y016032D02*
X058851Y016032D01*
X058851Y015934D02*
X057051Y015934D01*
X057051Y015835D02*
X058890Y015835D01*
X058962Y015737D02*
X057051Y015737D01*
X057051Y015638D02*
X059034Y015638D01*
X059105Y015540D02*
X057051Y015540D01*
X057051Y015441D02*
X059177Y015441D01*
X059249Y015343D02*
X057051Y015343D01*
X057087Y015244D02*
X059320Y015244D01*
X059392Y015146D02*
X057165Y015146D01*
X057244Y015047D02*
X059464Y015047D01*
X059535Y014949D02*
X057322Y014949D01*
X057400Y014850D02*
X059607Y014850D01*
X058261Y013767D02*
X065423Y013767D01*
X065526Y013668D02*
X058340Y013668D01*
X058418Y013570D02*
X065629Y013570D01*
X065732Y013471D02*
X058496Y013471D01*
X058575Y013373D02*
X065835Y013373D01*
X065939Y013274D02*
X058653Y013274D01*
X058731Y013176D02*
X066042Y013176D01*
X066145Y013077D02*
X058810Y013077D01*
X058888Y012979D02*
X066248Y012979D01*
X066351Y012880D02*
X058966Y012880D01*
X059044Y012782D02*
X066455Y012782D01*
X066765Y013176D02*
X069851Y013176D01*
X069851Y013274D02*
X066666Y013274D01*
X066568Y013373D02*
X069851Y013373D01*
X069851Y013471D02*
X066469Y013471D01*
X066371Y013570D02*
X069851Y013570D01*
X069851Y013668D02*
X066272Y013668D01*
X066174Y013767D02*
X066974Y013767D01*
X066875Y013865D02*
X066075Y013865D01*
X065977Y013964D02*
X066777Y013964D01*
X066678Y014062D02*
X065878Y014062D01*
X065780Y014161D02*
X066580Y014161D01*
X066481Y014259D02*
X065681Y014259D01*
X065583Y014358D02*
X066451Y014358D01*
X066451Y014456D02*
X065484Y014456D01*
X065386Y014555D02*
X066451Y014555D01*
X066451Y014653D02*
X065287Y014653D01*
X065189Y014752D02*
X066451Y014752D01*
X066451Y014850D02*
X065090Y014850D01*
X064992Y014949D02*
X066451Y014949D01*
X066451Y015047D02*
X064893Y015047D01*
X064795Y015146D02*
X066451Y015146D01*
X066451Y015244D02*
X064696Y015244D01*
X064598Y015343D02*
X066451Y015343D01*
X066451Y015441D02*
X064551Y015441D01*
X064551Y015540D02*
X066451Y015540D01*
X066451Y015638D02*
X064551Y015638D01*
X064551Y015737D02*
X066451Y015737D01*
X066451Y015835D02*
X064551Y015835D01*
X064551Y015934D02*
X066451Y015934D01*
X066451Y016032D02*
X064551Y016032D01*
X064551Y016131D02*
X066451Y016131D01*
X066451Y016229D02*
X064551Y016229D01*
X064551Y016328D02*
X066451Y016328D01*
X066451Y016426D02*
X064551Y016426D01*
X064551Y016525D02*
X066451Y016525D01*
X066451Y016623D02*
X064551Y016623D01*
X064551Y016722D02*
X066451Y016722D01*
X066451Y016820D02*
X064551Y016820D01*
X064551Y016919D02*
X066451Y016919D01*
X066451Y017017D02*
X064551Y017017D01*
X064551Y017116D02*
X066451Y017116D01*
X066451Y017214D02*
X064551Y017214D01*
X064551Y017313D02*
X066451Y017313D01*
X066451Y017411D02*
X064551Y017411D01*
X064551Y017510D02*
X066451Y017510D01*
X066451Y017608D02*
X064551Y017608D01*
X064551Y017707D02*
X066451Y017707D01*
X066451Y017805D02*
X064551Y017805D01*
X064551Y017904D02*
X066451Y017904D01*
X066451Y018002D02*
X064551Y018002D01*
X064551Y018101D02*
X066451Y018101D01*
X066451Y018199D02*
X064541Y018199D01*
X064436Y018298D02*
X066451Y018298D01*
X066451Y018396D02*
X064332Y018396D01*
X064227Y018495D02*
X066451Y018495D01*
X066451Y018593D02*
X064122Y018593D01*
X064018Y018692D02*
X066451Y018692D01*
X066451Y018790D02*
X063913Y018790D01*
X063808Y018889D02*
X066451Y018889D01*
X066451Y018987D02*
X063704Y018987D01*
X063599Y019086D02*
X066451Y019086D01*
X066451Y019184D02*
X063494Y019184D01*
X063390Y019283D02*
X066451Y019283D01*
X066451Y019381D02*
X063285Y019381D01*
X063180Y019480D02*
X066451Y019480D01*
X066451Y019578D02*
X063076Y019578D01*
X062971Y019677D02*
X066451Y019677D01*
X066451Y019775D02*
X062866Y019775D01*
X067351Y018390D02*
X069351Y018390D01*
X064494Y014653D02*
X057557Y014653D01*
X057635Y014555D02*
X064597Y014555D01*
X064700Y014456D02*
X057713Y014456D01*
X057792Y014358D02*
X064803Y014358D01*
X064907Y014259D02*
X057870Y014259D01*
X057948Y014161D02*
X065010Y014161D01*
X065113Y014062D02*
X058027Y014062D01*
X058105Y013964D02*
X065216Y013964D01*
X065319Y013865D02*
X058183Y013865D01*
X057478Y014752D02*
X064391Y014752D01*
X066454Y011994D02*
X059671Y011994D01*
X059592Y012092D02*
X069851Y012092D01*
X069851Y012191D02*
X059514Y012191D01*
X059436Y012289D02*
X069851Y012289D01*
X069851Y012388D02*
X059358Y012388D01*
X059279Y012486D02*
X069851Y012486D01*
X069851Y012585D02*
X059201Y012585D01*
X059123Y012683D02*
X069851Y012683D01*
X066356Y011895D02*
X059749Y011895D01*
X059827Y011797D02*
X066257Y011797D01*
X066159Y011698D02*
X059906Y011698D01*
X059984Y011600D02*
X066060Y011600D01*
X065962Y011501D02*
X060062Y011501D01*
X060141Y011403D02*
X065863Y011403D01*
X056651Y013890D02*
X056651Y016290D01*
X055351Y016290D01*
X055351Y013890D01*
X055451Y013890D01*
X055451Y015490D01*
X055401Y015490D02*
X055401Y015640D01*
X055351Y015638D02*
X056651Y015638D01*
X056651Y015540D02*
X055351Y015540D01*
X055351Y015490D02*
X055401Y015490D01*
X055351Y015490D02*
X055351Y013890D01*
X056651Y013890D01*
X056651Y013964D02*
X055351Y013964D01*
X055351Y014062D02*
X056651Y014062D01*
X056651Y014161D02*
X055351Y014161D01*
X055351Y014259D02*
X056651Y014259D01*
X056651Y014358D02*
X055351Y014358D01*
X055351Y014456D02*
X056651Y014456D01*
X056651Y014555D02*
X055351Y014555D01*
X055351Y014653D02*
X056651Y014653D01*
X056651Y014752D02*
X055351Y014752D01*
X055351Y014850D02*
X056651Y014850D01*
X056651Y014949D02*
X055351Y014949D01*
X055351Y015047D02*
X056651Y015047D01*
X056651Y015146D02*
X055351Y015146D01*
X055351Y015244D02*
X056651Y015244D01*
X056651Y015343D02*
X055351Y015343D01*
X055351Y015441D02*
X056651Y015441D01*
X056651Y015737D02*
X055351Y015737D01*
X055351Y015690D02*
X055351Y015890D01*
X055551Y015890D01*
X055777Y016116D01*
X056001Y016116D01*
X055551Y015890D02*
X055351Y015690D01*
X055351Y015490D01*
X055351Y015835D02*
X056651Y015835D01*
X056651Y015934D02*
X055351Y015934D01*
X055351Y016032D02*
X056651Y016032D01*
X056651Y016131D02*
X055351Y016131D01*
X055351Y016229D02*
X056651Y016229D01*
X054451Y016229D02*
X054051Y016229D01*
X054051Y016131D02*
X054451Y016131D01*
X054451Y016032D02*
X054051Y016032D01*
X054051Y015934D02*
X054451Y015934D01*
X054451Y015840D02*
X054401Y015790D01*
X054401Y017040D01*
X054101Y017340D01*
X054451Y017313D02*
X052851Y017313D01*
X052851Y017411D02*
X054451Y017411D01*
X054451Y017510D02*
X052851Y017510D01*
X052851Y017608D02*
X054451Y017608D01*
X054451Y017640D02*
X054451Y014140D01*
X054051Y014140D01*
X054401Y014140D01*
X054451Y014190D01*
X054451Y015840D01*
X054451Y015835D02*
X054051Y015835D01*
X054051Y015737D02*
X054451Y015737D01*
X054401Y015790D02*
X054401Y014690D01*
X054451Y014653D02*
X054051Y014653D01*
X054051Y014555D02*
X054451Y014555D01*
X054451Y014456D02*
X054051Y014456D01*
X054051Y014358D02*
X054451Y014358D01*
X054451Y014259D02*
X054051Y014259D01*
X054051Y014161D02*
X054451Y014161D01*
X054051Y014140D02*
X054051Y015290D01*
X054225Y015464D01*
X054225Y015740D01*
X054051Y015638D02*
X054451Y015638D01*
X054451Y015540D02*
X054051Y015540D01*
X054051Y015441D02*
X054451Y015441D01*
X054451Y015343D02*
X054051Y015343D01*
X054051Y015244D02*
X054451Y015244D01*
X054451Y015146D02*
X054051Y015146D01*
X054051Y015047D02*
X054451Y015047D01*
X054451Y014949D02*
X054051Y014949D01*
X054051Y014850D02*
X054451Y014850D01*
X054451Y014752D02*
X054051Y014752D01*
X054051Y014140D02*
X054051Y016440D01*
X052851Y016440D01*
X052851Y017640D01*
X054451Y017640D01*
X054451Y017214D02*
X052851Y017214D01*
X052851Y017116D02*
X054451Y017116D01*
X054451Y017017D02*
X052851Y017017D01*
X052851Y016919D02*
X054451Y016919D01*
X054451Y016820D02*
X052851Y016820D01*
X052851Y016722D02*
X054451Y016722D01*
X054451Y016623D02*
X052851Y016623D01*
X052851Y016525D02*
X054451Y016525D01*
X054451Y016426D02*
X054051Y016426D01*
X054051Y016328D02*
X054451Y016328D01*
D63*
X054225Y015740D02*
X054231Y015734D01*
X054231Y014570D01*
X055651Y021764D02*
X055651Y022390D01*
X054401Y022340D02*
X054401Y032840D01*
X053801Y033440D01*
X053301Y033440D01*
X052401Y031595D02*
X052401Y028840D01*
X041451Y029940D02*
X041151Y029940D01*
X041001Y030090D01*
X040751Y029840D02*
X041001Y029590D01*
X040501Y030090D02*
X040451Y030140D01*
X040451Y030340D01*
X040451Y030540D01*
X039951Y029940D02*
X039951Y029934D01*
X036751Y027690D02*
X036651Y027690D01*
X036651Y027590D01*
X036696Y027590D02*
X036646Y027540D01*
X036646Y027040D01*
X036646Y026540D01*
X036651Y026535D01*
X036651Y026390D01*
X038551Y026390D01*
X038551Y026590D01*
X036851Y026590D01*
X036751Y026690D01*
X036751Y027690D01*
X036651Y026535D02*
X036696Y026490D01*
X036756Y026430D01*
X037451Y026430D01*
X038311Y026430D01*
X038351Y026469D01*
X032801Y029150D02*
X032801Y029680D01*
X032801Y030900D02*
X032061Y030900D01*
X032051Y030890D01*
X032801Y030900D02*
X032801Y031430D01*
X028801Y030890D02*
X028475Y030890D01*
X028475Y029690D02*
X028851Y029690D01*
X028451Y026040D02*
X028327Y025916D01*
X027651Y025916D01*
X020211Y032400D02*
X020161Y032370D01*
X020211Y032400D02*
X020251Y033090D01*
X019251Y033340D02*
X019251Y032370D01*
X018341Y032370D02*
X018341Y032300D01*
X018251Y033090D01*
X025118Y033664D02*
X025118Y034423D01*
D64*
X054901Y015390D02*
X054901Y014570D01*
D65*
X055551Y015640D03*
X056001Y015340D03*
X056451Y015590D03*
X054101Y017340D03*
X053251Y016890D03*
X050701Y016990D03*
X050651Y018190D03*
X050701Y019440D03*
X050651Y020590D03*
X050651Y021540D03*
X051801Y021790D03*
X052501Y021690D03*
X052901Y022190D03*
X052451Y022590D03*
X051751Y022540D03*
X050681Y022360D03*
X050751Y023640D03*
X051451Y023590D03*
X050701Y024640D03*
X049671Y024630D03*
X049671Y023490D03*
X047551Y023690D03*
X047621Y024730D03*
X044851Y022140D03*
X043551Y022390D03*
X042601Y022140D03*
X042501Y024340D03*
X039511Y026030D03*
X039511Y026580D03*
X039491Y027840D03*
X039491Y028560D03*
X040441Y028490D03*
X039491Y029400D03*
X039931Y030790D03*
X039921Y031380D03*
X040001Y032190D03*
X040401Y032290D03*
X040951Y032340D03*
X041001Y031840D03*
X041501Y032290D03*
X043901Y031090D03*
X044651Y030340D03*
X045101Y029490D03*
X046151Y029640D03*
X046901Y029340D03*
X047451Y029390D03*
X047601Y028490D03*
X048451Y028190D03*
X049051Y028290D03*
X049551Y029240D03*
X050651Y029340D03*
X050701Y028640D03*
X050701Y028090D03*
X050701Y027440D03*
X052401Y028840D03*
X050651Y030340D03*
X049851Y030340D03*
X049471Y031520D03*
X048251Y031440D03*
X047801Y031640D03*
X047451Y030990D03*
X047151Y031290D03*
X047151Y032090D03*
X047951Y032440D03*
X048151Y033140D03*
X048501Y032990D03*
X049201Y034190D03*
X049451Y034790D03*
X050301Y035440D03*
X052551Y035690D03*
X053101Y034740D03*
X054151Y034590D03*
X055101Y034190D03*
X053501Y032790D03*
X054901Y032340D03*
X053201Y031190D03*
X052001Y032190D03*
X052001Y032840D03*
X051151Y033090D03*
X050661Y033390D03*
X050101Y033140D03*
X049921Y032750D03*
X050651Y032760D03*
X050701Y031590D03*
X047051Y034490D03*
X047651Y034790D03*
X047201Y035440D03*
X046251Y034590D03*
X045851Y034190D03*
X045651Y033590D03*
X044901Y033840D03*
X044951Y032790D03*
X044751Y031690D03*
X046201Y031890D03*
X046551Y033140D03*
X045101Y035440D03*
X043501Y035440D03*
X042701Y035440D03*
X040401Y035440D03*
X038901Y035440D03*
X037301Y035440D03*
X035801Y035440D03*
X033901Y035440D03*
X031601Y035440D03*
X030801Y035140D03*
X030851Y033640D03*
X032501Y033040D03*
X033001Y033040D03*
X030801Y031940D03*
X027001Y033090D03*
X026651Y033090D03*
X022251Y034240D03*
X021451Y034240D03*
X021601Y035240D03*
X021101Y035240D03*
X020851Y036140D03*
X022301Y035490D03*
X024551Y037240D03*
X024151Y038890D03*
X026971Y040020D03*
X027971Y041020D03*
X028971Y042020D03*
X029971Y043020D03*
X030971Y044020D03*
X032351Y044740D03*
X032891Y045480D03*
X034351Y044740D03*
X036071Y045470D03*
X038351Y044740D03*
X038751Y043790D03*
X039851Y044740D03*
X040011Y045460D03*
X041351Y044740D03*
X042851Y044740D03*
X043041Y045480D03*
X044351Y044740D03*
X045851Y044740D03*
X045761Y045540D03*
X047351Y044740D03*
X048851Y044740D03*
X049441Y045530D03*
X050351Y044740D03*
X050951Y043540D03*
X051851Y044740D03*
X051741Y045470D03*
X053351Y044740D03*
X053601Y045490D03*
X055401Y045490D03*
X056791Y045490D03*
X060251Y045290D03*
X061101Y044770D03*
X061721Y044150D03*
X062871Y044490D03*
X061581Y045770D03*
X061861Y042720D03*
X062881Y042740D03*
X057251Y039090D03*
X057551Y037690D03*
X054751Y040290D03*
X055251Y041690D03*
X052521Y037440D03*
X053751Y036490D03*
X059371Y034090D03*
X060431Y033880D03*
X060951Y033440D03*
X060951Y032440D03*
X060391Y031950D03*
X060951Y030940D03*
X060391Y030450D03*
X060951Y029940D03*
X060391Y029450D03*
X059381Y028920D03*
X059371Y030090D03*
X059371Y031090D03*
X059371Y032590D03*
X061481Y034300D03*
X061951Y033580D03*
X061951Y032080D03*
X061951Y030580D03*
X061951Y029080D03*
X061931Y028280D03*
X061931Y027450D03*
X060951Y027420D03*
X060391Y027450D03*
X060951Y028440D03*
X060951Y026420D03*
X060391Y025450D03*
X059391Y025950D03*
X060951Y024420D03*
X061931Y024950D03*
X061931Y026450D03*
X059391Y023950D03*
X060391Y023450D03*
X061931Y023450D03*
X056501Y020140D03*
X050401Y015540D03*
X049501Y015540D03*
X048001Y015540D03*
X046501Y015540D03*
X045801Y015540D03*
X043901Y015540D03*
X043201Y015540D03*
X041101Y015540D03*
X039301Y015540D03*
X037301Y015540D03*
X036101Y015540D03*
X033101Y015540D03*
X032251Y015540D03*
X031101Y015540D03*
X030801Y017790D03*
X030801Y019740D03*
X031601Y019840D03*
X033351Y019790D03*
X035951Y019840D03*
X038051Y019840D03*
X038051Y022130D03*
X037251Y022590D03*
X035951Y022140D03*
X034601Y022290D03*
X033491Y022150D03*
X032151Y022180D03*
X030801Y022290D03*
X030101Y022150D03*
X028951Y022160D03*
X027441Y022160D03*
X026251Y022160D03*
X025021Y022170D03*
X024901Y023190D03*
X025301Y023590D03*
X023901Y023790D03*
X023251Y023090D03*
X021251Y023140D03*
X020701Y023140D03*
X020801Y023490D03*
X021301Y023990D03*
X021501Y024890D03*
X021001Y024890D03*
X020351Y024890D03*
X019751Y024990D03*
X019311Y024700D03*
X018601Y024840D03*
X018601Y025290D03*
X017621Y024370D03*
X018551Y023790D03*
X018851Y023540D03*
X019251Y023390D03*
X017621Y023680D03*
X017621Y023000D03*
X017621Y022400D03*
X017621Y021790D03*
X017621Y021170D03*
X017631Y020700D03*
X017981Y020300D03*
X018551Y020190D03*
X017831Y019320D03*
X018241Y018900D03*
X019271Y019220D03*
X019821Y019210D03*
X020451Y019690D03*
X021611Y019810D03*
X022971Y019810D03*
X024071Y019810D03*
X025151Y019840D03*
X026301Y019840D03*
X027451Y019840D03*
X028601Y019840D03*
X029801Y019840D03*
X030801Y024790D03*
X032301Y025690D03*
X030801Y026190D03*
X030851Y027040D03*
X030801Y027890D03*
X032551Y027540D03*
X033051Y027540D03*
X033901Y027990D03*
X034751Y027940D03*
X035651Y027940D03*
X037401Y032240D03*
X037601Y032840D03*
X038101Y033440D03*
X042951Y029740D03*
X042951Y029240D03*
X043151Y028840D03*
X043901Y029040D03*
X044801Y028290D03*
X045351Y027940D03*
X041741Y027840D03*
X041841Y028940D03*
X041991Y029690D03*
X045701Y030340D03*
X043851Y037790D03*
X044751Y038390D03*
X046951Y039790D03*
X047351Y042990D03*
X038951Y041090D03*
X038551Y041790D03*
X038151Y042290D03*
X036701Y042740D03*
X036201Y043240D03*
X038551Y040490D03*
X038151Y039790D03*
X037251Y039690D03*
X029641Y044900D03*
X028941Y045790D03*
X028081Y043320D03*
X025751Y041790D03*
X020501Y039740D03*
X019651Y039740D03*
X019001Y039540D03*
X018001Y027790D03*
X018551Y027390D03*
X018251Y027040D03*
X017451Y027040D03*
X017251Y027790D03*
X016551Y027790D03*
X016251Y026090D03*
X016901Y025990D03*
X016971Y025640D03*
X016151Y024990D03*
X015501Y024790D03*
X015501Y023140D03*
X015361Y021830D03*
X015691Y021830D03*
X017511Y018310D03*
X017221Y018000D03*
X017871Y017890D03*
X017851Y017210D03*
X017871Y016220D03*
X016681Y016740D03*
X016251Y016300D03*
X015761Y016070D03*
X014901Y015600D03*
X014431Y016020D03*
X015751Y014870D03*
X016101Y014460D03*
X016701Y014600D03*
X017811Y015350D03*
X017881Y014770D03*
X018891Y014770D03*
X018871Y015510D03*
X018861Y016300D03*
X018861Y017300D03*
X018861Y018300D03*
X018861Y013810D03*
X018831Y013000D03*
X017881Y013810D03*
X017411Y013480D03*
X017861Y013170D03*
X016741Y013410D03*
X017861Y012170D03*
X018831Y012000D03*
X018831Y011160D03*
X017861Y011170D03*
X017921Y009450D03*
X018181Y009030D03*
X018951Y008390D03*
X019601Y007990D03*
X019751Y008970D03*
X019261Y009440D03*
X021251Y008970D03*
X021101Y007990D03*
X022601Y007990D03*
X022751Y008970D03*
X024251Y008970D03*
X024101Y007990D03*
X025601Y007990D03*
X025751Y008970D03*
X027251Y008970D03*
X027101Y007990D03*
X028601Y007990D03*
X028751Y008970D03*
X030251Y008970D03*
X030101Y007990D03*
X031601Y007990D03*
X031751Y008970D03*
X033251Y008970D03*
X033101Y007990D03*
X034601Y007990D03*
X034751Y008970D03*
X036251Y008970D03*
X036101Y007990D03*
X037601Y007990D03*
X037751Y008970D03*
X039251Y008970D03*
X039101Y007990D03*
X040601Y007990D03*
X040751Y008970D03*
X042251Y008970D03*
X042101Y007990D03*
X043601Y007990D03*
X043751Y008970D03*
X045251Y008970D03*
X045101Y007990D03*
X046601Y007990D03*
X046751Y008970D03*
X048251Y008970D03*
X048101Y007990D03*
X049601Y007990D03*
X049751Y008970D03*
X051251Y008970D03*
X051101Y007990D03*
X052601Y007990D03*
X052751Y008970D03*
X054251Y008970D03*
X054101Y007990D03*
X055601Y007990D03*
X055751Y008970D03*
X057251Y008970D03*
X057101Y007990D03*
X058601Y007990D03*
X058751Y008970D03*
X059751Y008970D03*
X060291Y009440D03*
X060961Y010090D03*
X060911Y010850D03*
X061971Y010870D03*
X061971Y009870D03*
X061111Y008760D03*
X060101Y007990D03*
X056821Y012840D03*
X054611Y012850D03*
X053111Y012850D03*
X052111Y012850D03*
X050111Y012850D03*
X048111Y012850D03*
X045611Y012850D03*
X043611Y012850D03*
X041611Y012850D03*
X039611Y012850D03*
X037611Y012850D03*
X035611Y012850D03*
X033611Y012850D03*
X032111Y012850D03*
X030611Y012850D03*
X029211Y012850D03*
X027811Y012850D03*
X026411Y012850D03*
X025111Y012850D03*
X023911Y012850D03*
X022811Y012850D03*
X013051Y025640D03*
X010551Y025390D03*
X022801Y027790D03*
X026701Y027490D03*
X027101Y027490D03*
X028451Y026040D03*
X041201Y019840D03*
X044751Y019290D03*
X047801Y020440D03*
X048851Y021540D03*
D66*
X056401Y026390D02*
X058655Y026390D01*
X058655Y027390D02*
X056401Y027390D01*
X056401Y028390D02*
X058655Y028390D01*
X058655Y029390D02*
X056401Y029390D01*
X053551Y032185D02*
X053001Y032185D01*
X052401Y032185D01*
X052546Y032190D01*
X052001Y032190D01*
X052001Y032840D02*
X052005Y032845D01*
X050101Y033140D02*
X050055Y033140D01*
X049851Y033345D01*
X049921Y032750D02*
X049771Y032750D01*
X049541Y032520D01*
X049541Y032340D01*
X049471Y032270D01*
X049471Y032260D01*
X049358Y032147D01*
X049041Y032147D01*
X049048Y031840D02*
X049041Y031833D01*
X048608Y031833D01*
X048451Y031990D01*
X048451Y032340D01*
X048573Y032462D01*
X048258Y032777D01*
X045661Y032777D01*
X045661Y032462D02*
X047878Y032462D01*
X047901Y032440D01*
X047951Y032440D01*
X048573Y032462D02*
X049041Y032462D01*
X049451Y031840D02*
X049696Y032085D01*
X049951Y032085D01*
X049451Y031840D02*
X049048Y031840D01*
X049253Y031520D02*
X049251Y031518D01*
X049253Y031520D02*
X049471Y031520D01*
X049438Y031203D02*
X049041Y031203D01*
X049041Y030888D02*
X049051Y030878D01*
X049051Y028290D01*
X048453Y028192D02*
X048451Y028190D01*
X048453Y028192D02*
X048453Y030300D01*
X049438Y031203D02*
X049851Y030790D01*
X049851Y030340D01*
X047151Y032090D02*
X046578Y031518D01*
X045661Y031518D01*
X046563Y030300D02*
X046551Y030287D01*
X046551Y029590D01*
X046801Y029340D01*
X046901Y029340D01*
X046551Y033140D02*
X046551Y033667D01*
X046563Y033680D01*
X046248Y033680D02*
X046248Y033988D01*
X046251Y033990D01*
X046051Y034190D01*
X045851Y034190D01*
X046251Y034590D02*
X046878Y033962D01*
X046878Y033680D01*
X047193Y033680D02*
X047193Y034347D01*
X047051Y034490D01*
X047508Y034547D02*
X047508Y033680D01*
X047823Y033680D02*
X047823Y034162D01*
X048451Y034790D01*
X049451Y034790D01*
X049201Y034190D02*
X048651Y034190D01*
X048453Y033992D01*
X048453Y033680D01*
X048138Y033680D02*
X048138Y033177D01*
X048151Y033140D01*
X047508Y034547D02*
X047651Y034690D01*
X047651Y034790D01*
X045651Y033590D02*
X045651Y033102D01*
X045661Y033092D01*
X042175Y033290D02*
X042151Y033314D01*
X041588Y033927D02*
X041651Y033990D01*
X040005Y032990D02*
X039905Y033090D01*
X040951Y030990D02*
X040955Y030990D01*
X041655Y031200D01*
X037755Y022590D02*
X037251Y022590D01*
X026801Y029150D02*
X026761Y029190D01*
X026751Y029190D01*
X026801Y029240D01*
X025227Y030890D02*
X024411Y030890D01*
X024351Y030900D01*
X024427Y030900D01*
X024427Y031740D01*
X024401Y031714D01*
X024427Y031740D02*
X023801Y031740D01*
X023651Y031590D01*
X022801Y031590D01*
X022801Y032166D01*
X022801Y031590D02*
X021703Y031590D01*
X022501Y031642D01*
X023824Y037240D02*
X024551Y037240D01*
X037051Y043440D02*
X037051Y044390D01*
X037225Y044564D01*
X037562Y044564D01*
X037562Y043816D02*
X038288Y043816D01*
X038301Y043804D01*
X037746Y042745D02*
X037051Y043440D01*
X037746Y042745D02*
X037746Y042490D01*
X038151Y042290D02*
X038251Y042490D01*
X047351Y040395D02*
X047351Y039795D01*
X047355Y039790D01*
X050551Y041690D02*
X050551Y043064D01*
X050551Y043576D02*
X050814Y043576D01*
X050951Y043540D01*
X053551Y041690D02*
X053551Y040990D01*
X062248Y040425D02*
X062248Y039638D01*
X062248Y038851D01*
X062248Y038063D01*
X062248Y037276D02*
X062248Y036488D01*
X062248Y035701D01*
X062248Y034914D01*
X062351Y041585D02*
X062346Y041590D01*
X020351Y025295D02*
X020351Y024890D01*
X015185Y014629D02*
X015185Y014450D01*
X015191Y014445D01*
X015191Y013924D01*
X015207Y013940D01*
X015765Y013940D01*
D67*
X016101Y024535D02*
X016101Y024940D01*
X016151Y024990D01*
X017251Y026090D02*
X017372Y026090D01*
X017516Y026234D01*
X017516Y026490D02*
X016955Y026490D01*
X016951Y026495D01*
X018185Y026490D02*
X018451Y026490D01*
X018185Y026234D02*
X018185Y025925D01*
X017851Y025590D01*
X017846Y025590D01*
X049041Y032777D02*
X049053Y032790D01*
X049401Y032790D01*
X049851Y033240D01*
X049851Y033345D01*
D68*
X042151Y033314D02*
X041588Y033314D01*
X041588Y033927D01*
X041588Y033314D02*
X041172Y033314D01*
X041151Y033335D01*
X040601Y033335D01*
X040596Y033340D01*
X040005Y033340D02*
X040005Y032990D01*
X040005Y032740D01*
X037411Y031150D02*
X037151Y031290D01*
X037977Y029223D02*
X037451Y028697D01*
X037451Y027650D01*
X037490Y027590D01*
X038451Y027590D01*
X038371Y027611D01*
X038351Y027611D01*
X041327Y024971D02*
X041351Y024995D01*
X041327Y024971D02*
X041327Y024340D01*
X040951Y023190D02*
X041051Y023090D01*
X040951Y023190D02*
X040321Y023190D01*
X027651Y025916D02*
X027629Y025895D01*
X026851Y025895D01*
X026851Y026485D02*
X026820Y026516D01*
X026151Y026516D01*
X026181Y026485D01*
X026151Y026516D02*
X025372Y026516D01*
X025351Y026495D01*
X024529Y026495D01*
X024524Y026490D01*
X017257Y015730D02*
X017205Y015679D01*
X017205Y015050D01*
X017205Y014641D01*
X017411Y014435D01*
X017411Y013845D02*
X017411Y013480D01*
X016791Y013970D02*
X016386Y013970D01*
X016356Y013940D01*
X015251Y014515D02*
X015185Y014450D01*
X015251Y014515D02*
X015251Y015476D01*
X016751Y015476D02*
X016751Y015290D01*
X016991Y015050D01*
X017205Y015050D01*
D69*
X020701Y016040D02*
X022301Y014440D01*
X020701Y016040D02*
X020701Y019640D01*
X020701Y021590D01*
X056001Y015340D02*
X056001Y015190D01*
X056101Y015090D01*
D70*
X053561Y014570D02*
X052916Y014570D01*
X052896Y014590D01*
X041751Y024990D02*
X041355Y024990D01*
X041351Y024995D01*
X041329Y025564D02*
X040651Y025564D01*
X040625Y025590D01*
X039901Y025590D01*
X039901Y025485D01*
X039846Y025590D01*
X039074Y025590D01*
X039074Y025090D02*
X038551Y025090D01*
X038351Y025290D01*
X038351Y026469D01*
X037901Y024890D02*
X037801Y024790D01*
X037751Y024790D01*
X037751Y023461D01*
X037755Y023190D01*
X038346Y023190D02*
X038346Y024335D01*
X038601Y024590D01*
X039074Y024590D01*
X037751Y024790D02*
X037451Y025090D01*
X037027Y025090D01*
X037027Y024590D02*
X036255Y024590D01*
X036201Y024535D01*
X035472Y024535D01*
X035451Y024514D01*
X034651Y024514D01*
X034651Y024535D01*
X034651Y023945D02*
X034651Y023114D01*
X034627Y023090D01*
X034627Y022316D01*
X034601Y022290D01*
X038346Y023190D02*
X039180Y023190D01*
X041329Y025564D02*
X041351Y025585D01*
X052001Y032840D02*
X052046Y032885D01*
X052469Y032885D01*
X052514Y032840D01*
X052514Y033431D01*
X052505Y033440D01*
X052505Y034090D01*
X052505Y034690D01*
X052501Y034695D01*
X053096Y034735D02*
X053096Y034090D01*
X053096Y034735D02*
X053101Y034740D01*
X053096Y033440D02*
X053301Y033440D01*
X047351Y040985D02*
X047351Y042990D01*
X024877Y036240D02*
X023824Y036240D01*
X023824Y036740D01*
X023824Y037740D02*
X024001Y037740D01*
X024051Y037790D01*
X024051Y038195D01*
X024005Y038240D01*
X024005Y038745D01*
X024151Y038890D01*
X024005Y038735D02*
X024005Y038240D01*
X024005Y038735D02*
X023727Y039014D01*
X021501Y039014D01*
X020601Y039014D02*
X018951Y039014D01*
X021746Y036209D02*
X021777Y036240D01*
X021746Y036209D02*
X021746Y035740D01*
X021746Y035385D01*
X021601Y035240D01*
X025201Y032240D02*
X025201Y031766D01*
X025175Y031740D01*
X024401Y029000D02*
X024351Y029000D01*
X024361Y028961D02*
X024401Y029000D01*
X024361Y027819D02*
X023401Y027819D01*
X024361Y027819D02*
X024401Y027780D01*
X022477Y026490D02*
X021701Y026490D01*
X021561Y026630D01*
X021561Y026790D01*
X021482Y026790D01*
X021471Y026801D01*
X021471Y027790D01*
X021451Y027811D01*
X020330Y027790D02*
X020330Y027390D01*
X020330Y026790D01*
X020340Y026790D01*
X020330Y027390D02*
X019725Y027390D01*
X020351Y025885D02*
X020981Y025885D01*
X020989Y025883D01*
X020995Y025879D01*
X020999Y025873D01*
X021001Y025865D01*
X021003Y025873D01*
X021007Y025879D01*
X021013Y025883D01*
X021021Y025885D01*
X021551Y025885D01*
X021655Y025990D01*
X022477Y025990D01*
X022751Y025490D02*
X022751Y025065D01*
X023801Y024885D02*
X024216Y024885D01*
X024651Y024850D01*
X023251Y023090D02*
X023241Y023080D01*
X022795Y023080D01*
X019880Y029590D02*
X019251Y030219D01*
D71*
X040601Y031090D02*
X040751Y030840D01*
X040751Y030618D01*
D72*
X037977Y029764D02*
X037977Y029690D01*
X037977Y029223D01*
X037977Y029764D02*
X037976Y029772D01*
X037972Y029779D01*
X037966Y029785D01*
X037959Y029789D01*
X037951Y029790D01*
D73*
X033601Y029090D03*
X025201Y032240D03*
X023901Y029290D03*
D74*
X015451Y020860D02*
X015451Y020796D01*
X039451Y029840D02*
X040001Y029840D01*
X040001Y030040D01*
X039451Y030040D01*
X039451Y029840D01*
X039451Y029847D02*
X040001Y029847D01*
X040001Y029925D02*
X039451Y029925D01*
X039495Y029949D02*
X039510Y029934D01*
X039951Y029934D01*
X040001Y030004D02*
X039451Y030004D01*
X040961Y030750D02*
X040915Y030857D01*
X040917Y030865D01*
X040906Y030883D01*
X040906Y030904D01*
X040902Y030908D01*
X040911Y031000D01*
X040951Y031050D01*
X041361Y031410D01*
X041771Y031410D01*
X041771Y031050D01*
X040961Y030910D01*
X040961Y030750D01*
X040961Y030789D02*
X040944Y030789D01*
X040961Y030867D02*
X040915Y030867D01*
X040906Y030946D02*
X041167Y030946D01*
X041011Y031103D02*
X041771Y031103D01*
X041771Y031181D02*
X041100Y031181D01*
X041189Y031260D02*
X041771Y031260D01*
X041771Y031338D02*
X041279Y031338D01*
X041621Y031024D02*
X040930Y031024D01*
X060281Y035300D02*
X060667Y034914D01*
X060673Y034914D01*
X060281Y035300D02*
X060281Y036490D01*
X060281Y037990D01*
X060281Y039230D01*
X060673Y039650D01*
X060673Y039638D01*
X060673Y040425D02*
X061015Y040425D01*
X061061Y040380D01*
X061061Y038790D01*
X061061Y037290D01*
X061061Y035760D01*
X061001Y035700D01*
X060674Y035700D01*
X060673Y035701D01*
X060673Y036488D02*
X060282Y036488D01*
X060281Y036488D01*
X060280Y036489D01*
X060280Y036490D01*
X060673Y037276D02*
X061046Y037276D01*
X061051Y037277D01*
X061056Y037280D01*
X061059Y037285D01*
X061060Y037290D01*
X060673Y038063D02*
X060354Y038063D01*
X060338Y038061D01*
X060322Y038056D01*
X060308Y038047D01*
X060297Y038036D01*
X060288Y038022D01*
X060283Y038006D01*
X060281Y037990D01*
X060673Y038851D02*
X061000Y038851D01*
X061014Y038849D01*
X061026Y038845D01*
X061038Y038838D01*
X061048Y038828D01*
X061055Y038816D01*
X061059Y038804D01*
X061061Y038790D01*
D75*
X026801Y031430D02*
X026801Y030900D01*
X026801Y029680D02*
X026801Y029240D01*
M02*
