%
M48
M72
T01C0.0140
T02C0.0197
T03C0.0236
T04C0.0276
T05C0.0315
T06C0.0320
T07C0.0354
T08C0.0360
T09C0.0400
T10C0.0787
T11C0.1100
%
T01
X17861Y11170
X18831Y11160
X18831Y12000
X17861Y12170
X17861Y13170
X17411Y13480
X17881Y13810
X18861Y13810
X18831Y13000
X18891Y14770
X18871Y15510
X17881Y14770
X17811Y15350
X16701Y14600
X16101Y14460
X15751Y14870
X14901Y15600
X14431Y16020
X15761Y16070
X16251Y16300
X16681Y16740
X17851Y17210
X17871Y16220
X18861Y16300
X18861Y17300
X18861Y18300
X18241Y18900
X17831Y19320
X17981Y20300
X17631Y20700
X17621Y21170
X17621Y21790
X17621Y22400
X17621Y23000
X17621Y23680
X18551Y23790
X18851Y23540
X19251Y23390
X19311Y24700
X19751Y24990
X20351Y24890
X21001Y24890
X21501Y24890
X21301Y23990
X20801Y23490
X20701Y23140
X21251Y23140
X23251Y23090
X23901Y23790
X25301Y23590
X24901Y23190
X25021Y22170
X26251Y22160
X27441Y22160
X28951Y22160
X30101Y22150
X30801Y22290
X32151Y22180
X33491Y22150
X34601Y22290
X35951Y22140
X37251Y22590
X38051Y22130
X38051Y19840
X35951Y19840
X33351Y19790
X31601Y19840
X30801Y19740
X29801Y19840
X28601Y19840
X27451Y19840
X26301Y19840
X25151Y19840
X24071Y19810
X22971Y19810
X21611Y19810
X20451Y19690
X19821Y19210
X19271Y19220
X18551Y20190
X15691Y21830
X15361Y21830
X15501Y23140
X15501Y24790
X16151Y24990
X16971Y25640
X16901Y25990
X16251Y26090
X17451Y27040
X17251Y27790
X16551Y27790
X18001Y27790
X18551Y27390
X18251Y27040
X18601Y25290
X18601Y24840
X17621Y24370
X13051Y25640
X10551Y25390
X17511Y18310
X17221Y18000
X17871Y17890
X16741Y13410
X17921Y9450
X18181Y9030
X18951Y8390
X19601Y7990
X19751Y8970
X19261Y9440
X21251Y8970
X21101Y7990
X22601Y7990
X22751Y8970
X24251Y8970
X24101Y7990
X25601Y7990
X25751Y8970
X27251Y8970
X27101Y7990
X28601Y7990
X28751Y8970
X30251Y8970
X30101Y7990
X31601Y7990
X31751Y8970
X33251Y8970
X33101Y7990
X34601Y7990
X34751Y8970
X36251Y8970
X36101Y7990
X37601Y7990
X37751Y8970
X39251Y8970
X39101Y7990
X40601Y7990
X40751Y8970
X42251Y8970
X42101Y7990
X43601Y7990
X43751Y8970
X45251Y8970
X45101Y7990
X46601Y7990
X46751Y8970
X48251Y8970
X48101Y7990
X49601Y7990
X49751Y8970
X51251Y8970
X51101Y7990
X52601Y7990
X52751Y8970
X54251Y8970
X54101Y7990
X55601Y7990
X55751Y8970
X57251Y8970
X57101Y7990
X58601Y7990
X58751Y8970
X59751Y8970
X60291Y9440
X60961Y10090
X60911Y10850
X61971Y10870
X61971Y9870
X61111Y8760
X60101Y7990
X56821Y12840
X54611Y12850
X53111Y12850
X52111Y12850
X50111Y12850
X48111Y12850
X45611Y12850
X43611Y12850
X41611Y12850
X39611Y12850
X37611Y12850
X35611Y12850
X33611Y12850
X32111Y12850
X30611Y12850
X29211Y12850
X27811Y12850
X26411Y12850
X25111Y12850
X23911Y12850
X22811Y12850
X31101Y15540
X32251Y15540
X33101Y15540
X36101Y15540
X37301Y15540
X39301Y15540
X41101Y15540
X43201Y15540
X43901Y15540
X45801Y15540
X46501Y15540
X48001Y15540
X49501Y15540
X50401Y15540
X50701Y16990
X50651Y18190
X50701Y19440
X50651Y20590
X50651Y21540
X51801Y21790
X52501Y21690
X52901Y22190
X52451Y22590
X51751Y22540
X50681Y22360
X50751Y23640
X51451Y23590
X50701Y24640
X49671Y24630
X49671Y23490
X47551Y23690
X47621Y24730
X44851Y22140
X43551Y22390
X42601Y22140
X42501Y24340
X39511Y26030
X39511Y26580
X39491Y27840
X39491Y28560
X40441Y28490
X39491Y29400
X39931Y30790
X39921Y31380
X40001Y32190
X40401Y32290
X40951Y32340
X41001Y31840
X41501Y32290
X43901Y31090
X44651Y30340
X45101Y29490
X46151Y29640
X46901Y29340
X47451Y29390
X47601Y28490
X48451Y28190
X49051Y28290
X49551Y29240
X50651Y29340
X50701Y28640
X50701Y28090
X50701Y27440
X52401Y28840
X50651Y30340
X49851Y30340
X49471Y31520
X48251Y31440
X47801Y31640
X47451Y30990
X47151Y31290
X47151Y32090
X47951Y32440
X48151Y33140
X48501Y32990
X49201Y34190
X49451Y34790
X50301Y35440
X52551Y35690
X53101Y34740
X54151Y34590
X55101Y34190
X53501Y32790
X54901Y32340
X53201Y31190
X52001Y32190
X52001Y32840
X51151Y33090
X50661Y33390
X50101Y33140
X49921Y32750
X50651Y32760
X50701Y31590
X47051Y34490
X47651Y34790
X47201Y35440
X46251Y34590
X45851Y34190
X45651Y33590
X44901Y33840
X44951Y32790
X44751Y31690
X46201Y31890
X46551Y33140
X45101Y35440
X43501Y35440
X42701Y35440
X40401Y35440
X38901Y35440
X37301Y35440
X35801Y35440
X33901Y35440
X31601Y35440
X30801Y35140
X30851Y33640
X32501Y33040
X33001Y33040
X30801Y31940
X27001Y33090
X26651Y33090
X22251Y34240
X21451Y34240
X21601Y35240
X21101Y35240
X20851Y36140
X22301Y35490
X24551Y37240
X24151Y38890
X26971Y40020
X27971Y41020
X28971Y42020
X29971Y43020
X30971Y44020
X32351Y44740
X32891Y45480
X34351Y44740
X36071Y45470
X38351Y44740
X38751Y43790
X39851Y44740
X40011Y45460
X41351Y44740
X42851Y44740
X43041Y45480
X44351Y44740
X45851Y44740
X45761Y45540
X47351Y44740
X48851Y44740
X49441Y45530
X50351Y44740
X50951Y43540
X51851Y44740
X51741Y45470
X53351Y44740
X53601Y45490
X55401Y45490
X56791Y45490
X60251Y45290
X61101Y44770
X61721Y44150
X62871Y44490
X61581Y45770
X61861Y42720
X62881Y42740
X57251Y39090
X57551Y37690
X54751Y40290
X55251Y41690
X52521Y37440
X53751Y36490
X59371Y34090
X60431Y33880
X60951Y33440
X60951Y32440
X60391Y31950
X60951Y30940
X60391Y30450
X60951Y29940
X60391Y29450
X59381Y28920
X59371Y30090
X59371Y31090
X59371Y32590
X61481Y34300
X61951Y33580
X61951Y32080
X61951Y30580
X61951Y29080
X61931Y28280
X61931Y27450
X60951Y27420
X60391Y27450
X60951Y28440
X60951Y26420
X60391Y25450
X59391Y25950
X60951Y24420
X61931Y24950
X61931Y26450
X59391Y23950
X60391Y23450
X61931Y23450
X56501Y20140
X54101Y17340
X53251Y16890
X55551Y15640
X56001Y15340
X56451Y15590
X48851Y21540
X47801Y20440
X44751Y19290
X41201Y19840
X32301Y25690
X30801Y26190
X30851Y27040
X30801Y27890
X32551Y27540
X33051Y27540
X33901Y27990
X34751Y27940
X35651Y27940
X30801Y24790
X28451Y26040
X27101Y27490
X26701Y27490
X22801Y27790
X30801Y17790
X41741Y27840
X41841Y28940
X41991Y29690
X42951Y29740
X42951Y29240
X43151Y28840
X43901Y29040
X44801Y28290
X45351Y27940
X45701Y30340
X38101Y33440
X37601Y32840
X37401Y32240
X43851Y37790
X44751Y38390
X46951Y39790
X47351Y42990
X38951Y41090
X38551Y41790
X38151Y42290
X36701Y42740
X36201Y43240
X38551Y40490
X38151Y39790
X37251Y39690
X29641Y44900
X28941Y45790
X28081Y43320
X25751Y41790
X20501Y39740
X19651Y39740
X19001Y39540
T02
X25201Y32240
X23901Y29290
X33601Y29090
T03
X32051Y30890
X28801Y30890
X28851Y29690
X27401Y27940
X26141Y27730
X25431Y27540
X25551Y25690
X31751Y23340
X33251Y23390
X32851Y25040
X33701Y26240
X36151Y23340
X36001Y22740
X37901Y24890
X41051Y23090
X42001Y23390
X42951Y22940
X44451Y24440
X46351Y24590
X45801Y23090
X49351Y20890
X48401Y19140
X48601Y17540
X46151Y18590
X44501Y17390
X43251Y19040
X41501Y17440
X40401Y19690
X38501Y19040
X36501Y18990
X37351Y17540
X33001Y16540
X32001Y17290
X32501Y18640
X29201Y18140
X28001Y19290
X25551Y19140
X24301Y17590
X23001Y19340
X27201Y16790
X22301Y14440
X16791Y13970
X37151Y31290
X39651Y33090
X41651Y33990
X42421Y31720
X41001Y30090
X41001Y29590
X40501Y29590
X40501Y30090
X41251Y27040
X43001Y26090
X41751Y24990
X52101Y13690
X57751Y12490
X62651Y9840
X66351Y8990
X66151Y22590
X62901Y24040
X64151Y25490
X65501Y25240
X63101Y29040
X64351Y29290
X65351Y30240
X64751Y31340
X65801Y31440
X66001Y33540
X66151Y35340
X63201Y30790
X64901Y42890
X65201Y43840
X68001Y44340
X62346Y44295
X29101Y39090
X28401Y40640
X26351Y43890
X23251Y44040
X21451Y43390
X19151Y43240
X17851Y44290
X15551Y43690
T04
X23801Y39740
X27201Y36390
X25751Y35040
X27251Y33640
X28651Y34790
X32001Y34390
X33951Y33490
X35551Y32790
X35601Y34340
X38301Y34340
X40151Y34440
X37501Y36890
X34801Y38090
X42711Y31190
X43101Y30640
X40201Y24440
X52551Y15240
X52951Y15740
X54901Y15390
X19951Y14940
X14631Y13190
T05
X14820Y18786
X15607Y18786
X16394Y18786
X17182Y18786
X17182Y19574
X16394Y19574
X15607Y19574
X14820Y19574
X59886Y34914
X60673Y34914
X61461Y34914
X62248Y34914
X62248Y35701
X61461Y35701
X61461Y36488
X62248Y36488
X62248Y37276
X61461Y37276
X61461Y38063
X62248Y38063
X62248Y38851
X61461Y38851
X60673Y38851
X59886Y38851
X59886Y38063
X59886Y37276
X60673Y37276
X60673Y38063
X60673Y36488
X59886Y36488
X59886Y35701
X60673Y35701
X60673Y39638
X59886Y39638
X59886Y40425
X60673Y40425
X61461Y40425
X61461Y39638
X62248Y39638
X62248Y40425
T06
X20251Y33090
X19251Y33340
X18251Y33090
T07
X13351Y29190
X13351Y28190
X13351Y21690
X13351Y20690
X13351Y14190
X13351Y13190
T08
X31501Y39590
X32501Y39590
X32501Y40590
X31501Y40590
X31501Y41590
X32501Y41590
X32501Y42590
X31501Y42590
X55401Y29390
X56401Y29390
X56401Y28390
X55401Y28390
X55401Y27390
X56401Y27390
X56401Y26390
X55401Y26390
X67351Y26390
X67351Y25390
X67351Y24390
X67351Y23390
X67351Y22390
X67351Y21390
X67351Y20390
X67351Y19390
X67351Y18390
X67351Y17390
X67351Y16390
X67351Y15390
X67351Y14390
X67351Y13390
X67351Y12390
X67351Y11390
X69351Y11390
X69351Y12390
X69351Y13390
X69351Y14390
X69351Y15390
X69351Y16390
X69351Y17390
X69351Y18390
X69351Y19390
X69351Y20390
X69351Y21390
X69351Y22390
X69351Y23390
X69351Y24390
X69351Y25390
X69351Y26390
X69351Y27390
X69351Y28390
X69351Y29390
X69351Y30390
X69351Y31390
X69351Y32390
X69351Y33390
X69351Y34390
X69351Y35390
X69351Y36390
X69351Y37390
X69351Y38390
X69351Y39390
X69351Y40390
X69351Y41390
X69351Y42390
X67351Y42390
X67351Y41390
X67351Y40390
X67351Y39390
X67351Y38390
X67351Y37390
X67351Y36390
X67351Y35390
X67351Y34390
X67351Y33390
X67351Y32390
X67351Y31390
X67351Y30390
X67351Y29390
X67351Y28390
X67351Y27390
T09
X57701Y19640
X57701Y18640
X57701Y17640
X52401Y19090
X52401Y20090
X45251Y41190
X44251Y41190
X43251Y41190
X43251Y42190
X44251Y42190
X45251Y42190
X48551Y41690
X49551Y41690
X50551Y41690
X51551Y41690
X52551Y41690
X53551Y41690
T10
X11351Y31190
X11351Y27190
X11351Y23690
X11351Y19690
X11351Y16190
X11351Y12190
T11
X9851Y9390
X70351Y9390
X70351Y44390
M30
