%
M48
M72
T01C0.0140
T02C0.0197
T03C0.0236
T04C0.0276
T05C0.0320
T06C0.0354
T07C0.0360
T08C0.0400
T09C0.0787
T10C0.1100
%
T01
X16301Y16540
X15951Y16890
X15751Y17640
X15751Y18890
X14851Y19590
X13751Y19540
X13751Y20040
X13801Y18990
X12951Y18490
X11351Y18390
X9351Y17540
X16301Y20640
X16801Y20690
X17401Y20690
X17901Y20790
X17501Y21240
X17101Y21740
X17551Y21940
X17501Y22440
X17551Y22940
X17551Y23440
X17501Y23940
X17501Y24390
X17601Y24890
X17901Y25390
X18351Y25740
X18601Y25290
X18601Y24840
X19411Y24700
X19631Y25180
X20451Y25940
X19001Y27790
X19851Y28340
X21501Y28290
X22801Y27790
X26701Y27490
X27101Y27490
X28451Y26040
X30801Y26190
X30851Y27040
X30801Y27890
X32551Y27540
X33051Y27540
X33901Y27990
X34751Y27940
X35651Y27940
X32301Y25690
X30801Y24790
X30801Y22290
X30101Y22140
X28951Y22090
X27451Y22090
X26251Y22090
X25051Y22090
X24901Y23190
X25301Y23590
X23901Y23790
X23251Y23090
X23651Y20190
X25151Y20190
X26301Y20190
X27451Y20190
X28651Y20190
X29801Y20190
X30801Y19990
X31551Y20190
X33351Y20240
X33501Y22140
X32151Y22140
X34601Y22290
X35951Y22140
X37251Y22590
X38301Y22040
X38051Y20090
X35951Y20090
X41201Y20140
X42601Y22140
X43551Y22390
X44851Y22140
X47551Y23690
X47651Y24740
X49551Y24640
X50701Y24640
X50751Y23640
X50701Y22590
X51751Y22540
X52451Y22590
X52901Y22190
X52501Y21690
X51801Y21790
X50651Y21540
X50651Y20590
X50701Y19440
X50651Y18190
X50701Y16990
X50401Y15540
X49501Y15540
X48001Y15540
X46501Y15540
X45801Y15540
X43901Y15540
X43201Y15540
X41101Y15540
X39301Y15540
X37301Y15540
X36101Y15540
X33101Y15540
X32251Y15540
X31101Y15540
X30801Y17790
X21651Y20140
X19701Y20190
X19001Y20140
X18351Y20340
X17901Y18940
X17651Y17990
X19151Y16890
X19051Y16340
X18351Y16240
X17801Y16440
X19251Y23390
X18851Y23540
X18551Y23790
X15801Y26140
X16551Y27790
X17801Y27790
X13051Y25640
X10551Y25390
X21451Y34240
X22251Y34240
X21601Y35240
X21101Y35240
X20851Y36140
X22301Y35490
X24551Y37240
X25501Y37690
X24151Y38890
X20501Y39740
X19651Y39740
X19001Y39540
X26651Y33090
X27001Y33090
X30851Y33640
X32501Y33040
X33001Y33040
X30801Y31940
X30801Y35140
X31601Y35440
X33901Y35440
X35801Y35440
X37301Y35440
X38901Y35440
X40401Y35440
X42701Y35440
X43501Y35440
X45101Y35440
X46251Y34590
X45851Y34190
X45651Y33590
X44901Y33840
X44951Y32790
X44751Y31690
X43901Y31090
X44651Y30340
X45101Y29490
X46151Y29640
X46901Y29340
X47451Y29390
X47601Y28490
X48451Y28190
X49051Y28290
X49551Y29240
X50651Y29340
X50701Y28640
X50701Y28090
X50701Y27440
X52401Y28840
X50651Y30340
X49851Y30340
X49471Y31520
X48251Y31440
X47801Y31640
X47451Y30990
X47151Y31290
X47151Y32090
X47951Y32440
X48151Y33140
X48501Y32990
X49871Y32850
X50701Y32840
X50701Y33390
X52001Y32840
X52001Y32190
X51351Y31590
X50701Y31590
X53201Y31190
X54901Y32340
X53501Y32790
X55101Y34190
X54151Y34590
X53101Y34740
X50301Y35440
X49451Y34790
X49201Y34190
X48001Y35440
X47651Y34790
X47051Y34490
X47201Y35440
X46551Y33140
X46201Y31890
X45701Y30340
X43901Y29040
X43151Y28840
X42951Y29240
X42951Y29740
X41991Y29690
X41841Y28940
X41741Y27840
X40441Y28490
X39491Y28560
X39491Y27840
X39511Y26580
X39511Y26030
X42501Y24340
X45351Y27940
X44801Y28290
X41001Y31840
X40951Y32340
X41501Y32290
X40401Y32290
X40001Y32190
X39921Y31380
X39931Y30790
X39491Y29400
X37401Y32240
X37601Y32840
X38101Y33440
X43851Y37790
X44751Y38390
X46951Y39790
X47351Y42990
X50951Y43540
X62351Y41490
X59351Y31890
X49601Y23340
X48651Y21690
X47601Y20440
X44751Y19290
X53201Y20140
X56501Y20140
X54101Y17340
X53251Y16890
X55551Y15640
X56001Y15340
X56451Y15590
X38151Y39790
X38551Y40490
X37251Y39690
X38951Y41090
X38551Y41790
X38151Y42290
X36701Y42740
X36201Y43240
X38751Y43790
T02
X25201Y32240
X23901Y29290
X19751Y27290
X15851Y18390
X33601Y29090
T03
X32051Y30890
X28801Y30890
X28851Y29690
X27401Y27940
X26141Y27730
X25431Y27540
X25551Y25690
X21391Y24110
X20791Y24710
X20791Y23410
X21441Y23260
X21991Y22410
X18501Y19040
X20701Y16040
X36001Y22740
X36151Y23340
X37901Y24890
X41051Y23090
X41751Y24990
X41001Y29590
X41001Y30090
X40501Y30090
X40501Y29590
X42421Y31720
X39651Y33090
X41651Y33990
X37151Y31290
X49351Y20890
X48601Y17540
X44501Y17390
X41501Y17440
X40401Y19690
X38501Y19040
T04
X36701Y19790
X37351Y17540
X33001Y16540
X32501Y18640
X33201Y19690
X29201Y18140
X28001Y19290
X25551Y19140
X24301Y17590
X23001Y19340
X27201Y16790
X22901Y12640
X19951Y13740
X15401Y12740
X15201Y10440
X17501Y9690
X28201Y12090
X30001Y8890
X33951Y12090
X40001Y8940
X41301Y12090
X48601Y8790
X50451Y11990
X52101Y13690
X52551Y15240
X52951Y15740
X54901Y15390
X57751Y12490
X59651Y8840
X62651Y9840
X66351Y8990
X66151Y22590
X62901Y24040
X61301Y23840
X61401Y25640
X64151Y25490
X65501Y25240
X63101Y29040
X64351Y29290
X63201Y30790
X64751Y31340
X65801Y31440
X65401Y33240
X63651Y33240
X66151Y35340
X61101Y28940
X56201Y34190
X54301Y36040
X56251Y36690
X56451Y38740
X57101Y40940
X51901Y38590
X51951Y36390
X43101Y30640
X42711Y31190
X40151Y34440
X38301Y34340
X35601Y34340
X33951Y33490
X35551Y32790
X32001Y34390
X28651Y34790
X27251Y33640
X25751Y35040
X27201Y36390
X29101Y39090
X28401Y40640
X26351Y43890
X23251Y44040
X22751Y42090
X18951Y42240
X17851Y44290
X15551Y43690
X14701Y40240
X33701Y26240
X32851Y25040
X33251Y23390
X31751Y23340
X40201Y24440
X42001Y23390
X42951Y22940
X44451Y24440
X46351Y24590
X45801Y23090
X43001Y26090
X41251Y27040
X43251Y19040
X46151Y18590
X48401Y19140
X37501Y36890
X34801Y38090
X64401Y42290
X65201Y43840
X68001Y44340
T05
X20251Y33090
X19251Y33340
X18251Y33090
T06
X13351Y29190
X13351Y28190
X13351Y21690
X13351Y20690
X13351Y14190
X13351Y13190
T07
X31501Y39590
X32501Y39590
X32501Y40590
X31501Y40590
X31501Y41590
X32501Y41590
X32501Y42590
X31501Y42590
X55401Y29390
X56401Y29390
X56401Y28390
X55401Y28390
X55401Y27390
X56401Y27390
X56401Y26390
X55401Y26390
X67351Y26390
X67351Y25390
X67351Y24390
X67351Y23390
X67351Y22390
X67351Y21390
X67351Y20390
X67351Y19390
X67351Y18390
X67351Y17390
X67351Y16390
X67351Y15390
X67351Y14390
X67351Y13390
X67351Y12390
X67351Y11390
X69351Y11390
X69351Y12390
X69351Y13390
X69351Y14390
X69351Y15390
X69351Y16390
X69351Y17390
X69351Y18390
X69351Y19390
X69351Y20390
X69351Y21390
X69351Y22390
X69351Y23390
X69351Y24390
X69351Y25390
X69351Y26390
X69351Y27390
X69351Y28390
X69351Y29390
X69351Y30390
X69351Y31390
X69351Y32390
X69351Y33390
X69351Y34390
X69351Y35390
X69351Y36390
X69351Y37390
X69351Y38390
X69351Y39390
X69351Y40390
X69351Y41390
X69351Y42390
X67351Y42390
X67351Y41390
X67351Y40390
X67351Y39390
X67351Y38390
X67351Y37390
X67351Y36390
X67351Y35390
X67351Y34390
X67351Y33390
X67351Y32390
X67351Y31390
X67351Y30390
X67351Y29390
X67351Y28390
X67351Y27390
T08
X62351Y33390
X61351Y33390
X60351Y33390
X60351Y34390
X61351Y34390
X62351Y34390
X62351Y35390
X61351Y35390
X60351Y35390
X60351Y36390
X61351Y36390
X62351Y36390
X62351Y37390
X61351Y37390
X60351Y37390
X60351Y38390
X61351Y38390
X62351Y38390
X62351Y39390
X61351Y39390
X60351Y39390
X60351Y40390
X61351Y40390
X62351Y40390
X53551Y41690
X52551Y41690
X51551Y41690
X50551Y41690
X49551Y41690
X48551Y41690
X45251Y41190
X44251Y41190
X43251Y41190
X43251Y42190
X44251Y42190
X45251Y42190
X57701Y19640
X57701Y18640
X57701Y17640
T09
X11351Y16190
X11351Y19690
X11351Y23690
X11351Y27190
X11351Y31190
X11351Y12190
T10
X9851Y9390
X70351Y9390
X70351Y44390
M30
