G75*
%MOIN*%
%OFA0B0*%
%FSLAX24Y24*%
%IPPOS*%
%LPD*%
%AMOC8*
5,1,8,0,0,1.08239X$1,22.5*
%
%ADD10C,0.0436*%
%ADD11C,0.0554*%
%ADD12C,0.1181*%
%ADD13C,0.0600*%
%ADD14C,0.0520*%
%ADD15C,0.0560*%
%ADD16C,0.0436*%
%ADD17C,0.0300*%
%ADD18C,0.0396*%
%ADD19C,0.0100*%
%ADD20C,0.0357*%
D10*
X040501Y029590D03*
X041001Y029590D03*
X041001Y030090D03*
X040501Y030090D03*
D11*
X013351Y029190D03*
X013351Y028190D03*
X013351Y021690D03*
X013351Y020690D03*
X013351Y014190D03*
X013351Y013190D03*
D12*
X011351Y012190D03*
X011351Y016190D03*
X011351Y019690D03*
X011351Y023690D03*
X011351Y027190D03*
X011351Y031190D03*
D13*
X043251Y041190D03*
X044251Y041190D03*
X045251Y041190D03*
X045251Y042190D03*
X044251Y042190D03*
X043251Y042190D03*
X048551Y041690D03*
X049551Y041690D03*
X050551Y041690D03*
X051551Y041690D03*
X052551Y041690D03*
X053551Y041690D03*
X060351Y040390D03*
X061351Y040390D03*
X062351Y040390D03*
X062351Y039390D03*
X062351Y038390D03*
X061351Y038390D03*
X061351Y039390D03*
X060351Y039390D03*
X060351Y038390D03*
X060351Y037390D03*
X061351Y037390D03*
X062351Y037390D03*
X062351Y036390D03*
X061351Y036390D03*
X060351Y036390D03*
X060351Y035390D03*
X061351Y035390D03*
X062351Y035390D03*
X062351Y034390D03*
X061351Y034390D03*
X060351Y034390D03*
X060351Y033390D03*
X061351Y033390D03*
X062351Y033390D03*
X057701Y019640D03*
X057701Y018640D03*
X057701Y017640D03*
D14*
X020251Y033090D03*
X019251Y033340D03*
X018251Y033090D03*
D15*
X031501Y039590D03*
X032501Y039590D03*
X032501Y040590D03*
X031501Y040590D03*
X031501Y041590D03*
X032501Y041590D03*
X032501Y042590D03*
X031501Y042590D03*
X055401Y029390D03*
X056401Y029390D03*
X056401Y028390D03*
X055401Y028390D03*
X055401Y027390D03*
X056401Y027390D03*
X056401Y026390D03*
X055401Y026390D03*
X067351Y026390D03*
X067351Y025390D03*
X067351Y024390D03*
X067351Y023390D03*
X067351Y022390D03*
X067351Y021390D03*
X067351Y020390D03*
X067351Y019390D03*
X067351Y018390D03*
X067351Y017390D03*
X067351Y016390D03*
X067351Y015390D03*
X067351Y014390D03*
X067351Y013390D03*
X067351Y012390D03*
X067351Y011390D03*
X069351Y011390D03*
X069351Y012390D03*
X069351Y013390D03*
X069351Y014390D03*
X069351Y015390D03*
X069351Y016390D03*
X069351Y017390D03*
X069351Y018390D03*
X069351Y019390D03*
X069351Y020390D03*
X069351Y021390D03*
X069351Y022390D03*
X069351Y023390D03*
X069351Y024390D03*
X069351Y025390D03*
X069351Y026390D03*
X069351Y027390D03*
X069351Y028390D03*
X069351Y029390D03*
X069351Y030390D03*
X069351Y031390D03*
X069351Y032390D03*
X069351Y033390D03*
X069351Y034390D03*
X069351Y035390D03*
X069351Y036390D03*
X069351Y037390D03*
X069351Y038390D03*
X069351Y039390D03*
X069351Y040390D03*
X069351Y041390D03*
X069351Y042390D03*
X067351Y042390D03*
X067351Y041390D03*
X067351Y040390D03*
X067351Y039390D03*
X067351Y038390D03*
X067351Y037390D03*
X067351Y036390D03*
X067351Y035390D03*
X067351Y034390D03*
X067351Y033390D03*
X067351Y032390D03*
X067351Y031390D03*
X067351Y030390D03*
X067351Y029390D03*
X067351Y028390D03*
X067351Y027390D03*
D16*
X065501Y025240D03*
X064151Y025490D03*
X062901Y024040D03*
X061301Y023840D03*
X061401Y025640D03*
X061101Y028940D03*
X063101Y029040D03*
X064351Y029290D03*
X063201Y030790D03*
X064751Y031340D03*
X065801Y031440D03*
X065401Y033240D03*
X063651Y033240D03*
X066151Y035340D03*
X057101Y040940D03*
X056451Y038740D03*
X056251Y036690D03*
X054301Y036040D03*
X051951Y036390D03*
X051901Y038590D03*
X056201Y034190D03*
X064401Y042290D03*
X065201Y043840D03*
X068001Y044340D03*
X043101Y030640D03*
X042711Y031190D03*
X040151Y034440D03*
X038301Y034340D03*
X035601Y034340D03*
X033951Y033490D03*
X035551Y032790D03*
X032001Y034390D03*
X028651Y034790D03*
X027251Y033640D03*
X025751Y035040D03*
X027201Y036390D03*
X029101Y039090D03*
X028401Y040640D03*
X026351Y043890D03*
X023251Y044040D03*
X022751Y042090D03*
X018951Y042240D03*
X017851Y044290D03*
X015551Y043690D03*
X014701Y040240D03*
X033701Y026240D03*
X032851Y025040D03*
X033251Y023390D03*
X031751Y023340D03*
X033201Y019690D03*
X032501Y018640D03*
X033001Y016540D03*
X029201Y018140D03*
X028001Y019290D03*
X025551Y019140D03*
X024301Y017590D03*
X023001Y019340D03*
X027201Y016790D03*
X022901Y012640D03*
X019951Y013740D03*
X015401Y012740D03*
X015201Y010440D03*
X017501Y009690D03*
X028201Y012090D03*
X030001Y008890D03*
X033951Y012090D03*
X040001Y008940D03*
X041301Y012090D03*
X037351Y017540D03*
X036701Y019790D03*
X042001Y023390D03*
X042951Y022940D03*
X044451Y024440D03*
X046351Y024590D03*
X045801Y023090D03*
X043001Y026090D03*
X041251Y027040D03*
X040201Y024440D03*
X043251Y019040D03*
X046151Y018590D03*
X048401Y019140D03*
X052951Y015740D03*
X052551Y015240D03*
X052101Y013690D03*
X050451Y011990D03*
X048601Y008790D03*
X054901Y015390D03*
X057751Y012490D03*
X059651Y008840D03*
X062651Y009840D03*
X066351Y008990D03*
X066151Y022590D03*
X037501Y036890D03*
X034801Y038090D03*
D17*
X037251Y039690D03*
X038151Y039790D03*
X038551Y040490D03*
X038951Y041090D03*
X038551Y041790D03*
X038151Y042290D03*
X036701Y042740D03*
X036201Y043240D03*
X038751Y043790D03*
X044751Y038390D03*
X043851Y037790D03*
X043501Y035440D03*
X042701Y035440D03*
X040401Y035440D03*
X038901Y035440D03*
X037301Y035440D03*
X035801Y035440D03*
X033901Y035440D03*
X031601Y035440D03*
X030801Y035140D03*
X030851Y033640D03*
X032501Y033040D03*
X033001Y033040D03*
X030801Y031940D03*
X027001Y033090D03*
X026651Y033090D03*
X022251Y034240D03*
X021451Y034240D03*
X021601Y035240D03*
X021101Y035240D03*
X020851Y036140D03*
X022301Y035490D03*
X024551Y037240D03*
X025501Y037690D03*
X024151Y038890D03*
X020501Y039740D03*
X019651Y039740D03*
X019001Y039540D03*
X019851Y028340D03*
X019001Y027790D03*
X017801Y027790D03*
X016551Y027790D03*
X015801Y026140D03*
X017601Y024890D03*
X017501Y024390D03*
X017501Y023940D03*
X017551Y023440D03*
X017551Y022940D03*
X017501Y022440D03*
X017551Y021940D03*
X017101Y021740D03*
X017501Y021240D03*
X017401Y020690D03*
X017901Y020790D03*
X018351Y020340D03*
X019001Y020140D03*
X019701Y020190D03*
X017901Y018940D03*
X017651Y017990D03*
X019151Y016890D03*
X019051Y016340D03*
X018351Y016240D03*
X017801Y016440D03*
X016301Y016540D03*
X015951Y016890D03*
X015751Y017640D03*
X015751Y018890D03*
X014851Y019590D03*
X013751Y019540D03*
X013751Y020040D03*
X013801Y018990D03*
X012951Y018490D03*
X011351Y018390D03*
X009351Y017540D03*
X016301Y020640D03*
X016801Y020690D03*
X018851Y023540D03*
X018551Y023790D03*
X019251Y023390D03*
X019411Y024700D03*
X019631Y025180D03*
X018601Y025290D03*
X018601Y024840D03*
X017901Y025390D03*
X018351Y025740D03*
X020451Y025940D03*
X022801Y027790D03*
X021501Y028290D03*
X026701Y027490D03*
X027101Y027490D03*
X028451Y026040D03*
X030801Y026190D03*
X030851Y027040D03*
X030801Y027890D03*
X032551Y027540D03*
X033051Y027540D03*
X033901Y027990D03*
X034751Y027940D03*
X035651Y027940D03*
X032301Y025690D03*
X030801Y024790D03*
X030801Y022290D03*
X030101Y022140D03*
X028951Y022090D03*
X027451Y022090D03*
X026251Y022090D03*
X025051Y022090D03*
X024901Y023190D03*
X025301Y023590D03*
X023901Y023790D03*
X023251Y023090D03*
X023651Y020190D03*
X025151Y020190D03*
X026301Y020190D03*
X027451Y020190D03*
X028651Y020190D03*
X029801Y020190D03*
X030801Y019990D03*
X031551Y020190D03*
X033351Y020240D03*
X033501Y022140D03*
X032151Y022140D03*
X034601Y022290D03*
X035951Y022140D03*
X037251Y022590D03*
X038301Y022040D03*
X038051Y020090D03*
X035951Y020090D03*
X041201Y020140D03*
X042601Y022140D03*
X043551Y022390D03*
X044851Y022140D03*
X047551Y023690D03*
X047651Y024740D03*
X049551Y024640D03*
X050701Y024640D03*
X050751Y023640D03*
X050701Y022590D03*
X051751Y022540D03*
X052451Y022590D03*
X052901Y022190D03*
X052501Y021690D03*
X051801Y021790D03*
X050651Y021540D03*
X050651Y020590D03*
X050701Y019440D03*
X050651Y018190D03*
X050701Y016990D03*
X050401Y015540D03*
X049501Y015540D03*
X048001Y015540D03*
X046501Y015540D03*
X045801Y015540D03*
X043901Y015540D03*
X043201Y015540D03*
X041101Y015540D03*
X039301Y015540D03*
X037301Y015540D03*
X036101Y015540D03*
X033101Y015540D03*
X032251Y015540D03*
X031101Y015540D03*
X030801Y017790D03*
X021651Y020140D03*
X013051Y025640D03*
X010551Y025390D03*
X037401Y032240D03*
X037601Y032840D03*
X038101Y033440D03*
X040001Y032190D03*
X040401Y032290D03*
X040951Y032340D03*
X041001Y031840D03*
X041501Y032290D03*
X039921Y031380D03*
X039931Y030790D03*
X039491Y029400D03*
X039491Y028560D03*
X039491Y027840D03*
X040441Y028490D03*
X041741Y027840D03*
X041841Y028940D03*
X041991Y029690D03*
X042951Y029740D03*
X042951Y029240D03*
X043151Y028840D03*
X043901Y029040D03*
X044801Y028290D03*
X045351Y027940D03*
X045101Y029490D03*
X046151Y029640D03*
X046901Y029340D03*
X047451Y029390D03*
X047601Y028490D03*
X048451Y028190D03*
X049051Y028290D03*
X049551Y029240D03*
X050651Y029340D03*
X050701Y028640D03*
X050701Y028090D03*
X050701Y027440D03*
X052401Y028840D03*
X050651Y030340D03*
X049851Y030340D03*
X049471Y031520D03*
X048251Y031440D03*
X047801Y031640D03*
X047451Y030990D03*
X047151Y031290D03*
X047151Y032090D03*
X047951Y032440D03*
X048151Y033140D03*
X048501Y032990D03*
X049871Y032850D03*
X050701Y032840D03*
X050701Y033390D03*
X052001Y032840D03*
X052001Y032190D03*
X051351Y031590D03*
X050701Y031590D03*
X053201Y031190D03*
X054901Y032340D03*
X053501Y032790D03*
X055101Y034190D03*
X054151Y034590D03*
X053101Y034740D03*
X050301Y035440D03*
X049451Y034790D03*
X049201Y034190D03*
X048001Y035440D03*
X047651Y034790D03*
X047051Y034490D03*
X046251Y034590D03*
X045851Y034190D03*
X045651Y033590D03*
X044901Y033840D03*
X044951Y032790D03*
X044751Y031690D03*
X043901Y031090D03*
X044651Y030340D03*
X045701Y030340D03*
X046201Y031890D03*
X046551Y033140D03*
X047201Y035440D03*
X045101Y035440D03*
X046951Y039790D03*
X047351Y042990D03*
X050951Y043540D03*
X062351Y041490D03*
X059351Y031890D03*
X049601Y023340D03*
X048651Y021690D03*
X047601Y020440D03*
X044751Y019290D03*
X042501Y024340D03*
X039511Y026030D03*
X039511Y026580D03*
X053201Y020140D03*
X056501Y020140D03*
X054101Y017340D03*
X053251Y016890D03*
X055551Y015640D03*
X056001Y015340D03*
X056451Y015590D03*
D18*
X048601Y017540D03*
X049351Y020890D03*
X044501Y017390D03*
X041501Y017440D03*
X040401Y019690D03*
X038501Y019040D03*
X036001Y022740D03*
X036151Y023340D03*
X037901Y024890D03*
X041051Y023090D03*
X041751Y024990D03*
X037151Y031290D03*
X039651Y033090D03*
X041651Y033990D03*
X042421Y031720D03*
X032051Y030890D03*
X028801Y030890D03*
X028851Y029690D03*
X027401Y027940D03*
X026141Y027730D03*
X025431Y027540D03*
X025551Y025690D03*
X021391Y024110D03*
X020791Y024710D03*
X020791Y023410D03*
X021441Y023260D03*
X021991Y022410D03*
X018501Y019040D03*
X020701Y016040D03*
D19*
X008901Y009070D02*
X008901Y007650D01*
X071001Y007650D01*
X071001Y008626D01*
X070917Y008542D01*
X070550Y008390D01*
X070152Y008390D01*
X069784Y008542D01*
X069503Y008824D01*
X069351Y009191D01*
X069351Y009589D01*
X069503Y009956D01*
X069784Y010238D01*
X070152Y010390D01*
X070550Y010390D01*
X070917Y010238D01*
X071001Y010154D01*
X071001Y043626D01*
X070917Y043542D01*
X070550Y043390D01*
X070152Y043390D01*
X069784Y043542D01*
X069503Y043824D01*
X069351Y044191D01*
X069351Y044589D01*
X069503Y044956D01*
X069784Y045238D01*
X070152Y045390D01*
X070550Y045390D01*
X070917Y045238D01*
X071001Y045154D01*
X071001Y046130D01*
X013901Y046130D01*
X013901Y032100D01*
X013832Y031935D01*
X013706Y031809D01*
X013540Y031740D01*
X011989Y031740D01*
X012063Y031666D01*
X012191Y031357D01*
X012191Y031023D01*
X012063Y030714D01*
X011827Y030477D01*
X011518Y030349D01*
X011183Y030349D01*
X010874Y030477D01*
X010638Y030714D01*
X010510Y031023D01*
X010510Y031357D01*
X010638Y031666D01*
X010712Y031740D01*
X008901Y031740D01*
X008901Y009710D01*
X009003Y009956D01*
X009284Y010238D01*
X009652Y010390D01*
X010050Y010390D01*
X010417Y010238D01*
X010698Y009956D01*
X010851Y009589D01*
X010851Y009191D01*
X010698Y008824D01*
X010417Y008542D01*
X010050Y008390D01*
X009652Y008390D01*
X009284Y008542D01*
X009003Y008824D01*
X008901Y009070D01*
X008901Y009039D02*
X008914Y009039D01*
X008901Y008940D02*
X008955Y008940D01*
X008995Y008842D02*
X008901Y008842D01*
X008901Y008743D02*
X009083Y008743D01*
X009182Y008645D02*
X008901Y008645D01*
X008901Y008546D02*
X009280Y008546D01*
X009512Y008448D02*
X008901Y008448D01*
X008901Y008349D02*
X071001Y008349D01*
X071001Y008251D02*
X008901Y008251D01*
X008901Y008152D02*
X071001Y008152D01*
X071001Y008054D02*
X008901Y008054D01*
X008901Y007955D02*
X071001Y007955D01*
X071001Y007857D02*
X008901Y007857D01*
X008901Y007758D02*
X071001Y007758D01*
X071001Y007660D02*
X008901Y007660D01*
X010189Y008448D02*
X070012Y008448D01*
X069780Y008546D02*
X010421Y008546D01*
X010520Y008645D02*
X069682Y008645D01*
X069583Y008743D02*
X010618Y008743D01*
X010706Y008842D02*
X069495Y008842D01*
X069455Y008940D02*
X010747Y008940D01*
X010788Y009039D02*
X069414Y009039D01*
X069373Y009137D02*
X010828Y009137D01*
X010851Y009236D02*
X069351Y009236D01*
X069351Y009334D02*
X010851Y009334D01*
X010851Y009433D02*
X069351Y009433D01*
X069351Y009531D02*
X010851Y009531D01*
X010834Y009630D02*
X069368Y009630D01*
X069408Y009728D02*
X010793Y009728D01*
X010752Y009827D02*
X069449Y009827D01*
X069490Y009925D02*
X010711Y009925D01*
X010631Y010024D02*
X069570Y010024D01*
X069669Y010122D02*
X010533Y010122D01*
X010434Y010221D02*
X069767Y010221D01*
X069981Y010319D02*
X010220Y010319D01*
X009481Y010319D02*
X008901Y010319D01*
X008901Y010221D02*
X009267Y010221D01*
X009169Y010122D02*
X008901Y010122D01*
X008901Y010024D02*
X009070Y010024D01*
X008990Y009925D02*
X008901Y009925D01*
X008901Y009827D02*
X008949Y009827D01*
X008908Y009728D02*
X008901Y009728D01*
X008901Y010418D02*
X071001Y010418D01*
X071001Y010516D02*
X008901Y010516D01*
X008901Y010615D02*
X071001Y010615D01*
X071001Y010713D02*
X008901Y010713D01*
X008901Y010812D02*
X071001Y010812D01*
X071001Y010910D02*
X069577Y010910D01*
X069651Y010941D02*
X069800Y011090D01*
X069881Y011285D01*
X069881Y011495D01*
X069800Y011690D01*
X069651Y011839D01*
X069528Y011890D01*
X069651Y011941D01*
X069800Y012090D01*
X069881Y012285D01*
X069881Y012495D01*
X069800Y012690D01*
X069651Y012839D01*
X069528Y012890D01*
X069651Y012941D01*
X069800Y013090D01*
X069881Y013285D01*
X069881Y013495D01*
X069800Y013690D01*
X069651Y013839D01*
X069528Y013890D01*
X069651Y013941D01*
X069800Y014090D01*
X069881Y014285D01*
X069881Y014495D01*
X069800Y014690D01*
X069651Y014839D01*
X069528Y014890D01*
X069651Y014941D01*
X069800Y015090D01*
X069881Y015285D01*
X069881Y015495D01*
X069800Y015690D01*
X069651Y015839D01*
X069528Y015890D01*
X069651Y015941D01*
X069800Y016090D01*
X069881Y016285D01*
X069881Y016495D01*
X069800Y016690D01*
X069651Y016839D01*
X069528Y016890D01*
X069651Y016941D01*
X069800Y017090D01*
X069881Y017285D01*
X069881Y017495D01*
X069800Y017690D01*
X069651Y017839D01*
X069528Y017890D01*
X069651Y017941D01*
X069800Y018090D01*
X069881Y018285D01*
X069881Y018495D01*
X071001Y018495D01*
X071001Y018593D02*
X069840Y018593D01*
X069800Y018690D02*
X069651Y018839D01*
X069528Y018890D01*
X069651Y018941D01*
X069800Y019090D01*
X069881Y019285D01*
X069881Y019495D01*
X069800Y019690D01*
X069651Y019839D01*
X069528Y019890D01*
X069651Y019941D01*
X069800Y020090D01*
X069881Y020285D01*
X069881Y020495D01*
X069800Y020690D01*
X069651Y020839D01*
X069528Y020890D01*
X069651Y020941D01*
X069800Y021090D01*
X069881Y021285D01*
X069881Y021495D01*
X069800Y021690D01*
X069651Y021839D01*
X069528Y021890D01*
X069651Y021941D01*
X069800Y022090D01*
X069881Y022285D01*
X069881Y022495D01*
X069800Y022690D01*
X069651Y022839D01*
X069528Y022890D01*
X069651Y022941D01*
X069800Y023090D01*
X069881Y023285D01*
X069881Y023495D01*
X069800Y023690D01*
X069651Y023839D01*
X069528Y023890D01*
X069651Y023941D01*
X069800Y024090D01*
X069881Y024285D01*
X069881Y024495D01*
X069800Y024690D01*
X069651Y024839D01*
X069528Y024890D01*
X069651Y024941D01*
X069800Y025090D01*
X069881Y025285D01*
X069881Y025495D01*
X069800Y025690D01*
X069651Y025839D01*
X069528Y025890D01*
X069651Y025941D01*
X069800Y026090D01*
X069881Y026285D01*
X069881Y026495D01*
X069800Y026690D01*
X069651Y026839D01*
X069528Y026890D01*
X069651Y026941D01*
X069800Y027090D01*
X069881Y027285D01*
X069881Y027495D01*
X069800Y027690D01*
X069651Y027839D01*
X069528Y027890D01*
X069651Y027941D01*
X069800Y028090D01*
X069881Y028285D01*
X069881Y028495D01*
X069800Y028690D01*
X069651Y028839D01*
X069528Y028890D01*
X069651Y028941D01*
X069800Y029090D01*
X069881Y029285D01*
X069881Y029495D01*
X069800Y029690D01*
X069651Y029839D01*
X069528Y029890D01*
X069651Y029941D01*
X069800Y030090D01*
X069881Y030285D01*
X069881Y030495D01*
X069800Y030690D01*
X069651Y030839D01*
X069528Y030890D01*
X069651Y030941D01*
X069800Y031090D01*
X069881Y031285D01*
X069881Y031495D01*
X069800Y031690D01*
X069651Y031839D01*
X069528Y031890D01*
X069651Y031941D01*
X069800Y032090D01*
X069881Y032285D01*
X071001Y032285D01*
X071001Y032383D02*
X069881Y032383D01*
X069881Y032285D02*
X069881Y032495D01*
X069800Y032690D01*
X069651Y032839D01*
X069528Y032890D01*
X069651Y032941D01*
X069800Y033090D01*
X069881Y033285D01*
X069881Y033495D01*
X069800Y033690D01*
X069651Y033839D01*
X069528Y033890D01*
X069651Y033941D01*
X069800Y034090D01*
X069881Y034285D01*
X069881Y034495D01*
X069800Y034690D01*
X069651Y034839D01*
X069528Y034890D01*
X069651Y034941D01*
X069800Y035090D01*
X069881Y035285D01*
X069881Y035495D01*
X069800Y035690D01*
X069651Y035839D01*
X069528Y035890D01*
X069651Y035941D01*
X069800Y036090D01*
X069881Y036285D01*
X069881Y036495D01*
X069800Y036690D01*
X069651Y036839D01*
X069528Y036890D01*
X069651Y036941D01*
X069800Y037090D01*
X069881Y037285D01*
X069881Y037495D01*
X069800Y037690D01*
X069651Y037839D01*
X069528Y037890D01*
X069651Y037941D01*
X069800Y038090D01*
X069881Y038285D01*
X069881Y038495D01*
X069800Y038690D01*
X069651Y038839D01*
X069528Y038890D01*
X069651Y038941D01*
X069800Y039090D01*
X069881Y039285D01*
X069881Y039495D01*
X069800Y039690D01*
X069651Y039839D01*
X069528Y039890D01*
X069651Y039941D01*
X069800Y040090D01*
X069881Y040285D01*
X069881Y040495D01*
X069800Y040690D01*
X069651Y040839D01*
X069528Y040890D01*
X069651Y040941D01*
X069800Y041090D01*
X069881Y041285D01*
X069881Y041495D01*
X069800Y041690D01*
X069651Y041839D01*
X071001Y041839D01*
X071001Y041741D02*
X069749Y041741D01*
X069820Y041642D02*
X071001Y041642D01*
X071001Y041544D02*
X069861Y041544D01*
X069881Y041445D02*
X071001Y041445D01*
X071001Y041347D02*
X069881Y041347D01*
X069866Y041248D02*
X071001Y041248D01*
X071001Y041150D02*
X069825Y041150D01*
X069761Y041051D02*
X071001Y041051D01*
X071001Y040953D02*
X069663Y040953D01*
X069615Y040854D02*
X071001Y040854D01*
X071001Y040756D02*
X069734Y040756D01*
X069814Y040657D02*
X071001Y040657D01*
X071001Y040559D02*
X069854Y040559D01*
X069881Y040460D02*
X071001Y040460D01*
X071001Y040362D02*
X069881Y040362D01*
X069872Y040263D02*
X071001Y040263D01*
X071001Y040165D02*
X069831Y040165D01*
X069776Y040066D02*
X071001Y040066D01*
X071001Y039968D02*
X069678Y039968D01*
X069578Y039869D02*
X071001Y039869D01*
X071001Y039771D02*
X069719Y039771D01*
X069807Y039672D02*
X071001Y039672D01*
X071001Y039574D02*
X069848Y039574D01*
X069881Y039475D02*
X071001Y039475D01*
X071001Y039377D02*
X069881Y039377D01*
X069878Y039278D02*
X071001Y039278D01*
X071001Y039180D02*
X069837Y039180D01*
X069791Y039081D02*
X071001Y039081D01*
X071001Y038983D02*
X069693Y038983D01*
X069542Y038884D02*
X071001Y038884D01*
X071001Y038786D02*
X069704Y038786D01*
X069801Y038687D02*
X071001Y038687D01*
X071001Y038589D02*
X069842Y038589D01*
X069881Y038490D02*
X071001Y038490D01*
X071001Y038392D02*
X069881Y038392D01*
X069881Y038293D02*
X071001Y038293D01*
X071001Y038195D02*
X069843Y038195D01*
X069803Y038096D02*
X071001Y038096D01*
X071001Y037998D02*
X069708Y037998D01*
X069551Y037899D02*
X071001Y037899D01*
X071001Y037801D02*
X069689Y037801D01*
X069788Y037702D02*
X071001Y037702D01*
X071001Y037604D02*
X069836Y037604D01*
X069877Y037505D02*
X071001Y037505D01*
X071001Y037407D02*
X069881Y037407D01*
X069881Y037308D02*
X071001Y037308D01*
X071001Y037210D02*
X069850Y037210D01*
X069809Y037111D02*
X071001Y037111D01*
X071001Y037013D02*
X069723Y037013D01*
X069587Y036914D02*
X071001Y036914D01*
X071001Y036816D02*
X069674Y036816D01*
X069773Y036717D02*
X071001Y036717D01*
X071001Y036619D02*
X069830Y036619D01*
X069870Y036520D02*
X071001Y036520D01*
X071001Y036422D02*
X069881Y036422D01*
X069881Y036323D02*
X071001Y036323D01*
X071001Y036225D02*
X069856Y036225D01*
X069815Y036126D02*
X071001Y036126D01*
X071001Y036028D02*
X069738Y036028D01*
X069623Y035929D02*
X071001Y035929D01*
X071001Y035831D02*
X069659Y035831D01*
X069758Y035732D02*
X071001Y035732D01*
X071001Y035634D02*
X069823Y035634D01*
X069864Y035535D02*
X071001Y035535D01*
X071001Y035437D02*
X069881Y035437D01*
X069881Y035338D02*
X071001Y035338D01*
X071001Y035240D02*
X069862Y035240D01*
X069821Y035141D02*
X071001Y035141D01*
X071001Y035043D02*
X069753Y035043D01*
X069654Y034944D02*
X071001Y034944D01*
X071001Y034846D02*
X069635Y034846D01*
X069743Y034747D02*
X071001Y034747D01*
X071001Y034649D02*
X069817Y034649D01*
X069858Y034550D02*
X071001Y034550D01*
X071001Y034452D02*
X069881Y034452D01*
X069881Y034353D02*
X071001Y034353D01*
X071001Y034255D02*
X069868Y034255D01*
X069827Y034156D02*
X071001Y034156D01*
X071001Y034058D02*
X069768Y034058D01*
X069669Y033959D02*
X071001Y033959D01*
X071001Y033861D02*
X069599Y033861D01*
X069728Y033762D02*
X071001Y033762D01*
X071001Y033664D02*
X069811Y033664D01*
X069852Y033565D02*
X071001Y033565D01*
X071001Y033467D02*
X069881Y033467D01*
X069881Y033368D02*
X071001Y033368D01*
X071001Y033270D02*
X069874Y033270D01*
X069834Y033171D02*
X071001Y033171D01*
X071001Y033073D02*
X069783Y033073D01*
X069684Y032974D02*
X071001Y032974D01*
X071001Y032876D02*
X069563Y032876D01*
X069713Y032777D02*
X071001Y032777D01*
X071001Y032679D02*
X069805Y032679D01*
X069845Y032580D02*
X071001Y032580D01*
X071001Y032482D02*
X069881Y032482D01*
X069840Y032186D02*
X071001Y032186D01*
X071001Y032088D02*
X069798Y032088D01*
X069699Y031989D02*
X071001Y031989D01*
X071001Y031891D02*
X069530Y031891D01*
X069698Y031792D02*
X071001Y031792D01*
X071001Y031694D02*
X069796Y031694D01*
X069839Y031595D02*
X071001Y031595D01*
X071001Y031497D02*
X069880Y031497D01*
X069881Y031398D02*
X071001Y031398D01*
X071001Y031300D02*
X069881Y031300D01*
X069846Y031201D02*
X071001Y031201D01*
X071001Y031103D02*
X069805Y031103D01*
X069714Y031004D02*
X071001Y031004D01*
X071001Y030906D02*
X069567Y030906D01*
X069683Y030807D02*
X071001Y030807D01*
X071001Y030709D02*
X069781Y030709D01*
X069833Y030610D02*
X071001Y030610D01*
X071001Y030512D02*
X069874Y030512D01*
X069881Y030413D02*
X071001Y030413D01*
X071001Y030315D02*
X069881Y030315D01*
X069852Y030216D02*
X071001Y030216D01*
X071001Y030118D02*
X069812Y030118D01*
X069729Y030019D02*
X071001Y030019D01*
X071001Y029921D02*
X069603Y029921D01*
X069668Y029822D02*
X071001Y029822D01*
X071001Y029724D02*
X069766Y029724D01*
X069827Y029625D02*
X071001Y029625D01*
X071001Y029527D02*
X069868Y029527D01*
X069881Y029428D02*
X071001Y029428D01*
X071001Y029330D02*
X069881Y029330D01*
X069859Y029231D02*
X071001Y029231D01*
X071001Y029133D02*
X069818Y029133D01*
X069744Y029034D02*
X071001Y029034D01*
X071001Y028936D02*
X069639Y028936D01*
X069653Y028837D02*
X071001Y028837D01*
X071001Y028739D02*
X069751Y028739D01*
X069821Y028640D02*
X071001Y028640D01*
X071001Y028542D02*
X069861Y028542D01*
X069881Y028443D02*
X071001Y028443D01*
X071001Y028345D02*
X069881Y028345D01*
X069865Y028246D02*
X071001Y028246D01*
X071001Y028148D02*
X069824Y028148D01*
X069759Y028049D02*
X071001Y028049D01*
X071001Y027951D02*
X069661Y027951D01*
X069620Y027852D02*
X071001Y027852D01*
X071001Y027754D02*
X069736Y027754D01*
X069814Y027655D02*
X071001Y027655D01*
X071001Y027557D02*
X069855Y027557D01*
X069881Y027458D02*
X071001Y027458D01*
X071001Y027360D02*
X069881Y027360D01*
X069871Y027261D02*
X071001Y027261D01*
X071001Y027163D02*
X069830Y027163D01*
X069774Y027064D02*
X071001Y027064D01*
X071001Y026966D02*
X069676Y026966D01*
X069583Y026867D02*
X071001Y026867D01*
X071001Y026769D02*
X069721Y026769D01*
X069808Y026670D02*
X071001Y026670D01*
X071001Y026572D02*
X069849Y026572D01*
X069881Y026473D02*
X071001Y026473D01*
X071001Y026375D02*
X069881Y026375D01*
X069877Y026276D02*
X071001Y026276D01*
X071001Y026178D02*
X069836Y026178D01*
X069789Y026079D02*
X071001Y026079D01*
X071001Y025981D02*
X069691Y025981D01*
X069547Y025882D02*
X071001Y025882D01*
X071001Y025784D02*
X069706Y025784D01*
X069802Y025685D02*
X071001Y025685D01*
X071001Y025587D02*
X069843Y025587D01*
X069881Y025488D02*
X071001Y025488D01*
X071001Y025390D02*
X069881Y025390D01*
X069881Y025291D02*
X071001Y025291D01*
X071001Y025193D02*
X069843Y025193D01*
X069802Y025094D02*
X071001Y025094D01*
X071001Y024996D02*
X069706Y024996D01*
X069546Y024897D02*
X071001Y024897D01*
X071001Y024799D02*
X069691Y024799D01*
X069790Y024700D02*
X071001Y024700D01*
X071001Y024602D02*
X069837Y024602D01*
X069877Y024503D02*
X071001Y024503D01*
X071001Y024405D02*
X069881Y024405D01*
X069881Y024306D02*
X071001Y024306D01*
X071001Y024208D02*
X069849Y024208D01*
X069808Y024109D02*
X071001Y024109D01*
X071001Y024011D02*
X069721Y024011D01*
X069582Y023912D02*
X071001Y023912D01*
X071001Y023814D02*
X069676Y023814D01*
X069775Y023715D02*
X071001Y023715D01*
X071001Y023617D02*
X069830Y023617D01*
X069871Y023518D02*
X071001Y023518D01*
X071001Y023420D02*
X069881Y023420D01*
X069881Y023321D02*
X071001Y023321D01*
X071001Y023223D02*
X069855Y023223D01*
X069814Y023124D02*
X071001Y023124D01*
X071001Y023026D02*
X069736Y023026D01*
X069618Y022927D02*
X071001Y022927D01*
X071001Y022829D02*
X069661Y022829D01*
X069760Y022730D02*
X071001Y022730D01*
X071001Y022632D02*
X069824Y022632D01*
X069865Y022533D02*
X071001Y022533D01*
X071001Y022435D02*
X069881Y022435D01*
X069881Y022336D02*
X071001Y022336D01*
X071001Y022238D02*
X069861Y022238D01*
X069820Y022139D02*
X071001Y022139D01*
X071001Y022041D02*
X069751Y022041D01*
X069652Y021942D02*
X071001Y021942D01*
X071001Y021844D02*
X069640Y021844D01*
X069745Y021745D02*
X071001Y021745D01*
X071001Y021647D02*
X069818Y021647D01*
X069859Y021548D02*
X071001Y021548D01*
X071001Y021450D02*
X069881Y021450D01*
X069881Y021351D02*
X071001Y021351D01*
X071001Y021253D02*
X069867Y021253D01*
X069827Y021154D02*
X071001Y021154D01*
X071001Y021056D02*
X069766Y021056D01*
X069667Y020957D02*
X071001Y020957D01*
X071001Y020859D02*
X069604Y020859D01*
X069730Y020760D02*
X071001Y020760D01*
X071001Y020662D02*
X069812Y020662D01*
X069853Y020563D02*
X071001Y020563D01*
X071001Y020465D02*
X069881Y020465D01*
X069881Y020366D02*
X071001Y020366D01*
X071001Y020268D02*
X069874Y020268D01*
X069833Y020169D02*
X071001Y020169D01*
X071001Y020071D02*
X069781Y020071D01*
X069682Y019972D02*
X071001Y019972D01*
X071001Y019874D02*
X069568Y019874D01*
X069715Y019775D02*
X071001Y019775D01*
X071001Y019677D02*
X069806Y019677D01*
X069846Y019578D02*
X071001Y019578D01*
X071001Y019480D02*
X069881Y019480D01*
X069881Y019381D02*
X071001Y019381D01*
X071001Y019283D02*
X069880Y019283D01*
X069839Y019184D02*
X071001Y019184D01*
X071001Y019086D02*
X069796Y019086D01*
X069697Y018987D02*
X071001Y018987D01*
X071001Y018889D02*
X069532Y018889D01*
X069700Y018790D02*
X071001Y018790D01*
X071001Y018692D02*
X069798Y018692D01*
X069800Y018690D02*
X069881Y018495D01*
X069881Y018396D02*
X071001Y018396D01*
X071001Y018298D02*
X069881Y018298D01*
X069845Y018199D02*
X071001Y018199D01*
X071001Y018101D02*
X069804Y018101D01*
X069712Y018002D02*
X071001Y018002D01*
X071001Y017904D02*
X069562Y017904D01*
X069685Y017805D02*
X071001Y017805D01*
X071001Y017707D02*
X069783Y017707D01*
X069834Y017608D02*
X071001Y017608D01*
X071001Y017510D02*
X069875Y017510D01*
X069881Y017411D02*
X071001Y017411D01*
X071001Y017313D02*
X069881Y017313D01*
X069851Y017214D02*
X071001Y017214D01*
X071001Y017116D02*
X069811Y017116D01*
X069727Y017017D02*
X071001Y017017D01*
X071001Y016919D02*
X069598Y016919D01*
X069670Y016820D02*
X071001Y016820D01*
X071001Y016722D02*
X069768Y016722D01*
X069828Y016623D02*
X071001Y016623D01*
X071001Y016525D02*
X069868Y016525D01*
X069881Y016426D02*
X071001Y016426D01*
X071001Y016328D02*
X069881Y016328D01*
X069858Y016229D02*
X071001Y016229D01*
X071001Y016131D02*
X069817Y016131D01*
X069742Y016032D02*
X071001Y016032D01*
X071001Y015934D02*
X069634Y015934D01*
X069655Y015835D02*
X071001Y015835D01*
X071001Y015737D02*
X069753Y015737D01*
X069821Y015638D02*
X071001Y015638D01*
X071001Y015540D02*
X069862Y015540D01*
X069881Y015441D02*
X071001Y015441D01*
X071001Y015343D02*
X069881Y015343D01*
X069864Y015244D02*
X071001Y015244D01*
X071001Y015146D02*
X069823Y015146D01*
X069757Y015047D02*
X071001Y015047D01*
X071001Y014949D02*
X069659Y014949D01*
X069624Y014850D02*
X071001Y014850D01*
X071001Y014752D02*
X069738Y014752D01*
X069815Y014653D02*
X071001Y014653D01*
X071001Y014555D02*
X069856Y014555D01*
X069881Y014456D02*
X071001Y014456D01*
X071001Y014358D02*
X069881Y014358D01*
X069870Y014259D02*
X071001Y014259D01*
X071001Y014161D02*
X069829Y014161D01*
X069772Y014062D02*
X071001Y014062D01*
X071001Y013964D02*
X069674Y013964D01*
X069588Y013865D02*
X071001Y013865D01*
X071001Y013767D02*
X069723Y013767D01*
X069809Y013668D02*
X071001Y013668D01*
X071001Y013570D02*
X069850Y013570D01*
X069881Y013471D02*
X071001Y013471D01*
X071001Y013373D02*
X069881Y013373D01*
X069876Y013274D02*
X071001Y013274D01*
X071001Y013176D02*
X069836Y013176D01*
X069787Y013077D02*
X071001Y013077D01*
X071001Y012979D02*
X069689Y012979D01*
X069552Y012880D02*
X071001Y012880D01*
X071001Y012782D02*
X069708Y012782D01*
X069803Y012683D02*
X071001Y012683D01*
X071001Y012585D02*
X069844Y012585D01*
X069881Y012486D02*
X071001Y012486D01*
X071001Y012388D02*
X069881Y012388D01*
X069881Y012289D02*
X071001Y012289D01*
X071001Y012191D02*
X069842Y012191D01*
X069801Y012092D02*
X071001Y012092D01*
X071001Y011994D02*
X069704Y011994D01*
X069541Y011895D02*
X071001Y011895D01*
X071001Y011797D02*
X069693Y011797D01*
X069792Y011698D02*
X071001Y011698D01*
X071001Y011600D02*
X069837Y011600D01*
X069878Y011501D02*
X071001Y011501D01*
X071001Y011403D02*
X069881Y011403D01*
X069881Y011304D02*
X071001Y011304D01*
X071001Y011206D02*
X069848Y011206D01*
X069807Y011107D02*
X071001Y011107D01*
X071001Y011009D02*
X069719Y011009D01*
X069651Y010941D02*
X069456Y010860D01*
X069245Y010860D01*
X069050Y010941D01*
X068901Y011090D01*
X068821Y011285D01*
X068821Y011495D01*
X068901Y011690D01*
X069050Y011839D01*
X069173Y011890D01*
X069050Y011941D01*
X068901Y012090D01*
X068821Y012285D01*
X068821Y012495D01*
X068901Y012690D01*
X069050Y012839D01*
X069173Y012890D01*
X069050Y012941D01*
X068901Y013090D01*
X068821Y013285D01*
X068821Y013495D01*
X068901Y013690D01*
X069050Y013839D01*
X069173Y013890D01*
X069050Y013941D01*
X068901Y014090D01*
X068821Y014285D01*
X068821Y014495D01*
X068901Y014690D01*
X069050Y014839D01*
X069173Y014890D01*
X069050Y014941D01*
X068901Y015090D01*
X068821Y015285D01*
X068821Y015495D01*
X068901Y015690D01*
X069050Y015839D01*
X069173Y015890D01*
X069050Y015941D01*
X068901Y016090D01*
X068821Y016285D01*
X068821Y016495D01*
X068901Y016690D01*
X069050Y016839D01*
X069173Y016890D01*
X069050Y016941D01*
X068901Y017090D01*
X068821Y017285D01*
X068821Y017495D01*
X068901Y017690D01*
X069050Y017839D01*
X069173Y017890D01*
X069050Y017941D01*
X068901Y018090D01*
X068821Y018285D01*
X068821Y018495D01*
X067881Y018495D01*
X067800Y018690D01*
X067651Y018839D01*
X067528Y018890D01*
X067651Y018941D01*
X067800Y019090D01*
X067881Y019285D01*
X067881Y019495D01*
X067800Y019690D01*
X067651Y019839D01*
X067528Y019890D01*
X067651Y019941D01*
X067800Y020090D01*
X067881Y020285D01*
X067881Y020495D01*
X067800Y020690D01*
X067651Y020839D01*
X067528Y020890D01*
X067651Y020941D01*
X067800Y021090D01*
X067881Y021285D01*
X067881Y021495D01*
X067800Y021690D01*
X067651Y021839D01*
X067528Y021890D01*
X067651Y021941D01*
X067800Y022090D01*
X067881Y022285D01*
X067881Y022495D01*
X067800Y022690D01*
X067651Y022839D01*
X067528Y022890D01*
X067651Y022941D01*
X067800Y023090D01*
X067881Y023285D01*
X067881Y023495D01*
X067800Y023690D01*
X067651Y023839D01*
X067528Y023890D01*
X067651Y023941D01*
X067800Y024090D01*
X067881Y024285D01*
X067881Y024495D01*
X067800Y024690D01*
X067651Y024839D01*
X067528Y024890D01*
X067651Y024941D01*
X067800Y025090D01*
X067881Y025285D01*
X067881Y025495D01*
X067800Y025690D01*
X067651Y025839D01*
X067528Y025890D01*
X067651Y025941D01*
X067800Y026090D01*
X067881Y026285D01*
X067881Y026495D01*
X067800Y026690D01*
X067651Y026839D01*
X067528Y026890D01*
X067651Y026941D01*
X067800Y027090D01*
X067881Y027285D01*
X067881Y027495D01*
X067800Y027690D01*
X067651Y027839D01*
X067528Y027890D01*
X067651Y027941D01*
X067800Y028090D01*
X067881Y028285D01*
X067881Y028495D01*
X067800Y028690D01*
X067651Y028839D01*
X067528Y028890D01*
X067651Y028941D01*
X067800Y029090D01*
X067881Y029285D01*
X067881Y029495D01*
X067800Y029690D01*
X067651Y029839D01*
X067528Y029890D01*
X067651Y029941D01*
X067800Y030090D01*
X067881Y030285D01*
X067881Y030495D01*
X067800Y030690D01*
X067651Y030839D01*
X067528Y030890D01*
X067651Y030941D01*
X067800Y031090D01*
X067881Y031285D01*
X067881Y031495D01*
X067800Y031690D01*
X067651Y031839D01*
X067528Y031890D01*
X067651Y031941D01*
X067800Y032090D01*
X067881Y032285D01*
X068821Y032285D01*
X068901Y032090D01*
X069050Y031941D01*
X069173Y031890D01*
X069050Y031839D01*
X068901Y031690D01*
X068821Y031495D01*
X068821Y031285D01*
X068901Y031090D01*
X069050Y030941D01*
X069173Y030890D01*
X069050Y030839D01*
X068901Y030690D01*
X068821Y030495D01*
X068821Y030285D01*
X068901Y030090D01*
X069050Y029941D01*
X069173Y029890D01*
X069050Y029839D01*
X068901Y029690D01*
X068821Y029495D01*
X068821Y029285D01*
X068901Y029090D01*
X069050Y028941D01*
X069173Y028890D01*
X069050Y028839D01*
X068901Y028690D01*
X068821Y028495D01*
X068821Y028285D01*
X068901Y028090D01*
X069050Y027941D01*
X069173Y027890D01*
X069050Y027839D01*
X068901Y027690D01*
X068821Y027495D01*
X068821Y027285D01*
X068901Y027090D01*
X069050Y026941D01*
X069173Y026890D01*
X069050Y026839D01*
X068901Y026690D01*
X068821Y026495D01*
X068821Y026285D01*
X068901Y026090D01*
X069050Y025941D01*
X069173Y025890D01*
X069050Y025839D01*
X068901Y025690D01*
X068821Y025495D01*
X068821Y025285D01*
X068901Y025090D01*
X069050Y024941D01*
X069173Y024890D01*
X069050Y024839D01*
X068901Y024690D01*
X068821Y024495D01*
X068821Y024285D01*
X068901Y024090D01*
X069050Y023941D01*
X069173Y023890D01*
X069050Y023839D01*
X068901Y023690D01*
X068821Y023495D01*
X068821Y023285D01*
X068901Y023090D01*
X069050Y022941D01*
X069173Y022890D01*
X069050Y022839D01*
X068901Y022690D01*
X068821Y022495D01*
X068821Y022285D01*
X068901Y022090D01*
X069050Y021941D01*
X069173Y021890D01*
X069050Y021839D01*
X068901Y021690D01*
X068821Y021495D01*
X068821Y021285D01*
X068901Y021090D01*
X069050Y020941D01*
X069173Y020890D01*
X069050Y020839D01*
X068901Y020690D01*
X068821Y020495D01*
X068821Y020285D01*
X068901Y020090D01*
X069050Y019941D01*
X069173Y019890D01*
X069050Y019839D01*
X068901Y019690D01*
X068821Y019495D01*
X068821Y019285D01*
X068901Y019090D01*
X069050Y018941D01*
X069173Y018890D01*
X069050Y018839D01*
X068901Y018690D01*
X068821Y018495D01*
X068821Y018396D02*
X067881Y018396D01*
X067881Y018298D02*
X068821Y018298D01*
X068856Y018199D02*
X067845Y018199D01*
X067881Y018285D02*
X067881Y018495D01*
X067840Y018593D02*
X068861Y018593D01*
X068903Y018692D02*
X067798Y018692D01*
X067700Y018790D02*
X069001Y018790D01*
X069170Y018889D02*
X067532Y018889D01*
X067697Y018987D02*
X069004Y018987D01*
X068905Y019086D02*
X067796Y019086D01*
X067839Y019184D02*
X068862Y019184D01*
X068821Y019283D02*
X067880Y019283D01*
X067881Y019381D02*
X068821Y019381D01*
X068821Y019480D02*
X067881Y019480D01*
X067846Y019578D02*
X068855Y019578D01*
X068896Y019677D02*
X067806Y019677D01*
X067715Y019775D02*
X068986Y019775D01*
X069134Y019874D02*
X067568Y019874D01*
X067682Y019972D02*
X069019Y019972D01*
X068920Y020071D02*
X067781Y020071D01*
X067833Y020169D02*
X068868Y020169D01*
X068828Y020268D02*
X067874Y020268D01*
X067881Y020366D02*
X068821Y020366D01*
X068821Y020465D02*
X067881Y020465D01*
X067853Y020563D02*
X068849Y020563D01*
X068890Y020662D02*
X067812Y020662D01*
X067730Y020760D02*
X068971Y020760D01*
X069097Y020859D02*
X067604Y020859D01*
X067667Y020957D02*
X069034Y020957D01*
X068935Y021056D02*
X067766Y021056D01*
X067827Y021154D02*
X068875Y021154D01*
X068834Y021253D02*
X067867Y021253D01*
X067881Y021351D02*
X068821Y021351D01*
X068821Y021450D02*
X067881Y021450D01*
X067859Y021548D02*
X068843Y021548D01*
X068883Y021647D02*
X067818Y021647D01*
X067745Y021745D02*
X068956Y021745D01*
X069061Y021844D02*
X067640Y021844D01*
X067652Y021942D02*
X069049Y021942D01*
X068950Y022041D02*
X067751Y022041D01*
X067820Y022139D02*
X068881Y022139D01*
X068840Y022238D02*
X067861Y022238D01*
X067881Y022336D02*
X068821Y022336D01*
X068821Y022435D02*
X067881Y022435D01*
X067865Y022533D02*
X068836Y022533D01*
X068877Y022632D02*
X067824Y022632D01*
X067760Y022730D02*
X068941Y022730D01*
X069040Y022829D02*
X067661Y022829D01*
X067618Y022927D02*
X069083Y022927D01*
X068965Y023026D02*
X067736Y023026D01*
X067814Y023124D02*
X068887Y023124D01*
X068846Y023223D02*
X067855Y023223D01*
X067881Y023321D02*
X068821Y023321D01*
X068821Y023420D02*
X067881Y023420D01*
X067871Y023518D02*
X068830Y023518D01*
X068871Y023617D02*
X067830Y023617D01*
X067775Y023715D02*
X068926Y023715D01*
X069025Y023814D02*
X067676Y023814D01*
X067582Y023912D02*
X069119Y023912D01*
X068980Y024011D02*
X067721Y024011D01*
X067808Y024109D02*
X068893Y024109D01*
X068852Y024208D02*
X067849Y024208D01*
X067881Y024306D02*
X068821Y024306D01*
X068821Y024405D02*
X067881Y024405D01*
X067877Y024503D02*
X068824Y024503D01*
X068865Y024602D02*
X067837Y024602D01*
X067790Y024700D02*
X068911Y024700D01*
X069010Y024799D02*
X067691Y024799D01*
X067546Y024897D02*
X069155Y024897D01*
X068995Y024996D02*
X067706Y024996D01*
X067802Y025094D02*
X068899Y025094D01*
X068859Y025193D02*
X067843Y025193D01*
X067881Y025291D02*
X068821Y025291D01*
X068821Y025390D02*
X067881Y025390D01*
X067881Y025488D02*
X068821Y025488D01*
X068858Y025587D02*
X067843Y025587D01*
X067802Y025685D02*
X068899Y025685D01*
X068995Y025784D02*
X067706Y025784D01*
X067547Y025882D02*
X069154Y025882D01*
X069010Y025981D02*
X067691Y025981D01*
X067789Y026079D02*
X068912Y026079D01*
X068865Y026178D02*
X067836Y026178D01*
X067877Y026276D02*
X068824Y026276D01*
X068821Y026375D02*
X067881Y026375D01*
X067881Y026473D02*
X068821Y026473D01*
X068852Y026572D02*
X067849Y026572D01*
X067808Y026670D02*
X068893Y026670D01*
X068980Y026769D02*
X067721Y026769D01*
X067583Y026867D02*
X069118Y026867D01*
X069025Y026966D02*
X067676Y026966D01*
X067774Y027064D02*
X068927Y027064D01*
X068871Y027163D02*
X067830Y027163D01*
X067871Y027261D02*
X068830Y027261D01*
X068821Y027360D02*
X067881Y027360D01*
X067881Y027458D02*
X068821Y027458D01*
X068846Y027557D02*
X067855Y027557D01*
X067814Y027655D02*
X068887Y027655D01*
X068965Y027754D02*
X067736Y027754D01*
X067620Y027852D02*
X069082Y027852D01*
X069040Y027951D02*
X067661Y027951D01*
X067759Y028049D02*
X068942Y028049D01*
X068877Y028148D02*
X067824Y028148D01*
X067865Y028246D02*
X068836Y028246D01*
X068821Y028345D02*
X067881Y028345D01*
X067881Y028443D02*
X068821Y028443D01*
X068840Y028542D02*
X067861Y028542D01*
X067821Y028640D02*
X068881Y028640D01*
X068950Y028739D02*
X067751Y028739D01*
X067653Y028837D02*
X069048Y028837D01*
X069062Y028936D02*
X067639Y028936D01*
X067744Y029034D02*
X068957Y029034D01*
X068884Y029133D02*
X067818Y029133D01*
X067859Y029231D02*
X068843Y029231D01*
X068821Y029330D02*
X067881Y029330D01*
X067881Y029428D02*
X068821Y029428D01*
X068834Y029527D02*
X067868Y029527D01*
X067827Y029625D02*
X068874Y029625D01*
X068935Y029724D02*
X067766Y029724D01*
X067668Y029822D02*
X069033Y029822D01*
X069099Y029921D02*
X067603Y029921D01*
X067729Y030019D02*
X068972Y030019D01*
X068890Y030118D02*
X067812Y030118D01*
X067852Y030216D02*
X068849Y030216D01*
X068821Y030315D02*
X067881Y030315D01*
X067881Y030413D02*
X068821Y030413D01*
X068827Y030512D02*
X067874Y030512D01*
X067833Y030610D02*
X068868Y030610D01*
X068920Y030709D02*
X067781Y030709D01*
X067683Y030807D02*
X069018Y030807D01*
X069135Y030906D02*
X067567Y030906D01*
X067714Y031004D02*
X068987Y031004D01*
X068896Y031103D02*
X067805Y031103D01*
X067846Y031201D02*
X068855Y031201D01*
X068821Y031300D02*
X067881Y031300D01*
X067881Y031398D02*
X068821Y031398D01*
X068821Y031497D02*
X067880Y031497D01*
X067839Y031595D02*
X068862Y031595D01*
X068905Y031694D02*
X067796Y031694D01*
X067698Y031792D02*
X069003Y031792D01*
X069171Y031891D02*
X067530Y031891D01*
X067699Y031989D02*
X069002Y031989D01*
X068903Y032088D02*
X067798Y032088D01*
X067840Y032186D02*
X068861Y032186D01*
X068821Y032285D02*
X068821Y032495D01*
X068901Y032690D01*
X069050Y032839D01*
X069173Y032890D01*
X069050Y032941D01*
X068901Y033090D01*
X068821Y033285D01*
X068821Y033495D01*
X068901Y033690D01*
X069050Y033839D01*
X069173Y033890D01*
X069050Y033941D01*
X068901Y034090D01*
X068821Y034285D01*
X068821Y034495D01*
X068901Y034690D01*
X069050Y034839D01*
X069173Y034890D01*
X069050Y034941D01*
X068901Y035090D01*
X068821Y035285D01*
X068821Y035495D01*
X068901Y035690D01*
X069050Y035839D01*
X069173Y035890D01*
X069050Y035941D01*
X068901Y036090D01*
X068821Y036285D01*
X068821Y036495D01*
X068901Y036690D01*
X069050Y036839D01*
X069173Y036890D01*
X069050Y036941D01*
X068901Y037090D01*
X068821Y037285D01*
X068821Y037495D01*
X068901Y037690D01*
X069050Y037839D01*
X069173Y037890D01*
X069050Y037941D01*
X068901Y038090D01*
X068821Y038285D01*
X068821Y038495D01*
X068901Y038690D01*
X069050Y038839D01*
X069173Y038890D01*
X069050Y038941D01*
X068901Y039090D01*
X068821Y039285D01*
X068821Y039495D01*
X068901Y039690D01*
X069050Y039839D01*
X069173Y039890D01*
X069050Y039941D01*
X068901Y040090D01*
X068821Y040285D01*
X068821Y040495D01*
X068901Y040690D01*
X069050Y040839D01*
X069173Y040890D01*
X069050Y040941D01*
X068901Y041090D01*
X068821Y041285D01*
X068821Y041495D01*
X068901Y041690D01*
X069050Y041839D01*
X067651Y041839D01*
X067456Y041920D01*
X067245Y041920D01*
X067050Y041839D01*
X062553Y041839D01*
X062577Y041829D02*
X062430Y041890D01*
X062271Y041890D01*
X062124Y041829D01*
X062012Y041717D01*
X061951Y041570D01*
X061951Y041410D01*
X062012Y041263D01*
X062124Y041151D01*
X062271Y041090D01*
X062430Y041090D01*
X062577Y041151D01*
X062690Y041263D01*
X062751Y041410D01*
X062751Y041570D01*
X062690Y041717D01*
X062577Y041829D01*
X062666Y041741D02*
X066952Y041741D01*
X066901Y041690D02*
X066821Y041495D01*
X066821Y041285D01*
X066901Y041090D01*
X067050Y040941D01*
X067173Y040890D01*
X067050Y040839D01*
X066901Y040690D01*
X066821Y040495D01*
X066821Y040285D01*
X066901Y040090D01*
X067050Y039941D01*
X067173Y039890D01*
X067050Y039839D01*
X066901Y039690D01*
X066821Y039495D01*
X066821Y039285D01*
X066901Y039090D01*
X067050Y038941D01*
X067173Y038890D01*
X067050Y038839D01*
X066901Y038690D01*
X066821Y038495D01*
X066821Y038285D01*
X066901Y038090D01*
X067050Y037941D01*
X067173Y037890D01*
X067050Y037839D01*
X066901Y037690D01*
X066821Y037495D01*
X066821Y037285D01*
X066901Y037090D01*
X067050Y036941D01*
X067173Y036890D01*
X067050Y036839D01*
X066901Y036690D01*
X066821Y036495D01*
X066821Y036285D01*
X066901Y036090D01*
X067050Y035941D01*
X067173Y035890D01*
X067050Y035839D01*
X066901Y035690D01*
X066821Y035495D01*
X066821Y035285D01*
X066901Y035090D01*
X067050Y034941D01*
X067173Y034890D01*
X067050Y034839D01*
X066901Y034690D01*
X066821Y034495D01*
X066821Y034285D01*
X066901Y034090D01*
X067050Y033941D01*
X067173Y033890D01*
X067050Y033839D01*
X066901Y033690D01*
X066821Y033495D01*
X066821Y033285D01*
X066901Y033090D01*
X067050Y032941D01*
X067173Y032890D01*
X067050Y032839D01*
X066901Y032690D01*
X066821Y032495D01*
X066821Y032285D01*
X059443Y032285D01*
X059430Y032290D02*
X059271Y032290D01*
X059124Y032229D01*
X059012Y032117D01*
X058951Y031970D01*
X058951Y031810D01*
X059012Y031663D01*
X059124Y031551D01*
X059271Y031490D01*
X059430Y031490D01*
X059577Y031551D01*
X059690Y031663D01*
X059751Y031810D01*
X059751Y031970D01*
X059690Y032117D01*
X059577Y032229D01*
X059430Y032290D01*
X059258Y032285D02*
X052394Y032285D01*
X052401Y032270D02*
X052340Y032417D01*
X052241Y032515D01*
X052340Y032613D01*
X052401Y032760D01*
X052401Y032920D01*
X052340Y033067D01*
X052227Y033179D01*
X052080Y033240D01*
X051921Y033240D01*
X051774Y033179D01*
X051662Y033067D01*
X051601Y032920D01*
X051601Y032760D01*
X051662Y032613D01*
X051760Y032515D01*
X051662Y032417D01*
X051601Y032270D01*
X051601Y032110D01*
X051662Y031963D01*
X051774Y031851D01*
X051921Y031790D01*
X052080Y031790D01*
X052227Y031851D01*
X052340Y031963D01*
X052401Y032110D01*
X052401Y032270D01*
X052401Y032186D02*
X059081Y032186D01*
X059000Y032088D02*
X052391Y032088D01*
X052350Y031989D02*
X058959Y031989D01*
X058951Y031891D02*
X052267Y031891D01*
X052086Y031792D02*
X058958Y031792D01*
X058999Y031694D02*
X048563Y031694D01*
X048590Y031667D02*
X048477Y031779D01*
X048330Y031840D01*
X048171Y031840D01*
X048154Y031833D01*
X048140Y031867D01*
X048027Y031979D01*
X047880Y032040D01*
X047721Y032040D01*
X047574Y031979D01*
X047512Y031917D01*
X047551Y032010D01*
X047551Y032170D01*
X047490Y032317D01*
X047377Y032429D01*
X047230Y032490D01*
X047071Y032490D01*
X046924Y032429D01*
X046812Y032317D01*
X046751Y032170D01*
X046751Y032010D01*
X046812Y031863D01*
X046924Y031751D01*
X047071Y031690D01*
X046924Y031629D01*
X046812Y031517D01*
X046751Y031370D01*
X046751Y031210D01*
X046812Y031063D01*
X046924Y030951D01*
X047057Y030896D01*
X047112Y030763D01*
X047224Y030651D01*
X047371Y030590D01*
X047530Y030590D01*
X047677Y030651D01*
X047790Y030763D01*
X047851Y030910D01*
X047851Y031070D01*
X047790Y031217D01*
X047766Y031240D01*
X047880Y031240D01*
X047898Y031247D01*
X047912Y031213D01*
X048024Y031101D01*
X048171Y031040D01*
X048330Y031040D01*
X048477Y031101D01*
X048590Y031213D01*
X048651Y031360D01*
X048651Y031520D01*
X048590Y031667D01*
X048619Y031595D02*
X059080Y031595D01*
X059255Y031497D02*
X048651Y031497D01*
X048651Y031398D02*
X066821Y031398D01*
X066821Y031495D02*
X066821Y031285D01*
X066901Y031090D01*
X067050Y030941D01*
X067173Y030890D01*
X067050Y030839D01*
X066901Y030690D01*
X066821Y030495D01*
X066821Y030285D01*
X066901Y030090D01*
X067050Y029941D01*
X067173Y029890D01*
X067050Y029839D01*
X066901Y029690D01*
X066821Y029495D01*
X066821Y029285D01*
X066901Y029090D01*
X067050Y028941D01*
X067173Y028890D01*
X067050Y028839D01*
X066901Y028690D01*
X066821Y028495D01*
X066821Y028285D01*
X066901Y028090D01*
X067050Y027941D01*
X067173Y027890D01*
X067050Y027839D01*
X066901Y027690D01*
X066821Y027495D01*
X066821Y027285D01*
X066901Y027090D01*
X067050Y026941D01*
X067173Y026890D01*
X067050Y026839D01*
X066901Y026690D01*
X066821Y026495D01*
X066821Y026285D01*
X066901Y026090D01*
X067050Y025941D01*
X067173Y025890D01*
X067050Y025839D01*
X066901Y025690D01*
X066821Y025495D01*
X066821Y025285D01*
X066901Y025090D01*
X067050Y024941D01*
X067173Y024890D01*
X067050Y024839D01*
X066901Y024690D01*
X066821Y024495D01*
X066821Y024285D01*
X066901Y024090D01*
X067050Y023941D01*
X067173Y023890D01*
X067050Y023839D01*
X066901Y023690D01*
X066821Y023495D01*
X066821Y023285D01*
X066901Y023090D01*
X067050Y022941D01*
X067173Y022890D01*
X067050Y022839D01*
X066901Y022690D01*
X066821Y022495D01*
X066821Y022285D01*
X066901Y022090D01*
X067050Y021941D01*
X067173Y021890D01*
X067050Y021839D01*
X066901Y021690D01*
X066821Y021495D01*
X066821Y021285D01*
X066901Y021090D01*
X067050Y020941D01*
X067173Y020890D01*
X067050Y020839D01*
X066901Y020690D01*
X066821Y020495D01*
X066821Y020285D01*
X066901Y020090D01*
X067050Y019941D01*
X067173Y019890D01*
X067050Y019839D01*
X066901Y019690D01*
X066821Y019495D01*
X066821Y019285D01*
X066901Y019090D01*
X067050Y018941D01*
X067173Y018890D01*
X067050Y018839D01*
X066901Y018690D01*
X066821Y018495D01*
X016271Y018495D01*
X016279Y018475D02*
X016214Y018633D01*
X016093Y018753D01*
X015936Y018818D01*
X015765Y018818D01*
X015608Y018753D01*
X015487Y018633D01*
X015422Y018475D01*
X015422Y018305D01*
X015487Y018147D01*
X015608Y018027D01*
X015765Y017962D01*
X015936Y017962D01*
X016093Y018027D01*
X016214Y018147D01*
X016279Y018305D01*
X016279Y018475D01*
X016279Y018396D02*
X066821Y018396D01*
X066821Y018298D02*
X016276Y018298D01*
X016235Y018199D02*
X066856Y018199D01*
X066821Y018285D02*
X066901Y018090D01*
X067050Y017941D01*
X067173Y017890D01*
X067050Y017839D01*
X066901Y017690D01*
X066821Y017495D01*
X066821Y017285D01*
X066901Y017090D01*
X067050Y016941D01*
X067173Y016890D01*
X067050Y016839D01*
X066901Y016690D01*
X066821Y016495D01*
X066821Y016285D01*
X066901Y016090D01*
X067050Y015941D01*
X067173Y015890D01*
X067050Y015839D01*
X066901Y015690D01*
X066821Y015495D01*
X066821Y015285D01*
X066901Y015090D01*
X067050Y014941D01*
X067173Y014890D01*
X067050Y014839D01*
X066901Y014690D01*
X066821Y014495D01*
X066821Y014285D01*
X066901Y014090D01*
X067050Y013941D01*
X067173Y013890D01*
X067050Y013839D01*
X066901Y013690D01*
X066821Y013495D01*
X066821Y013285D01*
X066901Y013090D01*
X067050Y012941D01*
X067173Y012890D01*
X067050Y012839D01*
X066901Y012690D01*
X066821Y012495D01*
X066821Y012285D01*
X066901Y012090D01*
X067050Y011941D01*
X067173Y011890D01*
X067050Y011839D01*
X066901Y011690D01*
X066821Y011495D01*
X066821Y011285D01*
X066901Y011090D01*
X067050Y010941D01*
X067245Y010860D01*
X067456Y010860D01*
X067651Y010941D01*
X067800Y011090D01*
X067881Y011285D01*
X067881Y011495D01*
X067800Y011690D01*
X067651Y011839D01*
X067528Y011890D01*
X067651Y011941D01*
X067800Y012090D01*
X067881Y012285D01*
X067881Y012495D01*
X067800Y012690D01*
X067651Y012839D01*
X067528Y012890D01*
X067651Y012941D01*
X067800Y013090D01*
X067881Y013285D01*
X067881Y013495D01*
X067800Y013690D01*
X067651Y013839D01*
X067528Y013890D01*
X067651Y013941D01*
X067800Y014090D01*
X067881Y014285D01*
X067881Y014495D01*
X067800Y014690D01*
X067651Y014839D01*
X067528Y014890D01*
X067651Y014941D01*
X067800Y015090D01*
X067881Y015285D01*
X067881Y015495D01*
X067800Y015690D01*
X067651Y015839D01*
X067528Y015890D01*
X067651Y015941D01*
X067800Y016090D01*
X067881Y016285D01*
X067881Y016495D01*
X067800Y016690D01*
X067651Y016839D01*
X067528Y016890D01*
X067651Y016941D01*
X067800Y017090D01*
X067881Y017285D01*
X067881Y017495D01*
X067800Y017690D01*
X067651Y017839D01*
X067528Y017890D01*
X067651Y017941D01*
X067800Y018090D01*
X067881Y018285D01*
X067804Y018101D02*
X068897Y018101D01*
X068989Y018002D02*
X067712Y018002D01*
X067562Y017904D02*
X069140Y017904D01*
X069016Y017805D02*
X067685Y017805D01*
X067783Y017707D02*
X068918Y017707D01*
X068867Y017608D02*
X067834Y017608D01*
X067875Y017510D02*
X068827Y017510D01*
X068821Y017411D02*
X067881Y017411D01*
X067881Y017313D02*
X068821Y017313D01*
X068850Y017214D02*
X067851Y017214D01*
X067811Y017116D02*
X068891Y017116D01*
X068974Y017017D02*
X067727Y017017D01*
X067598Y016919D02*
X069103Y016919D01*
X069031Y016820D02*
X067670Y016820D01*
X067768Y016722D02*
X068933Y016722D01*
X068874Y016623D02*
X067828Y016623D01*
X067868Y016525D02*
X068833Y016525D01*
X068821Y016426D02*
X067881Y016426D01*
X067881Y016328D02*
X068821Y016328D01*
X068844Y016229D02*
X067858Y016229D01*
X067817Y016131D02*
X068884Y016131D01*
X068959Y016032D02*
X067742Y016032D01*
X067634Y015934D02*
X069067Y015934D01*
X069046Y015835D02*
X067655Y015835D01*
X067753Y015737D02*
X068948Y015737D01*
X068880Y015638D02*
X067821Y015638D01*
X067862Y015540D02*
X068839Y015540D01*
X068821Y015441D02*
X067881Y015441D01*
X067881Y015343D02*
X068821Y015343D01*
X068837Y015244D02*
X067864Y015244D01*
X067823Y015146D02*
X068878Y015146D01*
X068944Y015047D02*
X067757Y015047D01*
X067659Y014949D02*
X069042Y014949D01*
X069077Y014850D02*
X067624Y014850D01*
X067738Y014752D02*
X068963Y014752D01*
X068886Y014653D02*
X067815Y014653D01*
X067856Y014555D02*
X068845Y014555D01*
X068821Y014456D02*
X067881Y014456D01*
X067881Y014358D02*
X068821Y014358D01*
X068831Y014259D02*
X067870Y014259D01*
X067829Y014161D02*
X068872Y014161D01*
X068929Y014062D02*
X067772Y014062D01*
X067674Y013964D02*
X069027Y013964D01*
X069113Y013865D02*
X067588Y013865D01*
X067723Y013767D02*
X068978Y013767D01*
X068892Y013668D02*
X067809Y013668D01*
X067850Y013570D02*
X068851Y013570D01*
X068821Y013471D02*
X067881Y013471D01*
X067881Y013373D02*
X068821Y013373D01*
X068825Y013274D02*
X067876Y013274D01*
X067836Y013176D02*
X068866Y013176D01*
X068914Y013077D02*
X067787Y013077D01*
X067689Y012979D02*
X069012Y012979D01*
X069149Y012880D02*
X067552Y012880D01*
X067708Y012782D02*
X068993Y012782D01*
X068898Y012683D02*
X067803Y012683D01*
X067844Y012585D02*
X068858Y012585D01*
X068821Y012486D02*
X067881Y012486D01*
X067881Y012388D02*
X068821Y012388D01*
X068821Y012289D02*
X067881Y012289D01*
X067842Y012191D02*
X068860Y012191D01*
X068900Y012092D02*
X067801Y012092D01*
X067704Y011994D02*
X068997Y011994D01*
X069160Y011895D02*
X067541Y011895D01*
X067693Y011797D02*
X069008Y011797D01*
X068909Y011698D02*
X067792Y011698D01*
X067837Y011600D02*
X068864Y011600D01*
X068823Y011501D02*
X067878Y011501D01*
X067881Y011403D02*
X068821Y011403D01*
X068821Y011304D02*
X067881Y011304D01*
X067848Y011206D02*
X068853Y011206D01*
X068894Y011107D02*
X067807Y011107D01*
X067719Y011009D02*
X068982Y011009D01*
X069124Y010910D02*
X067577Y010910D01*
X067124Y010910D02*
X008901Y010910D01*
X008901Y011009D02*
X066982Y011009D01*
X066894Y011107D02*
X008901Y011107D01*
X008901Y011206D02*
X066853Y011206D01*
X066821Y011304D02*
X008901Y011304D01*
X008901Y011403D02*
X011055Y011403D01*
X011183Y011349D02*
X010874Y011477D01*
X010638Y011714D01*
X010510Y012023D01*
X010510Y012357D01*
X010638Y012666D01*
X010874Y012903D01*
X011183Y013031D01*
X011518Y013031D01*
X011827Y012903D01*
X012063Y012666D01*
X012191Y012357D01*
X012191Y012023D01*
X012063Y011714D01*
X011827Y011477D01*
X011518Y011349D01*
X011183Y011349D01*
X010851Y011501D02*
X008901Y011501D01*
X008901Y011600D02*
X010752Y011600D01*
X010654Y011698D02*
X008901Y011698D01*
X008901Y011797D02*
X010604Y011797D01*
X010563Y011895D02*
X008901Y011895D01*
X008901Y011994D02*
X010522Y011994D01*
X010510Y012092D02*
X008901Y012092D01*
X008901Y012191D02*
X010510Y012191D01*
X010510Y012289D02*
X008901Y012289D01*
X008901Y012388D02*
X010523Y012388D01*
X010564Y012486D02*
X008901Y012486D01*
X008901Y012585D02*
X010604Y012585D01*
X010655Y012683D02*
X008901Y012683D01*
X008901Y012782D02*
X010754Y012782D01*
X010852Y012880D02*
X008901Y012880D01*
X008901Y012979D02*
X011058Y012979D01*
X011643Y012979D02*
X067012Y012979D01*
X066914Y013077D02*
X008901Y013077D01*
X008901Y013176D02*
X066866Y013176D01*
X066825Y013274D02*
X008901Y013274D01*
X008901Y013373D02*
X066821Y013373D01*
X066821Y013471D02*
X008901Y013471D01*
X008901Y013570D02*
X066851Y013570D01*
X066892Y013668D02*
X013469Y013668D01*
X013455Y013663D02*
X013649Y013743D01*
X013798Y013891D01*
X013878Y014085D01*
X013878Y014295D01*
X013798Y014489D01*
X013649Y014637D01*
X013455Y014717D01*
X013246Y014717D01*
X013052Y014637D01*
X012904Y014489D01*
X012823Y014295D01*
X012823Y014085D01*
X012904Y013891D01*
X013052Y013743D01*
X013246Y013663D01*
X013455Y013663D01*
X013233Y013668D02*
X008901Y013668D01*
X008901Y013767D02*
X013028Y013767D01*
X012930Y013865D02*
X008901Y013865D01*
X008901Y013964D02*
X012874Y013964D01*
X012833Y014062D02*
X008901Y014062D01*
X008901Y014161D02*
X012823Y014161D01*
X012823Y014259D02*
X008901Y014259D01*
X008901Y014358D02*
X012850Y014358D01*
X012890Y014456D02*
X008901Y014456D01*
X008901Y014555D02*
X012970Y014555D01*
X013091Y014653D02*
X008901Y014653D01*
X008901Y014752D02*
X066963Y014752D01*
X066886Y014653D02*
X013610Y014653D01*
X013731Y014555D02*
X066845Y014555D01*
X066821Y014456D02*
X013811Y014456D01*
X013852Y014358D02*
X066821Y014358D01*
X066831Y014259D02*
X013878Y014259D01*
X013878Y014161D02*
X066872Y014161D01*
X066929Y014062D02*
X013868Y014062D01*
X013828Y013964D02*
X067027Y013964D01*
X067113Y013865D02*
X013771Y013865D01*
X013673Y013767D02*
X066978Y013767D01*
X067149Y012880D02*
X011849Y012880D01*
X011948Y012782D02*
X066993Y012782D01*
X066898Y012683D02*
X012046Y012683D01*
X012097Y012585D02*
X066858Y012585D01*
X066821Y012486D02*
X012138Y012486D01*
X012179Y012388D02*
X066821Y012388D01*
X066821Y012289D02*
X012191Y012289D01*
X012191Y012191D02*
X066860Y012191D01*
X066900Y012092D02*
X012191Y012092D01*
X012179Y011994D02*
X066997Y011994D01*
X067160Y011895D02*
X012138Y011895D01*
X012098Y011797D02*
X067008Y011797D01*
X066909Y011698D02*
X012048Y011698D01*
X011949Y011600D02*
X066864Y011600D01*
X066823Y011501D02*
X011851Y011501D01*
X011646Y011403D02*
X066821Y011403D01*
X070720Y010319D02*
X071001Y010319D01*
X071001Y010221D02*
X070934Y010221D01*
X070921Y008546D02*
X071001Y008546D01*
X071001Y008448D02*
X070689Y008448D01*
X067077Y014850D02*
X008901Y014850D01*
X008901Y014949D02*
X055900Y014949D01*
X055921Y014940D02*
X056080Y014940D01*
X056227Y015001D01*
X056340Y015113D01*
X056371Y015190D01*
X056530Y015190D01*
X056677Y015251D01*
X056790Y015363D01*
X056851Y015510D01*
X056851Y015670D01*
X056790Y015817D01*
X056677Y015929D01*
X056530Y015990D01*
X056371Y015990D01*
X056224Y015929D01*
X056112Y015817D01*
X056080Y015740D01*
X055942Y015740D01*
X055890Y015867D01*
X055777Y015979D01*
X055630Y016040D01*
X055471Y016040D01*
X055324Y015979D01*
X055212Y015867D01*
X055151Y015720D01*
X055151Y015560D01*
X055212Y015413D01*
X055324Y015301D01*
X055471Y015240D01*
X055609Y015240D01*
X055662Y015113D01*
X055774Y015001D01*
X055921Y014940D01*
X056101Y014949D02*
X067042Y014949D01*
X066944Y015047D02*
X056274Y015047D01*
X056353Y015146D02*
X066878Y015146D01*
X066837Y015244D02*
X056661Y015244D01*
X056769Y015343D02*
X066821Y015343D01*
X066821Y015441D02*
X056822Y015441D01*
X056851Y015540D02*
X066839Y015540D01*
X066880Y015638D02*
X056851Y015638D01*
X056823Y015737D02*
X066948Y015737D01*
X067046Y015835D02*
X056771Y015835D01*
X056666Y015934D02*
X067067Y015934D01*
X066959Y016032D02*
X055649Y016032D01*
X055452Y016032D02*
X021149Y016032D01*
X021149Y015951D02*
X021081Y015786D01*
X020954Y015660D01*
X020790Y015592D01*
X020611Y015592D01*
X020447Y015660D01*
X020321Y015786D01*
X020253Y015951D01*
X020253Y016129D01*
X020321Y016294D01*
X020447Y016420D01*
X020611Y016488D01*
X020790Y016488D01*
X020954Y016420D01*
X021081Y016294D01*
X021149Y016129D01*
X021149Y015951D01*
X021142Y015934D02*
X055279Y015934D01*
X055199Y015835D02*
X021101Y015835D01*
X021031Y015737D02*
X055158Y015737D01*
X055151Y015638D02*
X020902Y015638D01*
X020500Y015638D02*
X011988Y015638D01*
X012063Y015714D02*
X012191Y016023D01*
X012191Y016357D01*
X012063Y016666D01*
X011827Y016903D01*
X011518Y017031D01*
X011183Y017031D01*
X010874Y016903D01*
X010638Y016666D01*
X010510Y016357D01*
X010510Y016023D01*
X010638Y015714D01*
X010874Y015477D01*
X011183Y015349D01*
X011518Y015349D01*
X011827Y015477D01*
X012063Y015714D01*
X012073Y015737D02*
X020370Y015737D01*
X020300Y015835D02*
X012113Y015835D01*
X012154Y015934D02*
X020260Y015934D01*
X020253Y016032D02*
X012191Y016032D01*
X012191Y016131D02*
X020253Y016131D01*
X020294Y016229D02*
X012191Y016229D01*
X012191Y016328D02*
X020355Y016328D01*
X020462Y016426D02*
X012163Y016426D01*
X012122Y016525D02*
X053087Y016525D01*
X053024Y016551D02*
X053171Y016490D01*
X053330Y016490D01*
X053477Y016551D01*
X053590Y016663D01*
X053651Y016810D01*
X053651Y016970D01*
X053590Y017117D01*
X053477Y017229D01*
X053330Y017290D01*
X053171Y017290D01*
X053024Y017229D01*
X052912Y017117D01*
X052851Y016970D01*
X052851Y016810D01*
X052912Y016663D01*
X053024Y016551D01*
X052952Y016623D02*
X012081Y016623D01*
X012008Y016722D02*
X052887Y016722D01*
X052851Y016820D02*
X011909Y016820D01*
X011788Y016919D02*
X052851Y016919D01*
X052870Y017017D02*
X011550Y017017D01*
X011151Y017017D02*
X008901Y017017D01*
X008901Y016919D02*
X010913Y016919D01*
X010792Y016820D02*
X008901Y016820D01*
X008901Y016722D02*
X010694Y016722D01*
X010620Y016623D02*
X008901Y016623D01*
X008901Y016525D02*
X010579Y016525D01*
X010539Y016426D02*
X008901Y016426D01*
X008901Y016328D02*
X010510Y016328D01*
X010510Y016229D02*
X008901Y016229D01*
X008901Y016131D02*
X010510Y016131D01*
X010510Y016032D02*
X008901Y016032D01*
X008901Y015934D02*
X010547Y015934D01*
X010588Y015835D02*
X008901Y015835D01*
X008901Y015737D02*
X010629Y015737D01*
X010714Y015638D02*
X008901Y015638D01*
X008901Y015540D02*
X010812Y015540D01*
X010962Y015441D02*
X008901Y015441D01*
X008901Y015343D02*
X055282Y015343D01*
X055200Y015441D02*
X011739Y015441D01*
X011889Y015540D02*
X055159Y015540D01*
X055461Y015244D02*
X008901Y015244D01*
X008901Y015146D02*
X055648Y015146D01*
X055728Y015047D02*
X008901Y015047D01*
X008901Y017116D02*
X052911Y017116D01*
X053009Y017214D02*
X008901Y017214D01*
X008901Y017313D02*
X053701Y017313D01*
X053701Y017260D02*
X053701Y017420D01*
X053762Y017567D01*
X053874Y017679D01*
X054021Y017740D01*
X054180Y017740D01*
X054327Y017679D01*
X054440Y017567D01*
X054501Y017420D01*
X054501Y017260D01*
X054440Y017113D01*
X054327Y017001D01*
X054180Y016940D01*
X054021Y016940D01*
X053874Y017001D01*
X053762Y017113D01*
X053701Y017260D01*
X053720Y017214D02*
X053492Y017214D01*
X053590Y017116D02*
X053761Y017116D01*
X053858Y017017D02*
X053631Y017017D01*
X053651Y016919D02*
X067103Y016919D01*
X067031Y016820D02*
X053651Y016820D01*
X053614Y016722D02*
X066933Y016722D01*
X066874Y016623D02*
X053550Y016623D01*
X053414Y016525D02*
X066833Y016525D01*
X066821Y016426D02*
X020939Y016426D01*
X021047Y016328D02*
X066821Y016328D01*
X066844Y016229D02*
X021107Y016229D01*
X021148Y016131D02*
X066884Y016131D01*
X066974Y017017D02*
X054344Y017017D01*
X054441Y017116D02*
X057529Y017116D01*
X057591Y017090D02*
X057810Y017090D01*
X058012Y017174D01*
X058167Y017328D01*
X058251Y017531D01*
X058251Y017749D01*
X058167Y017952D01*
X058012Y018106D01*
X057810Y018190D01*
X057591Y018190D01*
X057389Y018106D01*
X057234Y017952D01*
X057151Y017749D01*
X057151Y017531D01*
X057234Y017328D01*
X057389Y017174D01*
X057591Y017090D01*
X057349Y017214D02*
X054481Y017214D01*
X054501Y017313D02*
X057250Y017313D01*
X057200Y017411D02*
X054501Y017411D01*
X054463Y017510D02*
X057159Y017510D01*
X057151Y017608D02*
X054398Y017608D01*
X054261Y017707D02*
X057151Y017707D01*
X057174Y017805D02*
X008901Y017805D01*
X008901Y017707D02*
X053941Y017707D01*
X053803Y017608D02*
X008901Y017608D01*
X008901Y017510D02*
X053738Y017510D01*
X053701Y017411D02*
X008901Y017411D01*
X008901Y017904D02*
X057215Y017904D01*
X057285Y018002D02*
X016034Y018002D01*
X016167Y018101D02*
X057384Y018101D01*
X058018Y018101D02*
X066897Y018101D01*
X066989Y018002D02*
X058116Y018002D01*
X058187Y017904D02*
X067140Y017904D01*
X067016Y017805D02*
X058228Y017805D01*
X058251Y017707D02*
X066918Y017707D01*
X066867Y017608D02*
X058251Y017608D01*
X058242Y017510D02*
X066827Y017510D01*
X066821Y017411D02*
X058201Y017411D01*
X058151Y017313D02*
X066821Y017313D01*
X066850Y017214D02*
X058053Y017214D01*
X057872Y017116D02*
X066891Y017116D01*
X066821Y018285D02*
X066821Y018495D01*
X066861Y018593D02*
X018593Y018593D01*
X018590Y018592D02*
X018754Y018660D01*
X018881Y018786D01*
X018949Y018951D01*
X018949Y019129D01*
X018881Y019294D01*
X018754Y019420D01*
X018590Y019488D01*
X018411Y019488D01*
X018247Y019420D01*
X018121Y019294D01*
X018053Y019129D01*
X018053Y018951D01*
X018121Y018786D01*
X018247Y018660D01*
X018411Y018592D01*
X018590Y018592D01*
X018408Y018593D02*
X016230Y018593D01*
X016155Y018692D02*
X018215Y018692D01*
X018119Y018790D02*
X016004Y018790D01*
X015697Y018790D02*
X008901Y018790D01*
X008901Y018692D02*
X015546Y018692D01*
X015471Y018593D02*
X008901Y018593D01*
X008901Y018495D02*
X015430Y018495D01*
X015422Y018396D02*
X008901Y018396D01*
X008901Y018298D02*
X015425Y018298D01*
X015466Y018199D02*
X008901Y018199D01*
X008901Y018101D02*
X015534Y018101D01*
X015667Y018002D02*
X008901Y018002D01*
X008901Y018889D02*
X011089Y018889D01*
X011183Y018849D02*
X010874Y018977D01*
X010638Y019214D01*
X010510Y019523D01*
X010510Y019857D01*
X010638Y020166D01*
X010874Y020403D01*
X011183Y020531D01*
X011518Y020531D01*
X011827Y020403D01*
X012063Y020166D01*
X012191Y019857D01*
X012191Y019523D01*
X012063Y019214D01*
X011827Y018977D01*
X011518Y018849D01*
X011183Y018849D01*
X010865Y018987D02*
X008901Y018987D01*
X008901Y019086D02*
X010766Y019086D01*
X010668Y019184D02*
X008901Y019184D01*
X008901Y019283D02*
X010610Y019283D01*
X010569Y019381D02*
X008901Y019381D01*
X008901Y019480D02*
X010528Y019480D01*
X010510Y019578D02*
X008901Y019578D01*
X008901Y019677D02*
X010510Y019677D01*
X010510Y019775D02*
X008901Y019775D01*
X008901Y019874D02*
X010517Y019874D01*
X010558Y019972D02*
X008901Y019972D01*
X008901Y020071D02*
X010599Y020071D01*
X010641Y020169D02*
X008901Y020169D01*
X008901Y020268D02*
X010740Y020268D01*
X010838Y020366D02*
X008901Y020366D01*
X008901Y020465D02*
X011025Y020465D01*
X011677Y020465D02*
X012873Y020465D01*
X012904Y020391D02*
X013052Y020243D01*
X013246Y020163D01*
X013455Y020163D01*
X013649Y020243D01*
X013798Y020391D01*
X013878Y020585D01*
X013878Y020795D01*
X013798Y020989D01*
X013649Y021137D01*
X013521Y021190D01*
X013649Y021243D01*
X013798Y021391D01*
X013878Y021585D01*
X013878Y021795D01*
X013798Y021989D01*
X013649Y022137D01*
X013455Y022217D01*
X013246Y022217D01*
X013052Y022137D01*
X012904Y021989D01*
X012823Y021795D01*
X012823Y021585D01*
X012904Y021391D01*
X013052Y021243D01*
X013180Y021190D01*
X013052Y021137D01*
X012904Y020989D01*
X012823Y020795D01*
X012823Y020585D01*
X012904Y020391D01*
X012929Y020366D02*
X011863Y020366D01*
X011962Y020268D02*
X013027Y020268D01*
X013230Y020169D02*
X012060Y020169D01*
X012103Y020071D02*
X052801Y020071D01*
X052801Y020060D02*
X052862Y019913D01*
X052974Y019801D01*
X053121Y019740D01*
X053280Y019740D01*
X053427Y019801D01*
X053540Y019913D01*
X053601Y020060D01*
X053601Y020220D01*
X053540Y020367D01*
X053427Y020479D01*
X053280Y020540D01*
X053121Y020540D01*
X052974Y020479D01*
X052862Y020367D01*
X052801Y020220D01*
X052801Y020060D01*
X052837Y019972D02*
X014973Y019972D01*
X014930Y019990D02*
X015077Y019929D01*
X015190Y019817D01*
X015251Y019670D01*
X015251Y019510D01*
X015190Y019363D01*
X015077Y019251D01*
X014930Y019190D01*
X014771Y019190D01*
X014624Y019251D01*
X014512Y019363D01*
X014451Y019510D01*
X014451Y019670D01*
X014512Y019817D01*
X014624Y019929D01*
X014771Y019990D01*
X014930Y019990D01*
X014728Y019972D02*
X012144Y019972D01*
X012184Y019874D02*
X014569Y019874D01*
X014494Y019775D02*
X012191Y019775D01*
X012191Y019677D02*
X014454Y019677D01*
X014451Y019578D02*
X012191Y019578D01*
X012173Y019480D02*
X014463Y019480D01*
X014504Y019381D02*
X012133Y019381D01*
X012092Y019283D02*
X014592Y019283D01*
X015109Y019283D02*
X018116Y019283D01*
X018075Y019184D02*
X012034Y019184D01*
X011935Y019086D02*
X018053Y019086D01*
X018053Y018987D02*
X011837Y018987D01*
X011613Y018889D02*
X018078Y018889D01*
X018208Y019381D02*
X015197Y019381D01*
X015238Y019480D02*
X018391Y019480D01*
X018610Y019480D02*
X057172Y019480D01*
X057151Y019531D02*
X057234Y019328D01*
X057389Y019174D01*
X057591Y019090D01*
X057810Y019090D01*
X058012Y019174D01*
X058167Y019328D01*
X058251Y019531D01*
X058251Y019749D01*
X058167Y019952D01*
X058012Y020106D01*
X057810Y020190D01*
X057591Y020190D01*
X057389Y020106D01*
X057234Y019952D01*
X057151Y019749D01*
X057151Y019531D01*
X057151Y019578D02*
X015251Y019578D01*
X015248Y019677D02*
X057151Y019677D01*
X057161Y019775D02*
X056665Y019775D01*
X056727Y019801D02*
X056840Y019913D01*
X056901Y020060D01*
X056901Y020220D01*
X056840Y020367D01*
X056727Y020479D01*
X056580Y020540D01*
X056421Y020540D01*
X056274Y020479D01*
X056162Y020367D01*
X056101Y020220D01*
X056101Y020060D01*
X056162Y019913D01*
X056274Y019801D01*
X056421Y019740D01*
X056580Y019740D01*
X056727Y019801D01*
X056800Y019874D02*
X057202Y019874D01*
X057255Y019972D02*
X056864Y019972D01*
X056901Y020071D02*
X057354Y020071D01*
X057541Y020169D02*
X056901Y020169D01*
X056881Y020268D02*
X066828Y020268D01*
X066821Y020366D02*
X056840Y020366D01*
X056742Y020465D02*
X066821Y020465D01*
X066849Y020563D02*
X013869Y020563D01*
X013878Y020662D02*
X066890Y020662D01*
X066971Y020760D02*
X013878Y020760D01*
X013851Y020859D02*
X067097Y020859D01*
X067034Y020957D02*
X013811Y020957D01*
X013730Y021056D02*
X066935Y021056D01*
X066875Y021154D02*
X013607Y021154D01*
X013659Y021253D02*
X066834Y021253D01*
X066821Y021351D02*
X052728Y021351D01*
X052727Y021351D02*
X052840Y021463D01*
X052901Y021610D01*
X052901Y021770D01*
X052892Y021790D01*
X052980Y021790D01*
X053127Y021851D01*
X053240Y021963D01*
X053301Y022110D01*
X053301Y022270D01*
X053240Y022417D01*
X053127Y022529D01*
X052980Y022590D01*
X052851Y022590D01*
X052851Y022670D01*
X052790Y022817D01*
X052677Y022929D01*
X052530Y022990D01*
X052371Y022990D01*
X052224Y022929D01*
X052112Y022817D01*
X052090Y022765D01*
X052090Y022767D01*
X051977Y022879D01*
X051830Y022940D01*
X051671Y022940D01*
X051524Y022879D01*
X051412Y022767D01*
X051351Y022620D01*
X051351Y022460D01*
X051412Y022313D01*
X051524Y022201D01*
X051636Y022155D01*
X051574Y022129D01*
X051462Y022017D01*
X051401Y021870D01*
X051401Y021710D01*
X051462Y021563D01*
X051574Y021451D01*
X051721Y021390D01*
X051880Y021390D01*
X052027Y021451D01*
X052126Y021550D01*
X052162Y021463D01*
X052274Y021351D01*
X052421Y021290D01*
X052580Y021290D01*
X052727Y021351D01*
X052826Y021450D02*
X066821Y021450D01*
X066843Y021548D02*
X052875Y021548D01*
X052901Y021647D02*
X066883Y021647D01*
X066956Y021745D02*
X052901Y021745D01*
X053110Y021844D02*
X067061Y021844D01*
X067049Y021942D02*
X053219Y021942D01*
X053272Y022041D02*
X066950Y022041D01*
X066881Y022139D02*
X053301Y022139D01*
X053301Y022238D02*
X066840Y022238D01*
X066821Y022336D02*
X053273Y022336D01*
X053222Y022435D02*
X066821Y022435D01*
X066836Y022533D02*
X053117Y022533D01*
X052851Y022632D02*
X066877Y022632D01*
X066941Y022730D02*
X052825Y022730D01*
X052778Y022829D02*
X067040Y022829D01*
X067083Y022927D02*
X052679Y022927D01*
X052222Y022927D02*
X051861Y022927D01*
X052028Y022829D02*
X052124Y022829D01*
X051640Y022927D02*
X041708Y022927D01*
X041708Y022921D02*
X041710Y022950D01*
X041718Y022979D01*
X041714Y022986D01*
X041718Y023034D01*
X041724Y023041D01*
X041721Y023070D01*
X041724Y023099D01*
X041718Y023106D01*
X041714Y023154D01*
X041718Y023161D01*
X041710Y023190D01*
X041708Y023219D01*
X041701Y023225D01*
X041689Y023271D01*
X041692Y023279D01*
X041679Y023306D01*
X041672Y023335D01*
X041664Y023339D01*
X041644Y023382D01*
X041645Y023391D01*
X041628Y023415D01*
X041616Y023442D01*
X041608Y023445D01*
X041580Y023484D01*
X041580Y023493D01*
X041559Y023514D01*
X041543Y023538D01*
X041534Y023539D01*
X041500Y023573D01*
X041498Y023582D01*
X041474Y023599D01*
X041454Y023620D01*
X041445Y023620D01*
X041405Y023647D01*
X041402Y023655D01*
X041376Y023668D01*
X041352Y023685D01*
X041343Y023683D01*
X041300Y023703D01*
X041295Y023711D01*
X041267Y023719D01*
X041240Y023731D01*
X041232Y023728D01*
X041186Y023740D01*
X041180Y023747D01*
X041151Y023750D01*
X041122Y023757D01*
X041114Y023753D01*
X041067Y023757D01*
X041060Y023763D01*
X041031Y023760D01*
X041001Y023763D01*
X040995Y023757D01*
X040947Y023753D01*
X040939Y023757D01*
X040911Y023750D01*
X040881Y023747D01*
X040876Y023740D01*
X040830Y023728D01*
X040821Y023731D01*
X040795Y023719D01*
X040766Y023711D01*
X040762Y023703D01*
X040718Y023683D01*
X040710Y023685D01*
X040685Y023668D01*
X040659Y023655D01*
X040656Y023647D01*
X040617Y023620D01*
X040608Y023620D01*
X040587Y023599D01*
X040563Y023582D01*
X040561Y023573D01*
X040527Y023539D01*
X040519Y023538D01*
X040502Y023514D01*
X040481Y023493D01*
X040481Y023484D01*
X040454Y023445D01*
X040445Y023442D01*
X040433Y023415D01*
X040416Y023391D01*
X040417Y023382D01*
X040397Y023339D01*
X040390Y023335D01*
X040382Y023306D01*
X040369Y023279D01*
X040373Y023271D01*
X040360Y023225D01*
X040353Y023219D01*
X040351Y023190D01*
X040343Y023161D01*
X040348Y023154D01*
X040343Y023106D01*
X040338Y023099D01*
X040340Y023070D01*
X040338Y023041D01*
X040343Y023034D01*
X040348Y022986D01*
X040343Y022979D01*
X040351Y022950D01*
X040353Y022921D01*
X040360Y022915D01*
X040373Y022869D01*
X040369Y022861D01*
X040382Y022834D01*
X040390Y022805D01*
X040397Y022801D01*
X040417Y022758D01*
X040416Y022749D01*
X040433Y022725D01*
X040445Y022698D01*
X040454Y022695D01*
X040481Y022656D01*
X040481Y022647D01*
X040502Y022626D01*
X040519Y022602D01*
X040527Y022601D01*
X040561Y022567D01*
X040563Y022558D01*
X040587Y022541D01*
X040608Y022520D01*
X040617Y022520D01*
X040656Y022493D01*
X040659Y022485D01*
X040685Y022472D01*
X040710Y022455D01*
X040718Y022457D01*
X040762Y022437D01*
X040766Y022429D01*
X040795Y022421D01*
X040821Y022409D01*
X040830Y022412D01*
X040876Y022400D01*
X040881Y022393D01*
X040911Y022390D01*
X040939Y022383D01*
X040947Y022387D01*
X040995Y022383D01*
X041001Y022377D01*
X041031Y022380D01*
X041060Y022377D01*
X041067Y022383D01*
X041114Y022387D01*
X041122Y022383D01*
X041151Y022390D01*
X041180Y022393D01*
X041186Y022400D01*
X041232Y022412D01*
X041240Y022409D01*
X041267Y022421D01*
X041295Y022429D01*
X041300Y022437D01*
X041343Y022457D01*
X041352Y022455D01*
X041376Y022472D01*
X041402Y022485D01*
X041405Y022493D01*
X041445Y022520D01*
X041454Y022520D01*
X041474Y022541D01*
X041498Y022558D01*
X041500Y022567D01*
X041534Y022601D01*
X041543Y022602D01*
X041559Y022626D01*
X041580Y022647D01*
X041580Y022656D01*
X041608Y022695D01*
X041616Y022698D01*
X041628Y022725D01*
X041645Y022749D01*
X041644Y022758D01*
X041664Y022801D01*
X041672Y022805D01*
X041679Y022834D01*
X041692Y022861D01*
X041689Y022869D01*
X041701Y022915D01*
X041708Y022921D01*
X041678Y022829D02*
X051474Y022829D01*
X051396Y022730D02*
X043774Y022730D01*
X043777Y022729D02*
X043630Y022790D01*
X043471Y022790D01*
X043324Y022729D01*
X043212Y022617D01*
X043151Y022470D01*
X043151Y022310D01*
X043212Y022163D01*
X043324Y022051D01*
X043471Y021990D01*
X043630Y021990D01*
X043777Y022051D01*
X043890Y022163D01*
X043951Y022310D01*
X043951Y022470D01*
X043890Y022617D01*
X043777Y022729D01*
X043875Y022632D02*
X051356Y022632D01*
X051351Y022533D02*
X043924Y022533D01*
X043951Y022435D02*
X051361Y022435D01*
X051402Y022336D02*
X043951Y022336D01*
X043921Y022238D02*
X051487Y022238D01*
X051599Y022139D02*
X043866Y022139D01*
X043753Y022041D02*
X051486Y022041D01*
X051431Y021942D02*
X034806Y021942D01*
X034827Y021951D02*
X034940Y022063D01*
X035001Y022210D01*
X035001Y022370D01*
X034940Y022517D01*
X034827Y022629D01*
X034680Y022690D01*
X034521Y022690D01*
X034374Y022629D01*
X034262Y022517D01*
X034201Y022370D01*
X034201Y022210D01*
X034262Y022063D01*
X034374Y021951D01*
X034521Y021890D01*
X034680Y021890D01*
X034827Y021951D01*
X034917Y022041D02*
X043349Y022041D01*
X043236Y022139D02*
X034971Y022139D01*
X035001Y022238D02*
X037056Y022238D01*
X037024Y022251D02*
X037171Y022190D01*
X037330Y022190D01*
X037477Y022251D01*
X037590Y022363D01*
X037651Y022510D01*
X037651Y022670D01*
X037590Y022817D01*
X037477Y022929D01*
X037330Y022990D01*
X037171Y022990D01*
X037024Y022929D01*
X036912Y022817D01*
X036851Y022670D01*
X036851Y022510D01*
X036912Y022363D01*
X037024Y022251D01*
X036939Y022336D02*
X035001Y022336D01*
X034974Y022435D02*
X036882Y022435D01*
X036851Y022533D02*
X034923Y022533D01*
X034821Y022632D02*
X036851Y022632D01*
X036876Y022730D02*
X023427Y022730D01*
X023477Y022751D02*
X023590Y022863D01*
X023651Y023010D01*
X023651Y023170D01*
X023590Y023317D01*
X023477Y023429D01*
X023330Y023490D01*
X023171Y023490D01*
X023024Y023429D01*
X022912Y023317D01*
X022851Y023170D01*
X022851Y023010D01*
X022912Y022863D01*
X023024Y022751D01*
X023171Y022690D01*
X023330Y022690D01*
X023477Y022751D01*
X023555Y022829D02*
X036924Y022829D01*
X037022Y022927D02*
X023616Y022927D01*
X023651Y023026D02*
X040344Y023026D01*
X040345Y023124D02*
X023651Y023124D01*
X023629Y023223D02*
X040358Y023223D01*
X040386Y023321D02*
X023585Y023321D01*
X023487Y023420D02*
X040435Y023420D01*
X040505Y023518D02*
X019630Y023518D01*
X019651Y023470D02*
X019590Y023617D01*
X019477Y023729D01*
X019330Y023790D01*
X019171Y023790D01*
X019168Y023789D01*
X019077Y023879D01*
X018930Y023940D01*
X018921Y023940D01*
X018890Y024017D01*
X018777Y024129D01*
X018630Y024190D01*
X018471Y024190D01*
X018324Y024129D01*
X018212Y024017D01*
X018151Y023870D01*
X018151Y023710D01*
X018212Y023563D01*
X018324Y023451D01*
X018471Y023390D01*
X018480Y023390D01*
X018512Y023313D01*
X018624Y023201D01*
X018771Y023140D01*
X018930Y023140D01*
X018934Y023141D01*
X019024Y023051D01*
X019171Y022990D01*
X019330Y022990D01*
X019477Y023051D01*
X019590Y023163D01*
X019651Y023310D01*
X019651Y023470D01*
X019651Y023420D02*
X023015Y023420D01*
X022916Y023321D02*
X019651Y023321D01*
X019614Y023223D02*
X022873Y023223D01*
X022851Y023124D02*
X019551Y023124D01*
X019416Y023026D02*
X022851Y023026D01*
X022885Y022927D02*
X011706Y022927D01*
X011827Y022977D02*
X012063Y023214D01*
X012191Y023523D01*
X012191Y023857D01*
X012063Y024166D01*
X011827Y024403D01*
X011518Y024531D01*
X011183Y024531D01*
X010874Y024403D01*
X010638Y024166D01*
X010510Y023857D01*
X010510Y023523D01*
X010638Y023214D01*
X010874Y022977D01*
X011183Y022849D01*
X011518Y022849D01*
X011827Y022977D01*
X011875Y023026D02*
X019085Y023026D01*
X018951Y023124D02*
X011974Y023124D01*
X012067Y023223D02*
X018602Y023223D01*
X018508Y023321D02*
X012108Y023321D01*
X012148Y023420D02*
X018399Y023420D01*
X018257Y023518D02*
X012189Y023518D01*
X012191Y023617D02*
X018189Y023617D01*
X018151Y023715D02*
X012191Y023715D01*
X012191Y023814D02*
X018151Y023814D01*
X018168Y023912D02*
X012168Y023912D01*
X012128Y024011D02*
X018209Y024011D01*
X018304Y024109D02*
X012087Y024109D01*
X012022Y024208D02*
X066852Y024208D01*
X066821Y024306D02*
X011923Y024306D01*
X011822Y024405D02*
X066821Y024405D01*
X066824Y024503D02*
X038138Y024503D01*
X038154Y024510D02*
X038281Y024636D01*
X038349Y024801D01*
X038349Y024979D01*
X038281Y025144D01*
X038154Y025270D01*
X037990Y025338D01*
X037811Y025338D01*
X037647Y025270D01*
X037521Y025144D01*
X037453Y024979D01*
X037453Y024801D01*
X037521Y024636D01*
X037647Y024510D01*
X037811Y024442D01*
X037990Y024442D01*
X038154Y024510D01*
X038246Y024602D02*
X041517Y024602D01*
X041497Y024610D02*
X041661Y024542D01*
X041840Y024542D01*
X042004Y024610D01*
X042131Y024736D01*
X042199Y024901D01*
X042199Y025079D01*
X042131Y025244D01*
X042004Y025370D01*
X041840Y025438D01*
X041661Y025438D01*
X041497Y025370D01*
X041371Y025244D01*
X041303Y025079D01*
X041303Y024901D01*
X041371Y024736D01*
X041497Y024610D01*
X041407Y024700D02*
X038307Y024700D01*
X038348Y024799D02*
X041345Y024799D01*
X041304Y024897D02*
X038349Y024897D01*
X038342Y024996D02*
X041303Y024996D01*
X041309Y025094D02*
X038301Y025094D01*
X038232Y025193D02*
X041350Y025193D01*
X041418Y025291D02*
X038103Y025291D01*
X037698Y025291D02*
X026137Y025291D01*
X026136Y025288D02*
X026148Y025315D01*
X026165Y025339D01*
X026164Y025348D01*
X026184Y025391D01*
X026192Y025395D01*
X026199Y025424D01*
X026212Y025451D01*
X026209Y025459D01*
X026221Y025505D01*
X026228Y025511D01*
X026230Y025540D01*
X026238Y025569D01*
X026234Y025576D01*
X026238Y025624D01*
X026244Y025631D01*
X026241Y025660D01*
X026244Y025689D01*
X026238Y025696D01*
X026234Y025744D01*
X026238Y025751D01*
X026230Y025780D01*
X026228Y025809D01*
X026221Y025815D01*
X026209Y025861D01*
X026212Y025869D01*
X026199Y025896D01*
X026192Y025925D01*
X026184Y025929D01*
X026164Y025972D01*
X026165Y025981D01*
X026148Y026005D01*
X026136Y026032D01*
X026128Y026035D01*
X026100Y026074D01*
X026100Y026083D01*
X026079Y026104D01*
X026063Y026128D01*
X026054Y026129D01*
X026020Y026163D01*
X026018Y026172D01*
X025994Y026189D01*
X025974Y026210D01*
X025965Y026210D01*
X025925Y026237D01*
X025922Y026245D01*
X025896Y026258D01*
X025872Y026275D01*
X025863Y026273D01*
X025820Y026293D01*
X025815Y026301D01*
X025787Y026309D01*
X025760Y026321D01*
X025752Y026318D01*
X025706Y026330D01*
X025700Y026337D01*
X025671Y026340D01*
X025642Y026347D01*
X025634Y026343D01*
X025587Y026347D01*
X025580Y026353D01*
X025551Y026350D01*
X025521Y026353D01*
X025515Y026347D01*
X025467Y026343D01*
X025459Y026347D01*
X025431Y026340D01*
X025401Y026337D01*
X025396Y026330D01*
X025350Y026318D01*
X025341Y026321D01*
X025315Y026309D01*
X025286Y026301D01*
X025282Y026293D01*
X025238Y026273D01*
X025230Y026275D01*
X025205Y026258D01*
X025179Y026245D01*
X025176Y026237D01*
X025137Y026210D01*
X025128Y026210D01*
X025107Y026189D01*
X025083Y026172D01*
X025081Y026163D01*
X025047Y026129D01*
X025039Y026128D01*
X025022Y026104D01*
X025001Y026083D01*
X025001Y026074D01*
X024974Y026035D01*
X024965Y026032D01*
X024953Y026005D01*
X024936Y025981D01*
X024937Y025972D01*
X024917Y025929D01*
X024910Y025925D01*
X024902Y025896D01*
X024889Y025869D01*
X024893Y025861D01*
X024880Y025815D01*
X024873Y025809D01*
X024871Y025780D01*
X024863Y025751D01*
X024868Y025744D01*
X024863Y025696D01*
X024858Y025689D01*
X024860Y025660D01*
X024858Y025631D01*
X024863Y025624D01*
X024868Y025576D01*
X024863Y025569D01*
X024871Y025540D01*
X024873Y025511D01*
X024880Y025505D01*
X024893Y025459D01*
X024889Y025451D01*
X024902Y025424D01*
X024910Y025395D01*
X024917Y025391D01*
X024937Y025348D01*
X024936Y025339D01*
X024953Y025315D01*
X024965Y025288D01*
X024974Y025285D01*
X025001Y025246D01*
X025001Y025237D01*
X025022Y025216D01*
X025039Y025192D01*
X025047Y025191D01*
X025081Y025157D01*
X025083Y025148D01*
X025107Y025131D01*
X025128Y025110D01*
X025137Y025110D01*
X025176Y025083D01*
X025179Y025075D01*
X025205Y025062D01*
X025230Y025045D01*
X025238Y025047D01*
X025282Y025027D01*
X025286Y025019D01*
X025315Y025011D01*
X025341Y024999D01*
X025350Y025002D01*
X025396Y024990D01*
X025401Y024983D01*
X025431Y024980D01*
X025459Y024973D01*
X025467Y024977D01*
X025515Y024973D01*
X025521Y024967D01*
X025551Y024970D01*
X025580Y024967D01*
X025587Y024973D01*
X025634Y024977D01*
X025642Y024973D01*
X025671Y024980D01*
X025700Y024983D01*
X025706Y024990D01*
X025752Y025002D01*
X025760Y024999D01*
X025787Y025011D01*
X025815Y025019D01*
X025820Y025027D01*
X025863Y025047D01*
X025872Y025045D01*
X025896Y025062D01*
X025922Y025075D01*
X025925Y025083D01*
X025965Y025110D01*
X025974Y025110D01*
X025994Y025131D01*
X026018Y025148D01*
X026020Y025157D01*
X026054Y025191D01*
X026063Y025192D01*
X026079Y025216D01*
X026100Y025237D01*
X026100Y025246D01*
X026128Y025285D01*
X026136Y025288D01*
X026183Y025390D02*
X041545Y025390D01*
X041957Y025390D02*
X066821Y025390D01*
X066821Y025488D02*
X026217Y025488D01*
X026235Y025587D02*
X066858Y025587D01*
X066899Y025685D02*
X028639Y025685D01*
X028677Y025701D02*
X028790Y025813D01*
X028851Y025960D01*
X028851Y026120D01*
X028790Y026267D01*
X028677Y026379D01*
X028530Y026440D01*
X028371Y026440D01*
X028224Y026379D01*
X028112Y026267D01*
X028051Y026120D01*
X028051Y025960D01*
X028112Y025813D01*
X028224Y025701D01*
X028371Y025640D01*
X028530Y025640D01*
X028677Y025701D01*
X028760Y025784D02*
X066995Y025784D01*
X067154Y025882D02*
X056560Y025882D01*
X056506Y025860D02*
X056701Y025941D01*
X056850Y026090D01*
X056931Y026285D01*
X056931Y026495D01*
X056850Y026690D01*
X056701Y026839D01*
X056578Y026890D01*
X056701Y026941D01*
X056850Y027090D01*
X056931Y027285D01*
X056931Y027495D01*
X056850Y027690D01*
X056701Y027839D01*
X056578Y027890D01*
X056701Y027941D01*
X056850Y028090D01*
X056931Y028285D01*
X056931Y028495D01*
X056850Y028690D01*
X056701Y028839D01*
X056578Y028890D01*
X056701Y028941D01*
X056850Y029090D01*
X056931Y029285D01*
X056931Y029495D01*
X056850Y029690D01*
X056701Y029839D01*
X056506Y029920D01*
X056295Y029920D01*
X056100Y029839D01*
X055951Y029690D01*
X055871Y029495D01*
X055871Y029285D01*
X055951Y029090D01*
X056100Y028941D01*
X056223Y028890D01*
X056100Y028839D01*
X055951Y028690D01*
X055871Y028495D01*
X055871Y028285D01*
X055951Y028090D01*
X056100Y027941D01*
X056223Y027890D01*
X056100Y027839D01*
X055951Y027690D01*
X055871Y027495D01*
X055871Y027285D01*
X055951Y027090D01*
X056100Y026941D01*
X056223Y026890D01*
X056100Y026839D01*
X055951Y026690D01*
X055871Y026495D01*
X055871Y026285D01*
X055951Y026090D01*
X056100Y025941D01*
X056295Y025860D01*
X056506Y025860D01*
X056741Y025981D02*
X067010Y025981D01*
X066912Y026079D02*
X056839Y026079D01*
X056886Y026178D02*
X066865Y026178D01*
X066824Y026276D02*
X056927Y026276D01*
X056931Y026375D02*
X066821Y026375D01*
X066821Y026473D02*
X056931Y026473D01*
X056899Y026572D02*
X066852Y026572D01*
X066893Y026670D02*
X056858Y026670D01*
X056771Y026769D02*
X066980Y026769D01*
X067118Y026867D02*
X056633Y026867D01*
X056726Y026966D02*
X067025Y026966D01*
X066927Y027064D02*
X056824Y027064D01*
X056880Y027163D02*
X066871Y027163D01*
X066830Y027261D02*
X056921Y027261D01*
X056931Y027360D02*
X066821Y027360D01*
X066821Y027458D02*
X056931Y027458D01*
X056905Y027557D02*
X066846Y027557D01*
X066887Y027655D02*
X056864Y027655D01*
X056786Y027754D02*
X066965Y027754D01*
X067082Y027852D02*
X056670Y027852D01*
X056711Y027951D02*
X067040Y027951D01*
X066942Y028049D02*
X056809Y028049D01*
X056874Y028148D02*
X066877Y028148D01*
X066836Y028246D02*
X056915Y028246D01*
X056931Y028345D02*
X066821Y028345D01*
X066821Y028443D02*
X056931Y028443D01*
X056911Y028542D02*
X066840Y028542D01*
X066881Y028640D02*
X056871Y028640D01*
X056801Y028739D02*
X066950Y028739D01*
X067048Y028837D02*
X056703Y028837D01*
X056689Y028936D02*
X067062Y028936D01*
X066957Y029034D02*
X056794Y029034D01*
X056868Y029133D02*
X066884Y029133D01*
X066843Y029231D02*
X056909Y029231D01*
X056931Y029330D02*
X066821Y029330D01*
X066821Y029428D02*
X056931Y029428D01*
X056918Y029527D02*
X066834Y029527D01*
X066874Y029625D02*
X056877Y029625D01*
X056816Y029724D02*
X066935Y029724D01*
X067033Y029822D02*
X056718Y029822D01*
X056083Y029822D02*
X046508Y029822D01*
X046490Y029867D02*
X046377Y029979D01*
X046230Y030040D01*
X046071Y030040D01*
X045924Y029979D01*
X045812Y029867D01*
X045751Y029720D01*
X045751Y029560D01*
X045812Y029413D01*
X045924Y029301D01*
X046071Y029240D01*
X046230Y029240D01*
X046377Y029301D01*
X046490Y029413D01*
X046551Y029560D01*
X046551Y029720D01*
X046490Y029867D01*
X046436Y029921D02*
X067099Y029921D01*
X066972Y030019D02*
X050096Y030019D01*
X050077Y030001D02*
X050190Y030113D01*
X050251Y030260D01*
X050251Y030420D01*
X050190Y030567D01*
X050077Y030679D01*
X049930Y030740D01*
X049771Y030740D01*
X049624Y030679D01*
X049512Y030567D01*
X049451Y030420D01*
X049451Y030260D01*
X049512Y030113D01*
X049624Y030001D01*
X049771Y029940D01*
X049930Y029940D01*
X050077Y030001D01*
X050192Y030118D02*
X066890Y030118D01*
X066849Y030216D02*
X050232Y030216D01*
X050251Y030315D02*
X066821Y030315D01*
X066821Y030413D02*
X050251Y030413D01*
X050212Y030512D02*
X066827Y030512D01*
X066868Y030610D02*
X050146Y030610D01*
X050006Y030709D02*
X066920Y030709D01*
X067018Y030807D02*
X047808Y030807D01*
X047849Y030906D02*
X067135Y030906D01*
X066987Y031004D02*
X047851Y031004D01*
X047837Y031103D02*
X048022Y031103D01*
X047924Y031201D02*
X047796Y031201D01*
X047735Y030709D02*
X049696Y030709D01*
X049555Y030610D02*
X047579Y030610D01*
X047322Y030610D02*
X045996Y030610D01*
X046040Y030567D02*
X045927Y030679D01*
X045780Y030740D01*
X045621Y030740D01*
X045474Y030679D01*
X045362Y030567D01*
X045301Y030420D01*
X045301Y030260D01*
X045362Y030113D01*
X045474Y030001D01*
X045621Y029940D01*
X045780Y029940D01*
X045927Y030001D01*
X046040Y030113D01*
X046101Y030260D01*
X046101Y030420D01*
X046040Y030567D01*
X046062Y030512D02*
X049489Y030512D01*
X049451Y030413D02*
X046101Y030413D01*
X046101Y030315D02*
X049451Y030315D01*
X049469Y030216D02*
X046082Y030216D01*
X046042Y030118D02*
X049510Y030118D01*
X049606Y030019D02*
X046280Y030019D01*
X046021Y030019D02*
X045946Y030019D01*
X045866Y029921D02*
X043309Y029921D01*
X043290Y029967D02*
X043177Y030079D01*
X043030Y030140D01*
X042871Y030140D01*
X042724Y030079D01*
X042612Y029967D01*
X042551Y029820D01*
X042551Y029660D01*
X042612Y029513D01*
X042635Y029490D01*
X042612Y029467D01*
X042551Y029320D01*
X042551Y029160D01*
X042612Y029013D01*
X042724Y028901D01*
X042751Y028890D01*
X042751Y028760D01*
X042812Y028613D01*
X042924Y028501D01*
X043071Y028440D01*
X043230Y028440D01*
X043377Y028501D01*
X043490Y028613D01*
X043551Y028760D01*
X043551Y028840D01*
X043562Y028813D01*
X043674Y028701D01*
X043821Y028640D01*
X043980Y028640D01*
X044127Y028701D01*
X044240Y028813D01*
X044301Y028960D01*
X044301Y029120D01*
X044240Y029267D01*
X044127Y029379D01*
X043980Y029440D01*
X043821Y029440D01*
X043674Y029379D01*
X043562Y029267D01*
X043501Y029120D01*
X043501Y029040D01*
X043490Y029067D01*
X043377Y029179D01*
X043351Y029190D01*
X043351Y029320D01*
X043290Y029467D01*
X043266Y029490D01*
X043290Y029513D01*
X043351Y029660D01*
X043351Y029820D01*
X043290Y029967D01*
X043237Y030019D02*
X044406Y030019D01*
X044424Y030001D02*
X044571Y029940D01*
X044730Y029940D01*
X044877Y030001D01*
X044990Y030113D01*
X045051Y030260D01*
X045051Y030420D01*
X044990Y030567D01*
X044877Y030679D01*
X044730Y030740D01*
X044571Y030740D01*
X044424Y030679D01*
X044312Y030567D01*
X044251Y030420D01*
X044251Y030260D01*
X044312Y030113D01*
X044424Y030001D01*
X044310Y030118D02*
X043084Y030118D01*
X042817Y030118D02*
X040226Y030118D01*
X040226Y030121D02*
X040182Y030165D01*
X040120Y030165D01*
X039776Y030165D01*
X039776Y031321D01*
X039732Y031365D01*
X038670Y031365D01*
X038626Y031321D01*
X038626Y029709D01*
X038670Y029665D01*
X040182Y029665D01*
X040226Y029709D01*
X040226Y030121D01*
X040226Y030019D02*
X042664Y030019D01*
X042593Y029921D02*
X040226Y029921D01*
X040226Y029822D02*
X042552Y029822D01*
X042551Y029724D02*
X040226Y029724D01*
X039776Y030216D02*
X044269Y030216D01*
X044251Y030315D02*
X039776Y030315D01*
X039776Y030413D02*
X044251Y030413D01*
X044289Y030512D02*
X039776Y030512D01*
X039776Y030610D02*
X044355Y030610D01*
X044496Y030709D02*
X044026Y030709D01*
X043980Y030690D02*
X044127Y030751D01*
X044240Y030863D01*
X044301Y031010D01*
X044301Y031170D01*
X044240Y031317D01*
X044127Y031429D01*
X043980Y031490D01*
X043821Y031490D01*
X043674Y031429D01*
X043562Y031317D01*
X043501Y031170D01*
X043501Y031010D01*
X043562Y030863D01*
X043674Y030751D01*
X043821Y030690D01*
X043980Y030690D01*
X043776Y030709D02*
X039776Y030709D01*
X039776Y030807D02*
X043618Y030807D01*
X043544Y030906D02*
X039776Y030906D01*
X039776Y031004D02*
X043503Y031004D01*
X043501Y031103D02*
X039776Y031103D01*
X039776Y031201D02*
X043514Y031201D01*
X043555Y031300D02*
X042577Y031300D01*
X042510Y031272D02*
X042674Y031340D01*
X042801Y031466D01*
X042869Y031631D01*
X042869Y031809D01*
X042801Y031974D01*
X042674Y032100D01*
X042510Y032168D01*
X042331Y032168D01*
X042167Y032100D01*
X042041Y031974D01*
X041973Y031809D01*
X041973Y031631D01*
X042041Y031466D01*
X042167Y031340D01*
X042331Y031272D01*
X042510Y031272D01*
X042264Y031300D02*
X039776Y031300D01*
X040628Y031694D02*
X037741Y031694D01*
X037748Y031685D02*
X037720Y031724D01*
X037720Y031733D01*
X037699Y031754D01*
X037683Y031778D01*
X037674Y031779D01*
X037640Y031813D01*
X037638Y031822D01*
X037614Y031839D01*
X037594Y031860D01*
X037585Y031860D01*
X037545Y031887D01*
X037542Y031895D01*
X037516Y031908D01*
X037492Y031925D01*
X037483Y031923D01*
X037440Y031943D01*
X037435Y031951D01*
X037407Y031959D01*
X037380Y031971D01*
X037372Y031968D01*
X037326Y031980D01*
X037320Y031987D01*
X037291Y031990D01*
X037262Y031997D01*
X037254Y031993D01*
X037207Y031997D01*
X037200Y032003D01*
X037171Y032000D01*
X037141Y032003D01*
X037135Y031997D01*
X037087Y031993D01*
X037079Y031997D01*
X037051Y031990D01*
X037021Y031987D01*
X037016Y031980D01*
X036970Y031968D01*
X036961Y031971D01*
X036935Y031959D01*
X036906Y031951D01*
X036902Y031943D01*
X036858Y031923D01*
X036850Y031925D01*
X036825Y031908D01*
X036799Y031895D01*
X036796Y031887D01*
X036757Y031860D01*
X036748Y031860D01*
X036727Y031839D01*
X036703Y031822D01*
X036701Y031813D01*
X036667Y031779D01*
X036659Y031778D01*
X036642Y031754D01*
X036621Y031733D01*
X036621Y031724D01*
X036594Y031685D01*
X036585Y031682D01*
X036573Y031655D01*
X036556Y031631D01*
X036557Y031622D01*
X036537Y031579D01*
X036530Y031575D01*
X036522Y031546D01*
X036509Y031519D01*
X036513Y031511D01*
X036500Y031465D01*
X036493Y031459D01*
X036491Y031430D01*
X036483Y031401D01*
X036488Y031394D01*
X036483Y031346D01*
X036478Y031339D01*
X036480Y031310D01*
X036478Y031281D01*
X036483Y031274D01*
X036488Y031226D01*
X036483Y031219D01*
X036491Y031190D01*
X036493Y031161D01*
X036500Y031155D01*
X036513Y031109D01*
X036509Y031101D01*
X036522Y031074D01*
X036530Y031045D01*
X036537Y031041D01*
X036557Y030998D01*
X036556Y030989D01*
X036573Y030965D01*
X036585Y030938D01*
X036594Y030935D01*
X036621Y030896D01*
X036621Y030887D01*
X036642Y030866D01*
X036659Y030842D01*
X036667Y030841D01*
X036701Y030807D01*
X036703Y030798D01*
X036727Y030781D01*
X036748Y030760D01*
X036757Y030760D01*
X036796Y030733D01*
X036799Y030725D01*
X036825Y030712D01*
X036850Y030695D01*
X036858Y030697D01*
X036902Y030677D01*
X036906Y030669D01*
X036935Y030661D01*
X036961Y030649D01*
X036970Y030652D01*
X037016Y030640D01*
X037021Y030633D01*
X037051Y030630D01*
X037079Y030623D01*
X037087Y030627D01*
X037135Y030623D01*
X037141Y030617D01*
X037171Y030620D01*
X037200Y030617D01*
X037207Y030623D01*
X037254Y030627D01*
X037262Y030623D01*
X037291Y030630D01*
X037320Y030633D01*
X037326Y030640D01*
X037372Y030652D01*
X037380Y030649D01*
X037407Y030661D01*
X037435Y030669D01*
X037440Y030677D01*
X037483Y030697D01*
X037492Y030695D01*
X037516Y030712D01*
X037542Y030725D01*
X037545Y030733D01*
X037585Y030760D01*
X037594Y030760D01*
X037614Y030781D01*
X037638Y030798D01*
X037640Y030807D01*
X037674Y030841D01*
X037683Y030842D01*
X037699Y030866D01*
X037720Y030887D01*
X037720Y030896D01*
X037748Y030935D01*
X037756Y030938D01*
X037768Y030965D01*
X037785Y030989D01*
X037784Y030998D01*
X037804Y031041D01*
X037812Y031045D01*
X037819Y031074D01*
X037832Y031101D01*
X037829Y031109D01*
X037841Y031155D01*
X037848Y031161D01*
X037850Y031190D01*
X037858Y031219D01*
X037854Y031226D01*
X037858Y031274D01*
X037864Y031281D01*
X037861Y031310D01*
X037864Y031339D01*
X037858Y031346D01*
X037854Y031394D01*
X037858Y031401D01*
X037850Y031430D01*
X037848Y031459D01*
X037841Y031465D01*
X037829Y031511D01*
X037832Y031519D01*
X037819Y031546D01*
X037812Y031575D01*
X037804Y031579D01*
X037784Y031622D01*
X037785Y031631D01*
X037768Y031655D01*
X037756Y031682D01*
X037748Y031685D01*
X037796Y031595D02*
X040680Y031595D01*
X040662Y031613D02*
X040774Y031501D01*
X040921Y031440D01*
X041080Y031440D01*
X041227Y031501D01*
X041340Y031613D01*
X041401Y031760D01*
X041401Y031920D01*
X041340Y032067D01*
X041227Y032179D01*
X041080Y032240D01*
X040921Y032240D01*
X040774Y032179D01*
X040662Y032067D01*
X040601Y031920D01*
X040601Y031760D01*
X040662Y031613D01*
X040784Y031497D02*
X037833Y031497D01*
X037856Y031398D02*
X042109Y031398D01*
X042028Y031497D02*
X041217Y031497D01*
X041322Y031595D02*
X041987Y031595D01*
X041973Y031694D02*
X041373Y031694D01*
X041401Y031792D02*
X041973Y031792D01*
X042006Y031891D02*
X041401Y031891D01*
X041372Y031989D02*
X042056Y031989D01*
X042155Y032088D02*
X041319Y032088D01*
X041210Y032186D02*
X046758Y032186D01*
X046751Y032088D02*
X042687Y032088D01*
X042785Y031989D02*
X046759Y031989D01*
X046800Y031891D02*
X042835Y031891D01*
X042869Y031792D02*
X046883Y031792D01*
X046890Y031595D02*
X042854Y031595D01*
X042869Y031694D02*
X047062Y031694D01*
X047071Y031690D02*
X047230Y031690D01*
X047377Y031629D01*
X047401Y031606D01*
X047401Y031720D01*
X047439Y031813D01*
X047377Y031751D01*
X047230Y031690D01*
X047071Y031690D01*
X047239Y031694D02*
X047401Y031694D01*
X047419Y031792D02*
X047431Y031792D01*
X047542Y031989D02*
X047599Y031989D01*
X047551Y032088D02*
X047756Y032088D01*
X047724Y032101D02*
X047871Y032040D01*
X048030Y032040D01*
X048177Y032101D01*
X048290Y032213D01*
X048351Y032360D01*
X048351Y032520D01*
X048301Y032640D01*
X048421Y032590D01*
X048580Y032590D01*
X048727Y032651D01*
X048840Y032763D01*
X048901Y032910D01*
X048901Y033070D01*
X048840Y033217D01*
X048727Y033329D01*
X048580Y033390D01*
X048466Y033390D01*
X048377Y033479D01*
X048230Y033540D01*
X048071Y033540D01*
X047924Y033479D01*
X047812Y033367D01*
X047751Y033220D01*
X047751Y033060D01*
X047812Y032913D01*
X047885Y032840D01*
X047871Y032840D01*
X047724Y032779D01*
X047612Y032667D01*
X047551Y032520D01*
X047551Y032360D01*
X047612Y032213D01*
X047724Y032101D01*
X047639Y032186D02*
X047544Y032186D01*
X047582Y032285D02*
X047503Y032285D01*
X047551Y032383D02*
X047423Y032383D01*
X047551Y032482D02*
X047250Y032482D01*
X047051Y032482D02*
X045208Y032482D01*
X045177Y032451D02*
X045290Y032563D01*
X045351Y032710D01*
X045351Y032870D01*
X045290Y033017D01*
X045177Y033129D01*
X045030Y033190D01*
X044871Y033190D01*
X044724Y033129D01*
X044612Y033017D01*
X044551Y032870D01*
X044551Y032710D01*
X044612Y032563D01*
X044724Y032451D01*
X044871Y032390D01*
X045030Y032390D01*
X045177Y032451D01*
X045297Y032580D02*
X047576Y032580D01*
X047624Y032679D02*
X045338Y032679D01*
X045351Y032777D02*
X046381Y032777D01*
X046324Y032801D02*
X046471Y032740D01*
X046630Y032740D01*
X046777Y032801D01*
X046890Y032913D01*
X046951Y033060D01*
X046951Y033220D01*
X046890Y033367D01*
X046777Y033479D01*
X046630Y033540D01*
X046471Y033540D01*
X046324Y033479D01*
X046212Y033367D01*
X046151Y033220D01*
X046151Y033060D01*
X046212Y032913D01*
X046324Y032801D01*
X046249Y032876D02*
X045348Y032876D01*
X045307Y032974D02*
X046186Y032974D01*
X046151Y033073D02*
X045234Y033073D01*
X045075Y033171D02*
X046151Y033171D01*
X046171Y033270D02*
X045896Y033270D01*
X045877Y033251D02*
X045990Y033363D01*
X046051Y033510D01*
X046051Y033670D01*
X045990Y033815D01*
X046077Y033851D01*
X046190Y033963D01*
X046251Y034110D01*
X046251Y034190D01*
X046330Y034190D01*
X046477Y034251D01*
X046590Y034363D01*
X046651Y034510D01*
X046651Y034670D01*
X046590Y034817D01*
X046477Y034929D01*
X046330Y034990D01*
X046171Y034990D01*
X046024Y034929D01*
X045912Y034817D01*
X045851Y034670D01*
X045851Y034590D01*
X045771Y034590D01*
X045624Y034529D01*
X045512Y034417D01*
X045451Y034270D01*
X045451Y034110D01*
X045511Y033965D01*
X045424Y033929D01*
X045312Y033817D01*
X045251Y033670D01*
X045251Y033510D01*
X045312Y033363D01*
X045424Y033251D01*
X045571Y033190D01*
X045730Y033190D01*
X045877Y033251D01*
X045992Y033368D02*
X046213Y033368D01*
X046312Y033467D02*
X046033Y033467D01*
X046051Y033565D02*
X059828Y033565D01*
X059801Y033499D02*
X059801Y033281D01*
X059884Y033078D01*
X060039Y032924D01*
X060241Y032840D01*
X060460Y032840D01*
X060662Y032924D01*
X060817Y033078D01*
X060851Y033160D01*
X060884Y033078D01*
X061039Y032924D01*
X061241Y032840D01*
X061460Y032840D01*
X061662Y032924D01*
X061817Y033078D01*
X061851Y033160D01*
X061884Y033078D01*
X062039Y032924D01*
X062241Y032840D01*
X062460Y032840D01*
X062662Y032924D01*
X062817Y033078D01*
X062901Y033281D01*
X062901Y033499D01*
X062817Y033702D01*
X062662Y033856D01*
X062581Y033890D01*
X062662Y033924D01*
X062817Y034078D01*
X062901Y034281D01*
X062901Y034499D01*
X062817Y034702D01*
X062662Y034856D01*
X062581Y034890D01*
X062662Y034924D01*
X062817Y035078D01*
X062901Y035281D01*
X062901Y035499D01*
X062817Y035702D01*
X062662Y035856D01*
X062581Y035890D01*
X062662Y035924D01*
X062817Y036078D01*
X062901Y036281D01*
X062901Y036499D01*
X062817Y036702D01*
X062662Y036856D01*
X062581Y036890D01*
X062662Y036924D01*
X062817Y037078D01*
X062901Y037281D01*
X062901Y037499D01*
X062817Y037702D01*
X062662Y037856D01*
X062581Y037890D01*
X062662Y037924D01*
X062817Y038078D01*
X062901Y038281D01*
X062901Y038499D01*
X062817Y038702D01*
X062662Y038856D01*
X062581Y038890D01*
X062662Y038924D01*
X062817Y039078D01*
X062901Y039281D01*
X062901Y039499D01*
X062817Y039702D01*
X062662Y039856D01*
X062581Y039890D01*
X062662Y039924D01*
X062817Y040078D01*
X062901Y040281D01*
X062901Y040499D01*
X062817Y040702D01*
X062662Y040856D01*
X062460Y040940D01*
X062241Y040940D01*
X062039Y040856D01*
X061884Y040702D01*
X061851Y040620D01*
X061817Y040702D01*
X061662Y040856D01*
X061460Y040940D01*
X061241Y040940D01*
X061039Y040856D01*
X060884Y040702D01*
X060851Y040620D01*
X060817Y040702D01*
X060662Y040856D01*
X060460Y040940D01*
X060241Y040940D01*
X060039Y040856D01*
X059884Y040702D01*
X059801Y040499D01*
X059801Y040281D01*
X059884Y040078D01*
X060039Y039924D01*
X060121Y039890D01*
X060039Y039856D01*
X059884Y039702D01*
X059801Y039499D01*
X059801Y039281D01*
X059884Y039078D01*
X060039Y038924D01*
X060121Y038890D01*
X060039Y038856D01*
X059884Y038702D01*
X059801Y038499D01*
X059801Y038281D01*
X059884Y038078D01*
X060039Y037924D01*
X060121Y037890D01*
X060039Y037856D01*
X059884Y037702D01*
X059801Y037499D01*
X059801Y037281D01*
X059884Y037078D01*
X060039Y036924D01*
X060121Y036890D01*
X060039Y036856D01*
X059884Y036702D01*
X059801Y036499D01*
X059801Y036281D01*
X059884Y036078D01*
X060039Y035924D01*
X060121Y035890D01*
X060039Y035856D01*
X059884Y035702D01*
X059801Y035499D01*
X059801Y035281D01*
X059884Y035078D01*
X060039Y034924D01*
X060121Y034890D01*
X060039Y034856D01*
X059884Y034702D01*
X059801Y034499D01*
X059801Y034281D01*
X059884Y034078D01*
X060039Y033924D01*
X060121Y033890D01*
X060039Y033856D01*
X059884Y033702D01*
X059801Y033499D01*
X059801Y033467D02*
X048390Y033467D01*
X048633Y033368D02*
X059801Y033368D01*
X059805Y033270D02*
X048787Y033270D01*
X048859Y033171D02*
X051766Y033171D01*
X051668Y033073D02*
X048899Y033073D01*
X048901Y032974D02*
X051623Y032974D01*
X051601Y032876D02*
X048886Y032876D01*
X048845Y032777D02*
X051601Y032777D01*
X051634Y032679D02*
X048755Y032679D01*
X048325Y032580D02*
X051695Y032580D01*
X051727Y032482D02*
X048351Y032482D01*
X048351Y032383D02*
X051648Y032383D01*
X051607Y032285D02*
X048319Y032285D01*
X048263Y032186D02*
X051601Y032186D01*
X051610Y032088D02*
X048146Y032088D01*
X048003Y031989D02*
X051651Y031989D01*
X051734Y031891D02*
X048116Y031891D01*
X048445Y031792D02*
X051916Y031792D01*
X052354Y032383D02*
X066821Y032383D01*
X066821Y032285D02*
X066901Y032090D01*
X067050Y031941D01*
X067173Y031890D01*
X067050Y031839D01*
X066901Y031690D01*
X066821Y031495D01*
X066821Y031497D02*
X059447Y031497D01*
X059622Y031595D02*
X066862Y031595D01*
X066905Y031694D02*
X059702Y031694D01*
X059743Y031792D02*
X067003Y031792D01*
X067171Y031891D02*
X059751Y031891D01*
X059742Y031989D02*
X067002Y031989D01*
X066903Y032088D02*
X059702Y032088D01*
X059620Y032186D02*
X066861Y032186D01*
X066821Y032482D02*
X052275Y032482D01*
X052307Y032580D02*
X066856Y032580D01*
X066897Y032679D02*
X052367Y032679D01*
X052401Y032777D02*
X066988Y032777D01*
X067138Y032876D02*
X062546Y032876D01*
X062713Y032974D02*
X067017Y032974D01*
X066918Y033073D02*
X062811Y033073D01*
X062855Y033171D02*
X066868Y033171D01*
X066827Y033270D02*
X062896Y033270D01*
X062901Y033368D02*
X066821Y033368D01*
X066821Y033467D02*
X062901Y033467D01*
X062873Y033565D02*
X066850Y033565D01*
X066890Y033664D02*
X062833Y033664D01*
X062756Y033762D02*
X066973Y033762D01*
X067102Y033861D02*
X062651Y033861D01*
X062698Y033959D02*
X067032Y033959D01*
X066933Y034058D02*
X062796Y034058D01*
X062849Y034156D02*
X066874Y034156D01*
X066833Y034255D02*
X062890Y034255D01*
X062901Y034353D02*
X066821Y034353D01*
X066821Y034452D02*
X062901Y034452D01*
X062880Y034550D02*
X066843Y034550D01*
X066884Y034649D02*
X062839Y034649D01*
X062771Y034747D02*
X066958Y034747D01*
X067066Y034846D02*
X062673Y034846D01*
X062683Y034944D02*
X067047Y034944D01*
X066948Y035043D02*
X062781Y035043D01*
X062843Y035141D02*
X066880Y035141D01*
X066839Y035240D02*
X062884Y035240D01*
X062901Y035338D02*
X066821Y035338D01*
X066821Y035437D02*
X062901Y035437D01*
X062886Y035535D02*
X066837Y035535D01*
X066878Y035634D02*
X062845Y035634D01*
X062786Y035732D02*
X066943Y035732D01*
X067042Y035831D02*
X062688Y035831D01*
X062668Y035929D02*
X067078Y035929D01*
X066963Y036028D02*
X062766Y036028D01*
X062837Y036126D02*
X066886Y036126D01*
X066845Y036225D02*
X062878Y036225D01*
X062901Y036323D02*
X066821Y036323D01*
X066821Y036422D02*
X062901Y036422D01*
X062892Y036520D02*
X066831Y036520D01*
X066872Y036619D02*
X062851Y036619D01*
X062801Y036717D02*
X066928Y036717D01*
X067027Y036816D02*
X062703Y036816D01*
X062639Y036914D02*
X067114Y036914D01*
X066978Y037013D02*
X062751Y037013D01*
X062830Y037111D02*
X066892Y037111D01*
X066852Y037210D02*
X062871Y037210D01*
X062901Y037308D02*
X066821Y037308D01*
X066821Y037407D02*
X062901Y037407D01*
X062898Y037505D02*
X066825Y037505D01*
X066866Y037604D02*
X062857Y037604D01*
X062816Y037702D02*
X066913Y037702D01*
X067012Y037801D02*
X062718Y037801D01*
X062603Y037899D02*
X067150Y037899D01*
X066993Y037998D02*
X062736Y037998D01*
X062824Y038096D02*
X066899Y038096D01*
X066858Y038195D02*
X062865Y038195D01*
X062901Y038293D02*
X066821Y038293D01*
X066821Y038392D02*
X062901Y038392D01*
X062901Y038490D02*
X066821Y038490D01*
X066859Y038589D02*
X062864Y038589D01*
X062823Y038687D02*
X066900Y038687D01*
X066997Y038786D02*
X062733Y038786D01*
X062595Y038884D02*
X067159Y038884D01*
X067008Y038983D02*
X062721Y038983D01*
X062818Y039081D02*
X066910Y039081D01*
X066864Y039180D02*
X062859Y039180D01*
X062900Y039278D02*
X066823Y039278D01*
X066821Y039377D02*
X062901Y039377D01*
X062901Y039475D02*
X066821Y039475D01*
X066853Y039574D02*
X062870Y039574D01*
X062829Y039672D02*
X066894Y039672D01*
X066982Y039771D02*
X062748Y039771D01*
X062631Y039869D02*
X067123Y039869D01*
X067023Y039968D02*
X062706Y039968D01*
X062805Y040066D02*
X066925Y040066D01*
X066870Y040165D02*
X062853Y040165D01*
X062893Y040263D02*
X066829Y040263D01*
X066821Y040362D02*
X062901Y040362D01*
X062901Y040460D02*
X066821Y040460D01*
X066847Y040559D02*
X062876Y040559D01*
X062835Y040657D02*
X066888Y040657D01*
X066967Y040756D02*
X062763Y040756D01*
X062664Y040854D02*
X067087Y040854D01*
X067038Y040953D02*
X045748Y040953D01*
X045717Y040878D02*
X045801Y041081D01*
X045801Y041299D01*
X045717Y041502D01*
X045562Y041656D01*
X045360Y041740D01*
X045141Y041740D01*
X044939Y041656D01*
X044784Y041502D01*
X044751Y041420D01*
X044717Y041502D01*
X044562Y041656D01*
X044481Y041690D01*
X044562Y041724D01*
X044717Y041878D01*
X044801Y042081D01*
X044801Y042299D01*
X044717Y042502D01*
X044562Y042656D01*
X044360Y042740D01*
X044141Y042740D01*
X043939Y042656D01*
X043784Y042502D01*
X043751Y042420D01*
X043717Y042502D01*
X043562Y042656D01*
X043360Y042740D01*
X043141Y042740D01*
X042939Y042656D01*
X042784Y042502D01*
X042701Y042299D01*
X042701Y042081D01*
X042784Y041878D01*
X042939Y041724D01*
X043021Y041690D01*
X042939Y041656D01*
X042784Y041502D01*
X042701Y041299D01*
X042701Y041081D01*
X042784Y040878D01*
X042939Y040724D01*
X043141Y040640D01*
X043360Y040640D01*
X043562Y040724D01*
X043717Y040878D01*
X043751Y040960D01*
X043784Y040878D01*
X043939Y040724D01*
X044141Y040640D01*
X044360Y040640D01*
X044562Y040724D01*
X044717Y040878D01*
X044751Y040960D01*
X044784Y040878D01*
X044939Y040724D01*
X045141Y040640D01*
X045360Y040640D01*
X045562Y040724D01*
X045717Y040878D01*
X045693Y040854D02*
X060037Y040854D01*
X059939Y040756D02*
X045594Y040756D01*
X045402Y040657D02*
X059866Y040657D01*
X059825Y040559D02*
X038951Y040559D01*
X038951Y040570D02*
X038901Y040690D01*
X039030Y040690D01*
X039177Y040751D01*
X039290Y040863D01*
X039351Y041010D01*
X039351Y041170D01*
X039290Y041317D01*
X039177Y041429D01*
X039030Y041490D01*
X038871Y041490D01*
X038778Y041451D01*
X038890Y041563D01*
X038951Y041710D01*
X038951Y041870D01*
X038890Y042017D01*
X038777Y042129D01*
X038630Y042190D01*
X038542Y042190D01*
X038551Y042210D01*
X038551Y042370D01*
X038490Y042517D01*
X038377Y042629D01*
X038230Y042690D01*
X038071Y042690D01*
X037924Y042629D01*
X037812Y042517D01*
X037751Y042370D01*
X037751Y042210D01*
X037812Y042063D01*
X037924Y041951D01*
X038071Y041890D01*
X038159Y041890D01*
X038151Y041870D01*
X038151Y041710D01*
X038212Y041563D01*
X038324Y041451D01*
X038471Y041390D01*
X038630Y041390D01*
X038724Y041429D01*
X038612Y041317D01*
X038551Y041170D01*
X038551Y041010D01*
X038601Y040890D01*
X038471Y040890D01*
X038324Y040829D01*
X038212Y040717D01*
X038151Y040570D01*
X038151Y040410D01*
X038212Y040263D01*
X032923Y040263D01*
X032950Y040290D02*
X033031Y040485D01*
X033031Y040695D01*
X032950Y040890D01*
X032801Y041039D01*
X032606Y041120D01*
X032395Y041120D01*
X032200Y041039D01*
X032051Y040890D01*
X032001Y040768D01*
X031950Y040890D01*
X031801Y041039D01*
X031678Y041090D01*
X031801Y041141D01*
X031950Y041290D01*
X032031Y041485D01*
X032031Y041695D01*
X031950Y041890D01*
X031801Y042039D01*
X031678Y042090D01*
X031801Y042141D01*
X031950Y042290D01*
X032031Y042485D01*
X032031Y042695D01*
X031950Y042890D01*
X031801Y043039D01*
X031606Y043120D01*
X031395Y043120D01*
X031200Y043039D01*
X031051Y042890D01*
X030971Y042695D01*
X030971Y042485D01*
X031051Y042290D01*
X031200Y042141D01*
X031323Y042090D01*
X031200Y042039D01*
X031051Y041890D01*
X030971Y041695D01*
X030971Y041485D01*
X031051Y041290D01*
X031200Y041141D01*
X031323Y041090D01*
X031200Y041039D01*
X031051Y040890D01*
X030971Y040695D01*
X030971Y040485D01*
X031051Y040290D01*
X031200Y040141D01*
X031323Y040090D01*
X031200Y040039D01*
X031051Y039890D01*
X030971Y039695D01*
X030971Y039485D01*
X031051Y039290D01*
X031200Y039141D01*
X031395Y039060D01*
X031606Y039060D01*
X031801Y039141D01*
X031950Y039290D01*
X032001Y039412D01*
X032051Y039290D01*
X032200Y039141D01*
X032395Y039060D01*
X032606Y039060D01*
X032801Y039141D01*
X032950Y039290D01*
X033031Y039485D01*
X033031Y039695D01*
X032950Y039890D01*
X032801Y040039D01*
X032678Y040090D01*
X032801Y040141D01*
X032950Y040290D01*
X032980Y040362D02*
X038171Y040362D01*
X038151Y040460D02*
X033021Y040460D01*
X033031Y040559D02*
X038151Y040559D01*
X038187Y040657D02*
X033031Y040657D01*
X033006Y040756D02*
X038251Y040756D01*
X038385Y040854D02*
X032965Y040854D01*
X032887Y040953D02*
X038575Y040953D01*
X038551Y041051D02*
X032772Y041051D01*
X032229Y041051D02*
X031772Y041051D01*
X031810Y041150D02*
X038551Y041150D01*
X038583Y041248D02*
X031908Y041248D01*
X031974Y041347D02*
X038642Y041347D01*
X038870Y041544D02*
X042827Y041544D01*
X042761Y041445D02*
X039138Y041445D01*
X039260Y041347D02*
X042720Y041347D01*
X042701Y041248D02*
X039318Y041248D01*
X039351Y041150D02*
X042701Y041150D01*
X042713Y041051D02*
X039351Y041051D01*
X039327Y040953D02*
X042754Y040953D01*
X042809Y040854D02*
X039281Y040854D01*
X039182Y040756D02*
X042907Y040756D01*
X043099Y040657D02*
X038914Y040657D01*
X038951Y040570D02*
X038951Y040410D01*
X038890Y040263D01*
X059808Y040263D01*
X059801Y040362D02*
X038930Y040362D01*
X038951Y040460D02*
X059801Y040460D01*
X059849Y040165D02*
X047091Y040165D01*
X047030Y040190D02*
X046871Y040190D01*
X046724Y040129D01*
X046612Y040017D01*
X046551Y039870D01*
X046551Y039710D01*
X046612Y039563D01*
X046724Y039451D01*
X046871Y039390D01*
X047030Y039390D01*
X047177Y039451D01*
X047290Y039563D01*
X047351Y039710D01*
X047351Y039870D01*
X047290Y040017D01*
X047177Y040129D01*
X047030Y040190D01*
X046810Y040165D02*
X038791Y040165D01*
X038777Y040151D02*
X038890Y040263D01*
X038777Y040151D02*
X038630Y040090D01*
X038471Y040090D01*
X038378Y040129D01*
X038490Y040017D01*
X038551Y039870D01*
X038551Y039710D01*
X038490Y039563D01*
X038377Y039451D01*
X038230Y039390D01*
X038071Y039390D01*
X037924Y039451D01*
X037812Y039563D01*
X037751Y039710D01*
X037751Y039870D01*
X037812Y040017D01*
X037924Y040129D01*
X038071Y040190D01*
X038230Y040190D01*
X038324Y040151D01*
X038212Y040263D01*
X038291Y040165D02*
X038310Y040165D01*
X038440Y040066D02*
X046661Y040066D01*
X046591Y039968D02*
X038510Y039968D01*
X038551Y039869D02*
X046551Y039869D01*
X046551Y039771D02*
X038551Y039771D01*
X038535Y039672D02*
X046566Y039672D01*
X046607Y039574D02*
X038494Y039574D01*
X038402Y039475D02*
X046700Y039475D01*
X047202Y039475D02*
X059801Y039475D01*
X059801Y039377D02*
X037503Y039377D01*
X037477Y039351D02*
X037590Y039463D01*
X037651Y039610D01*
X037651Y039770D01*
X037590Y039917D01*
X037477Y040029D01*
X037330Y040090D01*
X037171Y040090D01*
X037024Y040029D01*
X036912Y039917D01*
X036851Y039770D01*
X036851Y039610D01*
X036912Y039463D01*
X037024Y039351D01*
X037171Y039290D01*
X037330Y039290D01*
X037477Y039351D01*
X037595Y039475D02*
X037900Y039475D01*
X037807Y039574D02*
X037635Y039574D01*
X037651Y039672D02*
X037766Y039672D01*
X037751Y039771D02*
X037650Y039771D01*
X037609Y039869D02*
X037751Y039869D01*
X037791Y039968D02*
X037539Y039968D01*
X037387Y040066D02*
X037861Y040066D01*
X038010Y040165D02*
X032825Y040165D01*
X032736Y040066D02*
X037114Y040066D01*
X036963Y039968D02*
X032872Y039968D01*
X032959Y039869D02*
X036892Y039869D01*
X036851Y039771D02*
X032999Y039771D01*
X033031Y039672D02*
X036851Y039672D01*
X036866Y039574D02*
X033031Y039574D01*
X033027Y039475D02*
X036907Y039475D01*
X036998Y039377D02*
X032986Y039377D01*
X032938Y039278D02*
X059802Y039278D01*
X059842Y039180D02*
X032840Y039180D01*
X032657Y039081D02*
X059883Y039081D01*
X059980Y038983D02*
X024545Y038983D01*
X024551Y038970D02*
X024490Y039117D01*
X024377Y039229D01*
X024230Y039290D01*
X024071Y039290D01*
X023924Y039229D01*
X023812Y039117D01*
X023751Y038970D01*
X023751Y038810D01*
X023812Y038663D01*
X023924Y038551D01*
X024071Y038490D01*
X024230Y038490D01*
X024377Y038551D01*
X024490Y038663D01*
X024551Y038810D01*
X024551Y038970D01*
X024551Y038884D02*
X060107Y038884D01*
X059969Y038786D02*
X044840Y038786D01*
X044830Y038790D02*
X044671Y038790D01*
X044524Y038729D01*
X044412Y038617D01*
X044351Y038470D01*
X044351Y038310D01*
X044412Y038163D01*
X044524Y038051D01*
X044671Y037990D01*
X044830Y037990D01*
X044977Y038051D01*
X045090Y038163D01*
X045151Y038310D01*
X045151Y038470D01*
X045090Y038617D01*
X044977Y038729D01*
X044830Y038790D01*
X044661Y038786D02*
X024540Y038786D01*
X024500Y038687D02*
X044482Y038687D01*
X044400Y038589D02*
X024415Y038589D01*
X024231Y038490D02*
X044359Y038490D01*
X044351Y038392D02*
X013901Y038392D01*
X013901Y038490D02*
X024070Y038490D01*
X023886Y038589D02*
X013901Y038589D01*
X013901Y038687D02*
X023802Y038687D01*
X023761Y038786D02*
X013901Y038786D01*
X013901Y038884D02*
X023751Y038884D01*
X023756Y038983D02*
X013901Y038983D01*
X013901Y039081D02*
X023797Y039081D01*
X023875Y039180D02*
X019176Y039180D01*
X019227Y039201D02*
X019340Y039313D01*
X019390Y039435D01*
X019424Y039401D01*
X019571Y039340D01*
X019730Y039340D01*
X019877Y039401D01*
X019990Y039513D01*
X020051Y039660D01*
X020051Y039820D01*
X019990Y039967D01*
X019877Y040079D01*
X019730Y040140D01*
X019571Y040140D01*
X019424Y040079D01*
X019312Y039967D01*
X019261Y039845D01*
X019227Y039879D01*
X019080Y039940D01*
X018921Y039940D01*
X018774Y039879D01*
X018662Y039767D01*
X018601Y039620D01*
X018601Y039460D01*
X018662Y039313D01*
X018774Y039201D01*
X018921Y039140D01*
X019080Y039140D01*
X019227Y039201D01*
X019305Y039278D02*
X024043Y039278D01*
X024258Y039278D02*
X031063Y039278D01*
X031015Y039377D02*
X020669Y039377D01*
X020727Y039401D02*
X020840Y039513D01*
X020901Y039660D01*
X020901Y039820D01*
X020840Y039967D01*
X020727Y040079D01*
X020580Y040140D01*
X020421Y040140D01*
X020274Y040079D01*
X020162Y039967D01*
X020101Y039820D01*
X020101Y039660D01*
X020162Y039513D01*
X020274Y039401D01*
X020421Y039340D01*
X020580Y039340D01*
X020727Y039401D01*
X020802Y039475D02*
X030974Y039475D01*
X030971Y039574D02*
X020865Y039574D01*
X020901Y039672D02*
X030971Y039672D01*
X031002Y039771D02*
X020901Y039771D01*
X020880Y039869D02*
X031043Y039869D01*
X031129Y039968D02*
X020839Y039968D01*
X020740Y040066D02*
X031266Y040066D01*
X031176Y040165D02*
X013901Y040165D01*
X013901Y040263D02*
X031078Y040263D01*
X031021Y040362D02*
X013901Y040362D01*
X013901Y040460D02*
X030981Y040460D01*
X030971Y040559D02*
X013901Y040559D01*
X013901Y040657D02*
X030971Y040657D01*
X030996Y040756D02*
X013901Y040756D01*
X013901Y040854D02*
X031036Y040854D01*
X031114Y040953D02*
X013901Y040953D01*
X013901Y041051D02*
X031229Y041051D01*
X031191Y041150D02*
X013901Y041150D01*
X013901Y041248D02*
X031093Y041248D01*
X031028Y041347D02*
X013901Y041347D01*
X013901Y041445D02*
X030987Y041445D01*
X030971Y041544D02*
X013901Y041544D01*
X013901Y041642D02*
X030971Y041642D01*
X030989Y041741D02*
X013901Y041741D01*
X013901Y041839D02*
X031030Y041839D01*
X031099Y041938D02*
X013901Y041938D01*
X013901Y042036D02*
X031197Y042036D01*
X031215Y042135D02*
X013901Y042135D01*
X013901Y042233D02*
X031108Y042233D01*
X031034Y042332D02*
X013901Y042332D01*
X013901Y042430D02*
X030993Y042430D01*
X030971Y042529D02*
X013901Y042529D01*
X013901Y042627D02*
X030971Y042627D01*
X030983Y042726D02*
X013901Y042726D01*
X013901Y042824D02*
X031024Y042824D01*
X031084Y042923D02*
X013901Y042923D01*
X013901Y043021D02*
X031182Y043021D01*
X031395Y043120D02*
X013901Y043120D01*
X013901Y043218D02*
X047013Y043218D01*
X047012Y043217D02*
X046951Y043070D01*
X046951Y042910D01*
X047012Y042763D01*
X047124Y042651D01*
X047271Y042590D01*
X047430Y042590D01*
X047577Y042651D01*
X047690Y042763D01*
X047751Y042910D01*
X047751Y043070D01*
X047690Y043217D01*
X047577Y043329D01*
X047430Y043390D01*
X047271Y043390D01*
X047124Y043329D01*
X047012Y043217D01*
X046971Y043120D02*
X031607Y043120D01*
X031819Y043021D02*
X046951Y043021D01*
X046951Y042923D02*
X031917Y042923D01*
X031977Y042824D02*
X046986Y042824D01*
X047049Y042726D02*
X044394Y042726D01*
X044591Y042627D02*
X047181Y042627D01*
X047520Y042627D02*
X071001Y042627D01*
X071001Y042529D02*
X044690Y042529D01*
X044746Y042430D02*
X071001Y042430D01*
X071001Y042332D02*
X044787Y042332D01*
X044801Y042233D02*
X050425Y042233D01*
X050441Y042240D02*
X050239Y042156D01*
X050084Y042002D01*
X050001Y041799D01*
X050001Y041581D01*
X050084Y041378D01*
X050239Y041224D01*
X050441Y041140D01*
X050660Y041140D01*
X050862Y041224D01*
X051017Y041378D01*
X051051Y041460D01*
X051084Y041378D01*
X051239Y041224D01*
X051441Y041140D01*
X051660Y041140D01*
X051862Y041224D01*
X052017Y041378D01*
X052051Y041460D01*
X052084Y041378D01*
X052239Y041224D01*
X052441Y041140D01*
X052660Y041140D01*
X052862Y041224D01*
X053017Y041378D01*
X053051Y041460D01*
X053084Y041378D01*
X053239Y041224D01*
X053441Y041140D01*
X053660Y041140D01*
X053862Y041224D01*
X054017Y041378D01*
X054101Y041581D01*
X054101Y041799D01*
X054017Y042002D01*
X053862Y042156D01*
X053660Y042240D01*
X053441Y042240D01*
X053239Y042156D01*
X053084Y042002D01*
X053051Y041920D01*
X053017Y042002D01*
X052862Y042156D01*
X052660Y042240D01*
X052441Y042240D01*
X052239Y042156D01*
X052084Y042002D01*
X052051Y041920D01*
X052017Y042002D01*
X051862Y042156D01*
X051660Y042240D01*
X051441Y042240D01*
X051239Y042156D01*
X051084Y042002D01*
X051051Y041920D01*
X051017Y042002D01*
X050862Y042156D01*
X050660Y042240D01*
X050441Y042240D01*
X050676Y042233D02*
X051425Y042233D01*
X051218Y042135D02*
X050884Y042135D01*
X050982Y042036D02*
X051119Y042036D01*
X051058Y041938D02*
X051043Y041938D01*
X051045Y041445D02*
X051057Y041445D01*
X051116Y041347D02*
X050985Y041347D01*
X050887Y041248D02*
X051215Y041248D01*
X051418Y041150D02*
X050684Y041150D01*
X050418Y041150D02*
X045801Y041150D01*
X045801Y041248D02*
X050215Y041248D01*
X050116Y041347D02*
X045781Y041347D01*
X045740Y041445D02*
X050057Y041445D01*
X050016Y041544D02*
X045675Y041544D01*
X045576Y041642D02*
X050001Y041642D01*
X050001Y041741D02*
X044579Y041741D01*
X044576Y041642D02*
X044925Y041642D01*
X044827Y041544D02*
X044675Y041544D01*
X044740Y041445D02*
X044761Y041445D01*
X044678Y041839D02*
X050017Y041839D01*
X050058Y041938D02*
X044741Y041938D01*
X044782Y042036D02*
X050119Y042036D01*
X050218Y042135D02*
X044801Y042135D01*
X044107Y042726D02*
X043394Y042726D01*
X043591Y042627D02*
X043910Y042627D01*
X043812Y042529D02*
X043690Y042529D01*
X043746Y042430D02*
X043755Y042430D01*
X043107Y042726D02*
X032018Y042726D01*
X032031Y042627D02*
X037922Y042627D01*
X037824Y042529D02*
X032031Y042529D01*
X032008Y042430D02*
X037776Y042430D01*
X037751Y042332D02*
X031967Y042332D01*
X031893Y042233D02*
X037751Y042233D01*
X037782Y042135D02*
X031787Y042135D01*
X031804Y042036D02*
X037839Y042036D01*
X037956Y041938D02*
X031902Y041938D01*
X031971Y041839D02*
X038151Y041839D01*
X038151Y041741D02*
X032012Y041741D01*
X032031Y041642D02*
X038179Y041642D01*
X038231Y041544D02*
X032031Y041544D01*
X032014Y041445D02*
X038338Y041445D01*
X038922Y041642D02*
X042925Y041642D01*
X042922Y041741D02*
X038951Y041741D01*
X038951Y041839D02*
X042824Y041839D01*
X042760Y041938D02*
X038922Y041938D01*
X038870Y042036D02*
X042719Y042036D01*
X042701Y042135D02*
X038763Y042135D01*
X038551Y042233D02*
X042701Y042233D01*
X042714Y042332D02*
X038551Y042332D01*
X038525Y042430D02*
X042755Y042430D01*
X042812Y042529D02*
X038478Y042529D01*
X038379Y042627D02*
X042910Y042627D01*
X043748Y040953D02*
X043754Y040953D01*
X043809Y040854D02*
X043693Y040854D01*
X043594Y040756D02*
X043907Y040756D01*
X044099Y040657D02*
X043402Y040657D01*
X044402Y040657D02*
X045099Y040657D01*
X044907Y040756D02*
X044594Y040756D01*
X044693Y040854D02*
X044809Y040854D01*
X044754Y040953D02*
X044748Y040953D01*
X045788Y041051D02*
X066940Y041051D01*
X066876Y041150D02*
X062575Y041150D01*
X062675Y041248D02*
X066836Y041248D01*
X066821Y041347D02*
X062724Y041347D01*
X062751Y041445D02*
X066821Y041445D01*
X066841Y041544D02*
X062751Y041544D01*
X062721Y041642D02*
X066881Y041642D01*
X066901Y041690D02*
X067050Y041839D01*
X067651Y041839D02*
X067800Y041690D01*
X067881Y041495D01*
X067881Y041285D01*
X067800Y041090D01*
X067651Y040941D01*
X067528Y040890D01*
X067651Y040839D01*
X067800Y040690D01*
X067881Y040495D01*
X067881Y040285D01*
X067800Y040090D01*
X067651Y039941D01*
X067528Y039890D01*
X067651Y039839D01*
X067800Y039690D01*
X067881Y039495D01*
X067881Y039285D01*
X067800Y039090D01*
X067651Y038941D01*
X067528Y038890D01*
X067651Y038839D01*
X067800Y038690D01*
X067881Y038495D01*
X067881Y038285D01*
X067800Y038090D01*
X067651Y037941D01*
X067528Y037890D01*
X067651Y037839D01*
X067800Y037690D01*
X067881Y037495D01*
X067881Y037285D01*
X067800Y037090D01*
X067651Y036941D01*
X067528Y036890D01*
X067651Y036839D01*
X067800Y036690D01*
X067881Y036495D01*
X067881Y036285D01*
X067800Y036090D01*
X067651Y035941D01*
X067528Y035890D01*
X067651Y035839D01*
X067800Y035690D01*
X067881Y035495D01*
X067881Y035285D01*
X067800Y035090D01*
X067651Y034941D01*
X067528Y034890D01*
X067651Y034839D01*
X067800Y034690D01*
X067881Y034495D01*
X067881Y034285D01*
X067800Y034090D01*
X067651Y033941D01*
X067528Y033890D01*
X067651Y033839D01*
X067800Y033690D01*
X067881Y033495D01*
X067881Y033285D01*
X067800Y033090D01*
X067651Y032941D01*
X067528Y032890D01*
X067651Y032839D01*
X067800Y032690D01*
X067881Y032495D01*
X067881Y032285D01*
X067881Y032383D02*
X068821Y032383D01*
X068821Y032482D02*
X067881Y032482D01*
X067845Y032580D02*
X068856Y032580D01*
X068897Y032679D02*
X067805Y032679D01*
X067713Y032777D02*
X068988Y032777D01*
X069138Y032876D02*
X067563Y032876D01*
X067684Y032974D02*
X069017Y032974D01*
X068918Y033073D02*
X067783Y033073D01*
X067834Y033171D02*
X068868Y033171D01*
X068827Y033270D02*
X067874Y033270D01*
X067881Y033368D02*
X068821Y033368D01*
X068821Y033467D02*
X067881Y033467D01*
X067852Y033565D02*
X068850Y033565D01*
X068890Y033664D02*
X067811Y033664D01*
X067728Y033762D02*
X068973Y033762D01*
X069102Y033861D02*
X067599Y033861D01*
X067669Y033959D02*
X069032Y033959D01*
X068933Y034058D02*
X067768Y034058D01*
X067827Y034156D02*
X068874Y034156D01*
X068833Y034255D02*
X067868Y034255D01*
X067881Y034353D02*
X068821Y034353D01*
X068821Y034452D02*
X067881Y034452D01*
X067858Y034550D02*
X068843Y034550D01*
X068884Y034649D02*
X067817Y034649D01*
X067743Y034747D02*
X068958Y034747D01*
X069066Y034846D02*
X067635Y034846D01*
X067654Y034944D02*
X069047Y034944D01*
X068948Y035043D02*
X067753Y035043D01*
X067821Y035141D02*
X068880Y035141D01*
X068839Y035240D02*
X067862Y035240D01*
X067881Y035338D02*
X068821Y035338D01*
X068821Y035437D02*
X067881Y035437D01*
X067864Y035535D02*
X068837Y035535D01*
X068878Y035634D02*
X067823Y035634D01*
X067758Y035732D02*
X068943Y035732D01*
X069042Y035831D02*
X067659Y035831D01*
X067623Y035929D02*
X069078Y035929D01*
X068963Y036028D02*
X067738Y036028D01*
X067815Y036126D02*
X068886Y036126D01*
X068845Y036225D02*
X067856Y036225D01*
X067881Y036323D02*
X068821Y036323D01*
X068821Y036422D02*
X067881Y036422D01*
X067870Y036520D02*
X068831Y036520D01*
X068872Y036619D02*
X067830Y036619D01*
X067773Y036717D02*
X068928Y036717D01*
X069027Y036816D02*
X067674Y036816D01*
X067587Y036914D02*
X069114Y036914D01*
X068978Y037013D02*
X067723Y037013D01*
X067809Y037111D02*
X068892Y037111D01*
X068852Y037210D02*
X067850Y037210D01*
X067881Y037308D02*
X068821Y037308D01*
X068821Y037407D02*
X067881Y037407D01*
X067877Y037505D02*
X068825Y037505D01*
X068866Y037604D02*
X067836Y037604D01*
X067788Y037702D02*
X068913Y037702D01*
X069012Y037801D02*
X067689Y037801D01*
X067551Y037899D02*
X069150Y037899D01*
X068993Y037998D02*
X067708Y037998D01*
X067803Y038096D02*
X068899Y038096D01*
X068858Y038195D02*
X067843Y038195D01*
X067881Y038293D02*
X068821Y038293D01*
X068821Y038392D02*
X067881Y038392D01*
X067881Y038490D02*
X068821Y038490D01*
X068859Y038589D02*
X067842Y038589D01*
X067801Y038687D02*
X068900Y038687D01*
X068997Y038786D02*
X067704Y038786D01*
X067542Y038884D02*
X069159Y038884D01*
X069008Y038983D02*
X067693Y038983D01*
X067791Y039081D02*
X068910Y039081D01*
X068864Y039180D02*
X067837Y039180D01*
X067878Y039278D02*
X068823Y039278D01*
X068821Y039377D02*
X067881Y039377D01*
X067881Y039475D02*
X068821Y039475D01*
X068853Y039574D02*
X067848Y039574D01*
X067807Y039672D02*
X068894Y039672D01*
X068982Y039771D02*
X067719Y039771D01*
X067578Y039869D02*
X069123Y039869D01*
X069023Y039968D02*
X067678Y039968D01*
X067776Y040066D02*
X068925Y040066D01*
X068870Y040165D02*
X067831Y040165D01*
X067872Y040263D02*
X068829Y040263D01*
X068821Y040362D02*
X067881Y040362D01*
X067881Y040460D02*
X068821Y040460D01*
X068847Y040559D02*
X067854Y040559D01*
X067814Y040657D02*
X068888Y040657D01*
X068967Y040756D02*
X067734Y040756D01*
X067615Y040854D02*
X069087Y040854D01*
X069038Y040953D02*
X067663Y040953D01*
X067761Y041051D02*
X068940Y041051D01*
X068876Y041150D02*
X067825Y041150D01*
X067866Y041248D02*
X068836Y041248D01*
X068821Y041347D02*
X067881Y041347D01*
X067881Y041445D02*
X068821Y041445D01*
X068841Y041544D02*
X067861Y041544D01*
X067820Y041642D02*
X068881Y041642D01*
X068952Y041741D02*
X067749Y041741D01*
X069050Y041839D02*
X069245Y041920D01*
X069456Y041920D01*
X069651Y041839D01*
X071001Y041938D02*
X054043Y041938D01*
X054084Y041839D02*
X062149Y041839D01*
X062036Y041741D02*
X054101Y041741D01*
X054101Y041642D02*
X061981Y041642D01*
X061951Y041544D02*
X054085Y041544D01*
X054045Y041445D02*
X061951Y041445D01*
X061977Y041347D02*
X053985Y041347D01*
X053887Y041248D02*
X062027Y041248D01*
X062127Y041150D02*
X053684Y041150D01*
X053418Y041150D02*
X052684Y041150D01*
X052887Y041248D02*
X053215Y041248D01*
X053116Y041347D02*
X052985Y041347D01*
X053045Y041445D02*
X053057Y041445D01*
X053043Y041938D02*
X053058Y041938D01*
X053119Y042036D02*
X052982Y042036D01*
X052884Y042135D02*
X053218Y042135D01*
X053425Y042233D02*
X052676Y042233D01*
X052425Y042233D02*
X051676Y042233D01*
X051884Y042135D02*
X052218Y042135D01*
X052119Y042036D02*
X051982Y042036D01*
X052043Y041938D02*
X052058Y041938D01*
X052045Y041445D02*
X052057Y041445D01*
X052116Y041347D02*
X051985Y041347D01*
X051887Y041248D02*
X052215Y041248D01*
X052418Y041150D02*
X051684Y041150D01*
X051030Y043140D02*
X051177Y043201D01*
X051290Y043313D01*
X051351Y043460D01*
X051351Y043620D01*
X051290Y043767D01*
X051177Y043879D01*
X051030Y043940D01*
X050871Y043940D01*
X050724Y043879D01*
X050612Y043767D01*
X050551Y043620D01*
X050551Y043460D01*
X050612Y043313D01*
X050724Y043201D01*
X050871Y043140D01*
X051030Y043140D01*
X051195Y043218D02*
X071001Y043218D01*
X071001Y043120D02*
X047730Y043120D01*
X047751Y043021D02*
X071001Y043021D01*
X071001Y042923D02*
X047751Y042923D01*
X047715Y042824D02*
X071001Y042824D01*
X071001Y042726D02*
X047652Y042726D01*
X047688Y043218D02*
X050707Y043218D01*
X050610Y043317D02*
X047590Y043317D01*
X047112Y043317D02*
X013901Y043317D01*
X013901Y043415D02*
X038610Y043415D01*
X038671Y043390D02*
X038830Y043390D01*
X038977Y043451D01*
X039090Y043563D01*
X039151Y043710D01*
X039151Y043870D01*
X039090Y044017D01*
X038977Y044129D01*
X038830Y044190D01*
X038671Y044190D01*
X038524Y044129D01*
X038412Y044017D01*
X038351Y043870D01*
X038351Y043710D01*
X038412Y043563D01*
X038524Y043451D01*
X038671Y043390D01*
X038891Y043415D02*
X050569Y043415D01*
X050551Y043514D02*
X039040Y043514D01*
X039110Y043612D02*
X050551Y043612D01*
X050588Y043711D02*
X039151Y043711D01*
X039151Y043809D02*
X050654Y043809D01*
X050793Y043908D02*
X039135Y043908D01*
X039094Y044006D02*
X069427Y044006D01*
X069468Y043908D02*
X051108Y043908D01*
X051247Y043809D02*
X069517Y043809D01*
X069616Y043711D02*
X051313Y043711D01*
X051351Y043612D02*
X069714Y043612D01*
X069853Y043514D02*
X051351Y043514D01*
X051332Y043415D02*
X070091Y043415D01*
X070611Y043415D02*
X071001Y043415D01*
X071001Y043317D02*
X051291Y043317D01*
X053676Y042233D02*
X071001Y042233D01*
X071001Y042135D02*
X053884Y042135D01*
X053982Y042036D02*
X071001Y042036D01*
X071001Y043514D02*
X070848Y043514D01*
X070987Y043612D02*
X071001Y043612D01*
X069386Y044105D02*
X039002Y044105D01*
X038500Y044105D02*
X013901Y044105D01*
X013901Y044203D02*
X069351Y044203D01*
X069351Y044302D02*
X013901Y044302D01*
X013901Y044400D02*
X069351Y044400D01*
X069351Y044499D02*
X013901Y044499D01*
X013901Y044597D02*
X069354Y044597D01*
X069395Y044696D02*
X013901Y044696D01*
X013901Y044794D02*
X069436Y044794D01*
X069477Y044893D02*
X013901Y044893D01*
X013901Y044991D02*
X069538Y044991D01*
X069636Y045090D02*
X013901Y045090D01*
X013901Y045188D02*
X069735Y045188D01*
X069903Y045287D02*
X013901Y045287D01*
X013901Y045385D02*
X070140Y045385D01*
X070561Y045385D02*
X071001Y045385D01*
X071001Y045287D02*
X070799Y045287D01*
X070967Y045188D02*
X071001Y045188D01*
X071001Y045484D02*
X013901Y045484D01*
X013901Y045582D02*
X071001Y045582D01*
X071001Y045681D02*
X013901Y045681D01*
X013901Y045779D02*
X071001Y045779D01*
X071001Y045878D02*
X013901Y045878D01*
X013901Y045976D02*
X071001Y045976D01*
X071001Y046075D02*
X013901Y046075D01*
X013901Y044006D02*
X038407Y044006D01*
X038366Y043908D02*
X013901Y043908D01*
X013901Y043809D02*
X038351Y043809D01*
X038351Y043711D02*
X013901Y043711D01*
X013901Y043612D02*
X038391Y043612D01*
X038461Y043514D02*
X013901Y043514D01*
X013901Y040066D02*
X019411Y040066D01*
X019313Y039968D02*
X013901Y039968D01*
X013901Y039869D02*
X018764Y039869D01*
X018666Y039771D02*
X013901Y039771D01*
X013901Y039672D02*
X018622Y039672D01*
X018601Y039574D02*
X013901Y039574D01*
X013901Y039475D02*
X018601Y039475D01*
X018635Y039377D02*
X013901Y039377D01*
X013901Y039278D02*
X018697Y039278D01*
X018825Y039180D02*
X013901Y039180D01*
X013901Y038293D02*
X044358Y038293D01*
X044399Y038195D02*
X013901Y038195D01*
X013901Y038096D02*
X043591Y038096D01*
X043624Y038129D02*
X043512Y038017D01*
X043451Y037870D01*
X043451Y037710D01*
X043512Y037563D01*
X043624Y037451D01*
X043771Y037390D01*
X043930Y037390D01*
X044077Y037451D01*
X044190Y037563D01*
X044251Y037710D01*
X044251Y037870D01*
X044190Y038017D01*
X044077Y038129D01*
X043930Y038190D01*
X043771Y038190D01*
X043624Y038129D01*
X043504Y037998D02*
X025759Y037998D01*
X025727Y038029D02*
X025580Y038090D01*
X025421Y038090D01*
X025274Y038029D01*
X025162Y037917D01*
X025101Y037770D01*
X025101Y037610D01*
X025162Y037463D01*
X025274Y037351D01*
X025421Y037290D01*
X025580Y037290D01*
X025727Y037351D01*
X025840Y037463D01*
X025901Y037610D01*
X025901Y037770D01*
X025840Y037917D01*
X025727Y038029D01*
X025847Y037899D02*
X043463Y037899D01*
X043451Y037801D02*
X025888Y037801D01*
X025901Y037702D02*
X043454Y037702D01*
X043495Y037604D02*
X025898Y037604D01*
X025857Y037505D02*
X043570Y037505D01*
X043731Y037407D02*
X025783Y037407D01*
X025624Y037308D02*
X059801Y037308D01*
X059801Y037407D02*
X043971Y037407D01*
X044132Y037505D02*
X059803Y037505D01*
X059844Y037604D02*
X044206Y037604D01*
X044247Y037702D02*
X059885Y037702D01*
X059984Y037801D02*
X044251Y037801D01*
X044238Y037899D02*
X060098Y037899D01*
X059965Y037998D02*
X044849Y037998D01*
X044652Y037998D02*
X044198Y037998D01*
X044110Y038096D02*
X044479Y038096D01*
X045023Y038096D02*
X059877Y038096D01*
X059836Y038195D02*
X045103Y038195D01*
X045144Y038293D02*
X059801Y038293D01*
X059801Y038392D02*
X045151Y038392D01*
X045142Y038490D02*
X059801Y038490D01*
X059838Y038589D02*
X045101Y038589D01*
X045019Y038687D02*
X059878Y038687D01*
X059831Y039574D02*
X047294Y039574D01*
X047335Y039672D02*
X059872Y039672D01*
X059954Y039771D02*
X047351Y039771D01*
X047351Y039869D02*
X060071Y039869D01*
X059995Y039968D02*
X047310Y039968D01*
X047240Y040066D02*
X059897Y040066D01*
X060664Y040854D02*
X061037Y040854D01*
X060939Y040756D02*
X060763Y040756D01*
X060835Y040657D02*
X060866Y040657D01*
X061664Y040854D02*
X062037Y040854D01*
X061939Y040756D02*
X061763Y040756D01*
X061835Y040657D02*
X061866Y040657D01*
X059830Y037210D02*
X024951Y037210D01*
X024951Y037160D02*
X024890Y037013D01*
X024777Y036901D01*
X024630Y036840D01*
X024471Y036840D01*
X024324Y036901D01*
X024212Y037013D01*
X013901Y037013D01*
X013901Y037111D02*
X024171Y037111D01*
X024151Y037160D02*
X024212Y037013D01*
X024311Y036914D02*
X013901Y036914D01*
X013901Y036816D02*
X059999Y036816D01*
X060062Y036914D02*
X024791Y036914D01*
X024889Y037013D02*
X059950Y037013D01*
X059871Y037111D02*
X024930Y037111D01*
X024951Y037160D02*
X024951Y037320D01*
X024890Y037467D01*
X024777Y037579D01*
X024630Y037640D01*
X024471Y037640D01*
X024324Y037579D01*
X024212Y037467D01*
X024151Y037320D01*
X024151Y037160D01*
X024151Y037210D02*
X013901Y037210D01*
X013901Y037308D02*
X024151Y037308D01*
X024187Y037407D02*
X013901Y037407D01*
X013901Y037505D02*
X024250Y037505D01*
X024384Y037604D02*
X013901Y037604D01*
X013901Y037702D02*
X025101Y037702D01*
X025103Y037604D02*
X024718Y037604D01*
X024851Y037505D02*
X025144Y037505D01*
X025218Y037407D02*
X024915Y037407D01*
X024951Y037308D02*
X025377Y037308D01*
X025114Y037801D02*
X013901Y037801D01*
X013901Y037899D02*
X025154Y037899D01*
X025243Y037998D02*
X013901Y037998D01*
X013901Y036717D02*
X059900Y036717D01*
X059850Y036619D02*
X013901Y036619D01*
X013901Y036520D02*
X059809Y036520D01*
X059801Y036422D02*
X013901Y036422D01*
X013901Y036323D02*
X059801Y036323D01*
X059824Y036225D02*
X013901Y036225D01*
X013901Y036126D02*
X059865Y036126D01*
X059935Y036028D02*
X013901Y036028D01*
X013901Y035929D02*
X060034Y035929D01*
X060014Y035831D02*
X013901Y035831D01*
X013901Y035732D02*
X059915Y035732D01*
X059856Y035634D02*
X021695Y035634D01*
X021680Y035640D02*
X021521Y035640D01*
X021374Y035579D01*
X021262Y035467D01*
X021201Y035320D01*
X021201Y035160D01*
X021262Y035013D01*
X021374Y034901D01*
X021521Y034840D01*
X021680Y034840D01*
X021827Y034901D01*
X021940Y035013D01*
X022001Y035160D01*
X022001Y035320D01*
X021940Y035467D01*
X021827Y035579D01*
X021680Y035640D01*
X021506Y035634D02*
X013901Y035634D01*
X013901Y035535D02*
X021330Y035535D01*
X021249Y035437D02*
X013901Y035437D01*
X013901Y035338D02*
X021208Y035338D01*
X021201Y035240D02*
X013901Y035240D01*
X013901Y035141D02*
X021209Y035141D01*
X021249Y035043D02*
X013901Y035043D01*
X013901Y034944D02*
X021331Y034944D01*
X021507Y034846D02*
X013901Y034846D01*
X013901Y034747D02*
X045883Y034747D01*
X045851Y034649D02*
X013901Y034649D01*
X013901Y034550D02*
X045675Y034550D01*
X045547Y034452D02*
X013901Y034452D01*
X013901Y034353D02*
X041380Y034353D01*
X041397Y034370D02*
X041271Y034244D01*
X041203Y034079D01*
X041203Y033901D01*
X041271Y033736D01*
X041397Y033610D01*
X041561Y033542D01*
X041740Y033542D01*
X041904Y033610D01*
X042031Y033736D01*
X042099Y033901D01*
X042099Y034079D01*
X042031Y034244D01*
X041904Y034370D01*
X041740Y034438D01*
X041561Y034438D01*
X041397Y034370D01*
X041282Y034255D02*
X013901Y034255D01*
X013901Y034156D02*
X041234Y034156D01*
X041203Y034058D02*
X013901Y034058D01*
X013901Y033959D02*
X041203Y033959D01*
X041219Y033861D02*
X013901Y033861D01*
X013901Y033762D02*
X018952Y033762D01*
X018962Y033772D02*
X018818Y033629D01*
X018741Y033441D01*
X018741Y033240D01*
X018683Y033379D01*
X018540Y033522D01*
X018352Y033600D01*
X018149Y033600D01*
X017962Y033522D01*
X017818Y033379D01*
X017741Y033191D01*
X017741Y032989D01*
X017818Y032801D01*
X017962Y032658D01*
X018149Y032580D01*
X018352Y032580D01*
X018540Y032658D01*
X018683Y032801D01*
X018761Y032989D01*
X018761Y033190D01*
X018818Y033051D01*
X018962Y032908D01*
X019149Y032830D01*
X019352Y032830D01*
X019540Y032908D01*
X019683Y033051D01*
X019761Y033239D01*
X019761Y033441D01*
X019683Y033629D01*
X019540Y033772D01*
X019352Y033850D01*
X019149Y033850D01*
X018962Y033772D01*
X018853Y033664D02*
X013901Y033664D01*
X013901Y033565D02*
X018065Y033565D01*
X017906Y033467D02*
X013901Y033467D01*
X013901Y033368D02*
X017814Y033368D01*
X017773Y033270D02*
X013901Y033270D01*
X013901Y033171D02*
X017741Y033171D01*
X017741Y033073D02*
X013901Y033073D01*
X013901Y032974D02*
X017747Y032974D01*
X017787Y032876D02*
X013901Y032876D01*
X013901Y032777D02*
X017842Y032777D01*
X017941Y032679D02*
X013901Y032679D01*
X013901Y032580D02*
X018149Y032580D01*
X018353Y032580D02*
X024592Y032580D01*
X024586Y032571D02*
X024587Y032562D01*
X024567Y032519D01*
X024560Y032515D01*
X024552Y032486D01*
X024539Y032459D01*
X024543Y032451D01*
X024530Y032405D01*
X024523Y032399D01*
X024521Y032370D01*
X024513Y032341D01*
X024518Y032334D01*
X024513Y032286D01*
X024508Y032279D01*
X024510Y032250D01*
X024508Y032221D01*
X024513Y032214D01*
X024518Y032166D01*
X024513Y032159D01*
X024521Y032130D01*
X024523Y032101D01*
X024530Y032095D01*
X024543Y032049D01*
X024539Y032041D01*
X024552Y032014D01*
X024560Y031985D01*
X024567Y031981D01*
X024587Y031938D01*
X024586Y031929D01*
X024603Y031905D01*
X024615Y031878D01*
X024624Y031875D01*
X024651Y031836D01*
X024651Y031827D01*
X024672Y031806D01*
X024689Y031782D01*
X024697Y031781D01*
X024731Y031747D01*
X024733Y031738D01*
X024757Y031721D01*
X024778Y031700D01*
X024787Y031700D01*
X024826Y031673D01*
X024829Y031665D01*
X024855Y031652D01*
X024880Y031635D01*
X024888Y031637D01*
X024932Y031617D01*
X024936Y031609D01*
X024965Y031601D01*
X024991Y031589D01*
X025000Y031592D01*
X025046Y031580D01*
X025051Y031573D01*
X025081Y031570D01*
X025109Y031563D01*
X025117Y031567D01*
X025165Y031563D01*
X025171Y031557D01*
X025201Y031560D01*
X025230Y031557D01*
X025237Y031563D01*
X025284Y031567D01*
X025292Y031563D01*
X025321Y031570D01*
X025350Y031573D01*
X025356Y031580D01*
X025402Y031592D01*
X025410Y031589D01*
X025437Y031601D01*
X025465Y031609D01*
X025470Y031617D01*
X025513Y031637D01*
X025522Y031635D01*
X025546Y031652D01*
X025572Y031665D01*
X025575Y031673D01*
X025615Y031700D01*
X025624Y031700D01*
X025644Y031721D01*
X025668Y031738D01*
X025670Y031747D01*
X025704Y031781D01*
X025713Y031782D01*
X025729Y031806D01*
X025750Y031827D01*
X025750Y031836D01*
X025778Y031875D01*
X025786Y031878D01*
X025798Y031905D01*
X025815Y031929D01*
X025814Y031938D01*
X025834Y031981D01*
X025842Y031985D01*
X025849Y032014D01*
X025862Y032041D01*
X025859Y032049D01*
X025871Y032095D01*
X025878Y032101D01*
X025880Y032130D01*
X025888Y032159D01*
X025884Y032166D01*
X025888Y032214D01*
X025894Y032221D01*
X025891Y032250D01*
X025894Y032279D01*
X025888Y032286D01*
X025884Y032334D01*
X025888Y032341D01*
X025880Y032370D01*
X025878Y032399D01*
X025871Y032405D01*
X025859Y032451D01*
X025862Y032459D01*
X025849Y032486D01*
X025842Y032515D01*
X025834Y032519D01*
X025814Y032562D01*
X025815Y032571D01*
X025798Y032595D01*
X025786Y032622D01*
X025778Y032625D01*
X025750Y032664D01*
X025750Y032673D01*
X025729Y032694D01*
X025713Y032718D01*
X025704Y032719D01*
X025670Y032753D01*
X025668Y032762D01*
X025644Y032779D01*
X025624Y032800D01*
X025615Y032800D01*
X025575Y032827D01*
X025572Y032835D01*
X025546Y032848D01*
X025522Y032865D01*
X025513Y032863D01*
X025470Y032883D01*
X025465Y032891D01*
X025437Y032899D01*
X025410Y032911D01*
X025402Y032908D01*
X025356Y032920D01*
X025350Y032927D01*
X025321Y032930D01*
X025292Y032937D01*
X025284Y032933D01*
X025237Y032937D01*
X025230Y032943D01*
X025201Y032940D01*
X025171Y032943D01*
X025165Y032937D01*
X025117Y032933D01*
X025109Y032937D01*
X025081Y032930D01*
X025051Y032927D01*
X025046Y032920D01*
X025000Y032908D01*
X024991Y032911D01*
X024965Y032899D01*
X024936Y032891D01*
X024932Y032883D01*
X024888Y032863D01*
X024880Y032865D01*
X024855Y032848D01*
X024829Y032835D01*
X024826Y032827D01*
X024787Y032800D01*
X024778Y032800D01*
X024757Y032779D01*
X024733Y032762D01*
X024731Y032753D01*
X024697Y032719D01*
X024689Y032718D01*
X024672Y032694D01*
X024651Y032673D01*
X024651Y032664D01*
X024624Y032625D01*
X024615Y032622D01*
X024603Y032595D01*
X024586Y032571D01*
X024550Y032482D02*
X013901Y032482D01*
X013901Y032383D02*
X024522Y032383D01*
X024512Y032285D02*
X013901Y032285D01*
X013901Y032186D02*
X024516Y032186D01*
X024532Y032088D02*
X013895Y032088D01*
X013855Y031989D02*
X024559Y031989D01*
X024609Y031891D02*
X013788Y031891D01*
X013666Y031792D02*
X024682Y031792D01*
X024796Y031694D02*
X012036Y031694D01*
X012093Y031595D02*
X024977Y031595D01*
X025424Y031595D02*
X036545Y031595D01*
X036509Y031497D02*
X032365Y031497D01*
X032373Y031493D02*
X032330Y031513D01*
X032325Y031521D01*
X032297Y031529D01*
X032270Y031541D01*
X032262Y031538D01*
X032216Y031550D01*
X032210Y031557D01*
X032181Y031560D01*
X032152Y031567D01*
X032144Y031563D01*
X032097Y031567D01*
X032090Y031573D01*
X032061Y031570D01*
X032031Y031573D01*
X032025Y031567D01*
X031977Y031563D01*
X031969Y031567D01*
X031941Y031560D01*
X031911Y031557D01*
X031906Y031550D01*
X031860Y031538D01*
X031851Y031541D01*
X031825Y031529D01*
X031796Y031521D01*
X031792Y031513D01*
X031748Y031493D01*
X031740Y031495D01*
X031715Y031478D01*
X031689Y031465D01*
X031686Y031457D01*
X031647Y031430D01*
X031638Y031430D01*
X031617Y031409D01*
X031593Y031392D01*
X031591Y031383D01*
X031557Y031349D01*
X031549Y031348D01*
X031532Y031324D01*
X031511Y031303D01*
X031511Y031294D01*
X031484Y031255D01*
X031475Y031252D01*
X031463Y031225D01*
X031446Y031201D01*
X031447Y031192D01*
X031427Y031149D01*
X031420Y031145D01*
X031412Y031116D01*
X031399Y031089D01*
X031403Y031081D01*
X031390Y031035D01*
X031383Y031029D01*
X031381Y031000D01*
X031373Y030971D01*
X031378Y030964D01*
X031373Y030916D01*
X031368Y030909D01*
X031370Y030880D01*
X031368Y030851D01*
X031373Y030844D01*
X031378Y030796D01*
X031373Y030789D01*
X031381Y030760D01*
X031383Y030731D01*
X031390Y030725D01*
X031403Y030679D01*
X031399Y030671D01*
X031412Y030644D01*
X031420Y030615D01*
X031427Y030611D01*
X031447Y030568D01*
X031446Y030559D01*
X031463Y030535D01*
X031475Y030508D01*
X031484Y030505D01*
X031511Y030466D01*
X031511Y030457D01*
X031532Y030436D01*
X031549Y030412D01*
X031557Y030411D01*
X031591Y030377D01*
X031593Y030368D01*
X031617Y030351D01*
X031638Y030330D01*
X031647Y030330D01*
X031686Y030303D01*
X031689Y030295D01*
X031715Y030282D01*
X031740Y030265D01*
X031748Y030267D01*
X031792Y030247D01*
X031796Y030239D01*
X031825Y030231D01*
X031851Y030219D01*
X031860Y030222D01*
X031906Y030210D01*
X031911Y030203D01*
X031941Y030200D01*
X031969Y030193D01*
X031977Y030197D01*
X032025Y030193D01*
X032031Y030187D01*
X032061Y030190D01*
X032090Y030187D01*
X032097Y030193D01*
X032144Y030197D01*
X032152Y030193D01*
X032181Y030200D01*
X032210Y030203D01*
X032216Y030210D01*
X032262Y030222D01*
X032270Y030219D01*
X032297Y030231D01*
X032325Y030239D01*
X032330Y030247D01*
X032373Y030267D01*
X032382Y030265D01*
X032406Y030282D01*
X032432Y030295D01*
X032435Y030303D01*
X032475Y030330D01*
X032484Y030330D01*
X032504Y030351D01*
X032528Y030368D01*
X032530Y030377D01*
X032564Y030411D01*
X032573Y030412D01*
X032589Y030436D01*
X032610Y030457D01*
X032610Y030466D01*
X032638Y030505D01*
X032646Y030508D01*
X032658Y030535D01*
X032675Y030559D01*
X032674Y030568D01*
X032694Y030611D01*
X032702Y030615D01*
X032709Y030644D01*
X032722Y030671D01*
X032719Y030679D01*
X032731Y030725D01*
X032738Y030731D01*
X032740Y030760D01*
X032748Y030789D01*
X032744Y030796D01*
X032748Y030844D01*
X032754Y030851D01*
X032751Y030880D01*
X032754Y030909D01*
X032748Y030916D01*
X032744Y030964D01*
X032748Y030971D01*
X032740Y031000D01*
X032738Y031029D01*
X032731Y031035D01*
X032719Y031081D01*
X032722Y031089D01*
X032709Y031116D01*
X032702Y031145D01*
X032694Y031149D01*
X032674Y031192D01*
X032675Y031201D01*
X036488Y031201D01*
X036479Y031300D02*
X032610Y031300D01*
X032610Y031303D02*
X032589Y031324D01*
X032573Y031348D01*
X032564Y031349D01*
X032530Y031383D01*
X032528Y031392D01*
X032504Y031409D01*
X032484Y031430D01*
X032475Y031430D01*
X032435Y031457D01*
X032432Y031465D01*
X032406Y031478D01*
X032382Y031495D01*
X032373Y031493D01*
X032519Y031398D02*
X036485Y031398D01*
X036510Y031103D02*
X032716Y031103D01*
X032740Y031004D02*
X036554Y031004D01*
X036614Y030906D02*
X032753Y030906D01*
X032745Y030807D02*
X036701Y030807D01*
X036830Y030709D02*
X032727Y030709D01*
X032694Y030610D02*
X038626Y030610D01*
X038626Y030512D02*
X032648Y030512D01*
X032573Y030413D02*
X038626Y030413D01*
X038626Y030315D02*
X032452Y030315D01*
X032241Y030216D02*
X038626Y030216D01*
X038626Y030118D02*
X029691Y030118D01*
X029691Y030216D02*
X031881Y030216D01*
X031669Y030315D02*
X029691Y030315D01*
X029691Y030413D02*
X031548Y030413D01*
X031474Y030512D02*
X029375Y030512D01*
X029378Y030515D02*
X029386Y030518D01*
X029398Y030545D01*
X029415Y030569D01*
X029414Y030578D01*
X029434Y030621D01*
X029442Y030625D01*
X029449Y030654D01*
X029462Y030681D01*
X029459Y030689D01*
X029471Y030735D01*
X029478Y030741D01*
X029480Y030770D01*
X029488Y030799D01*
X029484Y030806D01*
X029488Y030854D01*
X029494Y030861D01*
X029491Y030890D01*
X029494Y030919D01*
X029488Y030926D01*
X029484Y030974D01*
X029488Y030981D01*
X029480Y031010D01*
X029478Y031039D01*
X029471Y031045D01*
X029459Y031091D01*
X029462Y031099D01*
X029449Y031126D01*
X029442Y031155D01*
X029434Y031159D01*
X029414Y031202D01*
X029415Y031211D01*
X029398Y031235D01*
X029386Y031262D01*
X029378Y031265D01*
X029350Y031304D01*
X029350Y031313D01*
X029329Y031334D01*
X029313Y031358D01*
X029304Y031359D01*
X029270Y031393D01*
X029268Y031402D01*
X029244Y031419D01*
X029224Y031440D01*
X029215Y031440D01*
X029175Y031467D01*
X029172Y031475D01*
X029146Y031488D01*
X029122Y031505D01*
X029113Y031503D01*
X029070Y031523D01*
X029065Y031531D01*
X029037Y031539D01*
X029010Y031551D01*
X029002Y031548D01*
X028956Y031560D01*
X028950Y031567D01*
X028921Y031570D01*
X028892Y031577D01*
X028884Y031573D01*
X028837Y031577D01*
X028830Y031583D01*
X028801Y031580D01*
X028771Y031583D01*
X028765Y031577D01*
X028717Y031573D01*
X028709Y031577D01*
X028681Y031570D01*
X028651Y031567D01*
X028646Y031560D01*
X028600Y031548D01*
X028591Y031551D01*
X028565Y031539D01*
X028536Y031531D01*
X028532Y031523D01*
X028488Y031503D01*
X028480Y031505D01*
X028455Y031488D01*
X028429Y031475D01*
X028426Y031467D01*
X028387Y031440D01*
X028378Y031440D01*
X028357Y031419D01*
X028333Y031402D01*
X028331Y031393D01*
X028297Y031359D01*
X028289Y031358D01*
X028272Y031334D01*
X028251Y031313D01*
X028251Y031304D01*
X028224Y031265D01*
X028215Y031262D01*
X028203Y031235D01*
X028186Y031211D01*
X028187Y031202D01*
X028167Y031159D01*
X028160Y031155D01*
X028152Y031126D01*
X028139Y031099D01*
X028143Y031091D01*
X028130Y031045D01*
X028123Y031039D01*
X028121Y031010D01*
X028113Y030981D01*
X028118Y030974D01*
X028113Y030926D01*
X028108Y030919D01*
X028110Y030890D01*
X028108Y030861D01*
X028113Y030854D01*
X028118Y030806D01*
X028113Y030799D01*
X028121Y030770D01*
X028123Y030741D01*
X028130Y030735D01*
X028143Y030689D01*
X028139Y030681D01*
X028152Y030654D01*
X028160Y030625D01*
X028167Y030621D01*
X028187Y030578D01*
X028186Y030569D01*
X028203Y030545D01*
X028215Y030518D01*
X028224Y030515D01*
X028248Y030480D01*
X027813Y030480D01*
X027761Y030427D01*
X027761Y028953D01*
X027813Y028900D01*
X029638Y028900D01*
X029691Y028953D01*
X029691Y030427D01*
X029638Y030480D01*
X029353Y030480D01*
X029378Y030515D01*
X029429Y030610D02*
X031428Y030610D01*
X031395Y030709D02*
X029464Y030709D01*
X029484Y030807D02*
X031377Y030807D01*
X031368Y030906D02*
X029492Y030906D01*
X029482Y031004D02*
X031381Y031004D01*
X031406Y031103D02*
X029460Y031103D01*
X029414Y031201D02*
X031446Y031201D01*
X031511Y031300D02*
X029353Y031300D01*
X029269Y031398D02*
X031602Y031398D01*
X031756Y031497D02*
X029133Y031497D01*
X028468Y031497D02*
X012133Y031497D01*
X012174Y031398D02*
X028332Y031398D01*
X028248Y031300D02*
X012191Y031300D01*
X012191Y031201D02*
X028187Y031201D01*
X028141Y031103D02*
X012191Y031103D01*
X012184Y031004D02*
X028119Y031004D01*
X028109Y030906D02*
X012143Y030906D01*
X012102Y030807D02*
X028118Y030807D01*
X028137Y030709D02*
X012058Y030709D01*
X011960Y030610D02*
X028172Y030610D01*
X028226Y030512D02*
X011861Y030512D01*
X011672Y030413D02*
X027761Y030413D01*
X027761Y030315D02*
X008901Y030315D01*
X008901Y030413D02*
X011029Y030413D01*
X010840Y030512D02*
X008901Y030512D01*
X008901Y030610D02*
X010742Y030610D01*
X010643Y030709D02*
X008901Y030709D01*
X008901Y030807D02*
X010599Y030807D01*
X010559Y030906D02*
X008901Y030906D01*
X008901Y031004D02*
X010518Y031004D01*
X010510Y031103D02*
X008901Y031103D01*
X008901Y031201D02*
X010510Y031201D01*
X010510Y031300D02*
X008901Y031300D01*
X008901Y031398D02*
X010527Y031398D01*
X010568Y031497D02*
X008901Y031497D01*
X008901Y031595D02*
X010609Y031595D01*
X010666Y031694D02*
X008901Y031694D01*
X008901Y030216D02*
X027761Y030216D01*
X027761Y030118D02*
X008901Y030118D01*
X008901Y030019D02*
X012350Y030019D01*
X012345Y030018D02*
X012341Y030010D01*
X012290Y029984D01*
X012281Y029985D01*
X012254Y029966D01*
X012224Y029950D01*
X012222Y029942D01*
X012176Y029908D01*
X012167Y029908D01*
X012143Y029884D01*
X012116Y029864D01*
X012115Y029855D01*
X012075Y029815D01*
X012066Y029813D01*
X012047Y029786D01*
X012024Y029762D01*
X012024Y029753D01*
X011991Y029706D01*
X011982Y029703D01*
X011968Y029673D01*
X011948Y029646D01*
X011950Y029637D01*
X011925Y029586D01*
X011917Y029582D01*
X011907Y029550D01*
X011893Y029520D01*
X011896Y029511D01*
X011880Y029456D01*
X011872Y029451D01*
X011868Y029418D01*
X011859Y029386D01*
X011863Y029378D01*
X011856Y029321D01*
X011849Y029315D01*
X011850Y029281D01*
X011846Y029248D01*
X011852Y029241D01*
X011854Y029184D01*
X011849Y029176D01*
X011855Y029144D01*
X011856Y029111D01*
X011863Y029104D01*
X011874Y029048D01*
X011870Y029040D01*
X011882Y029009D01*
X011888Y028976D01*
X011896Y028971D01*
X011916Y028918D01*
X011913Y028909D01*
X011930Y028880D01*
X011941Y028849D01*
X011950Y028845D01*
X011978Y028795D01*
X011977Y028786D01*
X011998Y028760D01*
X012015Y028731D01*
X012023Y028729D01*
X012059Y028685D01*
X012060Y028676D01*
X012085Y028653D01*
X012106Y028628D01*
X012115Y028627D01*
X012157Y028589D01*
X012159Y028580D01*
X012187Y028562D01*
X012212Y028540D01*
X012221Y028540D01*
X012269Y028510D01*
X012273Y028501D01*
X012303Y028488D01*
X012332Y028470D01*
X012341Y028472D01*
X012393Y028450D01*
X012398Y028442D01*
X012430Y028434D01*
X012461Y028421D01*
X012469Y028424D01*
X012524Y028410D01*
X012530Y028403D01*
X012563Y028401D01*
X012596Y028393D01*
X012604Y028398D01*
X012656Y028393D01*
X012659Y028390D01*
X012697Y028390D01*
X012734Y028387D01*
X012737Y028390D01*
X014010Y028390D01*
X014011Y028389D01*
X014052Y028390D01*
X014092Y028390D01*
X014093Y028391D01*
X014147Y028392D01*
X014155Y028386D01*
X014187Y028392D01*
X014220Y028393D01*
X014227Y028400D01*
X014289Y028412D01*
X014298Y028408D01*
X014329Y028419D01*
X014361Y028425D01*
X014366Y028433D01*
X014425Y028455D01*
X014435Y028453D01*
X014463Y028469D01*
X014494Y028480D01*
X014498Y028489D01*
X014553Y028521D01*
X014562Y028520D01*
X014587Y028541D01*
X014616Y028557D01*
X014618Y028567D01*
X014667Y028607D01*
X014676Y028608D01*
X014698Y028633D01*
X014723Y028654D01*
X014724Y028663D01*
X014765Y028711D01*
X014774Y028713D01*
X014791Y028742D01*
X014813Y028767D01*
X014812Y028776D01*
X014844Y028830D01*
X014853Y028834D01*
X014865Y028865D01*
X014882Y028893D01*
X014880Y028902D01*
X014902Y028961D01*
X014910Y028966D01*
X014917Y028999D01*
X014929Y029029D01*
X014925Y029038D01*
X014938Y029100D01*
X014945Y029106D01*
X014946Y029139D01*
X014953Y029171D01*
X014947Y029179D01*
X014949Y029242D01*
X014955Y029250D01*
X014951Y029283D01*
X014952Y029316D01*
X014945Y029323D01*
X014937Y029385D01*
X014941Y029393D01*
X014931Y029425D01*
X014927Y029458D01*
X014919Y029463D01*
X014900Y029523D01*
X014903Y029533D01*
X014888Y029562D01*
X014878Y029593D01*
X014870Y029598D01*
X014841Y029654D01*
X014843Y029663D01*
X014823Y029690D01*
X014808Y029719D01*
X014799Y029722D01*
X014761Y029772D01*
X014761Y029782D01*
X014737Y029805D01*
X014717Y029831D01*
X014708Y029832D01*
X014662Y029876D01*
X014660Y029885D01*
X014633Y029903D01*
X014609Y029926D01*
X014599Y029926D01*
X014547Y029961D01*
X014544Y029970D01*
X014514Y029983D01*
X014486Y030002D01*
X014477Y030000D01*
X014419Y030026D01*
X014415Y030034D01*
X014383Y030042D01*
X014353Y030056D01*
X014344Y030052D01*
X014283Y030068D01*
X014277Y030075D01*
X014244Y030078D01*
X014212Y030087D01*
X014204Y030082D01*
X014145Y030087D01*
X014142Y030090D01*
X014105Y030090D01*
X014068Y030093D01*
X014064Y030090D01*
X012684Y030090D01*
X012677Y030095D01*
X012643Y030090D01*
X012609Y030090D01*
X012603Y030084D01*
X012548Y030076D01*
X012540Y030080D01*
X012508Y030070D01*
X012475Y030065D01*
X012469Y030058D01*
X012415Y030040D01*
X012406Y030043D01*
X012377Y030028D01*
X012345Y030018D01*
X012193Y029921D02*
X008901Y029921D01*
X008901Y029822D02*
X012083Y029822D01*
X012003Y029724D02*
X008901Y029724D01*
X008901Y029625D02*
X011944Y029625D01*
X011896Y029527D02*
X008901Y029527D01*
X008901Y029428D02*
X011869Y029428D01*
X011857Y029330D02*
X008901Y029330D01*
X008901Y029231D02*
X011852Y029231D01*
X011855Y029133D02*
X008901Y029133D01*
X008901Y029034D02*
X011872Y029034D01*
X011909Y028936D02*
X008901Y028936D01*
X008901Y028837D02*
X011954Y028837D01*
X012010Y028739D02*
X008901Y028739D01*
X008901Y028640D02*
X012095Y028640D01*
X012210Y028542D02*
X008901Y028542D01*
X008901Y028443D02*
X012397Y028443D01*
X011827Y027903D02*
X011518Y028031D01*
X011183Y028031D01*
X010874Y027903D01*
X010638Y027666D01*
X010510Y027357D01*
X010510Y027023D01*
X010638Y026714D01*
X010874Y026477D01*
X011183Y026349D01*
X011518Y026349D01*
X011827Y026477D01*
X012063Y026714D01*
X012191Y027023D01*
X012191Y027357D01*
X012063Y027666D01*
X011827Y027903D01*
X011877Y027852D02*
X022401Y027852D01*
X022401Y027870D02*
X022401Y027710D01*
X022462Y027563D01*
X022574Y027451D01*
X022721Y027390D01*
X022880Y027390D01*
X023027Y027451D01*
X023140Y027563D01*
X023201Y027710D01*
X023201Y027870D01*
X023140Y028017D01*
X023027Y028129D01*
X022880Y028190D01*
X022721Y028190D01*
X022574Y028129D01*
X022462Y028017D01*
X022401Y027870D01*
X022434Y027951D02*
X021727Y027951D01*
X021840Y028063D01*
X021901Y028210D01*
X021901Y028370D01*
X021840Y028517D01*
X021727Y028629D01*
X021580Y028690D01*
X021421Y028690D01*
X021274Y028629D01*
X021162Y028517D01*
X021101Y028370D01*
X021101Y028210D01*
X021162Y028063D01*
X021274Y027951D01*
X021421Y027890D01*
X021580Y027890D01*
X021727Y027951D01*
X021826Y028049D02*
X022494Y028049D01*
X022619Y028148D02*
X021875Y028148D01*
X021901Y028246D02*
X045091Y028246D01*
X045124Y028279D02*
X045012Y028167D01*
X044951Y028020D01*
X044951Y027860D01*
X045012Y027713D01*
X045124Y027601D01*
X045271Y027540D01*
X045430Y027540D01*
X045577Y027601D01*
X045690Y027713D01*
X045751Y027860D01*
X045751Y028020D01*
X045690Y028167D01*
X045577Y028279D01*
X045430Y028340D01*
X045271Y028340D01*
X045124Y028279D01*
X045004Y028148D02*
X022982Y028148D01*
X023107Y028049D02*
X044963Y028049D01*
X044951Y027951D02*
X023167Y027951D01*
X023201Y027852D02*
X044954Y027852D01*
X044995Y027754D02*
X023201Y027754D01*
X023178Y027655D02*
X045070Y027655D01*
X045231Y027557D02*
X023133Y027557D01*
X023035Y027458D02*
X055871Y027458D01*
X055871Y027360D02*
X020179Y027360D01*
X020179Y027375D02*
X020114Y027533D01*
X019993Y027653D01*
X019836Y027718D01*
X019665Y027718D01*
X019508Y027653D01*
X019387Y027533D01*
X019322Y027375D01*
X019322Y027205D01*
X019387Y027047D01*
X019508Y026927D01*
X019665Y026862D01*
X019836Y026862D01*
X019993Y026927D01*
X020114Y027047D01*
X020179Y027205D01*
X020179Y027375D01*
X020145Y027458D02*
X022567Y027458D01*
X022468Y027557D02*
X020090Y027557D01*
X019988Y027655D02*
X022423Y027655D01*
X022401Y027754D02*
X011976Y027754D01*
X012068Y027655D02*
X019513Y027655D01*
X019412Y027557D02*
X012109Y027557D01*
X012149Y027458D02*
X019357Y027458D01*
X019322Y027360D02*
X012190Y027360D01*
X012191Y027261D02*
X019322Y027261D01*
X019340Y027163D02*
X012191Y027163D01*
X012191Y027064D02*
X019380Y027064D01*
X019469Y026966D02*
X012168Y026966D01*
X012127Y026867D02*
X019652Y026867D01*
X019850Y026867D02*
X056168Y026867D01*
X056075Y026966D02*
X020032Y026966D01*
X020121Y027064D02*
X055977Y027064D01*
X055921Y027163D02*
X020162Y027163D01*
X020179Y027261D02*
X055880Y027261D01*
X055896Y027557D02*
X045471Y027557D01*
X045632Y027655D02*
X055937Y027655D01*
X056015Y027754D02*
X045706Y027754D01*
X045747Y027852D02*
X048223Y027852D01*
X048224Y027851D02*
X048371Y027790D01*
X048530Y027790D01*
X048677Y027851D01*
X048790Y027963D01*
X048796Y027979D01*
X048824Y027951D01*
X048971Y027890D01*
X049130Y027890D01*
X049277Y027951D01*
X049390Y028063D01*
X049451Y028210D01*
X049451Y028370D01*
X049390Y028517D01*
X049277Y028629D01*
X049130Y028690D01*
X048971Y028690D01*
X048824Y028629D01*
X048712Y028517D01*
X048705Y028501D01*
X048677Y028529D01*
X048530Y028590D01*
X048371Y028590D01*
X048224Y028529D01*
X048112Y028417D01*
X048051Y028270D01*
X048051Y028110D01*
X048112Y027963D01*
X048224Y027851D01*
X048124Y027951D02*
X045751Y027951D01*
X045738Y028049D02*
X048076Y028049D01*
X048051Y028148D02*
X045698Y028148D01*
X045610Y028246D02*
X048051Y028246D01*
X048082Y028345D02*
X021901Y028345D01*
X021870Y028443D02*
X043063Y028443D01*
X043238Y028443D02*
X048138Y028443D01*
X048255Y028542D02*
X043418Y028542D01*
X043501Y028640D02*
X043820Y028640D01*
X043981Y028640D02*
X048851Y028640D01*
X048737Y028542D02*
X048647Y028542D01*
X048777Y027951D02*
X048824Y027951D01*
X048679Y027852D02*
X056132Y027852D01*
X056090Y027951D02*
X049277Y027951D01*
X049376Y028049D02*
X055992Y028049D01*
X055927Y028148D02*
X049425Y028148D01*
X049451Y028246D02*
X055886Y028246D01*
X055871Y028345D02*
X049451Y028345D01*
X049420Y028443D02*
X052313Y028443D01*
X052321Y028440D02*
X052480Y028440D01*
X052627Y028501D01*
X052740Y028613D01*
X052801Y028760D01*
X052801Y028920D01*
X052740Y029067D01*
X052627Y029179D01*
X052480Y029240D01*
X052321Y029240D01*
X052174Y029179D01*
X052062Y029067D01*
X052001Y028920D01*
X052001Y028760D01*
X052062Y028613D01*
X052174Y028501D01*
X052321Y028440D01*
X052488Y028443D02*
X055871Y028443D01*
X055890Y028542D02*
X052668Y028542D01*
X052751Y028640D02*
X055931Y028640D01*
X056000Y028739D02*
X052792Y028739D01*
X052801Y028837D02*
X056098Y028837D01*
X056112Y028936D02*
X052794Y028936D01*
X052753Y029034D02*
X056007Y029034D01*
X055934Y029133D02*
X052674Y029133D01*
X052501Y029231D02*
X055893Y029231D01*
X055871Y029330D02*
X047851Y029330D01*
X047851Y029310D02*
X047790Y029163D01*
X047677Y029051D01*
X047530Y028990D01*
X047371Y028990D01*
X047224Y029051D01*
X047201Y029074D01*
X047127Y029001D01*
X046980Y028940D01*
X046821Y028940D01*
X046674Y029001D01*
X046562Y029113D01*
X046501Y029260D01*
X046501Y029420D01*
X046562Y029567D01*
X046674Y029679D01*
X046821Y029740D01*
X046980Y029740D01*
X047127Y029679D01*
X047151Y029656D01*
X047224Y029729D01*
X047371Y029790D01*
X047530Y029790D01*
X047677Y029729D01*
X047790Y029617D01*
X047851Y029470D01*
X047851Y029310D01*
X047818Y029231D02*
X052300Y029231D01*
X052128Y029133D02*
X047759Y029133D01*
X047637Y029034D02*
X052048Y029034D01*
X052007Y028936D02*
X044290Y028936D01*
X044301Y029034D02*
X046641Y029034D01*
X046554Y029133D02*
X045283Y029133D01*
X045327Y029151D02*
X045440Y029263D01*
X045501Y029410D01*
X045501Y029570D01*
X045440Y029717D01*
X045327Y029829D01*
X045180Y029890D01*
X045021Y029890D01*
X044874Y029829D01*
X044762Y029717D01*
X044701Y029570D01*
X044701Y029410D01*
X044762Y029263D01*
X044874Y029151D01*
X045021Y029090D01*
X045180Y029090D01*
X045327Y029151D01*
X045408Y029231D02*
X046513Y029231D01*
X046501Y029330D02*
X046406Y029330D01*
X046496Y029428D02*
X046504Y029428D01*
X046537Y029527D02*
X046545Y029527D01*
X046551Y029625D02*
X046620Y029625D01*
X046549Y029724D02*
X046782Y029724D01*
X047019Y029724D02*
X047219Y029724D01*
X047683Y029724D02*
X055985Y029724D01*
X055924Y029625D02*
X047781Y029625D01*
X047827Y029527D02*
X055884Y029527D01*
X055871Y029428D02*
X047851Y029428D01*
X047264Y029034D02*
X047161Y029034D01*
X045895Y029330D02*
X045467Y029330D01*
X045501Y029428D02*
X045805Y029428D01*
X045765Y029527D02*
X045501Y029527D01*
X045478Y029625D02*
X045751Y029625D01*
X045752Y029724D02*
X045433Y029724D01*
X045334Y029822D02*
X045793Y029822D01*
X045456Y030019D02*
X044896Y030019D01*
X044992Y030118D02*
X045360Y030118D01*
X045319Y030216D02*
X045032Y030216D01*
X045051Y030315D02*
X045301Y030315D01*
X045301Y030413D02*
X045051Y030413D01*
X045012Y030512D02*
X045339Y030512D01*
X045405Y030610D02*
X044946Y030610D01*
X044806Y030709D02*
X045546Y030709D01*
X045856Y030709D02*
X047166Y030709D01*
X047093Y030807D02*
X044184Y030807D01*
X044257Y030906D02*
X047033Y030906D01*
X046871Y031004D02*
X044298Y031004D01*
X044301Y031103D02*
X046795Y031103D01*
X046754Y031201D02*
X044287Y031201D01*
X044247Y031300D02*
X046751Y031300D01*
X046763Y031398D02*
X044158Y031398D01*
X043643Y031398D02*
X042733Y031398D01*
X042813Y031497D02*
X046803Y031497D01*
X046798Y032285D02*
X025889Y032285D01*
X025879Y032383D02*
X046878Y032383D01*
X046720Y032777D02*
X047722Y032777D01*
X047849Y032876D02*
X046852Y032876D01*
X046915Y032974D02*
X047786Y032974D01*
X047751Y033073D02*
X046951Y033073D01*
X046951Y033171D02*
X047751Y033171D01*
X047771Y033270D02*
X046930Y033270D01*
X046888Y033368D02*
X047813Y033368D01*
X047912Y033467D02*
X046790Y033467D01*
X046051Y033664D02*
X059869Y033664D01*
X059945Y033762D02*
X046012Y033762D01*
X046087Y033861D02*
X048964Y033861D01*
X048974Y033851D02*
X049121Y033790D01*
X049280Y033790D01*
X049427Y033851D01*
X049540Y033963D01*
X049601Y034110D01*
X049601Y034270D01*
X049548Y034397D01*
X049677Y034451D01*
X049790Y034563D01*
X049851Y034710D01*
X049851Y034870D01*
X049790Y035017D01*
X049677Y035129D01*
X049530Y035190D01*
X049371Y035190D01*
X049224Y035129D01*
X049112Y035017D01*
X049051Y034870D01*
X049051Y034710D01*
X049104Y034583D01*
X048974Y034529D01*
X048862Y034417D01*
X048801Y034270D01*
X048801Y034110D01*
X048862Y033963D01*
X048974Y033851D01*
X048866Y033959D02*
X046186Y033959D01*
X046229Y034058D02*
X048822Y034058D01*
X048801Y034156D02*
X047283Y034156D01*
X047277Y034151D02*
X047390Y034263D01*
X047451Y034410D01*
X047451Y034440D01*
X047571Y034390D01*
X047730Y034390D01*
X047877Y034451D01*
X047990Y034563D01*
X048051Y034710D01*
X048051Y034870D01*
X047990Y035017D01*
X047877Y035129D01*
X047730Y035190D01*
X047571Y035190D01*
X047424Y035129D01*
X047312Y035017D01*
X047251Y034870D01*
X047251Y034840D01*
X047130Y034890D01*
X046971Y034890D01*
X046824Y034829D01*
X046712Y034717D01*
X046651Y034570D01*
X046651Y034410D01*
X046712Y034263D01*
X046824Y034151D01*
X046971Y034090D01*
X047130Y034090D01*
X047277Y034151D01*
X047381Y034255D02*
X048801Y034255D01*
X048835Y034353D02*
X047427Y034353D01*
X047878Y034452D02*
X048897Y034452D01*
X049025Y034550D02*
X047977Y034550D01*
X048025Y034649D02*
X049076Y034649D01*
X049051Y034747D02*
X048051Y034747D01*
X048051Y034846D02*
X049051Y034846D01*
X049082Y034944D02*
X048020Y034944D01*
X047964Y035043D02*
X049138Y035043D01*
X049253Y035141D02*
X047848Y035141D01*
X047453Y035141D02*
X021993Y035141D01*
X022001Y035240D02*
X059818Y035240D01*
X059801Y035338D02*
X021993Y035338D01*
X021952Y035437D02*
X059801Y035437D01*
X059815Y035535D02*
X021871Y035535D01*
X021952Y035043D02*
X047338Y035043D01*
X047282Y034944D02*
X046441Y034944D01*
X046561Y034846D02*
X046864Y034846D01*
X046742Y034747D02*
X046618Y034747D01*
X046651Y034649D02*
X046683Y034649D01*
X046651Y034550D02*
X046651Y034550D01*
X046651Y034452D02*
X046626Y034452D01*
X046580Y034353D02*
X046674Y034353D01*
X046720Y034255D02*
X046481Y034255D01*
X046251Y034156D02*
X046819Y034156D01*
X047237Y034846D02*
X047251Y034846D01*
X046061Y034944D02*
X021871Y034944D01*
X021694Y034846D02*
X045941Y034846D01*
X045485Y034353D02*
X041921Y034353D01*
X042020Y034255D02*
X045451Y034255D01*
X045451Y034156D02*
X042067Y034156D01*
X042099Y034058D02*
X045472Y034058D01*
X045497Y033959D02*
X042099Y033959D01*
X042082Y033861D02*
X045356Y033861D01*
X045289Y033762D02*
X042041Y033762D01*
X041958Y033664D02*
X045251Y033664D01*
X045251Y033565D02*
X041796Y033565D01*
X041505Y033565D02*
X019709Y033565D01*
X019750Y033467D02*
X039394Y033467D01*
X039397Y033470D02*
X039271Y033344D01*
X039203Y033179D01*
X039203Y033001D01*
X039271Y032836D01*
X039397Y032710D01*
X039561Y032642D01*
X039740Y032642D01*
X039904Y032710D01*
X040031Y032836D01*
X040099Y033001D01*
X040099Y033179D01*
X040031Y033344D01*
X039904Y033470D01*
X039740Y033538D01*
X039561Y033538D01*
X039397Y033470D01*
X039295Y033368D02*
X019761Y033368D01*
X019761Y033270D02*
X039240Y033270D01*
X039203Y033171D02*
X019733Y033171D01*
X019692Y033073D02*
X039203Y033073D01*
X039214Y032974D02*
X019606Y032974D01*
X019463Y032876D02*
X024915Y032876D01*
X024755Y032777D02*
X018659Y032777D01*
X018714Y032876D02*
X019039Y032876D01*
X018895Y032974D02*
X018755Y032974D01*
X018761Y033073D02*
X018809Y033073D01*
X018768Y033171D02*
X018761Y033171D01*
X018741Y033270D02*
X018728Y033270D01*
X018741Y033368D02*
X018687Y033368D01*
X018751Y033467D02*
X018595Y033467D01*
X018436Y033565D02*
X018792Y033565D01*
X019550Y033762D02*
X041260Y033762D01*
X041343Y033664D02*
X019648Y033664D01*
X018561Y032679D02*
X024657Y032679D01*
X025486Y032876D02*
X039254Y032876D01*
X039330Y032777D02*
X025647Y032777D01*
X025744Y032679D02*
X039472Y032679D01*
X039829Y032679D02*
X044564Y032679D01*
X044551Y032777D02*
X039972Y032777D01*
X040047Y032876D02*
X044553Y032876D01*
X044594Y032974D02*
X040088Y032974D01*
X040099Y033073D02*
X044668Y033073D01*
X044826Y033171D02*
X040099Y033171D01*
X040061Y033270D02*
X045405Y033270D01*
X045310Y033368D02*
X040006Y033368D01*
X039908Y033467D02*
X045269Y033467D01*
X044605Y032580D02*
X025809Y032580D01*
X025851Y032482D02*
X044693Y032482D01*
X044867Y029822D02*
X043350Y029822D01*
X043351Y029724D02*
X044769Y029724D01*
X044724Y029625D02*
X043336Y029625D01*
X043295Y029527D02*
X044701Y029527D01*
X044701Y029428D02*
X044009Y029428D01*
X044177Y029330D02*
X044734Y029330D01*
X044794Y029231D02*
X044254Y029231D01*
X044295Y029133D02*
X044918Y029133D01*
X044250Y028837D02*
X052001Y028837D01*
X052010Y028739D02*
X044165Y028739D01*
X043636Y028739D02*
X043542Y028739D01*
X043551Y028837D02*
X043552Y028837D01*
X043506Y029133D02*
X043424Y029133D01*
X043351Y029231D02*
X043547Y029231D01*
X043625Y029330D02*
X043346Y029330D01*
X043306Y029428D02*
X043793Y029428D01*
X042606Y029527D02*
X034191Y029527D01*
X034191Y029577D02*
X034138Y029630D01*
X034063Y029630D01*
X033063Y029630D01*
X033011Y029577D01*
X033011Y028603D01*
X033063Y028550D01*
X034138Y028550D01*
X034191Y028603D01*
X034191Y029577D01*
X034143Y029625D02*
X042565Y029625D01*
X042596Y029428D02*
X034191Y029428D01*
X034191Y029330D02*
X042555Y029330D01*
X042551Y029231D02*
X034191Y029231D01*
X034191Y029133D02*
X042562Y029133D01*
X042603Y029034D02*
X034191Y029034D01*
X034191Y028936D02*
X042689Y028936D01*
X042751Y028837D02*
X034191Y028837D01*
X034191Y028739D02*
X042760Y028739D01*
X042800Y028640D02*
X034191Y028640D01*
X033011Y028640D02*
X023944Y028640D01*
X023947Y028643D02*
X023994Y028647D01*
X024002Y028643D01*
X024031Y028650D01*
X024060Y028653D01*
X024066Y028660D01*
X024112Y028672D01*
X024120Y028669D01*
X024147Y028681D01*
X024175Y028689D01*
X024180Y028697D01*
X024223Y028717D01*
X024232Y028715D01*
X024256Y028732D01*
X024282Y028745D01*
X024285Y028753D01*
X024325Y028780D01*
X024334Y028780D01*
X024354Y028801D01*
X024378Y028818D01*
X024380Y028827D01*
X024414Y028861D01*
X024423Y028862D01*
X024439Y028886D01*
X024460Y028907D01*
X024460Y028916D01*
X024488Y028955D01*
X024496Y028958D01*
X024508Y028985D01*
X024525Y029009D01*
X024524Y029018D01*
X024544Y029061D01*
X024552Y029065D01*
X024559Y029094D01*
X024572Y029121D01*
X024569Y029129D01*
X024581Y029175D01*
X024588Y029181D01*
X024590Y029210D01*
X024598Y029239D01*
X024594Y029246D01*
X024598Y029294D01*
X024604Y029301D01*
X024601Y029330D01*
X024604Y029359D01*
X024598Y029366D01*
X024594Y029414D01*
X024598Y029421D01*
X024590Y029450D01*
X024588Y029479D01*
X024581Y029485D01*
X024569Y029531D01*
X024572Y029539D01*
X024559Y029566D01*
X024552Y029595D01*
X024544Y029599D01*
X024524Y029642D01*
X024525Y029651D01*
X024508Y029675D01*
X024496Y029702D01*
X024488Y029705D01*
X024460Y029744D01*
X024460Y029753D01*
X024439Y029774D01*
X024423Y029798D01*
X024414Y029799D01*
X024380Y029833D01*
X024378Y029842D01*
X024354Y029859D01*
X024334Y029880D01*
X024325Y029880D01*
X024285Y029907D01*
X024282Y029915D01*
X024256Y029928D01*
X024232Y029945D01*
X024223Y029943D01*
X024180Y029963D01*
X024175Y029971D01*
X024147Y029979D01*
X024120Y029991D01*
X024112Y029988D01*
X024066Y030000D01*
X024060Y030007D01*
X024031Y030010D01*
X024002Y030017D01*
X023994Y030013D01*
X023947Y030017D01*
X023940Y030023D01*
X023911Y030020D01*
X023881Y030023D01*
X023875Y030017D01*
X023827Y030013D01*
X023819Y030017D01*
X023791Y030010D01*
X023761Y030007D01*
X023756Y030000D01*
X023710Y029988D01*
X023701Y029991D01*
X023675Y029979D01*
X023646Y029971D01*
X023642Y029963D01*
X023598Y029943D01*
X023590Y029945D01*
X023565Y029928D01*
X023539Y029915D01*
X023536Y029907D01*
X023497Y029880D01*
X023488Y029880D01*
X023467Y029859D01*
X023443Y029842D01*
X023441Y029833D01*
X023407Y029799D01*
X023399Y029798D01*
X023382Y029774D01*
X023361Y029753D01*
X023361Y029744D01*
X023334Y029705D01*
X023325Y029702D01*
X023313Y029675D01*
X023296Y029651D01*
X023297Y029642D01*
X023277Y029599D01*
X023270Y029595D01*
X023262Y029566D01*
X023249Y029539D01*
X023253Y029531D01*
X023240Y029485D01*
X023233Y029479D01*
X023231Y029450D01*
X023223Y029421D01*
X023228Y029414D01*
X023223Y029366D01*
X023218Y029359D01*
X023220Y029330D01*
X023218Y029301D01*
X023223Y029294D01*
X023228Y029246D01*
X023223Y029239D01*
X023231Y029210D01*
X023233Y029181D01*
X023240Y029175D01*
X023253Y029129D01*
X023249Y029121D01*
X023262Y029094D01*
X023270Y029065D01*
X023277Y029061D01*
X023297Y029018D01*
X023296Y029009D01*
X023313Y028985D01*
X023325Y028958D01*
X023334Y028955D01*
X023361Y028916D01*
X023361Y028907D01*
X023382Y028886D01*
X023399Y028862D01*
X023407Y028861D01*
X023441Y028827D01*
X023443Y028818D01*
X023467Y028801D01*
X023488Y028780D01*
X023497Y028780D01*
X023536Y028753D01*
X023539Y028745D01*
X023565Y028732D01*
X023590Y028715D01*
X023598Y028717D01*
X023642Y028697D01*
X023646Y028689D01*
X023675Y028681D01*
X023701Y028669D01*
X023710Y028672D01*
X023756Y028660D01*
X023761Y028653D01*
X023791Y028650D01*
X023819Y028643D01*
X023827Y028647D01*
X023875Y028643D01*
X023881Y028637D01*
X023911Y028640D01*
X023940Y028637D01*
X023947Y028643D01*
X023878Y028640D02*
X021700Y028640D01*
X021815Y028542D02*
X042883Y028542D01*
X042083Y025291D02*
X066821Y025291D01*
X066859Y025193D02*
X042152Y025193D01*
X042192Y025094D02*
X066899Y025094D01*
X066995Y024996D02*
X042199Y024996D01*
X042197Y024897D02*
X067155Y024897D01*
X067010Y024799D02*
X042156Y024799D01*
X042095Y024700D02*
X066911Y024700D01*
X066865Y024602D02*
X041984Y024602D01*
X041456Y023617D02*
X066871Y023617D01*
X066830Y023518D02*
X041556Y023518D01*
X041626Y023420D02*
X066821Y023420D01*
X066821Y023321D02*
X041675Y023321D01*
X041704Y023223D02*
X066846Y023223D01*
X066887Y023124D02*
X041716Y023124D01*
X041717Y023026D02*
X066965Y023026D01*
X066926Y023715D02*
X041280Y023715D01*
X040782Y023715D02*
X019491Y023715D01*
X019590Y023617D02*
X040605Y023617D01*
X040353Y022927D02*
X037479Y022927D01*
X037578Y022829D02*
X040383Y022829D01*
X040429Y022730D02*
X037625Y022730D01*
X037651Y022632D02*
X040496Y022632D01*
X040595Y022533D02*
X037651Y022533D01*
X037619Y022435D02*
X040763Y022435D01*
X041299Y022435D02*
X043151Y022435D01*
X043151Y022336D02*
X037563Y022336D01*
X037445Y022238D02*
X043181Y022238D01*
X043177Y022533D02*
X041466Y022533D01*
X041565Y022632D02*
X043227Y022632D01*
X043327Y022730D02*
X041632Y022730D01*
X037663Y024503D02*
X018830Y024503D01*
X018827Y024501D02*
X018940Y024613D01*
X019001Y024760D01*
X019001Y024920D01*
X018940Y025065D01*
X019001Y025210D01*
X019001Y025370D01*
X018940Y025517D01*
X018827Y025629D01*
X018680Y025690D01*
X018521Y025690D01*
X018374Y025629D01*
X018262Y025517D01*
X018201Y025370D01*
X018201Y025210D01*
X018261Y025065D01*
X018201Y024920D01*
X018201Y024760D01*
X018262Y024613D01*
X018374Y024501D01*
X018521Y024440D01*
X018680Y024440D01*
X018827Y024501D01*
X018928Y024602D02*
X037555Y024602D01*
X037494Y024700D02*
X018976Y024700D01*
X019001Y024799D02*
X037453Y024799D01*
X037453Y024897D02*
X019001Y024897D01*
X018969Y024996D02*
X025373Y024996D01*
X025160Y025094D02*
X018953Y025094D01*
X018993Y025193D02*
X025038Y025193D01*
X024964Y025291D02*
X019001Y025291D01*
X018992Y025390D02*
X024918Y025390D01*
X024885Y025488D02*
X018951Y025488D01*
X018870Y025587D02*
X020258Y025587D01*
X020224Y025601D02*
X020371Y025540D01*
X020530Y025540D01*
X020677Y025601D01*
X020790Y025713D01*
X020851Y025860D01*
X020851Y026020D01*
X020790Y026167D01*
X020677Y026279D01*
X020530Y026340D01*
X020371Y026340D01*
X020224Y026279D01*
X020112Y026167D01*
X020051Y026020D01*
X020051Y025860D01*
X020112Y025713D01*
X020224Y025601D01*
X020140Y025685D02*
X018692Y025685D01*
X018510Y025685D02*
X008901Y025685D01*
X008901Y025587D02*
X018332Y025587D01*
X018250Y025488D02*
X008901Y025488D01*
X008901Y025390D02*
X018209Y025390D01*
X018201Y025291D02*
X008901Y025291D01*
X008901Y025193D02*
X018208Y025193D01*
X018249Y025094D02*
X008901Y025094D01*
X008901Y024996D02*
X018232Y024996D01*
X018201Y024897D02*
X008901Y024897D01*
X008901Y024799D02*
X018201Y024799D01*
X018226Y024700D02*
X008901Y024700D01*
X008901Y024602D02*
X018273Y024602D01*
X018372Y024503D02*
X011584Y024503D01*
X011118Y024503D02*
X008901Y024503D01*
X008901Y024405D02*
X010880Y024405D01*
X010778Y024306D02*
X008901Y024306D01*
X008901Y024208D02*
X010680Y024208D01*
X010614Y024109D02*
X008901Y024109D01*
X008901Y024011D02*
X010574Y024011D01*
X010533Y023912D02*
X008901Y023912D01*
X008901Y023814D02*
X010510Y023814D01*
X010510Y023715D02*
X008901Y023715D01*
X008901Y023617D02*
X010510Y023617D01*
X010512Y023518D02*
X008901Y023518D01*
X008901Y023420D02*
X010553Y023420D01*
X010594Y023321D02*
X008901Y023321D01*
X008901Y023223D02*
X010634Y023223D01*
X010728Y023124D02*
X008901Y023124D01*
X008901Y023026D02*
X010826Y023026D01*
X010996Y022927D02*
X008901Y022927D01*
X008901Y022829D02*
X022946Y022829D01*
X023074Y022730D02*
X008901Y022730D01*
X008901Y022632D02*
X034380Y022632D01*
X034278Y022533D02*
X008901Y022533D01*
X008901Y022435D02*
X034228Y022435D01*
X034201Y022336D02*
X008901Y022336D01*
X008901Y022238D02*
X034201Y022238D01*
X034230Y022139D02*
X013644Y022139D01*
X013745Y022041D02*
X034284Y022041D01*
X034395Y021942D02*
X013817Y021942D01*
X013858Y021844D02*
X051401Y021844D01*
X051401Y021745D02*
X013878Y021745D01*
X013878Y021647D02*
X051427Y021647D01*
X051477Y021548D02*
X013863Y021548D01*
X013822Y021450D02*
X051577Y021450D01*
X052024Y021450D02*
X052175Y021450D01*
X052126Y021548D02*
X052125Y021548D01*
X052274Y021351D02*
X013757Y021351D01*
X013094Y021154D02*
X008901Y021154D01*
X008901Y021056D02*
X012971Y021056D01*
X012891Y020957D02*
X008901Y020957D01*
X008901Y020859D02*
X012850Y020859D01*
X012823Y020760D02*
X008901Y020760D01*
X008901Y020662D02*
X012823Y020662D01*
X012833Y020563D02*
X008901Y020563D01*
X008901Y021253D02*
X013042Y021253D01*
X012944Y021351D02*
X008901Y021351D01*
X008901Y021450D02*
X012880Y021450D01*
X012839Y021548D02*
X008901Y021548D01*
X008901Y021647D02*
X012823Y021647D01*
X012823Y021745D02*
X008901Y021745D01*
X008901Y021844D02*
X012844Y021844D01*
X012885Y021942D02*
X008901Y021942D01*
X008901Y022041D02*
X012956Y022041D01*
X013058Y022139D02*
X008901Y022139D01*
X008901Y025784D02*
X015615Y025784D01*
X015574Y025801D02*
X015721Y025740D01*
X015880Y025740D01*
X016027Y025801D01*
X016140Y025913D01*
X016201Y026060D01*
X016201Y026220D01*
X016140Y026367D01*
X016027Y026479D01*
X015880Y026540D01*
X015721Y026540D01*
X015574Y026479D01*
X015462Y026367D01*
X015401Y026220D01*
X015401Y026060D01*
X015462Y025913D01*
X015574Y025801D01*
X015493Y025882D02*
X008901Y025882D01*
X008901Y025981D02*
X015434Y025981D01*
X015401Y026079D02*
X008901Y026079D01*
X008901Y026178D02*
X015401Y026178D01*
X015424Y026276D02*
X008901Y026276D01*
X008901Y026375D02*
X011122Y026375D01*
X010885Y026473D02*
X008901Y026473D01*
X008901Y026572D02*
X010780Y026572D01*
X010682Y026670D02*
X008901Y026670D01*
X008901Y026769D02*
X010615Y026769D01*
X010575Y026867D02*
X008901Y026867D01*
X008901Y026966D02*
X010534Y026966D01*
X010510Y027064D02*
X008901Y027064D01*
X008901Y027163D02*
X010510Y027163D01*
X010510Y027261D02*
X008901Y027261D01*
X008901Y027360D02*
X010511Y027360D01*
X010552Y027458D02*
X008901Y027458D01*
X008901Y027557D02*
X010593Y027557D01*
X010634Y027655D02*
X008901Y027655D01*
X008901Y027754D02*
X010726Y027754D01*
X010824Y027852D02*
X008901Y027852D01*
X008901Y027951D02*
X010991Y027951D01*
X011710Y027951D02*
X019745Y027951D01*
X019771Y027940D02*
X019930Y027940D01*
X020077Y028001D01*
X020190Y028113D01*
X020251Y028260D01*
X020251Y028420D01*
X020190Y028567D01*
X020077Y028679D01*
X019930Y028740D01*
X019771Y028740D01*
X019624Y028679D01*
X019512Y028567D01*
X019451Y028420D01*
X019451Y028260D01*
X019512Y028113D01*
X019624Y028001D01*
X019771Y027940D01*
X019956Y027951D02*
X021274Y027951D01*
X021176Y028049D02*
X020126Y028049D01*
X020204Y028148D02*
X021127Y028148D01*
X021101Y028246D02*
X020245Y028246D01*
X020251Y028345D02*
X021101Y028345D01*
X021131Y028443D02*
X020241Y028443D01*
X020200Y028542D02*
X021187Y028542D01*
X021301Y028640D02*
X020116Y028640D01*
X019933Y028739D02*
X023551Y028739D01*
X023431Y028837D02*
X014854Y028837D01*
X014893Y028936D02*
X023347Y028936D01*
X023290Y029034D02*
X014927Y029034D01*
X014946Y029133D02*
X023252Y029133D01*
X023225Y029231D02*
X014949Y029231D01*
X014944Y029330D02*
X023220Y029330D01*
X023225Y029428D02*
X014931Y029428D01*
X014901Y029527D02*
X023251Y029527D01*
X023290Y029625D02*
X014856Y029625D01*
X014797Y029724D02*
X023347Y029724D01*
X023430Y029822D02*
X014724Y029822D01*
X014615Y029921D02*
X023550Y029921D01*
X023877Y030019D02*
X014434Y030019D01*
X014790Y028739D02*
X019768Y028739D01*
X019585Y028640D02*
X014707Y028640D01*
X014589Y028542D02*
X019501Y028542D01*
X019460Y028443D02*
X014394Y028443D01*
X015568Y026473D02*
X011817Y026473D01*
X011921Y026572D02*
X055902Y026572D01*
X055871Y026473D02*
X016033Y026473D01*
X016132Y026375D02*
X028220Y026375D01*
X028121Y026276D02*
X025856Y026276D01*
X026010Y026178D02*
X028075Y026178D01*
X028051Y026079D02*
X026100Y026079D01*
X026165Y025981D02*
X028051Y025981D01*
X028083Y025882D02*
X026206Y025882D01*
X026230Y025784D02*
X028141Y025784D01*
X028262Y025685D02*
X026243Y025685D01*
X026063Y025193D02*
X037570Y025193D01*
X037500Y025094D02*
X025942Y025094D01*
X025729Y024996D02*
X037459Y024996D01*
X033011Y028739D02*
X024270Y028739D01*
X024390Y028837D02*
X033011Y028837D01*
X033011Y028936D02*
X029674Y028936D01*
X029691Y029034D02*
X033011Y029034D01*
X033011Y029133D02*
X029691Y029133D01*
X029691Y029231D02*
X033011Y029231D01*
X033011Y029330D02*
X029691Y029330D01*
X029691Y029428D02*
X033011Y029428D01*
X033011Y029527D02*
X029691Y029527D01*
X029691Y029625D02*
X033059Y029625D01*
X032675Y031201D02*
X032658Y031225D01*
X032646Y031252D01*
X032638Y031255D01*
X032610Y031294D01*
X032610Y031303D01*
X029691Y030019D02*
X038626Y030019D01*
X038626Y029921D02*
X029691Y029921D01*
X029691Y029822D02*
X038626Y029822D01*
X038626Y029724D02*
X029691Y029724D01*
X027761Y029724D02*
X024474Y029724D01*
X024532Y029625D02*
X027761Y029625D01*
X027761Y029527D02*
X024570Y029527D01*
X024596Y029428D02*
X027761Y029428D01*
X027761Y029330D02*
X024601Y029330D01*
X024596Y029231D02*
X027761Y029231D01*
X027761Y029133D02*
X024570Y029133D01*
X024532Y029034D02*
X027761Y029034D01*
X027778Y028936D02*
X024474Y028936D01*
X024391Y029822D02*
X027761Y029822D01*
X027761Y029921D02*
X024271Y029921D01*
X023944Y030019D02*
X027761Y030019D01*
X025720Y031792D02*
X036680Y031792D01*
X036600Y031694D02*
X025605Y031694D01*
X025792Y031891D02*
X036797Y031891D01*
X037044Y031989D02*
X025843Y031989D01*
X025869Y032088D02*
X040683Y032088D01*
X040630Y031989D02*
X037297Y031989D01*
X037544Y031891D02*
X040601Y031891D01*
X040601Y031792D02*
X037661Y031792D01*
X037862Y031300D02*
X038626Y031300D01*
X038626Y031201D02*
X037853Y031201D01*
X037831Y031103D02*
X038626Y031103D01*
X038626Y031004D02*
X037787Y031004D01*
X037727Y030906D02*
X038626Y030906D01*
X038626Y030807D02*
X037640Y030807D01*
X037511Y030709D02*
X038626Y030709D01*
X040791Y032186D02*
X025885Y032186D01*
X019451Y028345D02*
X008901Y028345D01*
X008901Y028246D02*
X019456Y028246D01*
X019497Y028148D02*
X008901Y028148D01*
X008901Y028049D02*
X019576Y028049D01*
X020221Y026276D02*
X016177Y026276D01*
X016201Y026178D02*
X020123Y026178D01*
X020075Y026079D02*
X016201Y026079D01*
X016168Y025981D02*
X020051Y025981D01*
X020051Y025882D02*
X016109Y025882D01*
X015986Y025784D02*
X020082Y025784D01*
X020643Y025587D02*
X024867Y025587D01*
X024858Y025685D02*
X020762Y025685D01*
X020819Y025784D02*
X024871Y025784D01*
X024895Y025882D02*
X020851Y025882D01*
X020851Y025981D02*
X024936Y025981D01*
X025001Y026079D02*
X020826Y026079D01*
X020779Y026178D02*
X025091Y026178D01*
X025245Y026276D02*
X020680Y026276D01*
X018797Y024109D02*
X066893Y024109D01*
X066980Y024011D02*
X018892Y024011D01*
X018997Y023912D02*
X067119Y023912D01*
X067025Y023814D02*
X019143Y023814D01*
X015470Y026375D02*
X011579Y026375D01*
X012020Y026670D02*
X055943Y026670D01*
X056030Y026769D02*
X012086Y026769D01*
X013828Y020465D02*
X052960Y020465D01*
X052861Y020366D02*
X013772Y020366D01*
X013674Y020268D02*
X052821Y020268D01*
X052801Y020169D02*
X013471Y020169D01*
X015133Y019874D02*
X052901Y019874D01*
X053036Y019775D02*
X015207Y019775D01*
X018793Y019381D02*
X057212Y019381D01*
X057280Y019283D02*
X018885Y019283D01*
X018926Y019184D02*
X057379Y019184D01*
X058023Y019184D02*
X066862Y019184D01*
X066821Y019283D02*
X058121Y019283D01*
X058189Y019381D02*
X066821Y019381D01*
X066821Y019480D02*
X058230Y019480D01*
X058251Y019578D02*
X066855Y019578D01*
X066896Y019677D02*
X058251Y019677D01*
X058240Y019775D02*
X066986Y019775D01*
X067134Y019874D02*
X058199Y019874D01*
X058146Y019972D02*
X067019Y019972D01*
X066920Y020071D02*
X058048Y020071D01*
X057860Y020169D02*
X066868Y020169D01*
X066905Y019086D02*
X018949Y019086D01*
X018949Y018987D02*
X067004Y018987D01*
X067170Y018889D02*
X018923Y018889D01*
X018882Y018790D02*
X067001Y018790D01*
X066903Y018692D02*
X018786Y018692D01*
X028818Y025882D02*
X056241Y025882D01*
X056060Y025981D02*
X028851Y025981D01*
X028851Y026079D02*
X055962Y026079D01*
X055915Y026178D02*
X028827Y026178D01*
X028780Y026276D02*
X055874Y026276D01*
X055871Y026375D02*
X028682Y026375D01*
X031344Y039081D02*
X024504Y039081D01*
X024427Y039180D02*
X031161Y039180D01*
X031657Y039081D02*
X032344Y039081D01*
X032161Y039180D02*
X031840Y039180D01*
X031938Y039278D02*
X032063Y039278D01*
X032015Y039377D02*
X031986Y039377D01*
X031965Y040854D02*
X032036Y040854D01*
X032114Y040953D02*
X031887Y040953D01*
X020261Y040066D02*
X019890Y040066D01*
X019989Y039968D02*
X020163Y039968D01*
X020121Y039869D02*
X020030Y039869D01*
X020051Y039771D02*
X020101Y039771D01*
X020101Y039672D02*
X020051Y039672D01*
X020015Y039574D02*
X020137Y039574D01*
X020200Y039475D02*
X019952Y039475D01*
X019819Y039377D02*
X020332Y039377D01*
X019482Y039377D02*
X019366Y039377D01*
X019271Y039869D02*
X019237Y039869D01*
X048479Y031103D02*
X066896Y031103D01*
X066855Y031201D02*
X048578Y031201D01*
X048625Y031300D02*
X066821Y031300D01*
X062155Y032876D02*
X061546Y032876D01*
X061713Y032974D02*
X061989Y032974D01*
X061890Y033073D02*
X061811Y033073D01*
X061155Y032876D02*
X060546Y032876D01*
X060713Y032974D02*
X060989Y032974D01*
X060890Y033073D02*
X060811Y033073D01*
X060155Y032876D02*
X052401Y032876D01*
X052378Y032974D02*
X059989Y032974D01*
X059890Y033073D02*
X052334Y033073D01*
X052235Y033171D02*
X059846Y033171D01*
X060050Y033861D02*
X049437Y033861D01*
X049536Y033959D02*
X060004Y033959D01*
X059905Y034058D02*
X049579Y034058D01*
X049601Y034156D02*
X059852Y034156D01*
X059811Y034255D02*
X049601Y034255D01*
X049566Y034353D02*
X052989Y034353D01*
X053021Y034340D02*
X053180Y034340D01*
X053327Y034401D01*
X053440Y034513D01*
X053501Y034660D01*
X053501Y034820D01*
X053440Y034967D01*
X053327Y035079D01*
X053180Y035140D01*
X053021Y035140D01*
X052874Y035079D01*
X052762Y034967D01*
X052701Y034820D01*
X052701Y034660D01*
X052762Y034513D01*
X052874Y034401D01*
X053021Y034340D01*
X053212Y034353D02*
X059801Y034353D01*
X059801Y034452D02*
X053378Y034452D01*
X053455Y034550D02*
X059822Y034550D01*
X059863Y034649D02*
X053496Y034649D01*
X053501Y034747D02*
X059930Y034747D01*
X060029Y034846D02*
X053490Y034846D01*
X053449Y034944D02*
X060019Y034944D01*
X059920Y035043D02*
X053364Y035043D01*
X052838Y035043D02*
X049764Y035043D01*
X049820Y034944D02*
X052752Y034944D01*
X052711Y034846D02*
X049851Y034846D01*
X049851Y034747D02*
X052701Y034747D01*
X052705Y034649D02*
X049825Y034649D01*
X049777Y034550D02*
X052746Y034550D01*
X052823Y034452D02*
X049678Y034452D01*
X049648Y035141D02*
X059858Y035141D01*
X052050Y028640D02*
X049250Y028640D01*
X049365Y028542D02*
X052133Y028542D01*
X053442Y020465D02*
X056260Y020465D01*
X056161Y020366D02*
X053540Y020366D01*
X053581Y020268D02*
X056121Y020268D01*
X056101Y020169D02*
X053601Y020169D01*
X053601Y020071D02*
X056101Y020071D01*
X056137Y019972D02*
X053564Y019972D01*
X053500Y019874D02*
X056201Y019874D01*
X056336Y019775D02*
X053365Y019775D01*
X055823Y015934D02*
X056235Y015934D01*
X056130Y015835D02*
X055903Y015835D01*
D20*
X033601Y029090D03*
X025201Y032240D03*
X023901Y029290D03*
X019751Y027290D03*
X015851Y018390D03*
M02*
