G75*
%MOIN*%
%OFA0B0*%
%FSLAX24Y24*%
%IPPOS*%
%LPD*%
%AMOC8*
5,1,8,0,0,1.08239X$1,22.5*
%
%ADD10R,0.0415X0.0190*%
%ADD11R,0.0190X0.0415*%
%ADD12R,0.1143X0.1143*%
%ADD13C,0.0516*%
%ADD14R,0.0434X0.0592*%
%ADD15R,0.0395X0.0395*%
%ADD16R,0.0297X0.0474*%
%ADD17R,0.0434X0.0316*%
%ADD18R,0.0474X0.0631*%
%ADD19R,0.1064X0.0434*%
%ADD20R,0.2285X0.0434*%
%ADD21R,0.0592X0.0434*%
%ADD22R,0.0710X0.0434*%
%ADD23R,0.0316X0.0434*%
%ADD24R,0.0434X0.0710*%
%ADD25C,0.0634*%
%ADD26C,0.1261*%
%ADD27C,0.0680*%
%ADD28R,0.4332X0.4178*%
%ADD29R,0.0500X0.0930*%
%ADD30R,0.0710X0.1655*%
%ADD31R,0.0356X0.0592*%
%ADD32R,0.0946X0.0316*%
%ADD33R,0.0631X0.0474*%
%ADD34R,2.0356X0.0474*%
%ADD35R,0.0474X2.0356*%
%ADD36OC8,0.0600*%
%ADD37R,0.0592X0.0356*%
%ADD38R,0.0178X0.0474*%
%ADD39R,0.0580X0.0300*%
%ADD40R,0.0300X0.0580*%
%ADD41C,0.0680*%
%ADD42OC8,0.0680*%
%ADD43R,0.0356X0.0277*%
%ADD44OC8,0.0640*%
%ADD45R,0.0434X0.0174*%
%ADD46R,0.0174X0.0434*%
%ADD47R,0.0671X0.0671*%
%ADD48R,0.0277X0.0356*%
%ADD49R,0.0552X0.0297*%
%ADD50C,0.0060*%
%ADD51C,0.0710*%
%ADD52OC8,0.0710*%
%ADD53C,0.1180*%
%ADD54R,0.0490X0.0470*%
%ADD55R,0.0950X0.0490*%
%ADD56R,0.0560X0.0960*%
%ADD57R,0.1497X0.0946*%
%ADD58R,0.0474X0.0356*%
%ADD59C,0.0516*%
%ADD60C,0.0476*%
%ADD61C,0.0437*%
D10*
X039973Y029446D03*
X039973Y029643D03*
X039973Y029840D03*
X039973Y030037D03*
X039973Y030234D03*
X041528Y030234D03*
X041528Y030037D03*
X041528Y029840D03*
X041528Y029643D03*
X041528Y029446D03*
D11*
X041144Y029062D03*
X040947Y029062D03*
X040751Y029062D03*
X040554Y029062D03*
X040357Y029062D03*
X040357Y030618D03*
X040554Y030618D03*
X040751Y030618D03*
X040947Y030618D03*
X041144Y030618D03*
D12*
X040751Y029840D03*
D13*
X041001Y029590D03*
X041001Y030090D03*
X040501Y030090D03*
X040501Y029590D03*
D14*
X038775Y032040D03*
X038027Y032040D03*
X038027Y032840D03*
X038775Y032840D03*
X041327Y024340D03*
X042075Y024340D03*
X035375Y023090D03*
X034627Y023090D03*
X022795Y023080D03*
X022047Y023080D03*
X020325Y022640D03*
X019577Y022640D03*
X053477Y015740D03*
X054225Y015740D03*
D15*
X052896Y014590D03*
X052305Y014590D03*
X039901Y024895D03*
X039901Y025485D03*
X036646Y027040D03*
X036055Y027040D03*
X036201Y024535D03*
X036201Y023945D03*
X042401Y028145D03*
X042401Y028735D03*
X042596Y030640D03*
X042005Y030640D03*
X042246Y031200D03*
X041655Y031200D03*
X040046Y031740D03*
X039455Y031740D03*
X040005Y032740D03*
X040596Y032740D03*
X041151Y032745D03*
X041151Y033335D03*
X044455Y032190D03*
X045046Y032190D03*
X049951Y032085D03*
X049951Y031495D03*
X053551Y031595D03*
X053551Y032185D03*
X052501Y034695D03*
X052501Y035285D03*
X047946Y039790D03*
X047355Y039790D03*
X039146Y042490D03*
X038555Y042490D03*
X024596Y038240D03*
X024005Y038240D03*
X021746Y035740D03*
X021155Y035740D03*
X025351Y027085D03*
X025351Y026495D03*
X022881Y024935D03*
X022881Y024345D03*
X021491Y024755D03*
X021491Y025345D03*
X020796Y024040D03*
X020205Y024040D03*
X020346Y023490D03*
X019755Y023490D03*
X016551Y020135D03*
X016551Y019545D03*
X017801Y017435D03*
X017801Y016845D03*
X058655Y026390D03*
X059246Y026390D03*
X059246Y027390D03*
X058655Y027390D03*
X058655Y028390D03*
X059246Y028390D03*
X059246Y029390D03*
X058655Y029390D03*
D16*
X039495Y029949D03*
X038806Y029949D03*
X038806Y031131D03*
X039495Y031131D03*
D17*
X040531Y031055D03*
X040531Y031645D03*
X039451Y032145D03*
X039451Y032735D03*
X044051Y030185D03*
X044051Y029595D03*
X041151Y028485D03*
X041151Y027895D03*
X041351Y025585D03*
X041351Y024995D03*
X034651Y024535D03*
X034651Y023945D03*
X026851Y025895D03*
X026851Y026485D03*
X023801Y024885D03*
X023801Y024295D03*
X018501Y018535D03*
X018501Y017945D03*
X013951Y018085D03*
X013951Y017495D03*
X047351Y040395D03*
X047351Y040985D03*
X052401Y032185D03*
X052401Y031595D03*
X053001Y031595D03*
X053001Y032185D03*
D18*
X038725Y029223D03*
X037977Y029223D03*
X038351Y028357D03*
D19*
X035201Y029680D03*
X035201Y030900D03*
X032801Y030900D03*
X032801Y029680D03*
X026801Y029680D03*
X026801Y030900D03*
X024351Y030900D03*
X024351Y029680D03*
D20*
X022501Y029438D03*
X022501Y031642D03*
D21*
X026151Y027264D03*
X026151Y026516D03*
X027651Y026664D03*
X027651Y025916D03*
X022171Y024984D03*
X022171Y024236D03*
X021151Y022664D03*
X021151Y021916D03*
X017251Y020264D03*
X017251Y019516D03*
X018501Y017464D03*
X018501Y016716D03*
X035451Y023766D03*
X035451Y024514D03*
X040651Y024816D03*
X040651Y025564D03*
X042151Y032566D03*
X042151Y033314D03*
X035751Y043816D03*
X035751Y044564D03*
X020651Y037464D03*
X020651Y036716D03*
X055651Y021764D03*
X055651Y021016D03*
X056001Y016864D03*
X056001Y016116D03*
D22*
X038351Y026469D03*
X037451Y026430D03*
X037451Y027650D03*
X038351Y027611D03*
X038001Y029930D03*
X038001Y031150D03*
X032801Y031430D03*
X032801Y032650D03*
X032801Y029150D03*
X032801Y027930D03*
X026801Y027930D03*
X026801Y029150D03*
X024401Y029000D03*
X023401Y028961D03*
X023401Y027819D03*
X024401Y027780D03*
X024651Y024850D03*
X024651Y023630D03*
X019251Y030219D03*
X019251Y031361D03*
X026801Y031430D03*
X026801Y032650D03*
D23*
X022496Y027790D03*
X021905Y027790D03*
X022785Y023790D03*
X023376Y023790D03*
X020196Y021890D03*
X019605Y021890D03*
X015996Y019640D03*
X015405Y019640D03*
X036105Y026490D03*
X036696Y026490D03*
X036696Y027590D03*
X036105Y027590D03*
X041455Y031720D03*
X042046Y031720D03*
X040596Y033340D03*
X040005Y033340D03*
X042905Y028390D03*
X043496Y028390D03*
X038346Y023190D03*
X037755Y023190D03*
X037755Y022590D03*
X038346Y022590D03*
X052505Y033440D03*
X053096Y033440D03*
X053096Y034090D03*
X052505Y034090D03*
X061055Y031890D03*
X061646Y031890D03*
X061646Y031290D03*
X061055Y031290D03*
X057146Y021790D03*
X056555Y021790D03*
X056555Y016090D03*
X057146Y016090D03*
X037746Y042490D03*
X037155Y042490D03*
D24*
X021021Y029590D03*
X019880Y029590D03*
X020330Y027790D03*
X021471Y027790D03*
X021461Y026790D03*
X020240Y026790D03*
X039180Y023190D03*
X040321Y023190D03*
D25*
X013628Y021690D02*
X013073Y021690D01*
X013073Y020690D02*
X013628Y020690D01*
X013628Y014190D02*
X013073Y014190D01*
X013073Y013190D02*
X013628Y013190D01*
X013628Y028190D02*
X013073Y028190D01*
X013073Y029190D02*
X013628Y029190D01*
D26*
X011351Y031190D03*
X011351Y027190D03*
X011351Y023690D03*
X011351Y019690D03*
X011351Y016190D03*
X011351Y012190D03*
D27*
X048551Y041390D02*
X048551Y041990D01*
X049551Y041990D02*
X049551Y041390D01*
X050551Y041390D02*
X050551Y041990D01*
X051551Y041990D02*
X051551Y041390D01*
X052551Y041390D02*
X052551Y041990D01*
X053551Y041990D02*
X053551Y041390D01*
X057401Y019640D02*
X058001Y019640D01*
X058001Y018640D02*
X057401Y018640D01*
X057401Y017640D02*
X058001Y017640D01*
D28*
X054901Y011290D03*
D29*
X054901Y014570D03*
X055571Y014570D03*
X056241Y014570D03*
X054231Y014570D03*
X053561Y014570D03*
D30*
X061301Y013592D03*
X061301Y016388D03*
X062051Y018342D03*
X062051Y021138D03*
D31*
X036775Y029690D03*
X036027Y029690D03*
X034375Y029690D03*
X033627Y029690D03*
X033627Y030890D03*
X034375Y030890D03*
X036027Y030890D03*
X036775Y030890D03*
X028475Y030890D03*
X027727Y030890D03*
X027727Y029690D03*
X028475Y029690D03*
X025975Y029490D03*
X025227Y029490D03*
X025227Y030890D03*
X025975Y030890D03*
X025175Y031740D03*
X024427Y031740D03*
X024877Y036240D03*
X025625Y036240D03*
X021525Y025940D03*
X020777Y025940D03*
X015575Y016840D03*
X014827Y016840D03*
D32*
X014977Y017490D03*
X014977Y017990D03*
X014977Y018490D03*
X014977Y018990D03*
X017024Y018990D03*
X017024Y018490D03*
X017024Y017990D03*
X017024Y017490D03*
X022477Y025490D03*
X022477Y025990D03*
X022477Y026490D03*
X022477Y026990D03*
X024524Y026990D03*
X024524Y026490D03*
X024524Y025990D03*
X024524Y025490D03*
X037027Y025590D03*
X037027Y025090D03*
X037027Y024590D03*
X037027Y024090D03*
X039074Y024090D03*
X039074Y024590D03*
X039074Y025090D03*
X039074Y025590D03*
X023824Y036240D03*
X023824Y036740D03*
X023824Y037240D03*
X023824Y037740D03*
X021777Y037740D03*
X021777Y037240D03*
X021777Y036740D03*
X021777Y036240D03*
D33*
X025118Y033664D03*
X025984Y033290D03*
X025118Y032916D03*
D34*
X040738Y035451D03*
X040738Y015569D03*
D35*
X050679Y025510D03*
X030797Y025510D03*
D36*
X020251Y033090D03*
X019251Y033340D03*
X018251Y033090D03*
D37*
X018251Y036716D03*
X018251Y037464D03*
X018951Y038266D03*
X019601Y037464D03*
X020601Y038266D03*
X021501Y038266D03*
X021501Y039014D03*
X020601Y039014D03*
X018951Y039014D03*
X019601Y036716D03*
X022801Y032914D03*
X022801Y032166D03*
D38*
X019744Y025772D03*
X019547Y025772D03*
X019351Y025772D03*
X019154Y025772D03*
X018957Y025772D03*
X018957Y024108D03*
X019154Y024108D03*
X019351Y024108D03*
X019547Y024108D03*
X019744Y024108D03*
D39*
X045661Y030888D03*
X045661Y031203D03*
X045661Y031518D03*
X045661Y031833D03*
X045661Y032147D03*
X045661Y032462D03*
X045661Y032777D03*
X045661Y033092D03*
X049041Y033092D03*
X049041Y032777D03*
X049041Y032462D03*
X049041Y032147D03*
X049041Y031833D03*
X049041Y031518D03*
X049041Y031203D03*
X049041Y030888D03*
D40*
X048453Y030300D03*
X048138Y030300D03*
X047823Y030300D03*
X047508Y030300D03*
X047193Y030300D03*
X046878Y030300D03*
X046563Y030300D03*
X046248Y030300D03*
X046248Y033680D03*
X046563Y033680D03*
X046878Y033680D03*
X047193Y033680D03*
X047508Y033680D03*
X047823Y033680D03*
X048138Y033680D03*
X048453Y033680D03*
D41*
X043251Y041190D03*
D42*
X044251Y041190D03*
X045251Y041190D03*
X045251Y042190D03*
X044251Y042190D03*
X043251Y042190D03*
X060351Y040390D03*
X061351Y040390D03*
X062351Y040390D03*
X062351Y039390D03*
X062351Y038390D03*
X061351Y038390D03*
X061351Y039390D03*
X060351Y039390D03*
X060351Y038390D03*
X060351Y037390D03*
X061351Y037390D03*
X062351Y037390D03*
X062351Y036390D03*
X061351Y036390D03*
X060351Y036390D03*
X060351Y035390D03*
X061351Y035390D03*
X062351Y035390D03*
X062351Y034390D03*
X061351Y034390D03*
X060351Y034390D03*
X060351Y033390D03*
X061351Y033390D03*
X062351Y033390D03*
D43*
X053026Y032840D03*
X052514Y032840D03*
X046416Y029180D03*
X045904Y029180D03*
D44*
X055401Y029390D03*
X056401Y029390D03*
X056401Y028390D03*
X055401Y028390D03*
X055401Y027390D03*
X056401Y027390D03*
X056401Y026390D03*
X055401Y026390D03*
X032501Y039590D03*
X031501Y039590D03*
X031501Y040590D03*
X032501Y040590D03*
X032501Y041590D03*
X032501Y042590D03*
X031501Y042590D03*
X031501Y041590D03*
D45*
X036340Y041285D03*
X036340Y041088D03*
X036340Y040892D03*
X036340Y040695D03*
X037561Y040695D03*
X037561Y040892D03*
X037561Y041088D03*
X037561Y041285D03*
D46*
X037246Y041600D03*
X037049Y041600D03*
X036852Y041600D03*
X036655Y041600D03*
X036655Y040380D03*
X036852Y040380D03*
X037049Y040380D03*
X037246Y040380D03*
D47*
X036951Y040990D03*
D48*
X038301Y043804D03*
X038301Y044316D03*
X034951Y044466D03*
X034951Y043954D03*
X050551Y043576D03*
X050551Y043064D03*
D49*
X037562Y043816D03*
X037562Y044190D03*
X037562Y044564D03*
X036539Y044564D03*
X036539Y043816D03*
D50*
X008451Y010200D02*
X008451Y007200D01*
X011451Y007200D01*
X008451Y043580D02*
X008451Y046580D01*
X011451Y046580D01*
X068451Y046580D02*
X071451Y046580D01*
X071451Y043580D01*
X071451Y010200D02*
X071451Y007200D01*
X068451Y007200D01*
D51*
X069351Y042390D03*
D52*
X069351Y041390D03*
X069351Y040390D03*
X069351Y039390D03*
X069351Y038390D03*
X069351Y037390D03*
X069351Y036390D03*
X069351Y035390D03*
X069351Y034390D03*
X069351Y033390D03*
X069351Y032390D03*
X069351Y031390D03*
X069351Y030390D03*
X069351Y029390D03*
X069351Y028390D03*
X069351Y027390D03*
X069351Y026390D03*
X069351Y025390D03*
X069351Y024390D03*
X069351Y023390D03*
X069351Y022390D03*
X069351Y021390D03*
X069351Y020390D03*
X069351Y019390D03*
X069351Y018390D03*
X069351Y017390D03*
X069351Y016390D03*
X069351Y015390D03*
X069351Y014390D03*
X069351Y013390D03*
X069351Y012390D03*
X069351Y011390D03*
X067351Y011390D03*
X067351Y012390D03*
X067351Y013390D03*
X067351Y014390D03*
X067351Y015390D03*
X067351Y016390D03*
X067351Y017390D03*
X067351Y018390D03*
X067351Y019390D03*
X067351Y020390D03*
X067351Y021390D03*
X067351Y022390D03*
X067351Y023390D03*
X067351Y024390D03*
X067351Y025390D03*
X067351Y026390D03*
X067351Y027390D03*
X067351Y028390D03*
X067351Y029390D03*
X067351Y030390D03*
X067351Y031390D03*
X067351Y032390D03*
X067351Y033390D03*
X067351Y034390D03*
X067351Y035390D03*
X067351Y036390D03*
X067351Y037390D03*
X067351Y038390D03*
X067351Y039390D03*
X067351Y040390D03*
X067351Y041390D03*
X067351Y042390D03*
D53*
X070351Y044390D03*
X070351Y009390D03*
X009851Y009390D03*
D54*
X017396Y026440D03*
D55*
X016801Y025860D03*
X016801Y027020D03*
D56*
X018341Y032370D03*
X019251Y032370D03*
X020161Y032370D03*
D57*
X019251Y034810D03*
D58*
X042439Y029964D03*
X042439Y029216D03*
X043462Y029216D03*
X043462Y029590D03*
X043462Y029964D03*
D59*
X043101Y030640D03*
X042711Y031190D03*
X040151Y034440D03*
X038301Y034340D03*
X035601Y034340D03*
X033951Y033490D03*
X035551Y032790D03*
X032001Y034390D03*
X028651Y034790D03*
X027251Y033640D03*
X025751Y035040D03*
X027201Y036390D03*
X029101Y039090D03*
X028401Y040640D03*
X026351Y043890D03*
X023251Y044040D03*
X022751Y042090D03*
X018951Y042240D03*
X017851Y044290D03*
X015551Y043690D03*
X014701Y040240D03*
X033701Y026240D03*
X032851Y025040D03*
X033251Y023390D03*
X031751Y023340D03*
X033201Y019690D03*
X032501Y018640D03*
X033001Y016540D03*
X029201Y018140D03*
X028001Y019290D03*
X025551Y019140D03*
X024301Y017590D03*
X023001Y019340D03*
X027201Y016790D03*
X022901Y012640D03*
X019951Y013740D03*
X015401Y012740D03*
X015201Y010440D03*
X017501Y009690D03*
X028201Y012090D03*
X030001Y008890D03*
X033951Y012090D03*
X040001Y008940D03*
X041301Y012090D03*
X037351Y017540D03*
X036701Y019790D03*
X042001Y023390D03*
X042951Y022940D03*
X044451Y024440D03*
X046351Y024590D03*
X045801Y023090D03*
X043001Y026090D03*
X041251Y027040D03*
X040201Y024440D03*
X043251Y019040D03*
X046151Y018590D03*
X048401Y019140D03*
X052951Y015740D03*
X052551Y015240D03*
X052101Y013690D03*
X050451Y011990D03*
X048601Y008790D03*
X054901Y015390D03*
X057751Y012490D03*
X059651Y008840D03*
X062651Y009840D03*
X066351Y008990D03*
X066151Y022590D03*
X062901Y024040D03*
X061301Y023840D03*
X061401Y025640D03*
X064151Y025490D03*
X065501Y025240D03*
X063101Y029040D03*
X064351Y029290D03*
X063201Y030790D03*
X064751Y031340D03*
X065801Y031440D03*
X065401Y033240D03*
X063651Y033240D03*
X066151Y035340D03*
X061101Y028940D03*
X056201Y034190D03*
X054301Y036040D03*
X056251Y036690D03*
X056451Y038740D03*
X057101Y040940D03*
X051901Y038590D03*
X051951Y036390D03*
X064401Y042290D03*
X065201Y043840D03*
X068001Y044340D03*
X037501Y036890D03*
X034801Y038090D03*
D60*
X039651Y033090D03*
X041651Y033990D03*
X042421Y031720D03*
X037151Y031290D03*
X032051Y030890D03*
X028801Y030890D03*
X028851Y029690D03*
X027401Y027940D03*
X026141Y027730D03*
X025431Y027540D03*
X025551Y025690D03*
X021391Y024110D03*
X020791Y024710D03*
X020791Y023410D03*
X021441Y023260D03*
X021991Y022410D03*
X018501Y019040D03*
X020701Y016040D03*
X036001Y022740D03*
X036151Y023340D03*
X037901Y024890D03*
X041051Y023090D03*
X041751Y024990D03*
X040401Y019690D03*
X038501Y019040D03*
X041501Y017440D03*
X044501Y017390D03*
X048601Y017540D03*
X049351Y020890D03*
D61*
X033601Y029090D03*
X025201Y032240D03*
X023901Y029290D03*
X019751Y027290D03*
X015851Y018390D03*
M02*
